%TF.GenerationSoftware,KiCad,Pcbnew,10.0.4*%
%TF.CreationDate,2026-07-08T20:28:40-05:00*%
%TF.ProjectId,led_solenoid_valve_pcb,6c65645f-736f-46c6-956e-6f69645f7661,rev?*%
%TF.SameCoordinates,Original*%
%TF.FileFunction,Copper,L1,Top*%
%TF.FilePolarity,Positive*%
%FSLAX46Y46*%
G04 Gerber Fmt 4.6, Leading zero omitted, Abs format (unit mm)*
G04 Created by KiCad (PCBNEW 10.0.4) date 2026-07-08 20:28:40*
%MOMM*%
%LPD*%
G01*
G04 APERTURE LIST*
G04 Aperture macros list*
%AMRoundRect*
0 Rectangle with rounded corners*
0 $1 Rounding radius*
0 $2 $3 $4 $5 $6 $7 $8 $9 X,Y pos of 4 corners*
0 Add a 4 corners polygon primitive as box body*
4,1,4,$2,$3,$4,$5,$6,$7,$8,$9,$2,$3,0*
0 Add four circle primitives for the rounded corners*
1,1,$1+$1,$2,$3*
1,1,$1+$1,$4,$5*
1,1,$1+$1,$6,$7*
1,1,$1+$1,$8,$9*
0 Add four rect primitives between the rounded corners*
20,1,$1+$1,$2,$3,$4,$5,0*
20,1,$1+$1,$4,$5,$6,$7,0*
20,1,$1+$1,$6,$7,$8,$9,0*
20,1,$1+$1,$8,$9,$2,$3,0*%
G04 Aperture macros list end*
%TA.AperFunction,SMDPad,CuDef*%
%ADD10RoundRect,0.218750X0.218750X0.256250X-0.218750X0.256250X-0.218750X-0.256250X0.218750X-0.256250X0*%
%TD*%
%TA.AperFunction,SMDPad,CuDef*%
%ADD11RoundRect,0.237500X-0.250000X-0.237500X0.250000X-0.237500X0.250000X0.237500X-0.250000X0.237500X0*%
%TD*%
%TA.AperFunction,ComponentPad*%
%ADD12R,1.700000X1.700000*%
%TD*%
%TA.AperFunction,ComponentPad*%
%ADD13C,1.700000*%
%TD*%
%TA.AperFunction,Conductor*%
%ADD14C,0.500000*%
%TD*%
%TA.AperFunction,Conductor*%
%ADD15C,0.200000*%
%TD*%
G04 APERTURE END LIST*
D10*
%TO.P,D1,1,K_1*%
%TO.N,Net-(D1-K)*%
X56397500Y-26020000D03*
%TO.P,D1,2,A_2*%
%TO.N,Net-(D1-A)*%
X54822500Y-26020000D03*
%TD*%
D11*
%TO.P,R1,1*%
%TO.N,Net-(J1-Pin_2)*%
X54637500Y-27630000D03*
%TO.P,R1,2*%
%TO.N,Net-(D1-A)*%
X56462500Y-27630000D03*
%TD*%
D12*
%TO.P,J1,1,Pin_1_1*%
%TO.N,Net-(D1-K)*%
X56785000Y-23480000D03*
D13*
%TO.P,J1,2,Pin_2_2*%
%TO.N,Net-(J1-Pin_2)*%
X54245000Y-23480000D03*
%TD*%
%TO.N,Net-(D1-K)*%
D14*
X56397500Y-26020000D02*
X56397500Y-23867500D01*
D15*
X56397500Y-23867500D02*
X56785000Y-23480000D01*
%TO.N,Net-(D1-A)*%
D14*
X54852500Y-26020000D02*
X56462500Y-27630000D01*
D15*
X54822500Y-26020000D02*
X54852500Y-26020000D01*
%TO.N,Net-(J1-Pin_2)*%
D14*
X53395000Y-24330000D02*
X54245000Y-23480000D01*
X54637500Y-27630000D02*
X53395000Y-26387500D01*
X53395000Y-26387500D02*
X53395000Y-24330000D01*
%TD*%
%TA.AperFunction,NonConductor*%
G36*
X57755394Y-21631972D02*
G01*
X57789214Y-21634930D01*
X57933419Y-21647547D01*
X57954696Y-21651298D01*
X58122071Y-21696146D01*
X58142380Y-21703539D01*
X58257667Y-21757297D01*
X58299420Y-21776767D01*
X58318131Y-21787569D01*
X58460071Y-21886956D01*
X58476629Y-21900850D01*
X58599149Y-22023370D01*
X58613043Y-22039928D01*
X58699045Y-22162753D01*
X58712426Y-22181862D01*
X58723233Y-22200581D01*
X58796460Y-22357619D01*
X58803853Y-22377929D01*
X58848699Y-22545296D01*
X58852452Y-22566582D01*
X58868028Y-22744605D01*
X58868500Y-22755413D01*
X58868500Y-27944586D01*
X58868028Y-27955394D01*
X58852452Y-28133417D01*
X58848699Y-28154703D01*
X58803853Y-28322070D01*
X58796460Y-28342380D01*
X58723233Y-28499418D01*
X58712426Y-28518137D01*
X58613043Y-28660071D01*
X58599149Y-28676629D01*
X58476629Y-28799149D01*
X58460071Y-28813043D01*
X58318137Y-28912426D01*
X58299418Y-28923233D01*
X58142380Y-28996460D01*
X58122070Y-29003853D01*
X57954703Y-29048699D01*
X57933416Y-29052452D01*
X57755560Y-29068012D01*
X57744459Y-29068484D01*
X53325121Y-29057991D01*
X53325099Y-29057991D01*
X53315948Y-29057967D01*
X53315512Y-29057840D01*
X53265758Y-29057840D01*
X53265703Y-29057823D01*
X53255266Y-29057368D01*
X53077242Y-29041792D01*
X53055956Y-29038039D01*
X52888589Y-28993193D01*
X52868279Y-28985800D01*
X52711241Y-28912573D01*
X52692525Y-28901767D01*
X52550588Y-28802383D01*
X52534030Y-28788489D01*
X52411510Y-28665969D01*
X52397616Y-28649411D01*
X52298229Y-28507471D01*
X52287426Y-28488758D01*
X52214199Y-28331720D01*
X52206806Y-28311410D01*
X52161958Y-28144036D01*
X52158207Y-28122756D01*
X52142632Y-27944733D01*
X52142160Y-27933926D01*
X52142160Y-27876704D01*
X52142027Y-27874885D01*
X52140935Y-27343312D01*
X52139123Y-26461420D01*
X52644499Y-26461420D01*
X52673340Y-26606407D01*
X52673343Y-26606417D01*
X52729914Y-26742992D01*
X52762812Y-26792227D01*
X52762813Y-26792230D01*
X52812046Y-26865914D01*
X52812052Y-26865921D01*
X53613181Y-27667049D01*
X53646666Y-27728372D01*
X53649500Y-27754729D01*
X53649500Y-27916668D01*
X53649501Y-27916687D01*
X53659825Y-28017752D01*
X53678239Y-28073320D01*
X53698153Y-28133417D01*
X53714092Y-28181515D01*
X53714093Y-28181518D01*
X53748395Y-28237129D01*
X53804660Y-28328350D01*
X53926650Y-28450340D01*
X54073484Y-28540908D01*
X54237247Y-28595174D01*
X54338323Y-28605500D01*
X54936676Y-28605499D01*
X54936684Y-28605498D01*
X54936687Y-28605498D01*
X54992030Y-28599844D01*
X55037753Y-28595174D01*
X55201516Y-28540908D01*
X55348350Y-28450340D01*
X55462319Y-28336371D01*
X55523642Y-28302886D01*
X55593334Y-28307870D01*
X55637681Y-28336371D01*
X55751650Y-28450340D01*
X55898484Y-28540908D01*
X56062247Y-28595174D01*
X56163323Y-28605500D01*
X56761676Y-28605499D01*
X56761684Y-28605498D01*
X56761687Y-28605498D01*
X56817030Y-28599844D01*
X56862753Y-28595174D01*
X57026516Y-28540908D01*
X57173350Y-28450340D01*
X57295340Y-28328350D01*
X57385908Y-28181516D01*
X57440174Y-28017753D01*
X57450500Y-27916677D01*
X57450499Y-27343324D01*
X57440174Y-27242247D01*
X57385908Y-27078484D01*
X57295340Y-26931650D01*
X57217291Y-26853601D01*
X57183807Y-26792277D01*
X57188791Y-26722586D01*
X57199435Y-26700823D01*
X57272544Y-26582295D01*
X57272543Y-26582295D01*
X57272549Y-26582287D01*
X57325436Y-26422685D01*
X57335500Y-26324174D01*
X57335500Y-25715826D01*
X57325436Y-25617315D01*
X57272549Y-25457713D01*
X57272545Y-25457707D01*
X57272544Y-25457704D01*
X57184283Y-25314612D01*
X57179803Y-25308946D01*
X57180782Y-25308171D01*
X57150834Y-25253324D01*
X57148000Y-25226966D01*
X57148000Y-24954499D01*
X57167685Y-24887460D01*
X57220489Y-24841705D01*
X57272000Y-24830499D01*
X57682871Y-24830499D01*
X57682872Y-24830499D01*
X57742483Y-24824091D01*
X57877331Y-24773796D01*
X57992546Y-24687546D01*
X58078796Y-24572331D01*
X58129091Y-24437483D01*
X58135500Y-24377873D01*
X58135499Y-22582128D01*
X58129091Y-22522517D01*
X58127810Y-22519083D01*
X58078797Y-22387671D01*
X58078793Y-22387664D01*
X57992547Y-22272455D01*
X57992544Y-22272452D01*
X57877335Y-22186206D01*
X57877328Y-22186202D01*
X57742482Y-22135908D01*
X57742483Y-22135908D01*
X57682883Y-22129501D01*
X57682881Y-22129500D01*
X57682873Y-22129500D01*
X57682864Y-22129500D01*
X55887129Y-22129500D01*
X55887123Y-22129501D01*
X55827516Y-22135908D01*
X55692671Y-22186202D01*
X55692664Y-22186206D01*
X55577455Y-22272452D01*
X55577452Y-22272455D01*
X55491206Y-22387664D01*
X55491203Y-22387669D01*
X55442189Y-22519083D01*
X55400317Y-22575016D01*
X55334853Y-22599433D01*
X55266580Y-22584581D01*
X55238326Y-22563430D01*
X55124786Y-22449890D01*
X54952820Y-22324951D01*
X54763414Y-22228444D01*
X54763413Y-22228443D01*
X54763412Y-22228443D01*
X54561243Y-22162754D01*
X54561241Y-22162753D01*
X54561240Y-22162753D01*
X54399957Y-22137208D01*
X54351287Y-22129500D01*
X54138713Y-22129500D01*
X54090042Y-22137208D01*
X53928760Y-22162753D01*
X53726585Y-22228444D01*
X53537179Y-22324951D01*
X53365213Y-22449890D01*
X53214890Y-22600213D01*
X53089951Y-22772179D01*
X52993444Y-22961585D01*
X52927753Y-23163760D01*
X52894500Y-23373713D01*
X52894500Y-23586293D01*
X52909615Y-23681728D01*
X52900660Y-23751021D01*
X52874825Y-23788804D01*
X52812051Y-23851580D01*
X52812047Y-23851585D01*
X52762812Y-23925271D01*
X52729921Y-23974496D01*
X52729914Y-23974508D01*
X52673342Y-24111086D01*
X52673340Y-24111092D01*
X52644500Y-24256079D01*
X52644500Y-24256082D01*
X52644500Y-26461418D01*
X52644500Y-26461420D01*
X52644499Y-26461420D01*
X52139123Y-26461420D01*
X52131511Y-22755520D01*
X52131983Y-22744466D01*
X52135825Y-22700559D01*
X52147547Y-22566577D01*
X52151298Y-22545305D01*
X52196147Y-22377924D01*
X52203539Y-22357619D01*
X52243252Y-22272454D01*
X52276769Y-22200574D01*
X52287566Y-22181873D01*
X52386962Y-22039920D01*
X52400844Y-22023376D01*
X52523376Y-21900844D01*
X52539920Y-21886962D01*
X52681873Y-21787566D01*
X52700574Y-21776769D01*
X52815868Y-21723007D01*
X52857619Y-21703539D01*
X52877924Y-21696147D01*
X53045305Y-21651298D01*
X53066578Y-21647547D01*
X53217138Y-21634375D01*
X53244606Y-21631972D01*
X53255413Y-21631500D01*
X53304852Y-21631500D01*
X57695148Y-21631500D01*
X57744587Y-21631500D01*
X57755394Y-21631972D01*
G37*
%TD.AperFunction*%
%TA.AperFunction,NonConductor*%
G36*
X55369340Y-24368068D02*
G01*
X55425274Y-24409939D01*
X55442189Y-24440917D01*
X55491202Y-24572328D01*
X55491206Y-24572335D01*
X55577452Y-24687544D01*
X55577453Y-24687545D01*
X55577454Y-24687546D01*
X55597310Y-24702410D01*
X55639182Y-24758343D01*
X55647000Y-24801677D01*
X55647000Y-25070141D01*
X55627315Y-25137180D01*
X55574511Y-25182935D01*
X55505353Y-25192879D01*
X55457903Y-25175680D01*
X55347289Y-25107452D01*
X55347284Y-25107450D01*
X55345876Y-25106983D01*
X55187685Y-25054564D01*
X55187683Y-25054563D01*
X55089181Y-25044500D01*
X55089174Y-25044500D01*
X54575711Y-25044500D01*
X54508672Y-25024815D01*
X54462917Y-24972011D01*
X54452973Y-24902853D01*
X54481998Y-24839297D01*
X54540776Y-24801523D01*
X54556313Y-24798027D01*
X54557302Y-24797870D01*
X54561243Y-24797246D01*
X54763412Y-24731557D01*
X54952816Y-24635051D01*
X55124792Y-24510104D01*
X55238329Y-24396566D01*
X55299648Y-24363084D01*
X55369340Y-24368068D01*
G37*
%TD.AperFunction*%
M02*
