%TF.GenerationSoftware,KiCad,Pcbnew,10.0.4*%
%TF.CreationDate,2026-07-08T20:28:40-05:00*%
%TF.ProjectId,led_solenoid_valve_pcb,6c65645f-736f-46c6-956e-6f69645f7661,rev?*%
%TF.SameCoordinates,Original*%
%TF.FileFunction,Copper,L2,Bot*%
%TF.FilePolarity,Positive*%
%FSLAX46Y46*%
G04 Gerber Fmt 4.6, Leading zero omitted, Abs format (unit mm)*
G04 Created by KiCad (PCBNEW 10.0.4) date 2026-07-08 20:28:40*
%MOMM*%
%LPD*%
G01*
G04 APERTURE LIST*
%TA.AperFunction,ComponentPad*%
%ADD10R,1.700000X1.700000*%
%TD*%
%TA.AperFunction,ComponentPad*%
%ADD11C,1.700000*%
%TD*%
G04 APERTURE END LIST*
D10*
%TO.P,J1,1,Pin_1_1*%
%TO.N,Net-(D1-K)*%
X56785000Y-23480000D03*
D11*
%TO.P,J1,2,Pin_2_2*%
%TO.N,Net-(J1-Pin_2)*%
X54245000Y-23480000D03*
%TD*%
%TA.AperFunction,NonConductor*%
G36*
X57755394Y-21631972D02*
G01*
X57789214Y-21634930D01*
X57933419Y-21647547D01*
X57954696Y-21651298D01*
X58122071Y-21696146D01*
X58142380Y-21703539D01*
X58257667Y-21757297D01*
X58299420Y-21776767D01*
X58318131Y-21787569D01*
X58460071Y-21886956D01*
X58476629Y-21900850D01*
X58599149Y-22023370D01*
X58613043Y-22039928D01*
X58699045Y-22162753D01*
X58712426Y-22181862D01*
X58723233Y-22200581D01*
X58796460Y-22357619D01*
X58803853Y-22377929D01*
X58848699Y-22545296D01*
X58852452Y-22566582D01*
X58868028Y-22744605D01*
X58868500Y-22755413D01*
X58868500Y-27944586D01*
X58868028Y-27955394D01*
X58852452Y-28133417D01*
X58848699Y-28154703D01*
X58803853Y-28322070D01*
X58796460Y-28342380D01*
X58723233Y-28499418D01*
X58712426Y-28518137D01*
X58613043Y-28660071D01*
X58599149Y-28676629D01*
X58476629Y-28799149D01*
X58460071Y-28813043D01*
X58318137Y-28912426D01*
X58299418Y-28923233D01*
X58142380Y-28996460D01*
X58122070Y-29003853D01*
X57954703Y-29048699D01*
X57933416Y-29052452D01*
X57755560Y-29068012D01*
X57744459Y-29068484D01*
X53325121Y-29057991D01*
X53325099Y-29057991D01*
X53315948Y-29057967D01*
X53315512Y-29057840D01*
X53265758Y-29057840D01*
X53265703Y-29057823D01*
X53255266Y-29057368D01*
X53077242Y-29041792D01*
X53055956Y-29038039D01*
X52888589Y-28993193D01*
X52868279Y-28985800D01*
X52711241Y-28912573D01*
X52692525Y-28901767D01*
X52550588Y-28802383D01*
X52534030Y-28788489D01*
X52411510Y-28665969D01*
X52397616Y-28649411D01*
X52298229Y-28507471D01*
X52287426Y-28488758D01*
X52214199Y-28331720D01*
X52206806Y-28311410D01*
X52205675Y-28307190D01*
X52161958Y-28144036D01*
X52158207Y-28122756D01*
X52142632Y-27944733D01*
X52142160Y-27933926D01*
X52142160Y-27876704D01*
X52142027Y-27874885D01*
X52132781Y-23373713D01*
X52894500Y-23373713D01*
X52894500Y-23586286D01*
X52927753Y-23796239D01*
X52993444Y-23998414D01*
X53089951Y-24187820D01*
X53214890Y-24359786D01*
X53365213Y-24510109D01*
X53537179Y-24635048D01*
X53537181Y-24635049D01*
X53537184Y-24635051D01*
X53726588Y-24731557D01*
X53928757Y-24797246D01*
X54138713Y-24830500D01*
X54138714Y-24830500D01*
X54351286Y-24830500D01*
X54351287Y-24830500D01*
X54561243Y-24797246D01*
X54763412Y-24731557D01*
X54952816Y-24635051D01*
X55124792Y-24510104D01*
X55238329Y-24396566D01*
X55299648Y-24363084D01*
X55369340Y-24368068D01*
X55425274Y-24409939D01*
X55442189Y-24440917D01*
X55491202Y-24572328D01*
X55491206Y-24572335D01*
X55577452Y-24687544D01*
X55577455Y-24687547D01*
X55692664Y-24773793D01*
X55692671Y-24773797D01*
X55827517Y-24824091D01*
X55827516Y-24824091D01*
X55834444Y-24824835D01*
X55887127Y-24830500D01*
X57682872Y-24830499D01*
X57742483Y-24824091D01*
X57877331Y-24773796D01*
X57992546Y-24687546D01*
X58078796Y-24572331D01*
X58129091Y-24437483D01*
X58135500Y-24377873D01*
X58135499Y-22582128D01*
X58129091Y-22522517D01*
X58127810Y-22519083D01*
X58078797Y-22387671D01*
X58078793Y-22387664D01*
X57992547Y-22272455D01*
X57992544Y-22272452D01*
X57877335Y-22186206D01*
X57877328Y-22186202D01*
X57742482Y-22135908D01*
X57742483Y-22135908D01*
X57682883Y-22129501D01*
X57682881Y-22129500D01*
X57682873Y-22129500D01*
X57682864Y-22129500D01*
X55887129Y-22129500D01*
X55887123Y-22129501D01*
X55827516Y-22135908D01*
X55692671Y-22186202D01*
X55692664Y-22186206D01*
X55577455Y-22272452D01*
X55577452Y-22272455D01*
X55491206Y-22387664D01*
X55491203Y-22387669D01*
X55442189Y-22519083D01*
X55400317Y-22575016D01*
X55334853Y-22599433D01*
X55266580Y-22584581D01*
X55238326Y-22563430D01*
X55124786Y-22449890D01*
X54952820Y-22324951D01*
X54763414Y-22228444D01*
X54763413Y-22228443D01*
X54763412Y-22228443D01*
X54561243Y-22162754D01*
X54561241Y-22162753D01*
X54561240Y-22162753D01*
X54399957Y-22137208D01*
X54351287Y-22129500D01*
X54138713Y-22129500D01*
X54090042Y-22137208D01*
X53928760Y-22162753D01*
X53726585Y-22228444D01*
X53537179Y-22324951D01*
X53365213Y-22449890D01*
X53214890Y-22600213D01*
X53089951Y-22772179D01*
X52993444Y-22961585D01*
X52927753Y-23163760D01*
X52894500Y-23373713D01*
X52132781Y-23373713D01*
X52131511Y-22755520D01*
X52131983Y-22744466D01*
X52135825Y-22700559D01*
X52147547Y-22566577D01*
X52151298Y-22545305D01*
X52196147Y-22377924D01*
X52203539Y-22357619D01*
X52243252Y-22272454D01*
X52276769Y-22200574D01*
X52287566Y-22181873D01*
X52386962Y-22039920D01*
X52400844Y-22023376D01*
X52523376Y-21900844D01*
X52539920Y-21886962D01*
X52681873Y-21787566D01*
X52700574Y-21776769D01*
X52815868Y-21723007D01*
X52857619Y-21703539D01*
X52877924Y-21696147D01*
X53045305Y-21651298D01*
X53066578Y-21647547D01*
X53217138Y-21634375D01*
X53244606Y-21631972D01*
X53255413Y-21631500D01*
X53304852Y-21631500D01*
X57695148Y-21631500D01*
X57744587Y-21631500D01*
X57755394Y-21631972D01*
G37*
%TD.AperFunction*%
M02*
