%TF.GenerationSoftware,KiCad,Pcbnew,10.0.4*%
%TF.CreationDate,2026-07-08T20:39:23-05:00*%
%TF.ProjectId,monarch_payload_interface_board_rev2,6d6f6e61-7263-4685-9f70-61796c6f6164,rev?*%
%TF.SameCoordinates,Original*%
%TF.FileFunction,Profile,NP*%
%FSLAX46Y46*%
G04 Gerber Fmt 4.6, Leading zero omitted, Abs format (unit mm)*
G04 Created by KiCad (PCBNEW 10.0.4) date 2026-07-08 20:39:23*
%MOMM*%
%LPD*%
G01*
G04 APERTURE LIST*
%TA.AperFunction,Profile*%
%ADD10C,0.200000*%
%TD*%
G04 APERTURE END LIST*
%TO.C,U1*%
D10*
X34294798Y-41838399D02*
X34294798Y-26478399D01*
X34294798Y-86838399D02*
X34294798Y-100138399D01*
X34294798Y-86838399D02*
X36794798Y-84338399D01*
X36794798Y-44338399D02*
X34294798Y-41838399D01*
X36794798Y-84338399D02*
X36794798Y-44338399D01*
X104424798Y-21348399D02*
X39424798Y-21348399D01*
X104424798Y-105268399D02*
X39424798Y-105268399D01*
X114424798Y-18358399D02*
X125154798Y-18358399D01*
X125424798Y-40138399D02*
X125424798Y-86138399D01*
X126024798Y-108228399D02*
X114424798Y-108228399D01*
X130334798Y-23938399D02*
X130334798Y-30138399D01*
X130334798Y-96138399D02*
X130334798Y-103948399D01*
X34294798Y-26478399D02*
G75*
G02*
X39424798Y-21348399I5129999J1D01*
G01*
X39424798Y-105268399D02*
G75*
G02*
X34294798Y-100138399I-1J5129999D01*
G01*
X104424798Y-105268399D02*
G75*
G02*
X109424800Y-106748395I-261700J-10070100D01*
G01*
X109424798Y-19853399D02*
G75*
G02*
X104424798Y-21348399I-5289700J8582600D01*
G01*
X109424798Y-19853399D02*
G75*
G02*
X114424798Y-18358399I5289700J-8582600D01*
G01*
X114424798Y-108228399D02*
G75*
G02*
X109424796Y-106748403I261700J10070100D01*
G01*
X125154798Y-18358399D02*
G75*
G02*
X130334798Y-23938399I-200000J-5380000D01*
G01*
X125424798Y-40138399D02*
G75*
G02*
X127879799Y-35138400I6588800J-132400D01*
G01*
X127879798Y-91138399D02*
G75*
G02*
X125424797Y-86138399I4133800J5132400D01*
G01*
X127879798Y-91138399D02*
G75*
G02*
X130334799Y-96138399I-4133800J-5132400D01*
G01*
X130334798Y-30138399D02*
G75*
G02*
X127879797Y-35138398I-6588800J132400D01*
G01*
X130334798Y-103948399D02*
G75*
G02*
X126024798Y-108228399I-4295000J15000D01*
G01*
%TD*%
M02*
