M48
; DRILL file KiCad 10.0.4 date 2026-07-08T20:39:48
; FORMAT={-:-/ absolute / metric / decimal}
; #@! TF.CreationDate,2026-07-08T20:39:48-05:00
; #@! TF.GenerationSoftware,Kicad,Pcbnew,10.0.4
; #@! TF.FileFunction,Plated,1,4,PTH
FMAT,2
METRIC
; #@! TA.AperFunction,Plated,PTH,ComponentDrill
T1C0.203
; #@! TA.AperFunction,Plated,PTH,ViaDrill
T2C0.300
; #@! TA.AperFunction,Plated,PTH,ComponentDrill
T3C0.500
; #@! TA.AperFunction,Plated,PTH,ComponentDrill
T4C0.600
; #@! TA.AperFunction,Plated,PTH,ComponentDrill
T5C0.660
; #@! TA.AperFunction,Plated,PTH,ComponentDrill
T6C1.000
; #@! TA.AperFunction,Plated,PTH,ComponentDrill
T7C1.016
; #@! TA.AperFunction,Plated,PTH,ComponentDrill
T8C1.092
; #@! TA.AperFunction,Plated,PTH,ComponentDrill
T9C3.200
%
G90
G05
T1
X62.64Y-38.985
X62.64Y-40.035
X63.415Y-38.235
X63.415Y-38.985
X63.415Y-40.035
X63.415Y-40.785
X64.19Y-38.985
X64.19Y-40.035
T2
X44.53Y-25.16
X47.35Y-29.0
X48.5Y-63.3
X49.0Y-29.0
X50.997Y-55.5
X51.3Y-48.5
X51.3Y-50.701
X51.5Y-93.48
X51.59Y-83.75
X51.61Y-84.81
X51.648Y-28.642
X52.0Y-36.75
X52.44Y-84.82
X52.5Y-83.8
X53.4Y-52.8
X53.46Y-53.945
X53.5Y-59.8
X53.53Y-66.62
X53.58Y-55.545
X53.59Y-56.56
X54.05Y-76.81
X54.07Y-78.77
X55.12Y-76.85
X55.25Y-68.8
X55.47Y-78.89
X56.1Y-41.4
X56.254Y-52.255
X56.427Y-27.702
X57.12Y-48.0
X57.34Y-34.16
X57.35Y-36.35
X57.4Y-35.1
X57.47Y-47.16
X57.6Y-66.7
X57.85Y-43.418
X57.99Y-84.57
X58.0Y-48.5
X58.03Y-83.7
X58.04Y-73.71
X58.76Y-84.58
X58.77Y-83.72
X58.92Y-55.01
X58.95Y-66.55
X59.05Y-54.169
X59.63Y-93.47
X59.72Y-55.38
X60.69Y-54.86
X61.156Y-69.746
X61.31Y-47.09
X61.4Y-61.78
X61.414Y-66.614
X61.501Y-61.0
X62.03Y-62.945
X62.07Y-57.059
X62.282Y-48.265
X62.311Y-56.296
X62.35Y-70.25
X62.68Y-50.723
X62.8Y-66.51
X62.828Y-62.999
X63.303Y-46.994
X63.727Y-42.75
X63.75Y-44.75
X63.905Y-54.386
X64.0Y-32.0
X64.0Y-33.25
X64.0Y-34.5
X64.16Y-74.79
X64.18Y-74.05
X64.26Y-84.85
X64.3Y-83.98
X64.41Y-46.275
X64.75Y-44.75
X64.77Y-69.75
X65.03Y-74.83
X65.03Y-84.86
X65.04Y-74.06
X65.04Y-84.0
X65.25Y-32.0
X65.25Y-33.25
X65.25Y-34.5
X65.29Y-63.18
X65.33Y-79.94
X65.37Y-79.07
X65.565Y-51.438
X65.704Y-69.588
X65.75Y-44.75
X65.75Y-45.75
X65.98Y-56.5
X66.1Y-79.95
X66.11Y-79.09
X66.2Y-58.9
X66.3Y-34.5
X66.35Y-31.95
X66.75Y-44.75
X66.894Y-45.631
X66.95Y-65.95
X66.98Y-48.25
X67.05Y-66.8
X67.07Y-47.699
X67.11Y-64.23
X67.24Y-55.34
X67.27Y-93.4
X67.403Y-31.587
X67.403Y-32.679
X67.403Y-33.797
X67.465Y-28.43
X67.671Y-58.63
X68.595Y-50.88
X69.088Y-51.51
X69.15Y-57.53
X69.24Y-59.6
X69.3Y-54.4
X69.42Y-66.02
X69.68Y-31.7
X69.72Y-32.76
X69.95Y-44.3
X70.08Y-52.37
X70.855Y-68.8
X71.0Y-46.133
X71.23Y-31.59
X71.27Y-33.74
X71.29Y-32.7
X71.772Y-43.93
X72.23Y-84.14
X72.27Y-83.27
X72.35Y-25.1
X72.35Y-50.28
X72.388Y-68.782
X72.42Y-60.695
X72.52Y-54.41
X72.65Y-66.145
X72.73Y-32.64
X72.75Y-31.57
X72.75Y-33.73
X72.94Y-72.005
X73.0Y-84.15
X73.01Y-83.29
X73.35Y-52.86
X73.511Y-58.0
X73.52Y-61.945
X73.57Y-54.45
X74.28Y-32.55
X74.32Y-31.49
X74.32Y-33.68
X74.74Y-72.41
X74.76Y-71.67
X75.52Y-93.68
X75.565Y-53.965
X75.61Y-72.45
X75.62Y-71.68
X75.65Y-79.45
X75.7Y-28.66
X76.05Y-76.77
X76.25Y-45.1
X76.37Y-85.2
X76.39Y-63.56
X77.5Y-31.5
X77.53Y-32.65
X77.53Y-33.83
X77.62Y-62.545
X77.65Y-45.0
X79.12Y-33.8
X79.138Y-31.587
X79.138Y-32.679
X79.25Y-65.58
X80.0Y-35.5
X80.0Y-66.55
X80.43Y-31.53
X80.45Y-32.75
X80.45Y-83.85
X80.49Y-82.98
X80.5Y-33.91
X80.8Y-28.85
X80.85Y-60.93
X81.02Y-54.34
X81.22Y-83.86
X81.23Y-83.0
X82.25Y-69.787
X82.467Y-42.357
X83.044Y-62.916
X83.3Y-93.5
X84.38Y-70.37
X85.15Y-54.091
X85.25Y-46.0
X85.76Y-64.81
X86.09Y-74.3
X86.61Y-63.58
X86.81Y-46.2
X87.396Y-45.656
X87.969Y-44.63
X88.1Y-61.98
X88.24Y-64.21
X88.407Y-37.293
X88.55Y-31.225
X88.55Y-32.775
X88.56Y-55.36
X88.675Y-41.4
X88.675Y-42.9
X88.7Y-39.925
X89.0Y-44.0
X89.425Y-28.15
X89.49Y-84.33
X89.53Y-83.46
X90.1Y-31.7
X90.1Y-48.9
X90.26Y-84.34
X90.27Y-83.48
X90.3Y-59.3
X90.425Y-44.45
X90.649Y-33.34
X91.01Y-93.13
X91.15Y-30.725
X91.975Y-44.45
X92.0Y-65.5
X92.13Y-66.48
X92.227Y-37.677
X92.248Y-35.952
X92.25Y-55.52
X92.887Y-30.962
X93.048Y-36.752
X93.09Y-60.52
X93.35Y-33.15
X93.4Y-49.62
X93.71Y-62.48
X93.85Y-35.8
X93.95Y-37.555
X94.1Y-53.58
X94.14Y-46.55
X94.35Y-28.25
X94.45Y-59.45
X94.68Y-40.48
X94.89Y-47.15
X95.55Y-79.81
X96.05Y-48.9
X96.17Y-72.03
X96.19Y-71.29
X96.272Y-30.227
X96.34Y-62.205
X96.65Y-37.05
X97.04Y-72.07
X97.05Y-71.3
X97.125Y-28.25
X97.225Y-45.695
X97.26Y-60.89
X97.67Y-84.74
X97.71Y-56.63
X97.71Y-83.87
X97.77Y-67.01
X98.014Y-39.775
X98.081Y-63.26
X98.44Y-84.75
X98.45Y-83.89
X98.64Y-93.14
X99.08Y-49.69
X99.24Y-41.99
X99.24Y-45.875
X100.325Y-28.2
X100.5Y-66.5
X100.601Y-34.391
X100.8Y-61.13
X100.93Y-44.25
X100.95Y-38.35
X101.32Y-66.82
X102.0Y-69.65
X102.22Y-48.23
X102.334Y-67.122
X102.68Y-35.37
X102.83Y-67.75
X103.325Y-28.2
X103.42Y-64.29
X103.65Y-53.37
X103.78Y-47.44
X104.25Y-84.67
X104.29Y-83.8
X104.609Y-52.381
X104.66Y-44.17
X104.68Y-63.61
X104.76Y-41.54
X104.84Y-75.85
X104.85Y-75.08
X105.02Y-84.68
X105.03Y-83.82
X105.21Y-54.4
X105.28Y-64.91
X105.7Y-75.86
X105.72Y-75.12
X106.15Y-47.85
X106.19Y-93.36
X106.5Y-59.3
X106.65Y-56.15
X107.5Y-31.0
X107.82Y-38.03
X108.27Y-66.16
X108.88Y-51.5
X108.9Y-62.43
X109.06Y-48.97
X109.35Y-28.0
X109.36Y-59.19
X110.184Y-60.884
X110.361Y-48.089
X111.0Y-32.4
X112.82Y-87.18
X112.84Y-86.44
X112.85Y-40.35
X113.08Y-100.59
X113.14Y-80.55
X113.27Y-66.97
X113.31Y-56.15
X113.6Y-93.26
X113.64Y-92.39
X113.69Y-87.22
X113.7Y-86.45
X113.75Y-60.69
X113.86Y-48.77
X114.37Y-93.27
X114.38Y-92.41
X114.439Y-39.841
X115.2Y-37.15
X115.99Y-89.63
X116.95Y-25.4
X117.0Y-26.25
X117.5Y-46.5
X117.5Y-49.0
X117.75Y-36.325
X117.85Y-25.4
X117.9Y-26.15
X119.51Y-99.75
X122.07Y-93.78
X123.25Y-31.75
T3
X50.0Y-72.5
X51.0Y-72.5
X74.58Y-57.55
X74.58Y-58.55
T4
X74.45Y-26.5
X75.7Y-26.5
X79.525Y-26.5
X80.775Y-26.5
T5
X44.965Y-26.424
X46.215Y-26.424
X47.465Y-26.424
X48.715Y-26.424
X51.417Y-100.166
X52.643Y-26.5
X52.667Y-100.166
X53.893Y-26.5
X53.917Y-100.166
X55.143Y-26.5
X55.167Y-100.166
X56.393Y-26.5
X56.417Y-100.166
X57.643Y-26.5
X57.667Y-100.166
X58.893Y-26.5
X65.127Y-100.166
X66.377Y-100.166
X67.627Y-100.166
X68.877Y-100.166
X70.127Y-100.166
X71.377Y-100.166
X78.747Y-100.166
X79.997Y-100.166
X81.247Y-100.166
X82.497Y-100.166
X83.747Y-100.166
X84.465Y-26.5
X84.997Y-100.166
X85.715Y-26.5
X86.965Y-26.5
X88.215Y-26.5
X92.965Y-26.5
X94.215Y-26.5
X94.277Y-100.166
X95.465Y-26.5
X95.527Y-100.166
X96.715Y-26.5
X96.777Y-100.166
X98.027Y-100.166
X99.277Y-100.166
X100.527Y-100.166
X102.643Y-26.584
X103.893Y-26.584
X105.143Y-26.584
X106.393Y-26.584
X107.643Y-26.584
X108.893Y-26.584
X120.166Y-79.13
X120.166Y-80.38
X120.166Y-81.63
X120.166Y-82.88
X120.166Y-84.13
X120.166Y-85.38
X120.316Y-47.343
X120.316Y-48.593
X120.316Y-49.843
X120.316Y-51.093
X120.316Y-52.343
X120.316Y-53.593
X120.416Y-66.333
X120.416Y-67.583
X120.416Y-68.833
X120.416Y-70.083
X120.416Y-71.333
X120.416Y-72.583
X120.426Y-57.965
X120.426Y-59.215
X120.426Y-60.465
X120.426Y-61.715
T6
X53.19Y-29.25
X55.73Y-29.25
X58.27Y-29.25
X60.81Y-29.25
X75.92Y-49.0
X77.5Y-56.0
X77.5Y-58.54
X78.46Y-49.0
X80.04Y-56.0
X80.04Y-58.54
X81.0Y-49.0
X82.58Y-56.0
X82.58Y-58.54
X83.54Y-49.0
X85.12Y-56.0
X85.12Y-58.54
X86.0Y-29.84
X86.0Y-32.38
X86.0Y-34.92
X86.0Y-37.46
X86.0Y-40.0
X86.0Y-42.54
X86.08Y-49.0
X105.46Y-70.5
X108.0Y-70.5
X110.54Y-70.5
X113.08Y-70.5
X115.62Y-70.5
T7
X39.405Y-31.558
X39.405Y-34.098
X39.405Y-36.638
X39.405Y-39.178
X39.405Y-41.718
X39.405Y-44.258
X39.405Y-46.798
X39.405Y-49.338
X39.405Y-51.878
X39.405Y-54.418
X39.405Y-56.958
X39.405Y-59.498
X39.405Y-62.038
X39.405Y-64.578
X39.405Y-67.118
X39.405Y-69.658
X39.405Y-72.198
X39.405Y-74.738
X39.405Y-77.278
X39.405Y-79.818
X39.405Y-82.358
X39.405Y-84.898
X39.405Y-87.438
X39.405Y-89.978
X39.405Y-92.518
X39.405Y-95.058
X41.945Y-31.558
X41.945Y-34.098
X41.945Y-36.638
X41.945Y-39.178
X41.945Y-41.718
X41.945Y-44.258
X41.945Y-46.798
X41.945Y-49.338
X41.945Y-51.878
X41.945Y-54.418
X41.945Y-56.958
X41.945Y-59.498
X41.945Y-62.038
X41.945Y-64.578
X41.945Y-67.118
X41.945Y-69.658
X41.945Y-72.198
X41.945Y-74.738
X41.945Y-77.278
X41.945Y-79.818
X41.945Y-82.358
X41.945Y-84.898
X41.945Y-87.438
X41.945Y-89.978
X41.945Y-92.518
X41.945Y-95.058
X44.485Y-31.558
X44.485Y-34.098
X44.485Y-36.638
X44.485Y-39.178
X44.485Y-41.718
X44.485Y-44.258
X44.485Y-46.798
X44.485Y-49.338
X44.485Y-51.878
X44.485Y-54.418
X44.485Y-56.958
X44.485Y-59.498
X44.485Y-62.038
X44.485Y-64.578
X44.485Y-67.118
X44.485Y-69.658
X44.485Y-72.198
X44.485Y-74.738
X44.485Y-77.278
X44.485Y-79.818
X44.485Y-82.358
X44.485Y-84.898
X44.485Y-87.438
X44.485Y-89.978
X44.485Y-92.518
X44.485Y-95.058
X47.025Y-31.558
X47.025Y-34.098
X47.025Y-36.638
X47.025Y-39.178
X47.025Y-41.718
X47.025Y-44.258
X47.025Y-46.798
X47.025Y-49.338
X47.025Y-51.878
X47.025Y-54.418
X47.025Y-56.958
X47.025Y-59.498
X47.025Y-62.038
X47.025Y-64.578
X47.025Y-67.118
X47.025Y-69.658
X47.025Y-72.198
X47.025Y-74.738
X47.025Y-77.278
X47.025Y-79.818
X47.025Y-82.358
X47.025Y-84.898
X47.025Y-87.438
X47.025Y-89.978
X47.025Y-92.518
X47.025Y-95.058
T8
X116.147Y-39.818
X116.147Y-42.318
T9
X39.425Y-26.478
X39.425Y-100.138
X125.155Y-23.938
X125.155Y-103.948
M30
