%TF.GenerationSoftware,KiCad,Pcbnew,10.0.4*%
%TF.CreationDate,2026-07-08T20:39:23-05:00*%
%TF.ProjectId,monarch_payload_interface_board_rev2,6d6f6e61-7263-4685-9f70-61796c6f6164,rev?*%
%TF.SameCoordinates,Original*%
%TF.FileFunction,Paste,Bot*%
%TF.FilePolarity,Positive*%
%FSLAX46Y46*%
G04 Gerber Fmt 4.6, Leading zero omitted, Abs format (unit mm)*
G04 Created by KiCad (PCBNEW 10.0.4) date 2026-07-08 20:39:23*
%MOMM*%
%LPD*%
G01*
G04 APERTURE LIST*
G04 Aperture macros list*
%AMRoundRect*
0 Rectangle with rounded corners*
0 $1 Rounding radius*
0 $2 $3 $4 $5 $6 $7 $8 $9 X,Y pos of 4 corners*
0 Add a 4 corners polygon primitive as box body*
4,1,4,$2,$3,$4,$5,$6,$7,$8,$9,$2,$3,0*
0 Add four circle primitives for the rounded corners*
1,1,$1+$1,$2,$3*
1,1,$1+$1,$4,$5*
1,1,$1+$1,$6,$7*
1,1,$1+$1,$8,$9*
0 Add four rect primitives between the rounded corners*
20,1,$1+$1,$2,$3,$4,$5,0*
20,1,$1+$1,$4,$5,$6,$7,0*
20,1,$1+$1,$6,$7,$8,$9,0*
20,1,$1+$1,$8,$9,$2,$3,0*%
G04 Aperture macros list end*
%ADD10C,0.000000*%
%ADD11RoundRect,0.225000X-0.250000X0.225000X-0.250000X-0.225000X0.250000X-0.225000X0.250000X0.225000X0*%
%ADD12R,0.635000X0.635000*%
%ADD13R,2.286000X0.635000*%
%ADD14RoundRect,0.200000X-0.275000X0.200000X-0.275000X-0.200000X0.275000X-0.200000X0.275000X0.200000X0*%
%ADD15RoundRect,0.225000X0.250000X-0.225000X0.250000X0.225000X-0.250000X0.225000X-0.250000X-0.225000X0*%
%ADD16RoundRect,0.200000X0.200000X0.275000X-0.200000X0.275000X-0.200000X-0.275000X0.200000X-0.275000X0*%
%ADD17RoundRect,0.250000X0.650000X-0.325000X0.650000X0.325000X-0.650000X0.325000X-0.650000X-0.325000X0*%
%ADD18RoundRect,0.200000X0.275000X-0.200000X0.275000X0.200000X-0.275000X0.200000X-0.275000X-0.200000X0*%
%ADD19RoundRect,0.225000X0.225000X0.250000X-0.225000X0.250000X-0.225000X-0.250000X0.225000X-0.250000X0*%
%ADD20R,0.635000X2.286000*%
%ADD21RoundRect,0.250000X0.475000X-0.250000X0.475000X0.250000X-0.475000X0.250000X-0.475000X-0.250000X0*%
%ADD22RoundRect,0.250000X0.250000X0.475000X-0.250000X0.475000X-0.250000X-0.475000X0.250000X-0.475000X0*%
%ADD23RoundRect,0.200000X-0.200000X-0.275000X0.200000X-0.275000X0.200000X0.275000X-0.200000X0.275000X0*%
%ADD24RoundRect,0.225000X-0.225000X-0.250000X0.225000X-0.250000X0.225000X0.250000X-0.225000X0.250000X0*%
%ADD25R,0.980000X3.400000*%
%ADD26R,0.812800X0.254000*%
%ADD27R,0.254000X0.812800*%
%ADD28R,3.759200X3.759200*%
%ADD29R,0.240000X0.599999*%
%ADD30R,0.599999X0.240000*%
G04 APERTURE END LIST*
D10*
%TO.C,U4*%
G36*
X63240002Y-37110000D02*
G01*
X63240002Y-37585000D01*
X63590001Y-37585000D01*
X63590001Y-37110000D01*
X63640001Y-37060000D01*
X63740001Y-37060000D01*
X63790001Y-37110000D01*
X63790001Y-37785000D01*
X63740001Y-37835000D01*
X63090002Y-37835000D01*
X63040002Y-37785000D01*
X63040002Y-37110000D01*
X63090002Y-37060000D01*
X63190002Y-37060000D01*
X63240002Y-37110000D01*
G37*
G36*
X63790001Y-41235158D02*
G01*
X63790001Y-41910158D01*
X63740001Y-41960158D01*
X63640001Y-41960158D01*
X63590001Y-41910158D01*
X63590001Y-41435158D01*
X63240002Y-41435158D01*
X63240002Y-41910158D01*
X63190002Y-41960158D01*
X63090002Y-41960158D01*
X63040002Y-41910158D01*
X63040002Y-41235158D01*
X63090002Y-41185158D01*
X63740001Y-41185158D01*
X63790001Y-41235158D01*
G37*
G36*
X63273870Y-38036059D02*
G01*
X63283438Y-38038959D01*
X63292255Y-38043673D01*
X63299984Y-38050016D01*
X63306326Y-38057745D01*
X63311038Y-38066561D01*
X63313941Y-38076130D01*
X63314922Y-38086079D01*
X63314922Y-38834078D01*
X63313941Y-38844027D01*
X63311038Y-38853596D01*
X63306326Y-38862412D01*
X63299984Y-38870141D01*
X63292255Y-38876484D01*
X63283438Y-38881198D01*
X63273870Y-38884099D01*
X63263921Y-38885079D01*
X62445919Y-38885079D01*
X62435970Y-38884099D01*
X62426402Y-38881198D01*
X62417585Y-38876484D01*
X62409856Y-38870141D01*
X62403514Y-38862412D01*
X62398802Y-38853596D01*
X62395899Y-38844027D01*
X62394921Y-38834078D01*
X62394921Y-38086079D01*
X62395899Y-38076130D01*
X62398802Y-38066561D01*
X62403514Y-38057745D01*
X62409856Y-38050016D01*
X62417585Y-38043673D01*
X62426402Y-38038959D01*
X62435970Y-38036059D01*
X62445919Y-38035078D01*
X63263921Y-38035078D01*
X63273870Y-38036059D01*
G37*
G36*
X63273870Y-39086059D02*
G01*
X63283438Y-39088960D01*
X63292255Y-39093674D01*
X63299984Y-39100016D01*
X63306326Y-39107746D01*
X63311038Y-39116562D01*
X63313941Y-39126130D01*
X63314922Y-39136079D01*
X63314922Y-39884079D01*
X63313941Y-39894028D01*
X63311038Y-39903596D01*
X63306326Y-39912412D01*
X63299984Y-39920142D01*
X63292255Y-39926484D01*
X63283438Y-39931198D01*
X63273870Y-39934099D01*
X63263921Y-39935079D01*
X62445919Y-39935079D01*
X62435970Y-39934099D01*
X62426402Y-39931198D01*
X62417585Y-39926484D01*
X62409856Y-39920142D01*
X62403514Y-39912412D01*
X62398802Y-39903596D01*
X62395899Y-39894028D01*
X62394921Y-39884079D01*
X62394921Y-39136079D01*
X62395899Y-39126130D01*
X62398802Y-39116562D01*
X62403514Y-39107746D01*
X62409856Y-39100016D01*
X62417585Y-39093674D01*
X62426402Y-39088960D01*
X62435970Y-39086059D01*
X62445919Y-39085079D01*
X63263921Y-39085079D01*
X63273870Y-39086059D01*
G37*
G36*
X63273870Y-40136059D02*
G01*
X63283438Y-40138960D01*
X63292255Y-40143674D01*
X63299984Y-40150017D01*
X63306326Y-40157746D01*
X63311038Y-40166562D01*
X63313941Y-40176131D01*
X63314922Y-40186080D01*
X63314922Y-40934079D01*
X63313941Y-40944028D01*
X63311038Y-40953597D01*
X63306326Y-40962413D01*
X63299984Y-40970142D01*
X63292255Y-40976485D01*
X63283438Y-40981199D01*
X63273870Y-40984099D01*
X63263921Y-40985080D01*
X62445919Y-40985080D01*
X62435970Y-40984099D01*
X62426402Y-40981199D01*
X62417585Y-40976485D01*
X62409856Y-40970142D01*
X62403514Y-40962413D01*
X62398802Y-40953597D01*
X62395899Y-40944028D01*
X62394921Y-40934079D01*
X62394921Y-40186080D01*
X62395899Y-40176131D01*
X62398802Y-40166562D01*
X62403514Y-40157746D01*
X62409856Y-40150017D01*
X62417585Y-40143674D01*
X62426402Y-40138960D01*
X62435970Y-40136059D01*
X62445919Y-40135079D01*
X63263921Y-40135079D01*
X63273870Y-40136059D01*
G37*
G36*
X64393868Y-38036059D02*
G01*
X64403436Y-38038959D01*
X64412253Y-38043673D01*
X64419982Y-38050016D01*
X64426324Y-38057745D01*
X64431036Y-38066561D01*
X64433939Y-38076130D01*
X64434917Y-38086079D01*
X64434917Y-38834078D01*
X64433939Y-38844027D01*
X64431036Y-38853596D01*
X64426324Y-38862412D01*
X64419982Y-38870141D01*
X64412253Y-38876484D01*
X64403436Y-38881198D01*
X64393868Y-38884099D01*
X64383919Y-38885079D01*
X63565917Y-38885079D01*
X63555968Y-38884099D01*
X63546400Y-38881198D01*
X63537583Y-38876484D01*
X63529854Y-38870141D01*
X63523512Y-38862412D01*
X63518800Y-38853596D01*
X63515897Y-38844027D01*
X63514916Y-38834078D01*
X63514916Y-38086079D01*
X63515897Y-38076130D01*
X63518800Y-38066561D01*
X63523512Y-38057745D01*
X63529854Y-38050016D01*
X63537583Y-38043673D01*
X63546400Y-38038959D01*
X63555968Y-38036059D01*
X63565917Y-38035078D01*
X64383919Y-38035078D01*
X64393868Y-38036059D01*
G37*
G36*
X64393868Y-39086059D02*
G01*
X64403436Y-39088960D01*
X64412253Y-39093674D01*
X64419982Y-39100016D01*
X64426324Y-39107746D01*
X64431036Y-39116562D01*
X64433939Y-39126130D01*
X64434917Y-39136079D01*
X64434917Y-39884079D01*
X64433939Y-39894028D01*
X64431036Y-39903596D01*
X64426324Y-39912412D01*
X64419982Y-39920142D01*
X64412253Y-39926484D01*
X64403436Y-39931198D01*
X64393868Y-39934099D01*
X64383919Y-39935079D01*
X63565917Y-39935079D01*
X63555968Y-39934099D01*
X63546400Y-39931198D01*
X63537583Y-39926484D01*
X63529854Y-39920142D01*
X63523512Y-39912412D01*
X63518800Y-39903596D01*
X63515897Y-39894028D01*
X63514916Y-39884079D01*
X63514916Y-39136079D01*
X63515897Y-39126130D01*
X63518800Y-39116562D01*
X63523512Y-39107746D01*
X63529854Y-39100016D01*
X63537583Y-39093674D01*
X63546400Y-39088960D01*
X63555968Y-39086059D01*
X63565917Y-39085079D01*
X64383919Y-39085079D01*
X64393868Y-39086059D01*
G37*
G36*
X64393868Y-40136059D02*
G01*
X64403436Y-40138960D01*
X64412253Y-40143674D01*
X64419982Y-40150017D01*
X64426324Y-40157746D01*
X64431036Y-40166562D01*
X64433939Y-40176131D01*
X64434917Y-40186080D01*
X64434917Y-40934079D01*
X64433939Y-40944028D01*
X64431036Y-40953597D01*
X64426324Y-40962413D01*
X64419982Y-40970142D01*
X64412253Y-40976485D01*
X64403436Y-40981199D01*
X64393868Y-40984099D01*
X64383919Y-40985080D01*
X63565917Y-40985080D01*
X63555968Y-40984099D01*
X63546400Y-40981199D01*
X63537583Y-40976485D01*
X63529854Y-40970142D01*
X63523512Y-40962413D01*
X63518800Y-40953597D01*
X63515897Y-40944028D01*
X63514916Y-40934079D01*
X63514916Y-40186080D01*
X63515897Y-40176131D01*
X63518800Y-40166562D01*
X63523512Y-40157746D01*
X63529854Y-40150017D01*
X63537583Y-40143674D01*
X63546400Y-40138960D01*
X63555968Y-40136059D01*
X63565917Y-40135079D01*
X64383919Y-40135079D01*
X64393868Y-40136059D01*
G37*
%TD*%
D11*
%TO.C,C14*%
X67870000Y-56130000D03*
X67870000Y-57680000D03*
%TD*%
D12*
%TO.C,U12*%
X52590700Y-62179911D03*
X52590700Y-61060889D03*
D13*
X50749200Y-62179900D03*
X50749200Y-61060900D03*
%TD*%
D14*
%TO.C,R19*%
X73905200Y-42418800D03*
X73905200Y-44068800D03*
%TD*%
D15*
%TO.C,C91*%
X60470000Y-47295000D03*
X60470000Y-45745000D03*
%TD*%
%TO.C,C49*%
X57700000Y-55901700D03*
X57700000Y-54351700D03*
%TD*%
D11*
%TO.C,C16*%
X52500000Y-65070000D03*
X52500000Y-66620000D03*
%TD*%
D16*
%TO.C,R43*%
X61721000Y-71680000D03*
X60071000Y-71680000D03*
%TD*%
D17*
%TO.C,C3*%
X67860000Y-38087600D03*
X67860000Y-35137600D03*
%TD*%
D11*
%TO.C,C6*%
X71441400Y-41122600D03*
X71441400Y-42672600D03*
%TD*%
D15*
%TO.C,C54*%
X70196800Y-38240000D03*
X70196800Y-36690000D03*
%TD*%
%TO.C,C87*%
X66880000Y-51755000D03*
X66880000Y-50205000D03*
%TD*%
D18*
%TO.C,R55*%
X83500000Y-46825000D03*
X83500000Y-45175000D03*
%TD*%
D16*
%TO.C,R44*%
X61250000Y-68550000D03*
X59600000Y-68550000D03*
%TD*%
D19*
%TO.C,C7*%
X63529600Y-43548600D03*
X61979600Y-43548600D03*
%TD*%
D12*
%TO.C,U14*%
X82567189Y-40743900D03*
X83686211Y-40743900D03*
D20*
X82567200Y-38902400D03*
X83686200Y-38902400D03*
%TD*%
D16*
%TO.C,R42*%
X57824600Y-71680000D03*
X56174600Y-71680000D03*
%TD*%
D14*
%TO.C,R18*%
X78375600Y-40678400D03*
X78375600Y-42328400D03*
%TD*%
D19*
%TO.C,C55*%
X64835000Y-56500000D03*
X63285000Y-56500000D03*
%TD*%
%TO.C,C88*%
X67065000Y-53240000D03*
X65515000Y-53240000D03*
%TD*%
D21*
%TO.C,C2*%
X79036000Y-38240000D03*
X79036000Y-36340000D03*
%TD*%
D11*
%TO.C,C69*%
X64410000Y-46275000D03*
X64410000Y-47825000D03*
%TD*%
%TO.C,C4*%
X62653000Y-34264600D03*
X62653000Y-35814600D03*
%TD*%
D19*
%TO.C,C56*%
X64840000Y-58170000D03*
X63290000Y-58170000D03*
%TD*%
D22*
%TO.C,C10*%
X60682000Y-36340000D03*
X58782000Y-36340000D03*
%TD*%
D11*
%TO.C,C1*%
X60120000Y-38277800D03*
X60120000Y-39827800D03*
%TD*%
D19*
%TO.C,C92*%
X60515000Y-44190000D03*
X58965000Y-44190000D03*
%TD*%
D15*
%TO.C,C93*%
X58990000Y-47315000D03*
X58990000Y-45765000D03*
%TD*%
%TO.C,C48*%
X66320000Y-56255000D03*
X66320000Y-54705000D03*
%TD*%
%TO.C,C90*%
X62260000Y-47315000D03*
X62260000Y-45765000D03*
%TD*%
D23*
%TO.C,R51*%
X50190400Y-49710000D03*
X51840400Y-49710000D03*
%TD*%
D16*
%TO.C,R61*%
X60464200Y-60756800D03*
X58814200Y-60756800D03*
%TD*%
%TO.C,R41*%
X60350400Y-62687200D03*
X58700400Y-62687200D03*
%TD*%
D22*
%TO.C,C9*%
X60644200Y-33900000D03*
X58744200Y-33900000D03*
%TD*%
D12*
%TO.C,U13*%
X51900000Y-47266622D03*
X51900000Y-46147600D03*
D13*
X50058500Y-47266611D03*
X50058500Y-46147611D03*
%TD*%
D24*
%TO.C,C8*%
X61128400Y-31860000D03*
X62678400Y-31860000D03*
%TD*%
D16*
%TO.C,R63*%
X56614600Y-60756800D03*
X54964600Y-60756800D03*
%TD*%
D18*
%TO.C,R48*%
X83500000Y-43825000D03*
X83500000Y-42175000D03*
%TD*%
D16*
%TO.C,R45*%
X57905000Y-68550000D03*
X56255000Y-68550000D03*
%TD*%
D25*
%TO.C,L1*%
X53140000Y-37070000D03*
X55510000Y-37070000D03*
%TD*%
D18*
%TO.C,R20*%
X66767800Y-43814800D03*
X66767800Y-42164800D03*
%TD*%
D14*
%TO.C,R21*%
X68977600Y-41098000D03*
X68977600Y-42748000D03*
%TD*%
%TO.C,R52*%
X57480200Y-44541600D03*
X57480200Y-46191600D03*
%TD*%
D12*
%TO.C,U11*%
X54269100Y-70429011D03*
X54269100Y-69309989D03*
D13*
X52427600Y-70429000D03*
X52427600Y-69310000D03*
%TD*%
D18*
%TO.C,R53*%
X53797200Y-48286600D03*
X53797200Y-46636600D03*
%TD*%
D17*
%TO.C,C53*%
X72279600Y-38140200D03*
X72279600Y-35190200D03*
%TD*%
D14*
%TO.C,R17*%
X57570000Y-39751800D03*
X57570000Y-41401800D03*
%TD*%
D26*
%TO.C,U10*%
X59080400Y-53223099D03*
X59080400Y-52723100D03*
X59080400Y-52223101D03*
X59080400Y-51723100D03*
X59080400Y-51223100D03*
X59080400Y-50723099D03*
X59080400Y-50223100D03*
X59080400Y-49723101D03*
D27*
X59781501Y-49022000D03*
X60281500Y-49022000D03*
X60781499Y-49022000D03*
X61281500Y-49022000D03*
X61781500Y-49022000D03*
X62281501Y-49022000D03*
X62781500Y-49022000D03*
X63281499Y-49022000D03*
D26*
X63982600Y-49723101D03*
X63982600Y-50223100D03*
X63982600Y-50723099D03*
X63982600Y-51223100D03*
X63982600Y-51723100D03*
X63982600Y-52223101D03*
X63982600Y-52723100D03*
X63982600Y-53223099D03*
D27*
X63281499Y-53924200D03*
X62781500Y-53924200D03*
X62281501Y-53924200D03*
X61781500Y-53924200D03*
X61281500Y-53924200D03*
X60781499Y-53924200D03*
X60281500Y-53924200D03*
X59781501Y-53924200D03*
D28*
X61531500Y-51473100D03*
%TD*%
D11*
%TO.C,C89*%
X54880000Y-53945000D03*
X54880000Y-55495000D03*
%TD*%
D21*
%TO.C,C52*%
X74641800Y-38240000D03*
X74641800Y-36340000D03*
%TD*%
D29*
%TO.C,U4*%
X62664999Y-41660080D03*
D30*
X61764920Y-41259999D03*
X61764920Y-40760000D03*
X61764920Y-40259999D03*
X61764920Y-39760000D03*
X61764920Y-39260001D03*
X61764920Y-38759999D03*
X61764920Y-38260000D03*
X61764920Y-37759999D03*
D29*
X62664999Y-37360078D03*
X64165001Y-37360078D03*
D30*
X65064918Y-37759999D03*
X65064918Y-38260000D03*
X65064918Y-38759999D03*
X65064918Y-39260001D03*
X65064918Y-39760000D03*
X65064918Y-40259999D03*
X65064918Y-40760000D03*
X65064918Y-41259999D03*
D29*
X64165001Y-41660080D03*
%TD*%
D18*
%TO.C,R47*%
X80892200Y-42267400D03*
X80892200Y-40617400D03*
%TD*%
D16*
%TO.C,R54*%
X55346600Y-44528400D03*
X53696600Y-44528400D03*
%TD*%
%TO.C,R62*%
X56578000Y-62687200D03*
X54928000Y-62687200D03*
%TD*%
D19*
%TO.C,C5*%
X68444200Y-45631400D03*
X66894200Y-45631400D03*
%TD*%
D16*
%TO.C,R46*%
X81605000Y-44120000D03*
X79955000Y-44120000D03*
%TD*%
D24*
%TO.C,C71*%
X94685000Y-30190000D03*
X96235000Y-30190000D03*
%TD*%
D21*
%TO.C,C51*%
X76851600Y-38250200D03*
X76851600Y-36350200D03*
%TD*%
M02*
