%TF.GenerationSoftware,KiCad,Pcbnew,10.0.4*%
%TF.CreationDate,2026-07-08T20:39:23-05:00*%
%TF.ProjectId,monarch_payload_interface_board_rev2,6d6f6e61-7263-4685-9f70-61796c6f6164,rev?*%
%TF.SameCoordinates,Original*%
%TF.FileFunction,Copper,L2,Inr*%
%TF.FilePolarity,Positive*%
%FSLAX46Y46*%
G04 Gerber Fmt 4.6, Leading zero omitted, Abs format (unit mm)*
G04 Created by KiCad (PCBNEW 10.0.4) date 2026-07-08 20:39:23*
%MOMM*%
%LPD*%
G01*
G04 APERTURE LIST*
%TA.AperFunction,ComponentPad*%
%ADD10R,1.700000X1.700000*%
%TD*%
%TA.AperFunction,ComponentPad*%
%ADD11C,1.700000*%
%TD*%
%TA.AperFunction,ComponentPad*%
%ADD12R,0.850000X0.850000*%
%TD*%
%TA.AperFunction,ComponentPad*%
%ADD13C,0.850000*%
%TD*%
%TA.AperFunction,ComponentPad*%
%ADD14C,1.117600*%
%TD*%
%TA.AperFunction,ComponentPad*%
%ADD15C,6.350000*%
%TD*%
%TA.AperFunction,ComponentPad*%
%ADD16R,1.600000X1.600000*%
%TD*%
%TA.AperFunction,ComponentPad*%
%ADD17C,1.600000*%
%TD*%
%TA.AperFunction,ComponentPad*%
%ADD18C,1.100000*%
%TD*%
%TA.AperFunction,ComponentPad*%
%ADD19C,1.600200*%
%TD*%
%TA.AperFunction,ComponentPad*%
%ADD20C,0.499999*%
%TD*%
%TA.AperFunction,ViaPad*%
%ADD21C,0.600000*%
%TD*%
%TA.AperFunction,Conductor*%
%ADD22C,0.200000*%
%TD*%
%TA.AperFunction,Conductor*%
%ADD23C,0.500000*%
%TD*%
G04 APERTURE END LIST*
D10*
%TO.N,/Connectors/UART_PPU_TX*%
%TO.C,J4*%
X53190000Y-29250000D03*
D11*
%TO.N,/Connectors/UART_PPU_RX*%
X55730000Y-29250000D03*
%TO.N,/Connectors/USART3_RX*%
X58270000Y-29250000D03*
%TO.N,/Connectors/USART3_TX*%
X60810000Y-29250000D03*
%TD*%
D12*
%TO.N,Net-(U2-PH3)*%
%TO.C,SW1*%
X74580000Y-57550000D03*
D13*
%TO.N,+3V3*%
X74580000Y-58550000D03*
%TD*%
D14*
%TO.N,+12VA*%
%TO.C,J18*%
X120165801Y-85380000D03*
%TO.N,/Connectors/Valve15-*%
X120165801Y-84130000D03*
%TO.N,+12VA*%
X120165801Y-82880000D03*
%TO.N,/Connectors/Valve16-*%
X120165801Y-81630000D03*
%TO.N,+12VA*%
X120165801Y-80380000D03*
%TO.N,/Connectors/Valve17-*%
X120165801Y-79130000D03*
%TD*%
%TO.N,+12VA*%
%TO.C,J6*%
X94276900Y-100165801D03*
%TO.N,/Connectors/Valve12-*%
X95526900Y-100165801D03*
%TO.N,+12VA*%
X96776900Y-100165801D03*
%TO.N,/Connectors/Valve13-*%
X98026900Y-100165801D03*
%TO.N,+12VA*%
X99276900Y-100165801D03*
%TO.N,/Connectors/Valve14-*%
X100526900Y-100165801D03*
%TD*%
%TO.N,/Connectors/I2C4_SDA*%
%TO.C,J25*%
X48714600Y-26423800D03*
%TO.N,/Connectors/I2C4_SCL*%
X47464600Y-26423800D03*
%TO.N,12VA_VA-*%
X46214600Y-26423800D03*
%TO.N,+3V3*%
X44964600Y-26423800D03*
%TD*%
D15*
%TO.N,*%
%TO.C,U1*%
X39424798Y-26478399D03*
X39424798Y-100138399D03*
X125154798Y-23938399D03*
X125154798Y-103948399D03*
D16*
%TO.N,unconnected-(U1-01-Pad1)*%
X47024798Y-95058399D03*
D17*
%TO.N,unconnected-(U1-02-Pad2)*%
X44484798Y-95058399D03*
%TO.N,unconnected-(U1-03-Pad3)*%
X47024798Y-92518399D03*
%TO.N,unconnected-(U1-04-Pad4)*%
X44484798Y-92518399D03*
%TO.N,unconnected-(U1-05-Pad5)*%
X47024798Y-89978399D03*
%TO.N,unconnected-(U1-06-Pad6)*%
X44484798Y-89978399D03*
%TO.N,unconnected-(U1-07-Pad7)*%
X47024798Y-87438399D03*
%TO.N,unconnected-(U1-08-Pad8)*%
X44484798Y-87438399D03*
%TO.N,unconnected-(U1-09-Pad9)*%
X47024798Y-84898399D03*
%TO.N,unconnected-(U1-Pad10)*%
X44484798Y-84898399D03*
%TO.N,unconnected-(U1-Pad11)*%
X47024798Y-82358399D03*
%TO.N,unconnected-(U1-Pad12)*%
X44484798Y-82358399D03*
%TO.N,unconnected-(U1-Pad13)*%
X47024798Y-79818399D03*
%TO.N,unconnected-(U1-Pad14)*%
X44484798Y-79818399D03*
%TO.N,unconnected-(U1-Pad15)*%
X47024798Y-77278399D03*
%TO.N,unconnected-(U1-Pad16)*%
X44484798Y-77278399D03*
%TO.N,unconnected-(U1-Pad17)*%
X47024798Y-74738399D03*
%TO.N,unconnected-(U1-Pad18)*%
X44484798Y-74738399D03*
%TO.N,unconnected-(U1-Pad19)*%
X47024798Y-72198399D03*
%TO.N,unconnected-(U1-Pad20)*%
X44484798Y-72198399D03*
%TO.N,unconnected-(U1-Pad21)*%
X47024798Y-69658399D03*
%TO.N,unconnected-(U1-Pad22)*%
X44484798Y-69658399D03*
%TO.N,unconnected-(U1-Pad23)*%
X47024798Y-67118399D03*
%TO.N,unconnected-(U1-Pad24)*%
X44484798Y-67118399D03*
%TO.N,unconnected-(U1-Pad25)*%
X47024798Y-64578399D03*
%TO.N,unconnected-(U1-Pad26)*%
X44484798Y-64578399D03*
%TO.N,unconnected-(U1-Pad27)*%
X47024798Y-62038399D03*
%TO.N,unconnected-(U1-Pad28)*%
X44484798Y-62038399D03*
%TO.N,unconnected-(U1-Pad29)*%
X47024798Y-59498399D03*
%TO.N,unconnected-(U1-Pad30)*%
X44484798Y-59498399D03*
%TO.N,/MCU/NRST*%
X47024798Y-56958399D03*
%TO.N,unconnected-(U1-Pad32)*%
X44484798Y-56958399D03*
%TO.N,/Connectors/USART3_TX*%
X47024798Y-54418399D03*
%TO.N,unconnected-(U1-Pad34)*%
X44484798Y-54418399D03*
%TO.N,/Connectors/USART3_RX*%
X47024798Y-51878399D03*
%TO.N,unconnected-(U1-Pad36)*%
X44484798Y-51878399D03*
%TO.N,unconnected-(U1-Pad37)*%
X47024798Y-49338399D03*
%TO.N,unconnected-(U1-Pad38)*%
X44484798Y-49338399D03*
%TO.N,unconnected-(U1-Pad39)*%
X47024798Y-46798399D03*
%TO.N,unconnected-(U1-Pad40)*%
X44484798Y-46798399D03*
%TO.N,unconnected-(U1-Pad41)*%
X47024798Y-44258399D03*
%TO.N,unconnected-(U1-Pad42)*%
X44484798Y-44258399D03*
%TO.N,unconnected-(U1-Pad43)*%
X47024798Y-41718399D03*
%TO.N,unconnected-(U1-Pad44)*%
X44484798Y-41718399D03*
%TO.N,unconnected-(U1-Pad45)*%
X47024798Y-39178399D03*
%TO.N,unconnected-(U1-Pad46)*%
X44484798Y-39178399D03*
%TO.N,unconnected-(U1-Pad47)*%
X47024798Y-36638399D03*
%TO.N,unconnected-(U1-Pad48)*%
X44484798Y-36638399D03*
%TO.N,unconnected-(U1-Pad49)*%
X47024798Y-34098399D03*
%TO.N,unconnected-(U1-Pad50)*%
X44484798Y-34098399D03*
%TO.N,unconnected-(U1-Pad51)*%
X47024798Y-31558399D03*
%TO.N,unconnected-(U1-Pad52)*%
X44484798Y-31558399D03*
%TO.N,unconnected-(U1-01-Pad53)*%
X41944798Y-95058399D03*
%TO.N,unconnected-(U1-02-Pad54)*%
X39404798Y-95058399D03*
%TO.N,unconnected-(U1-03-Pad55)*%
X41944798Y-92518399D03*
%TO.N,unconnected-(U1-04-Pad56)*%
X39404798Y-92518399D03*
%TO.N,unconnected-(U1-05-Pad57)*%
X41944798Y-89978399D03*
%TO.N,unconnected-(U1-06-Pad58)*%
X39404798Y-89978399D03*
%TO.N,unconnected-(U1-07-Pad59)*%
X41944798Y-87438399D03*
%TO.N,unconnected-(U1-08-Pad60)*%
X39404798Y-87438399D03*
%TO.N,12VA_VA-*%
X41944798Y-84898399D03*
%TO.N,unconnected-(U1-10-Pad62)*%
X39404798Y-84898399D03*
%TO.N,unconnected-(U1-11-Pad63)*%
X41944798Y-82358399D03*
%TO.N,unconnected-(U1-12-Pad64)*%
X39404798Y-82358399D03*
%TO.N,unconnected-(U1-13-Pad65)*%
X41944798Y-79818399D03*
%TO.N,12VA_VA-*%
X39404798Y-79818399D03*
%TO.N,unconnected-(U1-15-Pad67)*%
X41944798Y-77278399D03*
%TO.N,unconnected-(U1-16-Pad68)*%
X39404798Y-77278399D03*
%TO.N,12VA_VA-*%
X41944798Y-74738399D03*
%TO.N,unconnected-(U1-18-Pad70)*%
X39404798Y-74738399D03*
%TO.N,unconnected-(U1-19-Pad71)*%
X41944798Y-72198399D03*
%TO.N,unconnected-(U1-20-Pad72)*%
X39404798Y-72198399D03*
%TO.N,12VA_VA-*%
X41944798Y-69658399D03*
X39404798Y-69658399D03*
%TO.N,+12VA_IN*%
X41944798Y-67118399D03*
X39404798Y-67118399D03*
%TO.N,unconnected-(U1-25-Pad77)*%
X41944798Y-64578399D03*
%TO.N,unconnected-(U1-26-Pad78)*%
X39404798Y-64578399D03*
%TO.N,+3V3_IN*%
X41944798Y-62038399D03*
X39404798Y-62038399D03*
%TO.N,12VA_VA-*%
X41944798Y-59498399D03*
X39404798Y-59498399D03*
%TO.N,unconnected-(U1-31-Pad83)*%
X41944798Y-56958399D03*
%TO.N,12VA_VA-*%
X39404798Y-56958399D03*
%TO.N,unconnected-(U1-33-Pad85)*%
X41944798Y-54418399D03*
%TO.N,unconnected-(U1-34-Pad86)*%
X39404798Y-54418399D03*
%TO.N,unconnected-(U1-35-Pad87)*%
X41944798Y-51878399D03*
%TO.N,unconnected-(U1-36-Pad88)*%
X39404798Y-51878399D03*
%TO.N,unconnected-(U1-37-Pad89)*%
X41944798Y-49338399D03*
%TO.N,unconnected-(U1-38-Pad90)*%
X39404798Y-49338399D03*
%TO.N,unconnected-(U1-39-Pad91)*%
X41944798Y-46798399D03*
%TO.N,unconnected-(U1-40-Pad92)*%
X39404798Y-46798399D03*
%TO.N,unconnected-(U1-41-Pad93)*%
X41944798Y-44258399D03*
%TO.N,unconnected-(U1-42-Pad94)*%
X39404798Y-44258399D03*
%TO.N,unconnected-(U1-43-Pad95)*%
X41944798Y-41718399D03*
%TO.N,unconnected-(U1-44-Pad96)*%
X39404798Y-41718399D03*
%TO.N,VBAT_IN*%
X41944798Y-39178399D03*
X39404798Y-39178399D03*
%TO.N,12VA_VA-*%
X41944798Y-36638399D03*
X39404798Y-36638399D03*
%TO.N,unconnected-(U1-49-Pad101)*%
X41944798Y-34098399D03*
%TO.N,unconnected-(U1-50-Pad102)*%
X39404798Y-34098399D03*
%TO.N,unconnected-(U1-51-Pad103)*%
X41944798Y-31558399D03*
%TO.N,unconnected-(U1-52-Pad104)*%
X39404798Y-31558399D03*
%TD*%
D10*
%TO.N,+3V3*%
%TO.C,J17*%
X85120000Y-56000000D03*
D11*
%TO.N,JTDI*%
X85120000Y-58540000D03*
%TO.N,JTCK*%
X82580000Y-56000000D03*
%TO.N,/MCU/NRST*%
X82580000Y-58540000D03*
%TO.N,12VA_VA-*%
X80040000Y-56000000D03*
%TO.N,JTDO*%
X80040000Y-58540000D03*
%TO.N,JTMS*%
X77500000Y-56000000D03*
%TO.N,NJTRST*%
X77500000Y-58540000D03*
%TD*%
D14*
%TO.N,/Connectors/T3-*%
%TO.C,J14*%
X120426201Y-61714600D03*
%TO.N,/Connectors/T3+*%
X120426201Y-60464600D03*
%TO.N,/Connectors/T4-*%
X120426201Y-59214600D03*
%TO.N,/Connectors/T4+*%
X120426201Y-57964600D03*
%TD*%
D10*
%TO.N,/Connectors/T5*%
%TO.C,J2*%
X86000000Y-42540000D03*
D11*
%TO.N,/Connectors/T4*%
X86000000Y-40000000D03*
%TO.N,/Connectors/T3*%
X86000000Y-37460000D03*
%TO.N,/Connectors/T2*%
X86000000Y-34920000D03*
%TO.N,/Connectors/T1*%
X86000000Y-32380000D03*
%TO.N,/Connectors/PT*%
X86000000Y-29840000D03*
%TD*%
D18*
%TO.N,+12VB*%
%TO.C,J1*%
X80775000Y-26500000D03*
%TO.N,/Connectors/Valve4-*%
X79525000Y-26500000D03*
%TD*%
D12*
%TO.N,12VA_VA-*%
%TO.C,SW2*%
X51000000Y-72500000D03*
D13*
%TO.N,/MCU/NRST*%
X50000000Y-72500000D03*
%TD*%
D14*
%TO.N,+12VA*%
%TO.C,J23*%
X108893100Y-26584200D03*
%TO.N,P3REF+*%
X107643100Y-26584200D03*
%TO.N,+12VA*%
X106393100Y-26584200D03*
%TO.N,P4REF+*%
X105143100Y-26584200D03*
%TO.N,+12VA*%
X103893100Y-26584200D03*
%TO.N,P5REF+*%
X102643100Y-26584200D03*
%TD*%
%TO.N,+12VA*%
%TO.C,J20*%
X65126900Y-100165801D03*
%TO.N,/Connectors/Valve5-*%
X66376900Y-100165801D03*
%TO.N,+12VA*%
X67626900Y-100165801D03*
%TO.N,/Connectors/Valve7-*%
X68876900Y-100165801D03*
%TO.N,+12VA*%
X70126900Y-100165801D03*
%TO.N,/Connectors/Valve8-*%
X71376900Y-100165801D03*
%TD*%
D10*
%TO.N,/Connectors/SPI2_MISO*%
%TO.C,J5*%
X105460000Y-70500000D03*
D11*
%TO.N,/Connectors/SPI2_MOSI*%
X108000000Y-70500000D03*
%TO.N,/Connectors/SPI2_SCK*%
X110540000Y-70500000D03*
%TO.N,\u002AFAULT*%
X113080000Y-70500000D03*
%TO.N,\u002ADRDY*%
X115620000Y-70500000D03*
%TD*%
D10*
%TO.N,/Connectors/SPI1_MISO*%
%TO.C,J3*%
X75920000Y-49000000D03*
D11*
%TO.N,/Connectors/SPI1_MOSI*%
X78460000Y-49000000D03*
%TO.N,/Connectors/SPI1_SCK*%
X81000000Y-49000000D03*
%TO.N,/Connectors/ADC*%
X83540000Y-49000000D03*
%TO.N,/Connectors/\u002ASYNC*%
X86080000Y-49000000D03*
%TD*%
D14*
%TO.N,+3V3*%
%TO.C,J24*%
X58893100Y-26500000D03*
%TO.N,12VA_VA-*%
X57643100Y-26500000D03*
%TO.N,/Connectors/UART_PPU_TX*%
X56393100Y-26500000D03*
%TO.N,/Connectors/UART_PPU_RX*%
X55143100Y-26500000D03*
%TO.N,12VA_VA-*%
X53893100Y-26500000D03*
%TO.N,+12VA*%
X52643100Y-26500000D03*
%TD*%
%TO.N,/Connectors/T0-*%
%TO.C,J8*%
X120415801Y-72583100D03*
%TO.N,/Connectors/T0+*%
X120415801Y-71333100D03*
%TO.N,/Connectors/T1-*%
X120415801Y-70083100D03*
%TO.N,/Connectors/T1+*%
X120415801Y-68833100D03*
%TO.N,/Connectors/T2-*%
X120415801Y-67583100D03*
%TO.N,/Connectors/T2+*%
X120415801Y-66333100D03*
%TD*%
%TO.N,+12VA*%
%TO.C,J19*%
X51416900Y-100165801D03*
%TO.N,/Connectors/Valve1-*%
X52666900Y-100165801D03*
%TO.N,+12VA*%
X53916900Y-100165801D03*
%TO.N,/Connectors/Valve2-*%
X55166900Y-100165801D03*
%TO.N,+12VA*%
X56416900Y-100165801D03*
%TO.N,/Connectors/Valve3-*%
X57666900Y-100165801D03*
%TD*%
%TO.N,+12VA*%
%TO.C,J15*%
X88214600Y-26500000D03*
%TO.N,/Connectors/Heater0-*%
X86964600Y-26500000D03*
%TO.N,+12VA*%
X85714600Y-26500000D03*
%TO.N,/Connectors/Valve18-*%
X84464600Y-26500000D03*
%TD*%
D18*
%TO.N,+12VB*%
%TO.C,J16*%
X75700000Y-26500000D03*
%TO.N,/Connectors/Valve6-*%
X74450000Y-26500000D03*
%TD*%
D14*
%TO.N,+12VA*%
%TO.C,J22*%
X120315801Y-53593100D03*
%TO.N,P0REF+*%
X120315801Y-52343100D03*
%TO.N,+12VA*%
X120315801Y-51093100D03*
%TO.N,P1REF+*%
X120315801Y-49843100D03*
%TO.N,+12VA*%
X120315801Y-48593100D03*
%TO.N,P2REF+*%
X120315801Y-47343100D03*
%TD*%
%TO.N,+12VA*%
%TO.C,J13*%
X96714600Y-26500000D03*
%TO.N,P6REF+*%
X95464600Y-26500000D03*
%TO.N,+12VA*%
X94214600Y-26500000D03*
%TO.N,P7REF+*%
X92964600Y-26500000D03*
%TD*%
D19*
%TO.N,12VA_VA-*%
%TO.C,J7*%
X116146900Y-42318100D03*
%TO.N,+12VA*%
X116146900Y-39818100D03*
%TD*%
D14*
%TO.N,+12VA*%
%TO.C,J21*%
X78746900Y-100165801D03*
%TO.N,/Connectors/Valve9-*%
X79996900Y-100165801D03*
%TO.N,+12VA*%
X81246900Y-100165801D03*
%TO.N,/Connectors/Valve10-*%
X82496900Y-100165801D03*
%TO.N,+12VA*%
X83746900Y-100165801D03*
%TO.N,/Connectors/Valve11-*%
X84996900Y-100165801D03*
%TD*%
D20*
%TO.N,12VA_VA-*%
%TO.C,U4*%
X62639919Y-38985079D03*
X62639919Y-40035079D03*
X63414919Y-38235078D03*
X63414919Y-38985079D03*
X63414919Y-40035079D03*
X63414919Y-40785080D03*
X64189919Y-38985079D03*
X64189919Y-40035079D03*
%TD*%
D21*
%TO.N,+3V3*%
X47350000Y-29000000D03*
X100950000Y-38350000D03*
X69300000Y-54400000D03*
X67240000Y-55340000D03*
X91975000Y-44450000D03*
X110360735Y-48089265D03*
X94450000Y-59450000D03*
X48500000Y-63300000D03*
X90100000Y-48900000D03*
X99240000Y-45875000D03*
X55250000Y-68800000D03*
X67070000Y-47698528D03*
X90300000Y-59300000D03*
X64410000Y-46275000D03*
X80850000Y-60930000D03*
X66980000Y-48250000D03*
X106500000Y-59300000D03*
X98014172Y-39775000D03*
X53580000Y-55545000D03*
X106150000Y-47850000D03*
X110184265Y-60884265D03*
X70855000Y-68800000D03*
X96050000Y-48900000D03*
%TO.N,/MCU/NRST*%
X81020000Y-54340000D03*
X53500000Y-59800000D03*
X69150000Y-57530000D03*
%TO.N,12VA_VA-*%
X108270000Y-66160000D03*
X77500000Y-31500000D03*
X122070000Y-93780000D03*
X53460000Y-53945000D03*
X65250000Y-34500000D03*
X77530000Y-32650000D03*
X53530000Y-66620000D03*
X82467000Y-42356800D03*
X88700000Y-39925000D03*
X92247550Y-35952450D03*
X95550000Y-79810000D03*
X99240000Y-41990000D03*
X93047550Y-36752450D03*
X57400000Y-35100000D03*
X69680000Y-31700000D03*
X57350000Y-36350000D03*
X113750000Y-60690000D03*
X79137600Y-31587000D03*
X88550000Y-31225000D03*
X80430000Y-31530000D03*
X117500000Y-49000000D03*
X56254419Y-52255076D03*
X93090000Y-60520000D03*
X65750000Y-45750000D03*
X123250000Y-31750000D03*
X71290000Y-32700000D03*
X72750000Y-33730000D03*
X71771600Y-43929600D03*
X61400000Y-61780000D03*
X71270000Y-33740000D03*
X71230000Y-31590000D03*
X62349765Y-70249765D03*
X113270000Y-66970000D03*
X88675000Y-42900000D03*
X113310000Y-56150000D03*
X63727354Y-42750000D03*
X64000000Y-34500000D03*
X64000000Y-33250000D03*
X103325000Y-28200000D03*
X100325000Y-28200000D03*
X102680000Y-35370000D03*
X58920000Y-55010000D03*
X89425000Y-28150000D03*
X88675000Y-41400000D03*
X86090000Y-74300000D03*
X100800000Y-61130000D03*
X77650000Y-45000000D03*
X104660000Y-44170000D03*
X72730000Y-32640000D03*
X92227450Y-37677450D03*
X80000000Y-35500000D03*
X57340000Y-34160000D03*
X57850000Y-43417600D03*
X73510852Y-58000000D03*
X58040000Y-73710000D03*
X93850001Y-35800000D03*
X79120000Y-33800000D03*
X83300000Y-93500000D03*
X106650000Y-56150000D03*
X67402800Y-32679200D03*
X56100000Y-41400000D03*
X74320000Y-33680000D03*
X65250000Y-33250000D03*
X61156235Y-69746235D03*
X77530000Y-33830000D03*
X113140000Y-80550000D03*
X80500000Y-33910000D03*
X117500000Y-46500000D03*
X107820000Y-38030000D03*
X90425000Y-44450000D03*
X96272500Y-30227500D03*
X67402800Y-33796800D03*
X66350000Y-31950000D03*
X93400000Y-49620000D03*
X98640000Y-93140000D03*
X79137600Y-32679200D03*
X51500000Y-93480000D03*
X51300000Y-48500000D03*
X91010000Y-93130000D03*
X72387500Y-68782500D03*
X97125000Y-28250000D03*
X109360000Y-59190000D03*
X66300000Y-34500000D03*
X67402800Y-31587000D03*
X62680000Y-50723099D03*
X61501000Y-61000000D03*
X106190000Y-93360000D03*
X92250000Y-55520000D03*
X97260000Y-60890000D03*
X72940000Y-72005000D03*
X104760000Y-41540000D03*
X74320000Y-31490000D03*
X65750000Y-44750000D03*
X90648900Y-33340000D03*
X75520000Y-93680000D03*
X58000000Y-48500000D03*
X65250000Y-32000000D03*
X72750000Y-31570000D03*
X59630000Y-93470000D03*
X67270000Y-93400000D03*
X97770000Y-67010000D03*
X80000000Y-66550000D03*
X71000000Y-46133000D03*
X66750000Y-44750000D03*
X97710000Y-56630000D03*
X66894200Y-45631400D03*
X64000000Y-32000000D03*
X64750000Y-44750000D03*
X99080000Y-49690000D03*
X85250000Y-46000000D03*
X80450000Y-32750000D03*
X115200000Y-37150000D03*
X113860000Y-48770000D03*
X63750000Y-44750000D03*
X65980000Y-56500000D03*
X74280000Y-32550000D03*
X109350000Y-28000000D03*
X91150000Y-30725000D03*
X109060000Y-48970000D03*
X92130000Y-66480000D03*
X85150000Y-54091000D03*
X113080000Y-100590000D03*
X93950000Y-37554901D03*
X72520000Y-54410000D03*
X69950000Y-44300000D03*
X76250000Y-45100000D03*
X69720000Y-32760000D03*
X75650000Y-79450000D03*
%TO.N,/Connectors/UART_PPU_TX*%
X53400000Y-52800000D03*
%TO.N,/Connectors/UART_PPU_RX*%
X59050122Y-54168593D03*
X56426662Y-27701868D03*
X51648130Y-28641660D03*
%TO.N,+12VA*%
X89530000Y-83460000D03*
X75610000Y-72450000D03*
X73010000Y-83290000D03*
X97040000Y-72070000D03*
X58760000Y-84580000D03*
X105030000Y-83820000D03*
X72350000Y-25100000D03*
X65330000Y-79940000D03*
X58770000Y-83720000D03*
X113700000Y-86450000D03*
X104840000Y-75850000D03*
X75620000Y-71680000D03*
X74760000Y-71670000D03*
X98450000Y-83890000D03*
X117900000Y-26150000D03*
X96170000Y-72030000D03*
X97670000Y-84740000D03*
X98440000Y-84750000D03*
X105700000Y-75860000D03*
X112840000Y-86440000D03*
X52440000Y-84820000D03*
X73000000Y-84150000D03*
X65030000Y-74830000D03*
X58030000Y-83700000D03*
X52500000Y-83800000D03*
X113600000Y-93260000D03*
X90270000Y-83480000D03*
X65040000Y-74060000D03*
X65370000Y-79070000D03*
X66110000Y-79090000D03*
X113690000Y-87220000D03*
X74740000Y-72410000D03*
X81220000Y-83860000D03*
X64300000Y-83980000D03*
X97710000Y-83870000D03*
X104850000Y-75080000D03*
X64160000Y-74790000D03*
X89490000Y-84330000D03*
X90260000Y-84340000D03*
X65030000Y-84860000D03*
X104290000Y-83800000D03*
X72270000Y-83270000D03*
X64260000Y-84850000D03*
X105020000Y-84680000D03*
X51590000Y-83750000D03*
X80450000Y-83850000D03*
X57990000Y-84570000D03*
X80490000Y-82980000D03*
X117850000Y-25400000D03*
X113640000Y-92390000D03*
X66100000Y-79950000D03*
X119510000Y-99750000D03*
X112820000Y-87180000D03*
X105720000Y-75120000D03*
X81230000Y-83000000D03*
X65040000Y-84000000D03*
X114380000Y-92410000D03*
X104250000Y-84670000D03*
X114370000Y-93270000D03*
X116950000Y-25400000D03*
X72230000Y-84140000D03*
X51610000Y-84810000D03*
X97050000Y-71300000D03*
X64180000Y-74050000D03*
X96190000Y-71290000D03*
X117000000Y-26250000D03*
%TO.N,Net-(U9-REFIN1(+))*%
X93350000Y-33150000D03*
X88550000Y-32775000D03*
X92886765Y-30961765D03*
X88406652Y-37293348D03*
%TO.N,/Connectors/I2C4_SDA*%
X57600000Y-66700000D03*
X50997000Y-55500000D03*
%TO.N,/Connectors/I2C4_SCL*%
X58950000Y-66550000D03*
X49000000Y-29000000D03*
%TO.N,/Connectors/T5*%
X86810000Y-46200000D03*
X94890000Y-47150000D03*
X73570000Y-54450000D03*
X100930000Y-44250000D03*
%TO.N,/Connectors/SPI2_SCK*%
X76390000Y-63560000D03*
X86610000Y-63580000D03*
X104609000Y-52381000D03*
X102333882Y-67122409D03*
X102220000Y-48230000D03*
X104680000Y-63610000D03*
%TO.N,/Connectors/SPI2_MISO*%
X102000000Y-69650000D03*
X88100000Y-61980000D03*
X88240000Y-64210000D03*
X103420000Y-64290000D03*
X103650000Y-53370000D03*
X101320000Y-66820000D03*
X83043741Y-62916490D03*
X77620000Y-62545000D03*
%TO.N,/Connectors/SPI2_MOSI*%
X85760000Y-64810000D03*
X97225000Y-45695000D03*
X102830000Y-67750000D03*
X105210000Y-54400000D03*
X103780000Y-47440000D03*
X73520000Y-61945000D03*
X105280000Y-64910000D03*
X88560000Y-55360000D03*
%TO.N,VBAT*%
X52000000Y-36750000D03*
%TO.N,/MCU/Valve2*%
X55120000Y-76850000D03*
X55470000Y-78890000D03*
%TO.N,/Connectors/T4*%
X70080000Y-52370000D03*
X108880000Y-51500000D03*
X87396237Y-45655637D03*
X94140000Y-46550000D03*
%TO.N,/Connectors/T2*%
X69088220Y-51510000D03*
X108900000Y-62430000D03*
%TO.N,/Connectors/PT*%
X89000000Y-44000000D03*
X94680000Y-40480000D03*
X68595168Y-50880000D03*
%TO.N,/12V Power Supply/EN*%
X63905445Y-54385796D03*
X51300000Y-50701472D03*
%TO.N,/Connectors/ADC*%
X59720000Y-55380000D03*
%TO.N,/Connectors/SPI1_SCK*%
X53590000Y-56560000D03*
X60690000Y-54860000D03*
%TO.N,/Connectors/SPI1_MISO*%
X62310782Y-56295619D03*
%TO.N,/Connectors/SPI1_MOSI*%
X62070000Y-57058527D03*
%TO.N,/MCU/Valve1*%
X54050000Y-76810000D03*
X54070000Y-78770000D03*
%TO.N,/MCU/Valve8*%
X76370000Y-85200000D03*
X76050000Y-76770000D03*
%TO.N,/MCU/Valve4*%
X66200000Y-58900000D03*
X72350000Y-50280000D03*
%TO.N,/MCU/Valve11*%
X64770000Y-69750000D03*
X84380000Y-70370000D03*
%TO.N,/MCU/Valve12*%
X82250000Y-69787000D03*
X65704176Y-69588000D03*
%TO.N,/Heater/Heater0*%
X111000000Y-32400000D03*
X66950000Y-65950000D03*
%TO.N,/MCU/Valve18*%
X117750000Y-36325000D03*
X67050000Y-66800000D03*
%TO.N,JTMS*%
X67110000Y-64230000D03*
%TO.N,JTCK*%
X72650000Y-66145000D03*
%TO.N,JTDI*%
X79250000Y-65580000D03*
X69420000Y-66020000D03*
%TO.N,/MCU/Valve15*%
X115990000Y-89630000D03*
X65290000Y-63180000D03*
%TO.N,/Connectors/\u002ASYNC*%
X72420000Y-60695000D03*
X69240000Y-59600000D03*
X73350000Y-52860000D03*
X67671472Y-58630000D03*
%TO.N,/Connectors/T1*%
X93710000Y-62480000D03*
X75565000Y-53965000D03*
X94100000Y-53580000D03*
%TO.N,/Connectors/T3*%
X87968527Y-44630000D03*
%TO.N,+12VB*%
X80800000Y-28850000D03*
X67465000Y-28430000D03*
X75700000Y-28660000D03*
%TO.N,P6REF+*%
X90100000Y-31700000D03*
X94350000Y-28250000D03*
%TO.N,P3REF+*%
X107500000Y-31000000D03*
%TO.N,P0REF+*%
X96650000Y-37050000D03*
X112850000Y-40350000D03*
%TO.N,P2REF+*%
X100600735Y-34390735D03*
X114439265Y-39840735D03*
%TO.N,\u002ADRDY*%
X96340000Y-62205000D03*
X98081027Y-63260444D03*
%TO.N,\u002AFAULT*%
X100500000Y-66500000D03*
X92000000Y-65500000D03*
%TO.N,Net-(U10-REFIN1(+))*%
X61310000Y-47090000D03*
X65564999Y-51437849D03*
%TO.N,12VA_VB+*%
X62800003Y-66510000D03*
X62827887Y-62999187D03*
%TO.N,12VA_VA+*%
X62029729Y-62944891D03*
X61414000Y-66614000D03*
%TO.N,VBAT_VA+*%
X62281739Y-48265000D03*
X57120000Y-48000000D03*
%TO.N,VBAT_VB+*%
X63302752Y-46994223D03*
X57470000Y-47160000D03*
%TO.N,/Connectors/USART3_RX*%
X44530000Y-25160000D03*
%TD*%
%TO.N,/MCU/NRST*%
D22*
X73060000Y-57450000D02*
X76170000Y-54340000D01*
X69150000Y-57530000D02*
X69230000Y-57450000D01*
X53500000Y-59800000D02*
X67350000Y-59800000D01*
X69230000Y-57450000D02*
X73060000Y-57450000D01*
X76170000Y-54340000D02*
X81020000Y-54340000D01*
X67350000Y-59800000D02*
X69150000Y-58000000D01*
X69150000Y-58000000D02*
X69150000Y-57530000D01*
X69280000Y-57400000D02*
X69150000Y-57530000D01*
%TO.N,/Connectors/UART_PPU_TX*%
X49700000Y-50518515D02*
X49802252Y-50620767D01*
X49700000Y-30799943D02*
X49700000Y-50518515D01*
X51981485Y-52800000D02*
X51672165Y-52490680D01*
X55500000Y-27850000D02*
X55500000Y-27393100D01*
X49996320Y-51790643D02*
X49911467Y-51705790D01*
X51332753Y-52490680D02*
X51184259Y-52639171D01*
X50844849Y-52639172D02*
X50759996Y-52554319D01*
X50759996Y-52214907D02*
X50908487Y-52066413D01*
X50908488Y-51727003D02*
X50823636Y-51642151D01*
X49911467Y-51366378D02*
X50059958Y-51217884D01*
X49975107Y-50793622D02*
X49802252Y-50620767D01*
X49699000Y-29683900D02*
X49699000Y-30798943D01*
X50484224Y-51642151D02*
X50335730Y-51790642D01*
X56393100Y-26886900D02*
X56393100Y-26500000D01*
X55500000Y-27850000D02*
X51532900Y-27850000D01*
X50059959Y-50878474D02*
X49975107Y-50793622D01*
X49699000Y-30798943D02*
X49700000Y-30799943D01*
X55500000Y-27393100D02*
X56393100Y-26500000D01*
X51790000Y-27850000D02*
X53190000Y-29250000D01*
X51532900Y-27850000D02*
X49699000Y-29683900D01*
X51532900Y-27850000D02*
X51790000Y-27850000D01*
X53400000Y-52800000D02*
X51981485Y-52800000D01*
X50059958Y-51217884D02*
G75*
G03*
X50059938Y-50878496I-169658J169684D01*
G01*
X50759996Y-52554319D02*
G75*
G02*
X50759983Y-52214894I169704J169719D01*
G01*
X51672165Y-52490680D02*
G75*
G03*
X51332753Y-52490680I-169706J-169701D01*
G01*
X49911467Y-51705790D02*
G75*
G02*
X49911483Y-51366394I169733J169690D01*
G01*
X50823636Y-51642151D02*
G75*
G03*
X50484224Y-51642151I-169706J-169701D01*
G01*
X50335730Y-51790642D02*
G75*
G02*
X49996296Y-51790668I-169730J169742D01*
G01*
X51184259Y-52639171D02*
G75*
G02*
X50844896Y-52639126I-169659J169671D01*
G01*
X50908487Y-52066413D02*
G75*
G03*
X50908496Y-51726995I-169687J169713D01*
G01*
%TO.N,/Connectors/UART_PPU_RX*%
X50916446Y-51167861D02*
X50918279Y-51167861D01*
X51382791Y-51634206D02*
X51699585Y-51951000D01*
X51306926Y-28641660D02*
X51110000Y-28838586D01*
X50101000Y-50352415D02*
X50223729Y-50475144D01*
X51080304Y-51323708D02*
X51152657Y-51397529D01*
X53450943Y-51951000D02*
X55668536Y-54168593D01*
X51110000Y-28838586D02*
X51110000Y-28840000D01*
X51382791Y-51632333D02*
X51382791Y-51634206D01*
X50101000Y-30633843D02*
X50101000Y-50352415D01*
X56426662Y-27701868D02*
X56426662Y-28553338D01*
X51110000Y-28840000D02*
X50100000Y-29850000D01*
X50534224Y-50785639D02*
X50916446Y-51167861D01*
X50100000Y-29850000D02*
X50100000Y-30632843D01*
X51077291Y-51323678D02*
X51080304Y-51323708D01*
X51226912Y-51470292D02*
X51226943Y-51473322D01*
X50918279Y-51167861D02*
X51077291Y-51323678D01*
X50231887Y-50475228D02*
X50534224Y-50783871D01*
X51152657Y-51397529D02*
X51226912Y-51470292D01*
X51648130Y-28641660D02*
X51306926Y-28641660D01*
X50100000Y-30632843D02*
X50101000Y-30633843D01*
X51226943Y-51473322D02*
X51382791Y-51632333D01*
X50223729Y-50475144D02*
X50231887Y-50475228D01*
X50534224Y-50783871D02*
X50534224Y-50785639D01*
X55668536Y-54168593D02*
X59050122Y-54168593D01*
X56426662Y-28553338D02*
X55730000Y-29250000D01*
X51699585Y-51951000D02*
X53450943Y-51951000D01*
%TO.N,Net-(U9-REFIN1(+))*%
X89250000Y-33475000D02*
X88550000Y-32775000D01*
X90600000Y-32150000D02*
X92400000Y-32150000D01*
X93350000Y-33100000D02*
X93350000Y-33150000D01*
X92886765Y-30988235D02*
X92400000Y-31475000D01*
X92400000Y-32150000D02*
X93350000Y-33100000D01*
X92886765Y-30961765D02*
X92886765Y-30988235D01*
X89175000Y-33575000D02*
X89250000Y-33500000D01*
X88406652Y-37293348D02*
X88138000Y-37024696D01*
X89250000Y-33500000D02*
X89250000Y-33475000D01*
X88138000Y-37024696D02*
X88138000Y-34612000D01*
X88138000Y-34612000D02*
X89175000Y-33575000D01*
X89175000Y-33575000D02*
X90600000Y-32150000D01*
X92400000Y-31475000D02*
X92400000Y-32150000D01*
%TO.N,/Connectors/I2C4_SDA*%
X51250000Y-59415686D02*
X57600000Y-65765686D01*
X51250000Y-55750000D02*
X51250000Y-59415686D01*
X50997000Y-55500000D02*
X51000000Y-55500000D01*
X51000000Y-55500000D02*
X51250000Y-55750000D01*
X57600000Y-65765686D02*
X57600000Y-66700000D01*
%TO.N,/Connectors/I2C4_SCL*%
X49100000Y-52600000D02*
X51650000Y-55150000D01*
X49000000Y-29000000D02*
X49100000Y-29100000D01*
X49100000Y-29100000D02*
X49100000Y-52600000D01*
X51650000Y-55150000D02*
X51650000Y-59250000D01*
X51650000Y-59250000D02*
X58950000Y-66550000D01*
%TO.N,/Connectors/T5*%
X94890000Y-51710000D02*
X93510000Y-53090000D01*
X93510000Y-53090000D02*
X74930000Y-53090000D01*
X100930000Y-44250000D02*
X97630000Y-44250000D01*
X97630000Y-44250000D02*
X94890000Y-46990000D01*
X94890000Y-47150000D02*
X94890000Y-51710000D01*
X74930000Y-53090000D02*
X73570000Y-54450000D01*
X94890000Y-46990000D02*
X94890000Y-47150000D01*
%TO.N,/Connectors/SPI2_SCK*%
X104609000Y-52381000D02*
X104609000Y-50619000D01*
X86590000Y-63560000D02*
X80850000Y-63560000D01*
X103872060Y-50221472D02*
X103751850Y-50341679D01*
X104609000Y-50619000D02*
X104211472Y-50221472D01*
X103483147Y-48913320D02*
X103362938Y-49033528D01*
X86610000Y-63580000D02*
X87900000Y-64870000D01*
X87900000Y-64870000D02*
X87900000Y-67300000D01*
X103412440Y-50341680D02*
X103327587Y-50256827D01*
X86610000Y-63580000D02*
X86590000Y-63560000D01*
X104609000Y-52381000D02*
X104609000Y-63539000D01*
X103787204Y-49457793D02*
X103907412Y-49337585D01*
X102860000Y-48870000D02*
X102220000Y-48230000D01*
X103447794Y-49797205D02*
X103787204Y-49457793D01*
X87900000Y-67300000D02*
X88780000Y-68180000D01*
X104609000Y-63539000D02*
X104680000Y-63610000D01*
X104620000Y-64980000D02*
X104620000Y-63670000D01*
X103907412Y-48998173D02*
X103822559Y-48913320D01*
X103023527Y-49033528D02*
X102938676Y-48948676D01*
X101420000Y-68180000D02*
X104620000Y-64980000D01*
X104620000Y-63670000D02*
X104680000Y-63610000D01*
X79079931Y-63560000D02*
X76390000Y-63560000D01*
X80850000Y-63560000D02*
X79079931Y-63560000D01*
X88780000Y-68180000D02*
X101420000Y-68180000D01*
X102938676Y-48948676D02*
X102860000Y-48870000D01*
X103327587Y-49917415D02*
X103447794Y-49797205D01*
X103907412Y-49337585D02*
G75*
G03*
X103907391Y-48998194I-169712J169685D01*
G01*
X103751850Y-50341679D02*
G75*
G02*
X103412395Y-50341725I-169750J169679D01*
G01*
X103362938Y-49033528D02*
G75*
G02*
X103023526Y-49033529I-169706J169703D01*
G01*
X103822559Y-48913320D02*
G75*
G03*
X103483147Y-48913320I-169706J-169704D01*
G01*
X103327587Y-50256827D02*
G75*
G02*
X103327566Y-49917394I169713J169727D01*
G01*
X104211472Y-50221472D02*
G75*
G03*
X103872060Y-50221472I-169706J-169701D01*
G01*
%TO.N,/Connectors/SPI2_MISO*%
X100361000Y-67779000D02*
X93900449Y-67779000D01*
X92820449Y-67779000D02*
X92700449Y-67779000D01*
X93660449Y-67539000D02*
X93660449Y-67209000D01*
X88240000Y-62120000D02*
X88100000Y-61980000D01*
X101320000Y-66820000D02*
X100361000Y-67779000D01*
X82672251Y-62545000D02*
X83043741Y-62916490D01*
X77620000Y-62545000D02*
X82672251Y-62545000D01*
X93060449Y-67209000D02*
X93060449Y-67539000D01*
X92700449Y-67779000D02*
X92066392Y-67779000D01*
X88240000Y-64210000D02*
X88910000Y-64880000D01*
X103420000Y-57870000D02*
X103420000Y-64290000D01*
X103420000Y-64290000D02*
X103420000Y-64720000D01*
X92066392Y-67779000D02*
X89519000Y-67779000D01*
X103420000Y-57545026D02*
X103420000Y-57870000D01*
X88240000Y-64210000D02*
X88240000Y-62120000D01*
X89519000Y-67779000D02*
X88910000Y-67170000D01*
X103420000Y-64720000D02*
X101320000Y-66820000D01*
X103780000Y-54645026D02*
X103780000Y-55915026D01*
X93420449Y-66969000D02*
X93300449Y-66969000D01*
X88910000Y-67170000D02*
X88910000Y-64880000D01*
X103420000Y-56275026D02*
X103420000Y-57545026D01*
X103650000Y-53370000D02*
X103420000Y-53600000D01*
X103420000Y-53600000D02*
X103420000Y-54285026D01*
X103780000Y-55915026D02*
G75*
G02*
X103600000Y-56095000I-180000J26D01*
G01*
X93300449Y-66969000D02*
G75*
G03*
X93060400Y-67209000I-49J-240000D01*
G01*
X93900449Y-67779000D02*
G75*
G02*
X93660400Y-67539000I-49J240000D01*
G01*
X93060449Y-67539000D02*
G75*
G02*
X92820449Y-67778949I-239949J0D01*
G01*
X103600000Y-54465026D02*
G75*
G02*
X103779974Y-54645026I0J-179974D01*
G01*
X103600000Y-56095026D02*
G75*
G03*
X103420026Y-56275026I0J-179974D01*
G01*
X103420000Y-54285026D02*
G75*
G03*
X103600000Y-54465000I180000J26D01*
G01*
X93660449Y-67209000D02*
G75*
G03*
X93420449Y-66969051I-239949J0D01*
G01*
%TO.N,/Connectors/SPI2_MOSI*%
X84766000Y-62399000D02*
X84766000Y-61945000D01*
X84766000Y-61945000D02*
X84766000Y-61491000D01*
X83886000Y-61945000D02*
X83886000Y-61491000D01*
X84326000Y-61491000D02*
X84326000Y-61945000D01*
X83622000Y-62575000D02*
X83710000Y-62575000D01*
X73520000Y-61960000D02*
X76370000Y-64810000D01*
X83270000Y-61945000D02*
X73520000Y-61945000D01*
X83446000Y-62121000D02*
X83446000Y-62399000D01*
X87095000Y-61945000D02*
X88520000Y-60520000D01*
X85206000Y-61945000D02*
X85206000Y-62121000D01*
X73520000Y-61945000D02*
X73520000Y-61960000D01*
X85760000Y-64810000D02*
X76370000Y-64810000D01*
X97225000Y-45695000D02*
X98970000Y-47440000D01*
X105280000Y-57346358D02*
X105280000Y-57606358D01*
X86460000Y-61945000D02*
X87095000Y-61945000D01*
X105280000Y-58060000D02*
X105280000Y-64910000D01*
X85910000Y-61945000D02*
X86460000Y-61945000D01*
X84326000Y-61945000D02*
X84326000Y-62399000D01*
X88520000Y-60520000D02*
X88520000Y-55400000D01*
X85382000Y-62575000D02*
X85470000Y-62575000D01*
X83886000Y-62399000D02*
X83886000Y-62121000D01*
X84062000Y-61315000D02*
X84150000Y-61315000D01*
X105210000Y-48870000D02*
X103780000Y-47440000D01*
X105620000Y-56746358D02*
X105620000Y-57006358D01*
X83886000Y-62121000D02*
X83886000Y-61945000D01*
X98970000Y-47440000D02*
X103780000Y-47440000D01*
X84942000Y-61315000D02*
X85030000Y-61315000D01*
X105210000Y-54400000D02*
X105280000Y-54470000D01*
X105280000Y-57606358D02*
X105280000Y-58060000D01*
X88520000Y-55400000D02*
X88560000Y-55360000D01*
X105210000Y-54400000D02*
X105210000Y-48870000D01*
X85206000Y-61491000D02*
X85206000Y-61945000D01*
X105280000Y-65300000D02*
X105280000Y-64910000D01*
X85646000Y-62399000D02*
X85646000Y-62121000D01*
X85206000Y-62121000D02*
X85206000Y-62399000D01*
X105280000Y-54470000D02*
X105280000Y-56406358D01*
X102830000Y-67750000D02*
X105280000Y-65300000D01*
X84502000Y-62575000D02*
X84590000Y-62575000D01*
X85822000Y-61945000D02*
X85910000Y-61945000D01*
X105450000Y-57176358D02*
G75*
G03*
X105279958Y-57346358I0J-170042D01*
G01*
X105450000Y-56576358D02*
G75*
G02*
X105620042Y-56746358I0J-170042D01*
G01*
X105280000Y-56406358D02*
G75*
G03*
X105450000Y-56576400I170000J-42D01*
G01*
X84766000Y-61491000D02*
G75*
G02*
X84942000Y-61315000I176000J0D01*
G01*
X85206000Y-62399000D02*
G75*
G03*
X85382000Y-62575000I176000J0D01*
G01*
X83710000Y-62575000D02*
G75*
G03*
X83886000Y-62399000I0J176000D01*
G01*
X85646000Y-62121000D02*
G75*
G02*
X85822000Y-61945000I176000J0D01*
G01*
X105620000Y-57006358D02*
G75*
G02*
X105450000Y-57176400I-170000J-42D01*
G01*
X85030000Y-61315000D02*
G75*
G02*
X85206000Y-61491000I0J-176000D01*
G01*
X83270000Y-61945000D02*
G75*
G02*
X83446000Y-62121000I0J-176000D01*
G01*
X84590000Y-62575000D02*
G75*
G03*
X84766000Y-62399000I0J176000D01*
G01*
X84150000Y-61315000D02*
G75*
G02*
X84326000Y-61491000I0J-176000D01*
G01*
X84326000Y-62399000D02*
G75*
G03*
X84502000Y-62575000I176000J0D01*
G01*
X83886000Y-61491000D02*
G75*
G02*
X84062000Y-61315000I176000J0D01*
G01*
X85470000Y-62575000D02*
G75*
G03*
X85646000Y-62399000I0J176000D01*
G01*
X83446000Y-62399000D02*
G75*
G03*
X83622000Y-62575000I176000J0D01*
G01*
%TO.N,/MCU/Valve2*%
X55120000Y-78540000D02*
X55470000Y-78890000D01*
X55120000Y-76850000D02*
X55120000Y-78540000D01*
%TO.N,/Connectors/T4*%
X109750000Y-50630000D02*
X108880000Y-51500000D01*
X70080000Y-52370000D02*
X70430000Y-52020000D01*
X94140000Y-46110000D02*
X96870000Y-43380000D01*
X109750000Y-47650000D02*
X109750000Y-50630000D01*
X92550000Y-52020000D02*
X94140000Y-50430000D01*
X96870000Y-43380000D02*
X105480000Y-43380000D01*
X105480000Y-43380000D02*
X109750000Y-47650000D01*
X70430000Y-52020000D02*
X92550000Y-52020000D01*
X94140000Y-50430000D02*
X94140000Y-46110000D01*
%TO.N,/Connectors/T2*%
X90144775Y-39880000D02*
X94928529Y-39880000D01*
X69088220Y-51510000D02*
X91310000Y-51510000D01*
X112060000Y-48940000D02*
X112060000Y-58160000D01*
X105760000Y-42640000D02*
X112060000Y-48940000D01*
X92520000Y-50300000D02*
X92520000Y-46170000D01*
X108900000Y-61320000D02*
X108900000Y-62430000D01*
X112060000Y-58160000D02*
X108900000Y-61320000D01*
X86000000Y-34920000D02*
X86000000Y-35735225D01*
X96050000Y-42640000D02*
X105760000Y-42640000D01*
X94928529Y-39880000D02*
X96050000Y-41001471D01*
X91310000Y-51510000D02*
X92520000Y-50300000D01*
X92520000Y-46170000D02*
X96050000Y-42640000D01*
X96050000Y-41001471D02*
X96050000Y-42640000D01*
X86000000Y-35735225D02*
X90144775Y-39880000D01*
%TO.N,/Connectors/PT*%
X68839277Y-50909000D02*
X69337163Y-50909000D01*
X91140000Y-41530000D02*
X91140000Y-41860000D01*
X68630000Y-50910000D02*
X68838277Y-50910000D01*
X91140000Y-41860000D02*
X89000000Y-44000000D01*
X68600000Y-50880000D02*
X68630000Y-50910000D01*
X68595168Y-50880000D02*
X68600000Y-50880000D01*
X91140000Y-50880000D02*
X91140000Y-41530000D01*
X69537163Y-51109000D02*
X90911000Y-51109000D01*
X91140000Y-41530000D02*
X92190000Y-40480000D01*
X68838277Y-50910000D02*
X68839277Y-50909000D01*
X92190000Y-40480000D02*
X94680000Y-40480000D01*
X69337163Y-50909000D02*
X69537163Y-51109000D01*
X90911000Y-51109000D02*
X91140000Y-50880000D01*
%TO.N,/12V Power Supply/EN*%
X62369646Y-52850000D02*
X62354469Y-52865177D01*
X55415177Y-52865177D02*
X54100000Y-51550000D01*
X63905445Y-54385796D02*
X63905442Y-54385796D01*
X63905442Y-54385796D02*
X62369646Y-52850000D01*
X51300000Y-50900000D02*
X51300000Y-50701472D01*
X54100000Y-51550000D02*
X51950000Y-51550000D01*
X62354469Y-52865177D02*
X55415177Y-52865177D01*
X51950000Y-51550000D02*
X51300000Y-50900000D01*
%TO.N,/Connectors/ADC*%
X66260000Y-49893040D02*
X68703041Y-47450000D01*
X63667323Y-55495619D02*
X66260000Y-52902942D01*
X68703041Y-47450000D02*
X81990000Y-47450000D01*
X66260000Y-52902942D02*
X66260000Y-49893040D01*
X59720000Y-54981471D02*
X60441471Y-54260000D01*
X61689378Y-54260000D02*
X62924997Y-55495619D01*
X60441471Y-54260000D02*
X61689378Y-54260000D01*
X81990000Y-47450000D02*
X83540000Y-49000000D01*
X62924997Y-55495619D02*
X63667323Y-55495619D01*
X59720000Y-55380000D02*
X59720000Y-54981471D01*
%TO.N,/Connectors/SPI1_SCK*%
X53610000Y-56580000D02*
X59470000Y-56580000D01*
X60690000Y-54860000D02*
X61723692Y-54860000D01*
X59470000Y-56580000D02*
X60690000Y-55360000D01*
X66660000Y-50058726D02*
X68868726Y-47850000D01*
X60690000Y-55360000D02*
X60690000Y-54860000D01*
X63833009Y-55895619D02*
X66660000Y-53068628D01*
X68868726Y-47850000D02*
X79850000Y-47850000D01*
X61723692Y-54860000D02*
X62759311Y-55895619D01*
X53590000Y-56560000D02*
X53610000Y-56580000D01*
X62759311Y-55895619D02*
X63833009Y-55895619D01*
X66660000Y-53068628D02*
X66660000Y-50058726D01*
X79850000Y-47850000D02*
X81000000Y-49000000D01*
%TO.N,/Connectors/SPI1_MISO*%
X62310782Y-56295619D02*
X63998695Y-56295619D01*
X63998695Y-56295619D02*
X67060000Y-53234314D01*
X74745686Y-49000000D02*
X75920000Y-49000000D01*
X67060000Y-53234314D02*
X67060000Y-50224412D01*
X74465686Y-49280000D02*
X74745686Y-49000000D01*
X67060000Y-50224412D02*
X68004413Y-49280000D01*
X68004413Y-49280000D02*
X74465686Y-49280000D01*
%TO.N,/Connectors/SPI1_MOSI*%
X77310000Y-50150000D02*
X78460000Y-49000000D01*
X67460000Y-53400000D02*
X67460000Y-50390098D01*
X63801473Y-57058527D02*
X67460000Y-53400000D01*
X62070000Y-57058527D02*
X63801473Y-57058527D01*
X67460000Y-50390098D02*
X68170098Y-49680000D01*
X74300000Y-49680000D02*
X74770000Y-50150000D01*
X74770000Y-50150000D02*
X77310000Y-50150000D01*
X68170098Y-49680000D02*
X74300000Y-49680000D01*
%TO.N,/MCU/Valve1*%
X54050000Y-76810000D02*
X54050000Y-78750000D01*
X54050000Y-78750000D02*
X54070000Y-78770000D01*
%TO.N,/MCU/Valve8*%
X76370000Y-85200000D02*
X76370000Y-77090000D01*
X76370000Y-77090000D02*
X76050000Y-76770000D01*
%TO.N,/MCU/Valve4*%
X67860000Y-57240000D02*
X66200000Y-58900000D01*
X68135784Y-50280000D02*
X67860000Y-50555784D01*
X67860000Y-50555784D02*
X67860000Y-57240000D01*
X72350000Y-50280000D02*
X68135784Y-50280000D01*
%TO.N,/MCU/Valve11*%
X65414627Y-70394627D02*
X84355373Y-70394627D01*
X84355373Y-70394627D02*
X84380000Y-70370000D01*
X64770000Y-69750000D02*
X65414627Y-70394627D01*
%TO.N,/MCU/Valve12*%
X75578000Y-69588000D02*
X75740000Y-69750000D01*
X82213000Y-69750000D02*
X82250000Y-69787000D01*
X75740000Y-69750000D02*
X82213000Y-69750000D01*
X65704176Y-69588000D02*
X75578000Y-69588000D01*
%TO.N,/Heater/Heater0*%
X114950000Y-67650000D02*
X114950000Y-40075291D01*
X114966265Y-40059026D02*
X114966265Y-39622444D01*
X79298100Y-68581000D02*
X114019000Y-68581000D01*
X111000000Y-34850000D02*
X111000000Y-32400000D01*
X114019000Y-68581000D02*
X114950000Y-67650000D01*
X66950000Y-65950000D02*
X67050000Y-65950000D01*
X114966265Y-39622444D02*
X114950000Y-39606179D01*
X114950000Y-40075291D02*
X114966265Y-40059026D01*
X68299000Y-67199000D02*
X77916100Y-67199000D01*
X77916100Y-67199000D02*
X79298100Y-68581000D01*
X114950000Y-38800000D02*
X111000000Y-34850000D01*
X67050000Y-65950000D02*
X68299000Y-67199000D01*
X114950000Y-39606179D02*
X114950000Y-38800000D01*
%TO.N,/MCU/Valve18*%
X117750000Y-36325000D02*
X118750000Y-37325000D01*
X79200000Y-69050000D02*
X77750000Y-67600000D01*
X118750000Y-37325000D02*
X118750000Y-43528055D01*
X116100000Y-68250000D02*
X115300000Y-69050000D01*
X118750000Y-43528055D02*
X116100000Y-46178055D01*
X67850000Y-67600000D02*
X67050000Y-66800000D01*
X115300000Y-69050000D02*
X79200000Y-69050000D01*
X77750000Y-67600000D02*
X67850000Y-67600000D01*
X116100000Y-46178055D02*
X116100000Y-68250000D01*
%TO.N,JTMS*%
X75277653Y-58222347D02*
X77500000Y-56000000D01*
X73855000Y-58850305D02*
X74279695Y-59275000D01*
X69340000Y-58600000D02*
X73855000Y-58600000D01*
X67110000Y-64230000D02*
X67110000Y-60830000D01*
X74880305Y-59275000D02*
X75305000Y-58850305D01*
X75305000Y-58249695D02*
X75277653Y-58222347D01*
X67110000Y-60830000D02*
X69340000Y-58600000D01*
X73855000Y-58600000D02*
X73855000Y-58850305D01*
X75305000Y-58850305D02*
X75305000Y-58249695D01*
X74279695Y-59275000D02*
X74880305Y-59275000D01*
%TO.N,JTCK*%
X72650000Y-66145000D02*
X72650000Y-61520000D01*
X72650000Y-61520000D02*
X72970000Y-61200000D01*
X81430000Y-59016346D02*
X81430000Y-57150000D01*
X81430000Y-57150000D02*
X82580000Y-56000000D01*
X79246346Y-61200000D02*
X81430000Y-59016346D01*
X72970000Y-61200000D02*
X79246346Y-61200000D01*
%TO.N,JTDI*%
X69289722Y-66419722D02*
X69615000Y-66745000D01*
X69420000Y-66020000D02*
X69420000Y-66119444D01*
X69289722Y-66249722D02*
X69289722Y-66419722D01*
X69420000Y-66119444D02*
X69289722Y-66249722D01*
X78085000Y-66745000D02*
X79250000Y-65580000D01*
X69615000Y-66745000D02*
X78085000Y-66745000D01*
%TO.N,/MCU/Valve15*%
X115980000Y-89620000D02*
X115990000Y-89630000D01*
X65260000Y-63180000D02*
X64080000Y-64360000D01*
X71630000Y-74540000D02*
X82280000Y-74540000D01*
X65290000Y-63180000D02*
X65260000Y-63180000D01*
X64080000Y-64360000D02*
X64080000Y-71310000D01*
X97360000Y-89620000D02*
X115980000Y-89620000D01*
X64080000Y-71310000D02*
X67310000Y-74540000D01*
X82280000Y-74540000D02*
X97360000Y-89620000D01*
X67310000Y-74540000D02*
X71740000Y-74540000D01*
%TO.N,/Connectors/\u002ASYNC*%
X70335000Y-60695000D02*
X72420000Y-60695000D01*
X69240000Y-59600000D02*
X70335000Y-60695000D01*
X73350000Y-52860000D02*
X72971471Y-52860000D01*
X72971471Y-52860000D02*
X67671472Y-58159999D01*
X67671472Y-58159999D02*
X67671472Y-58630000D01*
%TO.N,/Connectors/T1*%
X75565000Y-53965000D02*
X76039000Y-53491000D01*
X92869500Y-54500500D02*
X93720000Y-55351000D01*
X93720000Y-62470000D02*
X93710000Y-62480000D01*
X76039000Y-53491000D02*
X91860000Y-53491000D01*
X94060000Y-53580000D02*
X93139500Y-54500500D01*
X93139500Y-54500500D02*
X92869500Y-54500500D01*
X91860000Y-53491000D02*
X92869500Y-54500500D01*
X94100000Y-53580000D02*
X94060000Y-53580000D01*
X93720000Y-55351000D02*
X93720000Y-62470000D01*
%TO.N,+12VB*%
D23*
X80800000Y-28850000D02*
X80800000Y-26525000D01*
X80800000Y-26525000D02*
X80775000Y-26500000D01*
X75700000Y-28660000D02*
X75700000Y-26500000D01*
%TO.N,P6REF+*%
D22*
X90250000Y-31550000D02*
X91450000Y-31550000D01*
X91450000Y-31550000D02*
X94237352Y-28762648D01*
X90100000Y-31700000D02*
X90250000Y-31550000D01*
X94237352Y-28762648D02*
X94237352Y-28250000D01*
%TO.N,P3REF+*%
X107643100Y-30856900D02*
X107500000Y-31000000D01*
X107643100Y-26584200D02*
X107643100Y-30856900D01*
%TO.N,P0REF+*%
X96700000Y-37000000D02*
X109500000Y-37000000D01*
X96650000Y-37050000D02*
X96700000Y-37000000D01*
X109500000Y-37000000D02*
X112850000Y-40350000D01*
%TO.N,P2REF+*%
X108989265Y-34390735D02*
X114439265Y-39840735D01*
X100600735Y-34390735D02*
X108989265Y-34390735D01*
%TO.N,\u002ADRDY*%
X97053527Y-62205000D02*
X96340000Y-62205000D01*
X98081027Y-63232500D02*
X97053527Y-62205000D01*
X98081027Y-63260444D02*
X98081027Y-63232500D01*
%TO.N,\u002AFAULT*%
X99500000Y-65500000D02*
X92000000Y-65500000D01*
X100500000Y-66500000D02*
X99500000Y-65500000D01*
%TO.N,Net-(U10-REFIN1(+))*%
X65564999Y-50104999D02*
X62550000Y-47090000D01*
X65564999Y-51437849D02*
X65564999Y-50104999D01*
X62550000Y-47090000D02*
X61310000Y-47090000D01*
X65590000Y-51560000D02*
X65590000Y-51462850D01*
X65590000Y-51462850D02*
X65564999Y-51437849D01*
%TO.N,12VA_VB+*%
X62800003Y-66510000D02*
X62800003Y-63215503D01*
%TO.N,12VA_VA+*%
X62029729Y-65998271D02*
X61414000Y-66614000D01*
X62029729Y-62944891D02*
X62029729Y-65998271D01*
%TO.N,/Connectors/USART3_RX*%
X58767627Y-25160000D02*
X60080000Y-26472373D01*
X60080000Y-27440000D02*
X58270000Y-29250000D01*
X44530000Y-25160000D02*
X58767627Y-25160000D01*
X60080000Y-26472373D02*
X60080000Y-27440000D01*
%TD*%
%TA.AperFunction,Conductor*%
%TO.N,12VA_VA-*%
G36*
X51782539Y-29629685D02*
G01*
X51828294Y-29682489D01*
X51839500Y-29734000D01*
X51839500Y-30147870D01*
X51839501Y-30147876D01*
X51845908Y-30207483D01*
X51896202Y-30342328D01*
X51896206Y-30342335D01*
X51982452Y-30457544D01*
X51982455Y-30457547D01*
X52097664Y-30543793D01*
X52097671Y-30543797D01*
X52232517Y-30594091D01*
X52232516Y-30594091D01*
X52239444Y-30594835D01*
X52292127Y-30600500D01*
X54087872Y-30600499D01*
X54147483Y-30594091D01*
X54282331Y-30543796D01*
X54397546Y-30457546D01*
X54483796Y-30342331D01*
X54532810Y-30210916D01*
X54574681Y-30154984D01*
X54640145Y-30130566D01*
X54708418Y-30145417D01*
X54736673Y-30166569D01*
X54850213Y-30280109D01*
X55022179Y-30405048D01*
X55022181Y-30405049D01*
X55022184Y-30405051D01*
X55211588Y-30501557D01*
X55413757Y-30567246D01*
X55623713Y-30600500D01*
X55623714Y-30600500D01*
X55836286Y-30600500D01*
X55836287Y-30600500D01*
X56046243Y-30567246D01*
X56248412Y-30501557D01*
X56437816Y-30405051D01*
X56524138Y-30342335D01*
X56609786Y-30280109D01*
X56609788Y-30280106D01*
X56609792Y-30280104D01*
X56760104Y-30129792D01*
X56760106Y-30129788D01*
X56760109Y-30129786D01*
X56885048Y-29957820D01*
X56885047Y-29957820D01*
X56885051Y-29957816D01*
X56889514Y-29949054D01*
X56937488Y-29898259D01*
X57005308Y-29881463D01*
X57071444Y-29903999D01*
X57110486Y-29949056D01*
X57114951Y-29957820D01*
X57239890Y-30129786D01*
X57390213Y-30280109D01*
X57562179Y-30405048D01*
X57562181Y-30405049D01*
X57562184Y-30405051D01*
X57751588Y-30501557D01*
X57953757Y-30567246D01*
X58163713Y-30600500D01*
X58163714Y-30600500D01*
X58376286Y-30600500D01*
X58376287Y-30600500D01*
X58586243Y-30567246D01*
X58788412Y-30501557D01*
X58977816Y-30405051D01*
X59064138Y-30342335D01*
X59149786Y-30280109D01*
X59149788Y-30280106D01*
X59149792Y-30280104D01*
X59300104Y-30129792D01*
X59300106Y-30129788D01*
X59300109Y-30129786D01*
X59425048Y-29957820D01*
X59425047Y-29957820D01*
X59425051Y-29957816D01*
X59429514Y-29949054D01*
X59477488Y-29898259D01*
X59545308Y-29881463D01*
X59611444Y-29903999D01*
X59650486Y-29949056D01*
X59654951Y-29957820D01*
X59779890Y-30129786D01*
X59930213Y-30280109D01*
X60102179Y-30405048D01*
X60102181Y-30405049D01*
X60102184Y-30405051D01*
X60291588Y-30501557D01*
X60493757Y-30567246D01*
X60703713Y-30600500D01*
X60703714Y-30600500D01*
X60916286Y-30600500D01*
X60916287Y-30600500D01*
X61126243Y-30567246D01*
X61328412Y-30501557D01*
X61517816Y-30405051D01*
X61604138Y-30342335D01*
X61689786Y-30280109D01*
X61689788Y-30280106D01*
X61689792Y-30280104D01*
X61840104Y-30129792D01*
X61840106Y-30129788D01*
X61840109Y-30129786D01*
X61965048Y-29957820D01*
X61965047Y-29957820D01*
X61965051Y-29957816D01*
X62061557Y-29768412D01*
X62061558Y-29768409D01*
X62085189Y-29695682D01*
X62124626Y-29638007D01*
X62188985Y-29610808D01*
X62203120Y-29610000D01*
X80518331Y-29610000D01*
X80560546Y-29618397D01*
X80560676Y-29617969D01*
X80565021Y-29619287D01*
X80565783Y-29619438D01*
X80566503Y-29619737D01*
X80700139Y-29646319D01*
X80721153Y-29650499D01*
X80721156Y-29650500D01*
X80721158Y-29650500D01*
X80878844Y-29650500D01*
X80878845Y-29650499D01*
X81033497Y-29619737D01*
X81034216Y-29619438D01*
X81034978Y-29619287D01*
X81039324Y-29617969D01*
X81039453Y-29618397D01*
X81081669Y-29610000D01*
X84525500Y-29610000D01*
X84592539Y-29629685D01*
X84638294Y-29682489D01*
X84649500Y-29734000D01*
X84649500Y-29946286D01*
X84682554Y-30154984D01*
X84682754Y-30156243D01*
X84743219Y-30342335D01*
X84748444Y-30358414D01*
X84844951Y-30547820D01*
X84969890Y-30719786D01*
X85120213Y-30870109D01*
X85292182Y-30995050D01*
X85300946Y-30999516D01*
X85351742Y-31047491D01*
X85368536Y-31115312D01*
X85345998Y-31181447D01*
X85300946Y-31220484D01*
X85292182Y-31224949D01*
X85120213Y-31349890D01*
X84969890Y-31500213D01*
X84844951Y-31672179D01*
X84748444Y-31861585D01*
X84682753Y-32063760D01*
X84649500Y-32273713D01*
X84649500Y-32486286D01*
X84682740Y-32696158D01*
X84682754Y-32696243D01*
X84733961Y-32853842D01*
X84748444Y-32898414D01*
X84844951Y-33087820D01*
X84969890Y-33259786D01*
X85120213Y-33410109D01*
X85292182Y-33535050D01*
X85300946Y-33539516D01*
X85351742Y-33587491D01*
X85368536Y-33655312D01*
X85345998Y-33721447D01*
X85300946Y-33760484D01*
X85292182Y-33764949D01*
X85120213Y-33889890D01*
X84969890Y-34040213D01*
X84844951Y-34212179D01*
X84748444Y-34401585D01*
X84682753Y-34603760D01*
X84649500Y-34813713D01*
X84649500Y-35026286D01*
X84681764Y-35229997D01*
X84682754Y-35236243D01*
X84704430Y-35302956D01*
X84748444Y-35438414D01*
X84844951Y-35627820D01*
X84969890Y-35799786D01*
X85120213Y-35950109D01*
X85292182Y-36075050D01*
X85300946Y-36079516D01*
X85351742Y-36127491D01*
X85368536Y-36195312D01*
X85345998Y-36261447D01*
X85300946Y-36300484D01*
X85292182Y-36304949D01*
X85120213Y-36429890D01*
X84969890Y-36580213D01*
X84844951Y-36752179D01*
X84748444Y-36941585D01*
X84682753Y-37143760D01*
X84649500Y-37353713D01*
X84649500Y-37566286D01*
X84682753Y-37776239D01*
X84748444Y-37978414D01*
X84844951Y-38167820D01*
X84969890Y-38339786D01*
X85120213Y-38490109D01*
X85292182Y-38615050D01*
X85300946Y-38619516D01*
X85351742Y-38667491D01*
X85368536Y-38735312D01*
X85345998Y-38801447D01*
X85300946Y-38840484D01*
X85292182Y-38844949D01*
X85120213Y-38969890D01*
X84969890Y-39120213D01*
X84844951Y-39292179D01*
X84748444Y-39481585D01*
X84748443Y-39481587D01*
X84748443Y-39481588D01*
X84738794Y-39511284D01*
X84682753Y-39683760D01*
X84664193Y-39800943D01*
X84649500Y-39893713D01*
X84649500Y-40106287D01*
X84682754Y-40316243D01*
X84713425Y-40410639D01*
X84748444Y-40518414D01*
X84844951Y-40707820D01*
X84969890Y-40879786D01*
X85083430Y-40993326D01*
X85116915Y-41054649D01*
X85111931Y-41124341D01*
X85070059Y-41180274D01*
X85039083Y-41197189D01*
X84907669Y-41246203D01*
X84907664Y-41246206D01*
X84792455Y-41332452D01*
X84792452Y-41332455D01*
X84706206Y-41447664D01*
X84706202Y-41447671D01*
X84655908Y-41582517D01*
X84653055Y-41609060D01*
X84649501Y-41642123D01*
X84649500Y-41642135D01*
X84649500Y-43437870D01*
X84649501Y-43437876D01*
X84655908Y-43497483D01*
X84706202Y-43632328D01*
X84706206Y-43632335D01*
X84792452Y-43747544D01*
X84792455Y-43747547D01*
X84907664Y-43833793D01*
X84907671Y-43833797D01*
X85042517Y-43884091D01*
X85042516Y-43884091D01*
X85049444Y-43884835D01*
X85102127Y-43890500D01*
X86897872Y-43890499D01*
X86957483Y-43884091D01*
X87092331Y-43833796D01*
X87207546Y-43747546D01*
X87293796Y-43632331D01*
X87344091Y-43497483D01*
X87350500Y-43437873D01*
X87350499Y-41642128D01*
X87344091Y-41582517D01*
X87293796Y-41447669D01*
X87293795Y-41447668D01*
X87293793Y-41447664D01*
X87207547Y-41332455D01*
X87207544Y-41332452D01*
X87092335Y-41246206D01*
X87092328Y-41246202D01*
X86960917Y-41197189D01*
X86904983Y-41155318D01*
X86880566Y-41089853D01*
X86895418Y-41021580D01*
X86916563Y-40993332D01*
X87030104Y-40879792D01*
X87155051Y-40707816D01*
X87251557Y-40518412D01*
X87317246Y-40316243D01*
X87350500Y-40106287D01*
X87350500Y-39893713D01*
X87317246Y-39683757D01*
X87251557Y-39481588D01*
X87155051Y-39292184D01*
X87155049Y-39292181D01*
X87155048Y-39292179D01*
X87030109Y-39120213D01*
X86879786Y-38969890D01*
X86707820Y-38844951D01*
X86707115Y-38844591D01*
X86699054Y-38840485D01*
X86648259Y-38792512D01*
X86631463Y-38724692D01*
X86653999Y-38658556D01*
X86699054Y-38619515D01*
X86707816Y-38615051D01*
X86729789Y-38599086D01*
X86879786Y-38490109D01*
X86879788Y-38490106D01*
X86879792Y-38490104D01*
X87030104Y-38339792D01*
X87030106Y-38339788D01*
X87030109Y-38339786D01*
X87155048Y-38167820D01*
X87155047Y-38167820D01*
X87155051Y-38167816D01*
X87222138Y-38036149D01*
X87270113Y-37985354D01*
X87337934Y-37968559D01*
X87404068Y-37991096D01*
X87420304Y-38004764D01*
X88863681Y-39448141D01*
X88897166Y-39509464D01*
X88900000Y-39535822D01*
X88900000Y-43101944D01*
X88880315Y-43168983D01*
X88827511Y-43214738D01*
X88800193Y-43223561D01*
X88766507Y-43230261D01*
X88766498Y-43230264D01*
X88620827Y-43290602D01*
X88620814Y-43290609D01*
X88489711Y-43378210D01*
X88489707Y-43378213D01*
X88378213Y-43489707D01*
X88378210Y-43489711D01*
X88290609Y-43620814D01*
X88290604Y-43620824D01*
X88231176Y-43764297D01*
X88187335Y-43818700D01*
X88121041Y-43840765D01*
X88092424Y-43838462D01*
X88068951Y-43833793D01*
X88047369Y-43829500D01*
X87889685Y-43829500D01*
X87889682Y-43829500D01*
X87735037Y-43860261D01*
X87735025Y-43860264D01*
X87589354Y-43920602D01*
X87589341Y-43920609D01*
X87458238Y-44008210D01*
X87458234Y-44008213D01*
X87346740Y-44119707D01*
X87346737Y-44119711D01*
X87259136Y-44250814D01*
X87259129Y-44250827D01*
X87198791Y-44396498D01*
X87198788Y-44396510D01*
X87168027Y-44551153D01*
X87168027Y-44708841D01*
X87180309Y-44770591D01*
X87174080Y-44840183D01*
X87131217Y-44895359D01*
X87106144Y-44909342D01*
X87017061Y-44946241D01*
X87017051Y-44946246D01*
X86885948Y-45033847D01*
X86885944Y-45033850D01*
X86774450Y-45145344D01*
X86774447Y-45145348D01*
X86686846Y-45276451D01*
X86686841Y-45276461D01*
X86652279Y-45359901D01*
X86608437Y-45414305D01*
X86581822Y-45427188D01*
X86582130Y-45427932D01*
X86430827Y-45490602D01*
X86430814Y-45490609D01*
X86299711Y-45578210D01*
X86299707Y-45578213D01*
X86188213Y-45689707D01*
X86188210Y-45689711D01*
X86100609Y-45820814D01*
X86100602Y-45820827D01*
X86040264Y-45966498D01*
X86040261Y-45966510D01*
X86009500Y-46121153D01*
X86009500Y-46278846D01*
X86040261Y-46433489D01*
X86040264Y-46433501D01*
X86100602Y-46579172D01*
X86100609Y-46579185D01*
X86188210Y-46710288D01*
X86188213Y-46710292D01*
X86296240Y-46818319D01*
X86329725Y-46879642D01*
X86324741Y-46949334D01*
X86282869Y-47005267D01*
X86217405Y-47029684D01*
X86208559Y-47030000D01*
X82470598Y-47030000D01*
X82403559Y-47010315D01*
X82401823Y-47009180D01*
X82391605Y-47002369D01*
X82358716Y-46969480D01*
X82239240Y-46900501D01*
X82221785Y-46890423D01*
X82069057Y-46849499D01*
X81910943Y-46849499D01*
X81903347Y-46849499D01*
X81903331Y-46849500D01*
X68789710Y-46849500D01*
X68789694Y-46849499D01*
X68782098Y-46849499D01*
X68623984Y-46849499D01*
X68511491Y-46879642D01*
X68471255Y-46890423D01*
X68457262Y-46898502D01*
X68457253Y-46898507D01*
X68453801Y-46900501D01*
X68334325Y-46969480D01*
X68301435Y-47002369D01*
X68291218Y-47009180D01*
X68269115Y-47016073D01*
X68248801Y-47027166D01*
X68225524Y-47029668D01*
X68224517Y-47029983D01*
X68223979Y-47029834D01*
X68222443Y-47030000D01*
X67547955Y-47030000D01*
X67480916Y-47010315D01*
X67479064Y-47009102D01*
X67449185Y-46989137D01*
X67449172Y-46989130D01*
X67303501Y-46928792D01*
X67303489Y-46928789D01*
X67148845Y-46898028D01*
X67148842Y-46898028D01*
X66991158Y-46898028D01*
X66991155Y-46898028D01*
X66836510Y-46928789D01*
X66836498Y-46928792D01*
X66690827Y-46989130D01*
X66690814Y-46989137D01*
X66660936Y-47009102D01*
X66594259Y-47029980D01*
X66592045Y-47030000D01*
X65086441Y-47030000D01*
X65019402Y-47010315D01*
X64973647Y-46957511D01*
X64963703Y-46888353D01*
X64992728Y-46824797D01*
X64998760Y-46818319D01*
X65031786Y-46785292D01*
X65031789Y-46785289D01*
X65119394Y-46654179D01*
X65179737Y-46508497D01*
X65210500Y-46353842D01*
X65210500Y-46196158D01*
X65210500Y-46196155D01*
X65210499Y-46196153D01*
X65179738Y-46041510D01*
X65179737Y-46041503D01*
X65148674Y-45966510D01*
X65119397Y-45895827D01*
X65119390Y-45895814D01*
X65031789Y-45764711D01*
X65031786Y-45764707D01*
X64920292Y-45653213D01*
X64920288Y-45653210D01*
X64789185Y-45565609D01*
X64789172Y-45565602D01*
X64643501Y-45505264D01*
X64643489Y-45505261D01*
X64488845Y-45474500D01*
X64488842Y-45474500D01*
X64331158Y-45474500D01*
X64331155Y-45474500D01*
X64176510Y-45505261D01*
X64176498Y-45505264D01*
X64030827Y-45565602D01*
X64030814Y-45565609D01*
X63899711Y-45653210D01*
X63899707Y-45653213D01*
X63788213Y-45764707D01*
X63788210Y-45764711D01*
X63700609Y-45895814D01*
X63700602Y-45895827D01*
X63640264Y-46041498D01*
X63640262Y-46041507D01*
X63625482Y-46115807D01*
X63593096Y-46177717D01*
X63532380Y-46212291D01*
X63479675Y-46213232D01*
X63381594Y-46193723D01*
X63223910Y-46193723D01*
X63223907Y-46193723D01*
X63069262Y-46224484D01*
X63069250Y-46224487D01*
X62923579Y-46284825D01*
X62923566Y-46284832D01*
X62792464Y-46372432D01*
X62752091Y-46412806D01*
X62711715Y-46453181D01*
X62684783Y-46467887D01*
X62658972Y-46484476D01*
X62652771Y-46485367D01*
X62650395Y-46486665D01*
X62624037Y-46489499D01*
X62470943Y-46489499D01*
X62470939Y-46489499D01*
X62463332Y-46489500D01*
X62463331Y-46489499D01*
X62463331Y-46489500D01*
X61889766Y-46489500D01*
X61822727Y-46469815D01*
X61820875Y-46468602D01*
X61689185Y-46380609D01*
X61689172Y-46380602D01*
X61543501Y-46320264D01*
X61543489Y-46320261D01*
X61388845Y-46289500D01*
X61388842Y-46289500D01*
X61231158Y-46289500D01*
X61231155Y-46289500D01*
X61076510Y-46320261D01*
X61076498Y-46320264D01*
X60930827Y-46380602D01*
X60930814Y-46380609D01*
X60799711Y-46468210D01*
X60799707Y-46468213D01*
X60688213Y-46579707D01*
X60688210Y-46579711D01*
X60600609Y-46710814D01*
X60600602Y-46710827D01*
X60540264Y-46856498D01*
X60540261Y-46856510D01*
X60525605Y-46930191D01*
X60493220Y-46992102D01*
X60432505Y-47026676D01*
X60403988Y-47030000D01*
X58362088Y-47030000D01*
X58295049Y-47010315D01*
X58249294Y-46957511D01*
X58240471Y-46930193D01*
X58239737Y-46926503D01*
X58232650Y-46909394D01*
X58179397Y-46780827D01*
X58179390Y-46780814D01*
X58091789Y-46649711D01*
X58091786Y-46649707D01*
X57980292Y-46538213D01*
X57980288Y-46538210D01*
X57849185Y-46450609D01*
X57849172Y-46450602D01*
X57703501Y-46390264D01*
X57703489Y-46390261D01*
X57548845Y-46359500D01*
X57548842Y-46359500D01*
X57391158Y-46359500D01*
X57391155Y-46359500D01*
X57236510Y-46390261D01*
X57236498Y-46390264D01*
X57090827Y-46450602D01*
X57090814Y-46450609D01*
X56959711Y-46538210D01*
X56959707Y-46538213D01*
X56848213Y-46649707D01*
X56848210Y-46649711D01*
X56760609Y-46780814D01*
X56760602Y-46780827D01*
X56700264Y-46926498D01*
X56700263Y-46926502D01*
X56699530Y-46930190D01*
X56698612Y-46931943D01*
X56698494Y-46932335D01*
X56698419Y-46932312D01*
X56667145Y-46992101D01*
X56606430Y-47026676D01*
X56577912Y-47030000D01*
X50825500Y-47030000D01*
X50758461Y-47010315D01*
X50712706Y-46957511D01*
X50701500Y-46906000D01*
X50701500Y-36671153D01*
X51199500Y-36671153D01*
X51199500Y-36828846D01*
X51230261Y-36983489D01*
X51230264Y-36983501D01*
X51290602Y-37129172D01*
X51290609Y-37129185D01*
X51378210Y-37260288D01*
X51378213Y-37260292D01*
X51489707Y-37371786D01*
X51489711Y-37371789D01*
X51620814Y-37459390D01*
X51620827Y-37459397D01*
X51766498Y-37519735D01*
X51766503Y-37519737D01*
X51921153Y-37550499D01*
X51921156Y-37550500D01*
X51921158Y-37550500D01*
X52078844Y-37550500D01*
X52078845Y-37550499D01*
X52233497Y-37519737D01*
X52379179Y-37459394D01*
X52510289Y-37371789D01*
X52621789Y-37260289D01*
X52709394Y-37129179D01*
X52769737Y-36983497D01*
X52800500Y-36828842D01*
X52800500Y-36671158D01*
X52800500Y-36671155D01*
X52800499Y-36671153D01*
X52769738Y-36516510D01*
X52769737Y-36516503D01*
X52769735Y-36516498D01*
X52709397Y-36370827D01*
X52709390Y-36370814D01*
X52621789Y-36239711D01*
X52621786Y-36239707D01*
X52510292Y-36128213D01*
X52510288Y-36128210D01*
X52379185Y-36040609D01*
X52379172Y-36040602D01*
X52233501Y-35980264D01*
X52233489Y-35980261D01*
X52078845Y-35949500D01*
X52078842Y-35949500D01*
X51921158Y-35949500D01*
X51921155Y-35949500D01*
X51766510Y-35980261D01*
X51766498Y-35980264D01*
X51620827Y-36040602D01*
X51620814Y-36040609D01*
X51489711Y-36128210D01*
X51489707Y-36128213D01*
X51378213Y-36239707D01*
X51378210Y-36239711D01*
X51290609Y-36370814D01*
X51290602Y-36370827D01*
X51230264Y-36516498D01*
X51230261Y-36516510D01*
X51199500Y-36671153D01*
X50701500Y-36671153D01*
X50701500Y-30554330D01*
X50700500Y-30539064D01*
X50700500Y-30150097D01*
X50720185Y-30083058D01*
X50736819Y-30062416D01*
X51152916Y-29646319D01*
X51214239Y-29612834D01*
X51240597Y-29610000D01*
X51715500Y-29610000D01*
X51782539Y-29629685D01*
G37*
%TD.AperFunction*%
%TA.AperFunction,Conductor*%
G36*
X88843039Y-29629685D02*
G01*
X88888794Y-29682489D01*
X88900000Y-29734000D01*
X88900000Y-31877342D01*
X88880315Y-31944381D01*
X88827511Y-31990136D01*
X88758353Y-32000080D01*
X88751809Y-31998959D01*
X88628845Y-31974500D01*
X88628842Y-31974500D01*
X88471158Y-31974500D01*
X88471155Y-31974500D01*
X88316510Y-32005261D01*
X88316498Y-32005264D01*
X88170827Y-32065602D01*
X88170814Y-32065609D01*
X88039711Y-32153210D01*
X88039707Y-32153213D01*
X87928213Y-32264707D01*
X87928210Y-32264711D01*
X87840609Y-32395814D01*
X87840602Y-32395827D01*
X87780264Y-32541498D01*
X87780261Y-32541510D01*
X87749500Y-32696153D01*
X87749500Y-32853846D01*
X87780261Y-33008489D01*
X87780264Y-33008501D01*
X87840602Y-33154172D01*
X87840609Y-33154185D01*
X87928210Y-33285288D01*
X87928213Y-33285292D01*
X88039707Y-33396786D01*
X88039711Y-33396789D01*
X88170814Y-33484390D01*
X88170818Y-33484392D01*
X88170821Y-33484394D01*
X88172987Y-33485291D01*
X88173948Y-33486065D01*
X88176191Y-33487264D01*
X88175963Y-33487689D01*
X88227394Y-33529126D01*
X88249466Y-33595417D01*
X88232193Y-33663119D01*
X88213226Y-33687537D01*
X87772264Y-34128499D01*
X87772257Y-34128506D01*
X87769286Y-34131478D01*
X87769284Y-34131480D01*
X87657480Y-34243284D01*
X87635002Y-34282218D01*
X87628969Y-34292666D01*
X87628969Y-34292667D01*
X87578423Y-34380213D01*
X87535902Y-34538904D01*
X87499536Y-34598564D01*
X87436689Y-34629093D01*
X87367314Y-34620798D01*
X87313436Y-34576312D01*
X87298196Y-34545128D01*
X87294237Y-34532943D01*
X87251557Y-34401588D01*
X87155051Y-34212184D01*
X87155049Y-34212181D01*
X87155048Y-34212179D01*
X87030109Y-34040213D01*
X86879786Y-33889890D01*
X86707820Y-33764951D01*
X86707115Y-33764591D01*
X86699054Y-33760485D01*
X86648259Y-33712512D01*
X86631463Y-33644692D01*
X86653999Y-33578556D01*
X86699054Y-33539515D01*
X86707816Y-33535051D01*
X86777543Y-33484392D01*
X86879786Y-33410109D01*
X86879788Y-33410106D01*
X86879792Y-33410104D01*
X87030104Y-33259792D01*
X87030106Y-33259788D01*
X87030109Y-33259786D01*
X87155048Y-33087820D01*
X87155047Y-33087820D01*
X87155051Y-33087816D01*
X87251557Y-32898412D01*
X87317246Y-32696243D01*
X87350500Y-32486287D01*
X87350500Y-32273713D01*
X87317246Y-32063757D01*
X87251557Y-31861588D01*
X87155051Y-31672184D01*
X87155049Y-31672181D01*
X87155048Y-31672179D01*
X87030109Y-31500213D01*
X86879786Y-31349890D01*
X86707820Y-31224951D01*
X86707115Y-31224591D01*
X86699054Y-31220485D01*
X86648259Y-31172512D01*
X86631463Y-31104692D01*
X86653999Y-31038556D01*
X86699054Y-30999515D01*
X86707816Y-30995051D01*
X86839332Y-30899500D01*
X86879786Y-30870109D01*
X86879788Y-30870106D01*
X86879792Y-30870104D01*
X87030104Y-30719792D01*
X87030106Y-30719788D01*
X87030109Y-30719786D01*
X87155048Y-30547820D01*
X87155047Y-30547820D01*
X87155051Y-30547816D01*
X87251557Y-30358412D01*
X87317246Y-30156243D01*
X87350500Y-29946287D01*
X87350500Y-29734000D01*
X87370185Y-29666961D01*
X87422989Y-29621206D01*
X87474500Y-29610000D01*
X88776000Y-29610000D01*
X88843039Y-29629685D01*
G37*
%TD.AperFunction*%
%TD*%
M02*
