%TF.GenerationSoftware,KiCad,Pcbnew,10.0.4*%
%TF.CreationDate,2026-07-08T20:39:23-05:00*%
%TF.ProjectId,monarch_payload_interface_board_rev2,6d6f6e61-7263-4685-9f70-61796c6f6164,rev?*%
%TF.SameCoordinates,Original*%
%TF.FileFunction,Copper,L1,Top*%
%TF.FilePolarity,Positive*%
%FSLAX46Y46*%
G04 Gerber Fmt 4.6, Leading zero omitted, Abs format (unit mm)*
G04 Created by KiCad (PCBNEW 10.0.4) date 2026-07-08 20:39:23*
%MOMM*%
%LPD*%
G01*
G04 APERTURE LIST*
G04 Aperture macros list*
%AMRoundRect*
0 Rectangle with rounded corners*
0 $1 Rounding radius*
0 $2 $3 $4 $5 $6 $7 $8 $9 X,Y pos of 4 corners*
0 Add a 4 corners polygon primitive as box body*
4,1,4,$2,$3,$4,$5,$6,$7,$8,$9,$2,$3,0*
0 Add four circle primitives for the rounded corners*
1,1,$1+$1,$2,$3*
1,1,$1+$1,$4,$5*
1,1,$1+$1,$6,$7*
1,1,$1+$1,$8,$9*
0 Add four rect primitives between the rounded corners*
20,1,$1+$1,$2,$3,$4,$5,0*
20,1,$1+$1,$4,$5,$6,$7,0*
20,1,$1+$1,$6,$7,$8,$9,0*
20,1,$1+$1,$8,$9,$2,$3,0*%
G04 Aperture macros list end*
%TA.AperFunction,SMDPad,CuDef*%
%ADD10RoundRect,0.200000X-0.200000X-0.275000X0.200000X-0.275000X0.200000X0.275000X-0.200000X0.275000X0*%
%TD*%
%TA.AperFunction,SMDPad,CuDef*%
%ADD11RoundRect,0.225000X0.250000X-0.225000X0.250000X0.225000X-0.250000X0.225000X-0.250000X-0.225000X0*%
%TD*%
%TA.AperFunction,ComponentPad*%
%ADD12R,1.700000X1.700000*%
%TD*%
%TA.AperFunction,ComponentPad*%
%ADD13C,1.700000*%
%TD*%
%TA.AperFunction,ComponentPad*%
%ADD14R,0.850000X0.850000*%
%TD*%
%TA.AperFunction,ComponentPad*%
%ADD15C,0.850000*%
%TD*%
%TA.AperFunction,ComponentPad*%
%ADD16C,1.117600*%
%TD*%
%TA.AperFunction,SMDPad,CuDef*%
%ADD17R,1.850000X0.900000*%
%TD*%
%TA.AperFunction,SMDPad,CuDef*%
%ADD18R,1.850000X3.200000*%
%TD*%
%TA.AperFunction,SMDPad,CuDef*%
%ADD19RoundRect,0.200000X0.275000X-0.200000X0.275000X0.200000X-0.275000X0.200000X-0.275000X-0.200000X0*%
%TD*%
%TA.AperFunction,SMDPad,CuDef*%
%ADD20RoundRect,0.218750X0.218750X0.256250X-0.218750X0.256250X-0.218750X-0.256250X0.218750X-0.256250X0*%
%TD*%
%TA.AperFunction,SMDPad,CuDef*%
%ADD21RoundRect,0.200000X-0.275000X0.200000X-0.275000X-0.200000X0.275000X-0.200000X0.275000X0.200000X0*%
%TD*%
%TA.AperFunction,SMDPad,CuDef*%
%ADD22RoundRect,0.225000X-0.250000X0.225000X-0.250000X-0.225000X0.250000X-0.225000X0.250000X0.225000X0*%
%TD*%
%TA.AperFunction,SMDPad,CuDef*%
%ADD23R,0.900000X1.850000*%
%TD*%
%TA.AperFunction,SMDPad,CuDef*%
%ADD24R,3.200000X1.850000*%
%TD*%
%TA.AperFunction,SMDPad,CuDef*%
%ADD25RoundRect,0.225000X-0.225000X-0.250000X0.225000X-0.250000X0.225000X0.250000X-0.225000X0.250000X0*%
%TD*%
%TA.AperFunction,SMDPad,CuDef*%
%ADD26R,1.579200X1.799400*%
%TD*%
%TA.AperFunction,SMDPad,CuDef*%
%ADD27RoundRect,0.051250X-0.153750X0.698750X-0.153750X-0.698750X0.153750X-0.698750X0.153750X0.698750X0*%
%TD*%
%TA.AperFunction,SMDPad,CuDef*%
%ADD28C,1.000000*%
%TD*%
%TA.AperFunction,SMDPad,CuDef*%
%ADD29RoundRect,0.200000X0.200000X0.275000X-0.200000X0.275000X-0.200000X-0.275000X0.200000X-0.275000X0*%
%TD*%
%TA.AperFunction,SMDPad,CuDef*%
%ADD30RoundRect,0.075000X-0.075000X0.725000X-0.075000X-0.725000X0.075000X-0.725000X0.075000X0.725000X0*%
%TD*%
%TA.AperFunction,SMDPad,CuDef*%
%ADD31RoundRect,0.075000X-0.725000X0.075000X-0.725000X-0.075000X0.725000X-0.075000X0.725000X0.075000X0*%
%TD*%
%TA.AperFunction,ComponentPad*%
%ADD32C,6.350000*%
%TD*%
%TA.AperFunction,ComponentPad*%
%ADD33R,1.600000X1.600000*%
%TD*%
%TA.AperFunction,ComponentPad*%
%ADD34C,1.600000*%
%TD*%
%TA.AperFunction,SMDPad,CuDef*%
%ADD35R,1.799400X1.579200*%
%TD*%
%TA.AperFunction,SMDPad,CuDef*%
%ADD36RoundRect,0.218750X-0.256250X0.218750X-0.256250X-0.218750X0.256250X-0.218750X0.256250X0.218750X0*%
%TD*%
%TA.AperFunction,SMDPad,CuDef*%
%ADD37RoundRect,0.225000X0.225000X0.250000X-0.225000X0.250000X-0.225000X-0.250000X0.225000X-0.250000X0*%
%TD*%
%TA.AperFunction,SMDPad,CuDef*%
%ADD38R,0.812800X0.254000*%
%TD*%
%TA.AperFunction,SMDPad,CuDef*%
%ADD39R,0.254000X0.812800*%
%TD*%
%TA.AperFunction,SMDPad,CuDef*%
%ADD40R,3.759200X3.759200*%
%TD*%
%TA.AperFunction,ComponentPad*%
%ADD41C,1.100000*%
%TD*%
%TA.AperFunction,SMDPad,CuDef*%
%ADD42RoundRect,0.051250X0.698750X0.153750X-0.698750X0.153750X-0.698750X-0.153750X0.698750X-0.153750X0*%
%TD*%
%TA.AperFunction,SMDPad,CuDef*%
%ADD43RoundRect,0.218750X0.256250X-0.218750X0.256250X0.218750X-0.256250X0.218750X-0.256250X-0.218750X0*%
%TD*%
%TA.AperFunction,ComponentPad*%
%ADD44C,1.600200*%
%TD*%
%TA.AperFunction,ComponentPad*%
%ADD45C,0.499999*%
%TD*%
%TA.AperFunction,ViaPad*%
%ADD46C,0.600000*%
%TD*%
%TA.AperFunction,Conductor*%
%ADD47C,0.200000*%
%TD*%
%TA.AperFunction,Conductor*%
%ADD48C,0.500000*%
%TD*%
%TA.AperFunction,Conductor*%
%ADD49C,0.250000*%
%TD*%
G04 APERTURE END LIST*
D10*
%TO.P,R50,1*%
%TO.N,+3V3*%
X50725000Y-59780000D03*
%TO.P,R50,2*%
%TO.N,/MCU/NRST*%
X52375000Y-59780000D03*
%TD*%
D11*
%TO.P,C12,1*%
%TO.N,+3V3*%
X53460000Y-55495000D03*
%TO.P,C12,2*%
%TO.N,12VA_VA-*%
X53460000Y-53945000D03*
%TD*%
D12*
%TO.P,J4,1,Pin_1_1*%
%TO.N,/Connectors/UART_PPU_TX*%
X53190000Y-29250000D03*
D13*
%TO.P,J4,2,Pin_2_2*%
%TO.N,/Connectors/UART_PPU_RX*%
X55730000Y-29250000D03*
%TO.P,J4,3,Pin_3_3*%
%TO.N,/Connectors/USART3_RX*%
X58270000Y-29250000D03*
%TO.P,J4,4,Pin_4_4*%
%TO.N,/Connectors/USART3_TX*%
X60810000Y-29250000D03*
%TD*%
D14*
%TO.P,SW1,1,1_1*%
%TO.N,Net-(U2-PH3)*%
X74580000Y-57550000D03*
D15*
%TO.P,SW1,2,2_2*%
%TO.N,+3V3*%
X74580000Y-58550000D03*
%TD*%
D16*
%TO.P,J18,1,1_1*%
%TO.N,+12VA*%
X120165801Y-85380000D03*
%TO.P,J18,2,2_2*%
%TO.N,/Connectors/Valve15-*%
X120165801Y-84130000D03*
%TO.P,J18,3,3_3*%
%TO.N,+12VA*%
X120165801Y-82880000D03*
%TO.P,J18,4,4_4*%
%TO.N,/Connectors/Valve16-*%
X120165801Y-81630000D03*
%TO.P,J18,5,5_5*%
%TO.N,+12VA*%
X120165801Y-80380000D03*
%TO.P,J18,6,6_6*%
%TO.N,/Connectors/Valve17-*%
X120165801Y-79130000D03*
%TD*%
D17*
%TO.P,Q10,1,B_1*%
%TO.N,Net-(Q10-B)*%
X88300000Y-79420000D03*
%TO.P,Q10,2,C_1_2*%
%TO.N,/Connectors/Valve10-*%
X88300000Y-77120000D03*
%TO.P,Q10,3,E_3*%
%TO.N,12VA_VA-*%
X88300000Y-74820000D03*
D18*
%TO.P,Q10,4,C_2_4*%
%TO.N,/Connectors/Valve10-*%
X82100000Y-77120000D03*
%TD*%
D19*
%TO.P,R57,1*%
%TO.N,Net-(D2-A)*%
X52000000Y-67575000D03*
%TO.P,R57,2*%
%TO.N,/MCU/RED_LED*%
X52000000Y-65925000D03*
%TD*%
D16*
%TO.P,J6,1,1_1*%
%TO.N,+12VA*%
X94276900Y-100165801D03*
%TO.P,J6,2,2_2*%
%TO.N,/Connectors/Valve12-*%
X95526900Y-100165801D03*
%TO.P,J6,3,3_3*%
%TO.N,+12VA*%
X96776900Y-100165801D03*
%TO.P,J6,4,4_4*%
%TO.N,/Connectors/Valve13-*%
X98026900Y-100165801D03*
%TO.P,J6,5,5_5*%
%TO.N,+12VA*%
X99276900Y-100165801D03*
%TO.P,J6,6,6_6*%
%TO.N,/Connectors/Valve14-*%
X100526900Y-100165801D03*
%TD*%
D20*
%TO.P,D6,1,K_1*%
%TO.N,12VA_VA-*%
X67427500Y-29960000D03*
%TO.P,D6,2,A_2*%
%TO.N,Net-(D6-A)*%
X65852500Y-29960000D03*
%TD*%
D21*
%TO.P,R10,1*%
%TO.N,/MCU/Valve10*%
X82990000Y-71095000D03*
%TO.P,R10,2*%
%TO.N,Net-(Q10-B)*%
X82990000Y-72745000D03*
%TD*%
D22*
%TO.P,C17,1*%
%TO.N,12VA_VA-*%
X61420000Y-49330000D03*
%TO.P,C17,2*%
%TO.N,+3V3*%
X61420000Y-50880000D03*
%TD*%
D11*
%TO.P,C76,1*%
%TO.N,Net-(U9-REFIN1(+))*%
X92700000Y-30775000D03*
%TO.P,C76,2*%
%TO.N,12VA_VA-*%
X92700000Y-29225000D03*
%TD*%
D23*
%TO.P,Q11,1,B_1*%
%TO.N,Net-(Q11-B)*%
X95190000Y-91040000D03*
%TO.P,Q11,2,C_1_2*%
%TO.N,/Connectors/Valve11-*%
X92890000Y-91040000D03*
%TO.P,Q11,3,E_3*%
%TO.N,12VA_VA-*%
X90590000Y-91040000D03*
D24*
%TO.P,Q11,4,C_2_4*%
%TO.N,/Connectors/Valve11-*%
X92890000Y-97240000D03*
%TD*%
D25*
%TO.P,C63,1*%
%TO.N,12VA_VA-*%
X88675000Y-41400000D03*
%TO.P,C63,2*%
%TO.N,+3V3*%
X90225000Y-41400000D03*
%TD*%
D26*
%TO.P,CR3,1*%
%TO.N,+12VA*%
X58420000Y-84177000D03*
%TO.P,CR3,2*%
%TO.N,/Connectors/Valve3-*%
X58420000Y-88120000D03*
%TD*%
D16*
%TO.P,J25,1,1_1*%
%TO.N,/Connectors/I2C4_SDA*%
X48714600Y-26423800D03*
%TO.P,J25,2,2_2*%
%TO.N,/Connectors/I2C4_SCL*%
X47464600Y-26423800D03*
%TO.P,J25,3,3_3*%
%TO.N,12VA_VA-*%
X46214600Y-26423800D03*
%TO.P,J25,4,4_4*%
%TO.N,+3V3*%
X44964600Y-26423800D03*
%TD*%
D26*
%TO.P,CR12,1*%
%TO.N,+12VA*%
X98050000Y-84338600D03*
%TO.P,CR12,2*%
%TO.N,/Connectors/Valve12-*%
X98050000Y-88281600D03*
%TD*%
D27*
%TO.P,U8,1,AGND_1*%
%TO.N,12VA_VA-*%
X104890000Y-39880000D03*
%TO.P,U8,2,BIAS_2*%
%TO.N,/Connectors/T4-*%
X104240000Y-39880000D03*
%TO.P,U8,3,T-_3*%
X103590000Y-39880000D03*
%TO.P,U8,4,T+_4*%
%TO.N,/Connectors/T4+*%
X102940000Y-39880000D03*
%TO.P,U8,5,AVDD_5*%
%TO.N,+3V3*%
X102290000Y-39880000D03*
%TO.P,U8,6*%
%TO.N,N/C*%
X101640000Y-39880000D03*
%TO.P,U8,7,~{DRDY}_7*%
%TO.N,unconnected-(U8-~{DRDY}-Pad7)*%
X100990000Y-39880000D03*
%TO.P,U8,8,DVDD_8*%
%TO.N,+3V3*%
X100990000Y-45650000D03*
%TO.P,U8,9,~{CS}_9*%
%TO.N,/Connectors/T5*%
X101640000Y-45650000D03*
%TO.P,U8,10,SCK_10*%
%TO.N,/Connectors/SPI2_SCK*%
X102290000Y-45650000D03*
%TO.P,U8,11,SDO_11*%
%TO.N,/Connectors/SPI2_MISO*%
X102940000Y-45650000D03*
%TO.P,U8,12,SDI_12*%
%TO.N,/Connectors/SPI2_MOSI*%
X103590000Y-45650000D03*
%TO.P,U8,13,~{FAULT}_13*%
%TO.N,unconnected-(U8-~{FAULT}-Pad13)*%
X104240000Y-45650000D03*
%TO.P,U8,14,DGND_14*%
%TO.N,12VA_VA-*%
X104890000Y-45650000D03*
%TD*%
D28*
%TO.P,TP2,1,1_1*%
%TO.N,VBAT*%
X52000000Y-36750000D03*
%TD*%
D10*
%TO.P,R30,1*%
%TO.N,/MCU/Valve17*%
X109675000Y-73400000D03*
%TO.P,R30,2*%
%TO.N,Net-(Q17-B)*%
X111325000Y-73400000D03*
%TD*%
D11*
%TO.P,C15,1*%
%TO.N,+3V3*%
X71480000Y-53090000D03*
%TO.P,C15,2*%
%TO.N,12VA_VA-*%
X71480000Y-51540000D03*
%TD*%
D22*
%TO.P,C27,1*%
%TO.N,/Connectors/T1+*%
X116620000Y-63505000D03*
%TO.P,C27,2*%
%TO.N,/Connectors/T1-*%
X116620000Y-65055000D03*
%TD*%
D26*
%TO.P,CR8,1*%
%TO.N,+12VA*%
X72600000Y-83738600D03*
%TO.P,CR8,2*%
%TO.N,/Connectors/Valve8-*%
X72600000Y-87681600D03*
%TD*%
D21*
%TO.P,R13,1*%
%TO.N,/MCU/Valve13*%
X108850000Y-86975000D03*
%TO.P,R13,2*%
%TO.N,Net-(Q13-B)*%
X108850000Y-88625000D03*
%TD*%
D25*
%TO.P,C30,1*%
%TO.N,+3V3*%
X106515000Y-60470000D03*
%TO.P,C30,2*%
%TO.N,12VA_VA-*%
X108065000Y-60470000D03*
%TD*%
D23*
%TO.P,Q19,1,B_1*%
%TO.N,Net-(Q19-B)*%
X111000000Y-35200000D03*
%TO.P,Q19,2,C_1_2*%
%TO.N,/Connectors/Heater0-*%
X113300000Y-35200000D03*
%TO.P,Q19,3,E_3*%
%TO.N,12VA_VA-*%
X115600000Y-35200000D03*
D24*
%TO.P,Q19,4,C_2_4*%
%TO.N,/Connectors/Heater0-*%
X113300000Y-29000000D03*
%TD*%
D22*
%TO.P,C44,1*%
%TO.N,12VA_VA-*%
X101870000Y-36515000D03*
%TO.P,C44,2*%
%TO.N,+3V3*%
X101870000Y-38065000D03*
%TD*%
D26*
%TO.P,CR1,1*%
%TO.N,+12VA*%
X52060000Y-84358601D03*
%TO.P,CR1,2*%
%TO.N,/Connectors/Valve1-*%
X52060000Y-88301601D03*
%TD*%
D11*
%TO.P,C72,1*%
%TO.N,Net-(U9-REFIN1(+))*%
X88550000Y-32775000D03*
%TO.P,C72,2*%
%TO.N,12VA_VA-*%
X88550000Y-31225000D03*
%TD*%
D29*
%TO.P,R22,1*%
%TO.N,12VA_VA-*%
X56750000Y-72700000D03*
%TO.P,R22,2*%
%TO.N,/MCU/Valve2*%
X55100000Y-72700000D03*
%TD*%
D28*
%TO.P,TP4,1,1_1*%
%TO.N,+12VA*%
X119510000Y-99750000D03*
%TD*%
D30*
%TO.P,U2,1,PE2_1*%
%TO.N,/Connectors/T4*%
X69170000Y-52870000D03*
%TO.P,U2,2,PE3_2*%
%TO.N,/Connectors/T2*%
X68670000Y-52870000D03*
%TO.P,U2,3,PE4_3*%
%TO.N,/Connectors/PT*%
X68170000Y-52870000D03*
%TO.P,U2,4,PE5_4*%
%TO.N,/MCU/Valve6*%
X67670000Y-52870000D03*
%TO.P,U2,5,PE6_5*%
%TO.N,unconnected-(U2-PE6-Pad5)*%
X67170000Y-52870000D03*
%TO.P,U2,6,VBAT_6*%
%TO.N,+3V3*%
X66670000Y-52870000D03*
%TO.P,U2,7,PC13_7*%
%TO.N,unconnected-(U2-PC13-Pad7)*%
X66170000Y-52870000D03*
%TO.P,U2,8,PC14_8*%
%TO.N,unconnected-(U2-PC14-Pad8)*%
X65670000Y-52870000D03*
%TO.P,U2,9,PC15_9*%
%TO.N,unconnected-(U2-PC15-Pad9)*%
X65170000Y-52870000D03*
%TO.P,U2,10,VSS_10*%
%TO.N,12VA_VA-*%
X64670000Y-52870000D03*
%TO.P,U2,11,VDD_11*%
%TO.N,+3V3*%
X64170000Y-52870000D03*
%TO.P,U2,12,PH0_12*%
%TO.N,/12V Power Supply/EN*%
X63670000Y-52870000D03*
%TO.P,U2,13,PH1_13*%
%TO.N,unconnected-(U2-PH1-Pad13)*%
X63170000Y-52870000D03*
%TO.P,U2,14,NRST_14*%
%TO.N,/MCU/NRST*%
X62670000Y-52870000D03*
%TO.P,U2,15,PC0_15*%
%TO.N,unconnected-(U2-PC0-Pad15)*%
X62170000Y-52870000D03*
%TO.P,U2,16,PC1_16*%
%TO.N,unconnected-(U2-PC1-Pad16)*%
X61670000Y-52870000D03*
%TO.P,U2,17,PC2_17*%
%TO.N,unconnected-(U2-PC2-Pad17)*%
X61170000Y-52870000D03*
%TO.P,U2,18,PC3_18*%
%TO.N,unconnected-(U2-PC3-Pad18)*%
X60670000Y-52870000D03*
%TO.P,U2,19,VSSA_19*%
%TO.N,12VA_VA-*%
X60170000Y-52870000D03*
%TO.P,U2,20,VREF-_20*%
X59670000Y-52870000D03*
%TO.P,U2,21,VREF+_21*%
%TO.N,+3V3*%
X59170000Y-52870000D03*
%TO.P,U2,22,VDDA_22*%
X58670000Y-52870000D03*
%TO.P,U2,23,PA0_23*%
%TO.N,/Connectors/UART_PPU_RX*%
X58170000Y-52870000D03*
%TO.P,U2,24,PA1_24*%
%TO.N,/Connectors/UART_PPU_TX*%
X57670000Y-52870000D03*
%TO.P,U2,25,PA2_25*%
%TO.N,unconnected-(U2-PA2-Pad25)*%
X57170000Y-52870000D03*
D31*
%TO.P,U2,26,PA3_26*%
%TO.N,unconnected-(U2-PA3-Pad26)*%
X55495000Y-54545000D03*
%TO.P,U2,27,VSS_27*%
%TO.N,12VA_VA-*%
X55495000Y-55045000D03*
%TO.P,U2,28,VDD_28*%
%TO.N,+3V3*%
X55495000Y-55545000D03*
%TO.P,U2,29,PA4_29*%
%TO.N,/Connectors/ADC*%
X55495000Y-56045000D03*
%TO.P,U2,30,PA5_30*%
%TO.N,/Connectors/SPI1_SCK*%
X55495000Y-56545000D03*
%TO.P,U2,31,PA6_31*%
%TO.N,/Connectors/SPI1_MISO*%
X55495000Y-57045000D03*
%TO.P,U2,32,PA7_32*%
%TO.N,/Connectors/SPI1_MOSI*%
X55495000Y-57545000D03*
%TO.P,U2,33,PC4_33*%
%TO.N,/Connectors/USART3_TX*%
X55495000Y-58045000D03*
%TO.P,U2,34,PC5_34*%
%TO.N,/Connectors/USART3_RX*%
X55495000Y-58545000D03*
%TO.P,U2,35,PB0_35*%
%TO.N,unconnected-(U2-PB0-Pad35)*%
X55495000Y-59045000D03*
%TO.P,U2,36,PB1_36*%
%TO.N,unconnected-(U2-PB1-Pad36)*%
X55495000Y-59545000D03*
%TO.P,U2,37,PB2_37*%
%TO.N,unconnected-(U2-PB2-Pad37)*%
X55495000Y-60045000D03*
%TO.P,U2,38,PE7_38*%
%TO.N,unconnected-(U2-PE7-Pad38)*%
X55495000Y-60545000D03*
%TO.P,U2,39,PE8_39*%
%TO.N,unconnected-(U2-PE8-Pad39)*%
X55495000Y-61045000D03*
%TO.P,U2,40,PE9_40*%
%TO.N,unconnected-(U2-PE9-Pad40)*%
X55495000Y-61545000D03*
%TO.P,U2,41,PE10_41*%
%TO.N,unconnected-(U2-PE10-Pad41)*%
X55495000Y-62045000D03*
%TO.P,U2,42,PE11_42*%
%TO.N,unconnected-(U2-PE11-Pad42)*%
X55495000Y-62545000D03*
%TO.P,U2,43,PE12_43*%
%TO.N,unconnected-(U2-PE12-Pad43)*%
X55495000Y-63045000D03*
%TO.P,U2,44,PE13_44*%
%TO.N,/MCU/BLUE_LED*%
X55495000Y-63545000D03*
%TO.P,U2,45,PE14_45*%
%TO.N,/MCU/GREEN_LED*%
X55495000Y-64045000D03*
%TO.P,U2,46,PE15_46*%
%TO.N,/MCU/RED_LED*%
X55495000Y-64545000D03*
%TO.P,U2,47,PB10_47*%
%TO.N,/Connectors/I2C4_SCL*%
X55495000Y-65045000D03*
%TO.P,U2,48,PB11_48*%
%TO.N,/Connectors/I2C4_SDA*%
X55495000Y-65545000D03*
%TO.P,U2,49,VSS_49*%
%TO.N,12VA_VA-*%
X55495000Y-66045000D03*
%TO.P,U2,50,VDD_50*%
%TO.N,+3V3*%
X55495000Y-66545000D03*
D30*
%TO.P,U2,51,PB12_51*%
%TO.N,/MCU/Valve1*%
X57170000Y-68220000D03*
%TO.P,U2,52,PB13_52*%
%TO.N,/MCU/Valve2*%
X57670000Y-68220000D03*
%TO.P,U2,53,PB14_53*%
%TO.N,/MCU/Valve3*%
X58170000Y-68220000D03*
%TO.P,U2,54,PB15_54*%
%TO.N,/MCU/Valve5*%
X58670000Y-68220000D03*
%TO.P,U2,55,PD8_55*%
%TO.N,/MCU/Valve7*%
X59170000Y-68220000D03*
%TO.P,U2,56,PD9_56*%
%TO.N,/MCU/Valve8*%
X59670000Y-68220000D03*
%TO.P,U2,57,PD10_57*%
%TO.N,unconnected-(U2-PD10-Pad57)*%
X60170000Y-68220000D03*
%TO.P,U2,58,PD11_58*%
%TO.N,unconnected-(U2-PD11-Pad58)*%
X60670000Y-68220000D03*
%TO.P,U2,59,PD12_59*%
%TO.N,unconnected-(U2-PD12-Pad59)*%
X61170000Y-68220000D03*
%TO.P,U2,60,PD13_60*%
%TO.N,unconnected-(U2-PD13-Pad60)*%
X61670000Y-68220000D03*
%TO.P,U2,61,PD14_61*%
%TO.N,unconnected-(U2-PD14-Pad61)*%
X62170000Y-68220000D03*
%TO.P,U2,62,PD15_62*%
%TO.N,unconnected-(U2-PD15-Pad62)*%
X62670000Y-68220000D03*
%TO.P,U2,63,PC6_63*%
%TO.N,/MCU/Valve4*%
X63170000Y-68220000D03*
%TO.P,U2,64,PC7_64*%
%TO.N,/MCU/Valve9*%
X63670000Y-68220000D03*
%TO.P,U2,65,PC8_65*%
%TO.N,/MCU/Valve10*%
X64170000Y-68220000D03*
%TO.P,U2,66,PC9_66*%
%TO.N,/MCU/Valve11*%
X64670000Y-68220000D03*
%TO.P,U2,67,PA8_67*%
%TO.N,/MCU/Valve12*%
X65170000Y-68220000D03*
%TO.P,U2,68,PA9_68*%
%TO.N,unconnected-(U2-PA9-Pad68)*%
X65670000Y-68220000D03*
%TO.P,U2,69,PA10_69*%
%TO.N,/Heater/Heater0*%
X66170000Y-68220000D03*
%TO.P,U2,70,PA11_70*%
%TO.N,/MCU/Valve18*%
X66670000Y-68220000D03*
%TO.P,U2,71,PA12_71*%
%TO.N,unconnected-(U2-PA12-Pad71)*%
X67170000Y-68220000D03*
%TO.P,U2,72,PA13_72*%
%TO.N,JTMS*%
X67670000Y-68220000D03*
%TO.P,U2,73,VDDUSB_73*%
%TO.N,+3V3*%
X68170000Y-68220000D03*
%TO.P,U2,74,VSS_74*%
%TO.N,12VA_VA-*%
X68670000Y-68220000D03*
%TO.P,U2,75,VDD_75*%
%TO.N,+3V3*%
X69170000Y-68220000D03*
D31*
%TO.P,U2,76,PA14_76*%
%TO.N,JTCK*%
X70845000Y-66545000D03*
%TO.P,U2,77,PA15_77*%
%TO.N,JTDI*%
X70845000Y-66045000D03*
%TO.P,U2,78,PC10_78*%
%TO.N,/MCU/Valve13*%
X70845000Y-65545000D03*
%TO.P,U2,79,PC11_79*%
%TO.N,/MCU/Valve14*%
X70845000Y-65045000D03*
%TO.P,U2,80,PC12_80*%
%TO.N,/MCU/Valve16*%
X70845000Y-64545000D03*
%TO.P,U2,81,PD0_81*%
%TO.N,/MCU/Valve17*%
X70845000Y-64045000D03*
%TO.P,U2,82,PD1_82*%
%TO.N,/Connectors/SPI2_SCK*%
X70845000Y-63545000D03*
%TO.P,U2,83,PD2_83*%
%TO.N,/MCU/Valve15*%
X70845000Y-63045000D03*
%TO.P,U2,84,PD3_84*%
%TO.N,/Connectors/SPI2_MISO*%
X70845000Y-62545000D03*
%TO.P,U2,85,PD4_85*%
%TO.N,/Connectors/SPI2_MOSI*%
X70845000Y-62045000D03*
%TO.P,U2,86,PD5_86*%
%TO.N,unconnected-(U2-PD5-Pad86)*%
X70845000Y-61545000D03*
%TO.P,U2,87,PD6_87*%
%TO.N,unconnected-(U2-PD6-Pad87)*%
X70845000Y-61045000D03*
%TO.P,U2,88,PD7_88*%
%TO.N,unconnected-(U2-PD7-Pad88)*%
X70845000Y-60545000D03*
%TO.P,U2,89,PB3_89*%
%TO.N,JTDO*%
X70845000Y-60045000D03*
%TO.P,U2,90,PB4_90*%
%TO.N,NJTRST*%
X70845000Y-59545000D03*
%TO.P,U2,91,PB5_91*%
%TO.N,/Connectors/\u002ASYNC*%
X70845000Y-59045000D03*
%TO.P,U2,92,PB6_92*%
%TO.N,unconnected-(U2-PB6-Pad92)*%
X70845000Y-58545000D03*
%TO.P,U2,93,PB7_93*%
%TO.N,unconnected-(U2-PB7-Pad93)*%
X70845000Y-58045000D03*
%TO.P,U2,94,PH3_94*%
%TO.N,Net-(U2-PH3)*%
X70845000Y-57545000D03*
%TO.P,U2,95,PB8_95*%
%TO.N,unconnected-(U2-PB8-Pad95)*%
X70845000Y-57045000D03*
%TO.P,U2,96,PB9_96*%
%TO.N,/Connectors/T1*%
X70845000Y-56545000D03*
%TO.P,U2,97,PE0_97*%
%TO.N,/Connectors/T3*%
X70845000Y-56045000D03*
%TO.P,U2,98,PE1_98*%
%TO.N,/Connectors/T5*%
X70845000Y-55545000D03*
%TO.P,U2,99,VSS_99*%
%TO.N,12VA_VA-*%
X70845000Y-55045000D03*
%TO.P,U2,100,VDD_100*%
%TO.N,+3V3*%
X70845000Y-54545000D03*
%TD*%
D25*
%TO.P,C25,1*%
%TO.N,+3V3*%
X90277500Y-60520000D03*
%TO.P,C25,2*%
%TO.N,12VA_VA-*%
X91827500Y-60520000D03*
%TD*%
D32*
%TO.P,U1,*%
%TO.N,*%
X39424798Y-26478399D03*
X39424798Y-100138399D03*
X125154798Y-23938399D03*
X125154798Y-103948399D03*
D33*
%TO.P,U1,1,01_1*%
%TO.N,unconnected-(U1-01-Pad1)*%
X47024798Y-95058399D03*
D34*
%TO.P,U1,2,02_2*%
%TO.N,unconnected-(U1-02-Pad2)*%
X44484798Y-95058399D03*
%TO.P,U1,3,03_3*%
%TO.N,unconnected-(U1-03-Pad3)*%
X47024798Y-92518399D03*
%TO.P,U1,4,04_4*%
%TO.N,unconnected-(U1-04-Pad4)*%
X44484798Y-92518399D03*
%TO.P,U1,5,05_5*%
%TO.N,unconnected-(U1-05-Pad5)*%
X47024798Y-89978399D03*
%TO.P,U1,6,06_6*%
%TO.N,unconnected-(U1-06-Pad6)*%
X44484798Y-89978399D03*
%TO.P,U1,7,07_7*%
%TO.N,unconnected-(U1-07-Pad7)*%
X47024798Y-87438399D03*
%TO.P,U1,8,08_8*%
%TO.N,unconnected-(U1-08-Pad8)*%
X44484798Y-87438399D03*
%TO.P,U1,9,09_9*%
%TO.N,unconnected-(U1-09-Pad9)*%
X47024798Y-84898399D03*
%TO.P,U1,10,10_10*%
%TO.N,unconnected-(U1-Pad10)*%
X44484798Y-84898399D03*
%TO.P,U1,11,11_11*%
%TO.N,unconnected-(U1-Pad11)*%
X47024798Y-82358399D03*
%TO.P,U1,12,12_12*%
%TO.N,unconnected-(U1-Pad12)*%
X44484798Y-82358399D03*
%TO.P,U1,13,13_13*%
%TO.N,unconnected-(U1-Pad13)*%
X47024798Y-79818399D03*
%TO.P,U1,14,14_14*%
%TO.N,unconnected-(U1-Pad14)*%
X44484798Y-79818399D03*
%TO.P,U1,15,15_15*%
%TO.N,unconnected-(U1-Pad15)*%
X47024798Y-77278399D03*
%TO.P,U1,16,16_16*%
%TO.N,unconnected-(U1-Pad16)*%
X44484798Y-77278399D03*
%TO.P,U1,17,17_17*%
%TO.N,unconnected-(U1-Pad17)*%
X47024798Y-74738399D03*
%TO.P,U1,18,18_18*%
%TO.N,unconnected-(U1-Pad18)*%
X44484798Y-74738399D03*
%TO.P,U1,19,19_19*%
%TO.N,unconnected-(U1-Pad19)*%
X47024798Y-72198399D03*
%TO.P,U1,20,20_20*%
%TO.N,unconnected-(U1-Pad20)*%
X44484798Y-72198399D03*
%TO.P,U1,21,21_21*%
%TO.N,unconnected-(U1-Pad21)*%
X47024798Y-69658399D03*
%TO.P,U1,22,22_22*%
%TO.N,unconnected-(U1-Pad22)*%
X44484798Y-69658399D03*
%TO.P,U1,23,23_23*%
%TO.N,unconnected-(U1-Pad23)*%
X47024798Y-67118399D03*
%TO.P,U1,24,24_24*%
%TO.N,unconnected-(U1-Pad24)*%
X44484798Y-67118399D03*
%TO.P,U1,25,25_25*%
%TO.N,unconnected-(U1-Pad25)*%
X47024798Y-64578399D03*
%TO.P,U1,26,26_26*%
%TO.N,unconnected-(U1-Pad26)*%
X44484798Y-64578399D03*
%TO.P,U1,27,27_27*%
%TO.N,unconnected-(U1-Pad27)*%
X47024798Y-62038399D03*
%TO.P,U1,28,28_28*%
%TO.N,unconnected-(U1-Pad28)*%
X44484798Y-62038399D03*
%TO.P,U1,29,29_29*%
%TO.N,unconnected-(U1-Pad29)*%
X47024798Y-59498399D03*
%TO.P,U1,30,30_30*%
%TO.N,unconnected-(U1-Pad30)*%
X44484798Y-59498399D03*
%TO.P,U1,31,31_31*%
%TO.N,/MCU/NRST*%
X47024798Y-56958399D03*
%TO.P,U1,32,32_32*%
%TO.N,unconnected-(U1-Pad32)*%
X44484798Y-56958399D03*
%TO.P,U1,33,33_33*%
%TO.N,/Connectors/USART3_TX*%
X47024798Y-54418399D03*
%TO.P,U1,34,34_34*%
%TO.N,unconnected-(U1-Pad34)*%
X44484798Y-54418399D03*
%TO.P,U1,35,35_35*%
%TO.N,/Connectors/USART3_RX*%
X47024798Y-51878399D03*
%TO.P,U1,36,36_36*%
%TO.N,unconnected-(U1-Pad36)*%
X44484798Y-51878399D03*
%TO.P,U1,37,37_37*%
%TO.N,unconnected-(U1-Pad37)*%
X47024798Y-49338399D03*
%TO.P,U1,38,38_38*%
%TO.N,unconnected-(U1-Pad38)*%
X44484798Y-49338399D03*
%TO.P,U1,39,39_39*%
%TO.N,unconnected-(U1-Pad39)*%
X47024798Y-46798399D03*
%TO.P,U1,40,40_40*%
%TO.N,unconnected-(U1-Pad40)*%
X44484798Y-46798399D03*
%TO.P,U1,41,41_41*%
%TO.N,unconnected-(U1-Pad41)*%
X47024798Y-44258399D03*
%TO.P,U1,42,42_42*%
%TO.N,unconnected-(U1-Pad42)*%
X44484798Y-44258399D03*
%TO.P,U1,43,43_43*%
%TO.N,unconnected-(U1-Pad43)*%
X47024798Y-41718399D03*
%TO.P,U1,44,44_44*%
%TO.N,unconnected-(U1-Pad44)*%
X44484798Y-41718399D03*
%TO.P,U1,45,45_45*%
%TO.N,unconnected-(U1-Pad45)*%
X47024798Y-39178399D03*
%TO.P,U1,46,46_46*%
%TO.N,unconnected-(U1-Pad46)*%
X44484798Y-39178399D03*
%TO.P,U1,47,47_47*%
%TO.N,unconnected-(U1-Pad47)*%
X47024798Y-36638399D03*
%TO.P,U1,48,48_48*%
%TO.N,unconnected-(U1-Pad48)*%
X44484798Y-36638399D03*
%TO.P,U1,49,49_49*%
%TO.N,unconnected-(U1-Pad49)*%
X47024798Y-34098399D03*
%TO.P,U1,50,50_50*%
%TO.N,unconnected-(U1-Pad50)*%
X44484798Y-34098399D03*
%TO.P,U1,51,51_51*%
%TO.N,unconnected-(U1-Pad51)*%
X47024798Y-31558399D03*
%TO.P,U1,52,52_52*%
%TO.N,unconnected-(U1-Pad52)*%
X44484798Y-31558399D03*
%TO.P,U1,53,01_53*%
%TO.N,unconnected-(U1-01-Pad53)*%
X41944798Y-95058399D03*
%TO.P,U1,54,02_54*%
%TO.N,unconnected-(U1-02-Pad54)*%
X39404798Y-95058399D03*
%TO.P,U1,55,03_55*%
%TO.N,unconnected-(U1-03-Pad55)*%
X41944798Y-92518399D03*
%TO.P,U1,56,04_56*%
%TO.N,unconnected-(U1-04-Pad56)*%
X39404798Y-92518399D03*
%TO.P,U1,57,05_57*%
%TO.N,unconnected-(U1-05-Pad57)*%
X41944798Y-89978399D03*
%TO.P,U1,58,06_58*%
%TO.N,unconnected-(U1-06-Pad58)*%
X39404798Y-89978399D03*
%TO.P,U1,59,07_59*%
%TO.N,unconnected-(U1-07-Pad59)*%
X41944798Y-87438399D03*
%TO.P,U1,60,08_60*%
%TO.N,unconnected-(U1-08-Pad60)*%
X39404798Y-87438399D03*
%TO.P,U1,61,09_61*%
%TO.N,12VA_VA-*%
X41944798Y-84898399D03*
%TO.P,U1,62,10_62*%
%TO.N,unconnected-(U1-10-Pad62)*%
X39404798Y-84898399D03*
%TO.P,U1,63,11_63*%
%TO.N,unconnected-(U1-11-Pad63)*%
X41944798Y-82358399D03*
%TO.P,U1,64,12_64*%
%TO.N,unconnected-(U1-12-Pad64)*%
X39404798Y-82358399D03*
%TO.P,U1,65,13_65*%
%TO.N,unconnected-(U1-13-Pad65)*%
X41944798Y-79818399D03*
%TO.P,U1,66,14_66*%
%TO.N,12VA_VA-*%
X39404798Y-79818399D03*
%TO.P,U1,67,15_67*%
%TO.N,unconnected-(U1-15-Pad67)*%
X41944798Y-77278399D03*
%TO.P,U1,68,16_68*%
%TO.N,unconnected-(U1-16-Pad68)*%
X39404798Y-77278399D03*
%TO.P,U1,69,17_69*%
%TO.N,12VA_VA-*%
X41944798Y-74738399D03*
%TO.P,U1,70,18_70*%
%TO.N,unconnected-(U1-18-Pad70)*%
X39404798Y-74738399D03*
%TO.P,U1,71,19_71*%
%TO.N,unconnected-(U1-19-Pad71)*%
X41944798Y-72198399D03*
%TO.P,U1,72,20_72*%
%TO.N,unconnected-(U1-20-Pad72)*%
X39404798Y-72198399D03*
%TO.P,U1,73,21_73*%
%TO.N,12VA_VA-*%
X41944798Y-69658399D03*
%TO.P,U1,74,22_74*%
X39404798Y-69658399D03*
%TO.P,U1,75,23_75*%
%TO.N,+12VA_IN*%
X41944798Y-67118399D03*
%TO.P,U1,76,24_76*%
X39404798Y-67118399D03*
%TO.P,U1,77,25_77*%
%TO.N,unconnected-(U1-25-Pad77)*%
X41944798Y-64578399D03*
%TO.P,U1,78,26_78*%
%TO.N,unconnected-(U1-26-Pad78)*%
X39404798Y-64578399D03*
%TO.P,U1,79,27_79*%
%TO.N,+3V3_IN*%
X41944798Y-62038399D03*
%TO.P,U1,80,28_80*%
X39404798Y-62038399D03*
%TO.P,U1,81,29_81*%
%TO.N,12VA_VA-*%
X41944798Y-59498399D03*
%TO.P,U1,82,30_82*%
X39404798Y-59498399D03*
%TO.P,U1,83,31_83*%
%TO.N,unconnected-(U1-31-Pad83)*%
X41944798Y-56958399D03*
%TO.P,U1,84,32_84*%
%TO.N,12VA_VA-*%
X39404798Y-56958399D03*
%TO.P,U1,85,33_85*%
%TO.N,unconnected-(U1-33-Pad85)*%
X41944798Y-54418399D03*
%TO.P,U1,86,34_86*%
%TO.N,unconnected-(U1-34-Pad86)*%
X39404798Y-54418399D03*
%TO.P,U1,87,35_87*%
%TO.N,unconnected-(U1-35-Pad87)*%
X41944798Y-51878399D03*
%TO.P,U1,88,36_88*%
%TO.N,unconnected-(U1-36-Pad88)*%
X39404798Y-51878399D03*
%TO.P,U1,89,37_89*%
%TO.N,unconnected-(U1-37-Pad89)*%
X41944798Y-49338399D03*
%TO.P,U1,90,38_90*%
%TO.N,unconnected-(U1-38-Pad90)*%
X39404798Y-49338399D03*
%TO.P,U1,91,39_91*%
%TO.N,unconnected-(U1-39-Pad91)*%
X41944798Y-46798399D03*
%TO.P,U1,92,40_92*%
%TO.N,unconnected-(U1-40-Pad92)*%
X39404798Y-46798399D03*
%TO.P,U1,93,41_93*%
%TO.N,unconnected-(U1-41-Pad93)*%
X41944798Y-44258399D03*
%TO.P,U1,94,42_94*%
%TO.N,unconnected-(U1-42-Pad94)*%
X39404798Y-44258399D03*
%TO.P,U1,95,43_95*%
%TO.N,unconnected-(U1-43-Pad95)*%
X41944798Y-41718399D03*
%TO.P,U1,96,44_96*%
%TO.N,unconnected-(U1-44-Pad96)*%
X39404798Y-41718399D03*
%TO.P,U1,97,45_97*%
%TO.N,VBAT_IN*%
X41944798Y-39178399D03*
%TO.P,U1,98,46_98*%
X39404798Y-39178399D03*
%TO.P,U1,99,47_99*%
%TO.N,12VA_VA-*%
X41944798Y-36638399D03*
%TO.P,U1,100,48_100*%
X39404798Y-36638399D03*
%TO.P,U1,101,49_101*%
%TO.N,unconnected-(U1-49-Pad101)*%
X41944798Y-34098399D03*
%TO.P,U1,102,50_102*%
%TO.N,unconnected-(U1-50-Pad102)*%
X39404798Y-34098399D03*
%TO.P,U1,103,51_103*%
%TO.N,unconnected-(U1-51-Pad103)*%
X41944798Y-31558399D03*
%TO.P,U1,104,52_104*%
%TO.N,unconnected-(U1-52-Pad104)*%
X39404798Y-31558399D03*
%TD*%
D35*
%TO.P,CR7,1*%
%TO.N,+12VA*%
X65740000Y-79520000D03*
%TO.P,CR7,2*%
%TO.N,/Connectors/Valve7-*%
X69683000Y-79520000D03*
%TD*%
D11*
%TO.P,C47,1*%
%TO.N,12VA_VA-*%
X88700000Y-39925000D03*
%TO.P,C47,2*%
%TO.N,Net-(U9-REGCAPA)*%
X88700000Y-38375000D03*
%TD*%
D36*
%TO.P,D7,1,K_1*%
%TO.N,12VA_VA-*%
X108000000Y-28168500D03*
%TO.P,D7,2,A_2*%
%TO.N,Net-(D7-A)*%
X108000000Y-29743500D03*
%TD*%
D37*
%TO.P,C50,1*%
%TO.N,12VA_VA-*%
X83655000Y-53410000D03*
%TO.P,C50,2*%
%TO.N,/MCU/NRST*%
X82105000Y-53410000D03*
%TD*%
D10*
%TO.P,R60,1*%
%TO.N,Net-(D6-A)*%
X65815000Y-28430000D03*
%TO.P,R60,2*%
%TO.N,+12VB*%
X67465000Y-28430000D03*
%TD*%
D29*
%TO.P,R35,1*%
%TO.N,12VA_VA-*%
X97125000Y-28250000D03*
%TO.P,R35,2*%
%TO.N,P6REF+*%
X95475000Y-28250000D03*
%TD*%
D28*
%TO.P,TP3,1,1_1*%
%TO.N,+12VB*%
X82690000Y-31680000D03*
%TD*%
D12*
%TO.P,J17,1,Pin_1_1*%
%TO.N,+3V3*%
X85120000Y-56000000D03*
D13*
%TO.P,J17,2,Pin_2_2*%
%TO.N,JTDI*%
X85120000Y-58540000D03*
%TO.P,J17,3,Pin_3_3*%
%TO.N,JTCK*%
X82580000Y-56000000D03*
%TO.P,J17,4,Pin_4_4*%
%TO.N,/MCU/NRST*%
X82580000Y-58540000D03*
%TO.P,J17,5,Pin_5_5*%
%TO.N,12VA_VA-*%
X80040000Y-56000000D03*
%TO.P,J17,6,Pin_6_6*%
%TO.N,JTDO*%
X80040000Y-58540000D03*
%TO.P,J17,7,Pin_7_7*%
%TO.N,JTMS*%
X77500000Y-56000000D03*
%TO.P,J17,8,Pin_8_8*%
%TO.N,NJTRST*%
X77500000Y-58540000D03*
%TD*%
D26*
%TO.P,CR17,1*%
%TO.N,+12VA*%
X105290000Y-75468601D03*
%TO.P,CR17,2*%
%TO.N,/Connectors/Valve17-*%
X105290000Y-79411601D03*
%TD*%
D23*
%TO.P,Q18,1,B_1*%
%TO.N,Net-(Q18-B)*%
X119950000Y-34850000D03*
%TO.P,Q18,2,C_1_2*%
%TO.N,/Connectors/Valve18-*%
X122250000Y-34850000D03*
%TO.P,Q18,3,E_3*%
%TO.N,12VA_VA-*%
X124550000Y-34850000D03*
D24*
%TO.P,Q18,4,C_2_4*%
%TO.N,/Connectors/Valve18-*%
X122250000Y-28650000D03*
%TD*%
D21*
%TO.P,R1,1*%
%TO.N,/MCU/Valve1*%
X55130000Y-87145000D03*
%TO.P,R1,2*%
%TO.N,Net-(Q1-B)*%
X55130000Y-88795000D03*
%TD*%
D10*
%TO.P,R38,1*%
%TO.N,12VA_VA-*%
X89425000Y-28150000D03*
%TO.P,R38,2*%
%TO.N,P7REF+*%
X91075000Y-28150000D03*
%TD*%
D22*
%TO.P,C31,1*%
%TO.N,12VA_VA-*%
X99350000Y-51745000D03*
%TO.P,C31,2*%
%TO.N,/Connectors/T2+*%
X99350000Y-53295000D03*
%TD*%
D10*
%TO.P,R7,1*%
%TO.N,/MCU/Valve7*%
X68780000Y-76870000D03*
%TO.P,R7,2*%
%TO.N,Net-(Q7-B)*%
X70430000Y-76870000D03*
%TD*%
D16*
%TO.P,J14,1,1_1*%
%TO.N,/Connectors/T3-*%
X120426201Y-61714600D03*
%TO.P,J14,2,2_2*%
%TO.N,/Connectors/T3+*%
X120426201Y-60464600D03*
%TO.P,J14,3,3_3*%
%TO.N,/Connectors/T4-*%
X120426201Y-59214600D03*
%TO.P,J14,4,4_4*%
%TO.N,/Connectors/T4+*%
X120426201Y-57964600D03*
%TD*%
D17*
%TO.P,Q7,1,B_1*%
%TO.N,Net-(Q7-B)*%
X72900000Y-75520000D03*
%TO.P,Q7,2,C_1_2*%
%TO.N,/Connectors/Valve7-*%
X72900000Y-77820000D03*
%TO.P,Q7,3,E_3*%
%TO.N,12VA_VA-*%
X72900000Y-80120000D03*
D18*
%TO.P,Q7,4,C_2_4*%
%TO.N,/Connectors/Valve7-*%
X79100000Y-77820000D03*
%TD*%
D35*
%TO.P,CR2,1*%
%TO.N,+12VA*%
X64611400Y-74460000D03*
%TO.P,CR2,2*%
%TO.N,/Connectors/Valve2-*%
X60668400Y-74460000D03*
%TD*%
D10*
%TO.P,R37,1*%
%TO.N,12VA_VA-*%
X103325000Y-28200000D03*
%TO.P,R37,2*%
%TO.N,P4REF+*%
X104975000Y-28200000D03*
%TD*%
D37*
%TO.P,C24,1*%
%TO.N,12VA_VA-*%
X95987500Y-60560000D03*
%TO.P,C24,2*%
%TO.N,+3V3*%
X94437500Y-60560000D03*
%TD*%
D23*
%TO.P,Q5,1,B_1*%
%TO.N,Net-(Q5-B)*%
X71420000Y-90970000D03*
%TO.P,Q5,2,C_1_2*%
%TO.N,/Connectors/Valve5-*%
X69120000Y-90970000D03*
%TO.P,Q5,3,E_3*%
%TO.N,12VA_VA-*%
X66820000Y-90970000D03*
D24*
%TO.P,Q5,4,C_2_4*%
%TO.N,/Connectors/Valve5-*%
X69120000Y-97170000D03*
%TD*%
D19*
%TO.P,R25,1*%
%TO.N,12VA_VA-*%
X72940000Y-72005000D03*
%TO.P,R25,2*%
%TO.N,/MCU/Valve10*%
X72940000Y-70355000D03*
%TD*%
%TO.P,R58,1*%
%TO.N,Net-(D4-A)*%
X50500000Y-67575000D03*
%TO.P,R58,2*%
%TO.N,/MCU/GREEN_LED*%
X50500000Y-65925000D03*
%TD*%
D28*
%TO.P,TP1,1,1_1*%
%TO.N,12VA_VA-*%
X124590000Y-99120000D03*
%TD*%
D12*
%TO.P,J2,1,Pin_1_1*%
%TO.N,/Connectors/T5*%
X86000000Y-42540000D03*
D13*
%TO.P,J2,2,Pin_2_2*%
%TO.N,/Connectors/T4*%
X86000000Y-40000000D03*
%TO.P,J2,3,Pin_3_3*%
%TO.N,/Connectors/T3*%
X86000000Y-37460000D03*
%TO.P,J2,4,Pin_4_4*%
%TO.N,/Connectors/T2*%
X86000000Y-34920000D03*
%TO.P,J2,5,Pin_5_5*%
%TO.N,/Connectors/T1*%
X86000000Y-32380000D03*
%TO.P,J2,6,Pin_6_6*%
%TO.N,/Connectors/PT*%
X86000000Y-29840000D03*
%TD*%
D21*
%TO.P,R26,1*%
%TO.N,12VA_VA-*%
X81450000Y-65750000D03*
%TO.P,R26,2*%
%TO.N,/MCU/Valve17*%
X81450000Y-67400000D03*
%TD*%
%TO.P,R32,1*%
%TO.N,12VA_VA-*%
X118650000Y-46125000D03*
%TO.P,R32,2*%
%TO.N,P1REF+*%
X118650000Y-47775000D03*
%TD*%
D29*
%TO.P,R36,1*%
%TO.N,12VA_VA-*%
X95975000Y-32800000D03*
%TO.P,R36,2*%
%TO.N,P3REF+*%
X94325000Y-32800000D03*
%TD*%
D21*
%TO.P,R12,1*%
%TO.N,/MCU/Valve12*%
X101390000Y-87005000D03*
%TO.P,R12,2*%
%TO.N,Net-(Q12-B)*%
X101390000Y-88655000D03*
%TD*%
D25*
%TO.P,C40,1*%
%TO.N,+3V3*%
X106135000Y-49050000D03*
%TO.P,C40,2*%
%TO.N,12VA_VA-*%
X107685000Y-49050000D03*
%TD*%
D22*
%TO.P,C36,1*%
%TO.N,12VA_VA-*%
X114850000Y-50305000D03*
%TO.P,C36,2*%
%TO.N,/Connectors/T3+*%
X114850000Y-51855000D03*
%TD*%
D37*
%TO.P,C34,1*%
%TO.N,12VA_VA-*%
X97675000Y-50150000D03*
%TO.P,C34,2*%
%TO.N,+3V3*%
X96125000Y-50150000D03*
%TD*%
D25*
%TO.P,C64,1*%
%TO.N,12VA_VA-*%
X88675000Y-42900000D03*
%TO.P,C64,2*%
%TO.N,+3V3*%
X90225000Y-42900000D03*
%TD*%
D22*
%TO.P,C28,1*%
%TO.N,/Connectors/T1-*%
X114830000Y-65595000D03*
%TO.P,C28,2*%
%TO.N,12VA_VA-*%
X114830000Y-67145000D03*
%TD*%
D26*
%TO.P,CR9,1*%
%TO.N,+12VA*%
X80760000Y-83387000D03*
%TO.P,CR9,2*%
%TO.N,/Connectors/Valve9-*%
X80760000Y-87330000D03*
%TD*%
D35*
%TO.P,CR10,1*%
%TO.N,+12VA*%
X75227000Y-72020000D03*
%TO.P,CR10,2*%
%TO.N,/Connectors/Valve10-*%
X79170000Y-72020000D03*
%TD*%
D23*
%TO.P,Q12,1,B_1*%
%TO.N,Net-(Q12-B)*%
X102650000Y-90960000D03*
%TO.P,Q12,2,C_1_2*%
%TO.N,/Connectors/Valve12-*%
X100350000Y-90960000D03*
%TO.P,Q12,3,E_3*%
%TO.N,12VA_VA-*%
X98050000Y-90960000D03*
D24*
%TO.P,Q12,4,C_2_4*%
%TO.N,/Connectors/Valve12-*%
X100350000Y-97160000D03*
%TD*%
D21*
%TO.P,R2,1*%
%TO.N,/MCU/Valve2*%
X60140000Y-78355000D03*
%TO.P,R2,2*%
%TO.N,Net-(Q2-B)*%
X60140000Y-80005000D03*
%TD*%
D10*
%TO.P,R4,1*%
%TO.N,/MCU/Valve4*%
X78825000Y-44800000D03*
%TO.P,R4,2*%
%TO.N,Net-(Q4-B)*%
X80475000Y-44800000D03*
%TD*%
D35*
%TO.P,CR18,1*%
%TO.N,+12VA*%
X117421400Y-25800000D03*
%TO.P,CR18,2*%
%TO.N,/Connectors/Valve18-*%
X113478400Y-25800000D03*
%TD*%
D10*
%TO.P,R24,1*%
%TO.N,+3V3*%
X49175000Y-38750000D03*
%TO.P,R24,2*%
%TO.N,/Connectors/I2C4_SDA*%
X50825000Y-38750000D03*
%TD*%
D23*
%TO.P,Q15,1,B_1*%
%TO.N,Net-(Q15-B)*%
X120180000Y-96710000D03*
%TO.P,Q15,2,C_1_2*%
%TO.N,/Connectors/Valve15-*%
X122480000Y-96710000D03*
%TO.P,Q15,3,E_3*%
%TO.N,12VA_VA-*%
X124780000Y-96710000D03*
D24*
%TO.P,Q15,4,C_2_4*%
%TO.N,/Connectors/Valve15-*%
X122480000Y-90510000D03*
%TD*%
D25*
%TO.P,C67,1*%
%TO.N,12VA_VA-*%
X64790000Y-50710000D03*
%TO.P,C67,2*%
%TO.N,+3V3*%
X66340000Y-50710000D03*
%TD*%
D29*
%TO.P,R59,1*%
%TO.N,Net-(D5-A)*%
X99236250Y-58830000D03*
%TO.P,R59,2*%
%TO.N,+3V3*%
X97586250Y-58830000D03*
%TD*%
D17*
%TO.P,Q2,1,B_1*%
%TO.N,Net-(Q2-B)*%
X58200000Y-80300000D03*
%TO.P,Q2,2,C_1_2*%
%TO.N,/Connectors/Valve2-*%
X58200000Y-78000000D03*
%TO.P,Q2,3,E_3*%
%TO.N,12VA_VA-*%
X58200000Y-75700000D03*
D18*
%TO.P,Q2,4,C_2_4*%
%TO.N,/Connectors/Valve2-*%
X52000000Y-78000000D03*
%TD*%
D38*
%TO.P,U9,1,REGCAPD_1*%
%TO.N,Net-(U9-REGCAPD)*%
X95551100Y-38554899D03*
%TO.P,U9,2,IOVDD_2*%
%TO.N,+3V3*%
X95551100Y-38054900D03*
%TO.P,U9,3,DGND_3*%
%TO.N,12VA_VA-*%
X95551100Y-37554901D03*
%TO.P,U9,4,AIN0/IOUT/VBIAS_4*%
%TO.N,P0REF+*%
X95551100Y-37054900D03*
%TO.P,U9,5,AIN1/IOUT/VBIAS_5*%
%TO.N,12VA_VA-*%
X95551100Y-36554900D03*
%TO.P,U9,6,AIN2/IOUT/VBIAS/P1_6*%
%TO.N,P1REF+*%
X95551100Y-36054899D03*
%TO.P,U9,7,AIN3/IOUT/VBIAS/P2_7*%
%TO.N,12VA_VA-*%
X95551100Y-35554900D03*
%TO.P,U9,8,AIN4/IOUT/VBIAS/P3_8*%
%TO.N,P2REF+*%
X95551100Y-35054901D03*
D39*
%TO.P,U9,9,AIN5/IOUT/VBIAS/P4_9*%
%TO.N,12VA_VA-*%
X94849999Y-34353800D03*
%TO.P,U9,10,AIN6/IOUT/VBIAS_10*%
%TO.N,P3REF+*%
X94350000Y-34353800D03*
%TO.P,U9,11,AIN7/IOUT/VBIAS_11*%
%TO.N,12VA_VA-*%
X93850001Y-34353800D03*
%TO.P,U9,12,REFIN1(+)_12*%
%TO.N,Net-(U9-REFIN1(+))*%
X93350000Y-34353800D03*
%TO.P,U9,13,REFIN1(-)_13*%
%TO.N,12VA_VA-*%
X92850000Y-34353800D03*
%TO.P,U9,14,AIN8/IOUT/VBIAS_14*%
%TO.N,P4REF+*%
X92349999Y-34353800D03*
%TO.P,U9,15,AIN9/IOUT/VBIAS_15*%
%TO.N,12VA_VA-*%
X91850000Y-34353800D03*
%TO.P,U9,16,AIN10/IOUT/VBIAS_16*%
%TO.N,P5REF+*%
X91350001Y-34353800D03*
D38*
%TO.P,U9,17,AIN11/IOUT/VBIAS_17*%
%TO.N,12VA_VA-*%
X90648900Y-35054901D03*
%TO.P,U9,18,AIN12/IOUT/VBIAS_18*%
%TO.N,P6REF+*%
X90648900Y-35554900D03*
%TO.P,U9,19,AIN13/IOUT/VBIAS_19*%
%TO.N,12VA_VA-*%
X90648900Y-36054899D03*
%TO.P,U9,20,AIN14/IOUT/VBIAS/REFIN2(+)_20*%
%TO.N,P7REF+*%
X90648900Y-36554900D03*
%TO.P,U9,21,AIN15/IOUT/VBIAS/REFIN2(-)_21*%
%TO.N,12VA_VA-*%
X90648900Y-37054900D03*
%TO.P,U9,22,REFOUT_22*%
%TO.N,Net-(U9-REFIN1(+))*%
X90648900Y-37554901D03*
%TO.P,U9,23,AVSS_23*%
%TO.N,12VA_VA-*%
X90648900Y-38054900D03*
%TO.P,U9,24,REGCAPA_24*%
%TO.N,Net-(U9-REGCAPA)*%
X90648900Y-38554899D03*
D39*
%TO.P,U9,25,PSW_25*%
%TO.N,unconnected-(U9-PSW-Pad25)*%
X91350001Y-39256000D03*
%TO.P,U9,26,AVDD_26*%
%TO.N,+3V3*%
X91850000Y-39256000D03*
%TO.P,U9,27,\u002ASYNC_27*%
%TO.N,Net-(U9-\u002ASYNC)*%
X92349999Y-39256000D03*
%TO.P,U9,28,DOUT/\u002ARDY_28*%
%TO.N,/Connectors/SPI2_MISO*%
X92850000Y-39256000D03*
%TO.P,U9,29,DIN_29*%
%TO.N,/Connectors/SPI2_MOSI*%
X93350000Y-39256000D03*
%TO.P,U9,30,SCLK_30*%
%TO.N,/Connectors/SPI2_SCK*%
X93850001Y-39256000D03*
%TO.P,U9,31,CLK_31*%
%TO.N,unconnected-(U9-CLK-Pad31)*%
X94350000Y-39256000D03*
%TO.P,U9,32,\u002ACS_32*%
%TO.N,/Connectors/PT*%
X94849999Y-39256000D03*
D40*
%TO.P,U9,33,EP_33*%
%TO.N,12VA_VA-*%
X93100000Y-36804900D03*
%TD*%
D25*
%TO.P,C43,1*%
%TO.N,/Connectors/T4-*%
X107040000Y-39380000D03*
%TO.P,C43,2*%
%TO.N,12VA_VA-*%
X108590000Y-39380000D03*
%TD*%
D37*
%TO.P,C61,1*%
%TO.N,12VA_VA-*%
X98525000Y-38850000D03*
%TO.P,C61,2*%
%TO.N,+3V3*%
X96975000Y-38850000D03*
%TD*%
D22*
%TO.P,C26,1*%
%TO.N,12VA_VA-*%
X114900000Y-61285000D03*
%TO.P,C26,2*%
%TO.N,/Connectors/T1+*%
X114900000Y-62835000D03*
%TD*%
D19*
%TO.P,R29,1*%
%TO.N,12VA_VA-*%
X72700000Y-58995000D03*
%TO.P,R29,2*%
%TO.N,Net-(U2-PH3)*%
X72700000Y-57345000D03*
%TD*%
D28*
%TO.P,TP5,1,1_1*%
%TO.N,+3V3*%
X89170000Y-47080000D03*
%TD*%
D21*
%TO.P,R40,1*%
%TO.N,/Heater/Heater0*%
X108600000Y-31200000D03*
%TO.P,R40,2*%
%TO.N,Net-(Q19-B)*%
X108600000Y-32850000D03*
%TD*%
%TO.P,R15,1*%
%TO.N,/MCU/Valve15*%
X116940000Y-91200000D03*
%TO.P,R15,2*%
%TO.N,Net-(Q15-B)*%
X116940000Y-92850000D03*
%TD*%
%TO.P,R16,1*%
%TO.N,/MCU/Valve16*%
X92650000Y-70925000D03*
%TO.P,R16,2*%
%TO.N,Net-(Q16-B)*%
X92650000Y-72575000D03*
%TD*%
D11*
%TO.P,C74,1*%
%TO.N,12VA_VA-*%
X88550000Y-36100000D03*
%TO.P,C74,2*%
X88550000Y-34550000D03*
%TD*%
D41*
%TO.P,J1,1,1_1*%
%TO.N,+12VB*%
X80775000Y-26500000D03*
%TO.P,J1,2,2_2*%
%TO.N,/Connectors/Valve4-*%
X79525000Y-26500000D03*
%TD*%
D10*
%TO.P,R23,1*%
%TO.N,+3V3*%
X47350000Y-29000000D03*
%TO.P,R23,2*%
%TO.N,/Connectors/I2C4_SCL*%
X49000000Y-29000000D03*
%TD*%
D20*
%TO.P,D5,1,K_1*%
%TO.N,12VA_VA-*%
X102258750Y-58830000D03*
%TO.P,D5,2,A_2*%
%TO.N,Net-(D5-A)*%
X100683750Y-58830000D03*
%TD*%
D42*
%TO.P,U3,1,AGND_1*%
%TO.N,12VA_VA-*%
X96340000Y-66160000D03*
%TO.P,U3,2,BIAS_2*%
%TO.N,/Connectors/T0-*%
X96340000Y-65510000D03*
%TO.P,U3,3,T-_3*%
X96340000Y-64860000D03*
%TO.P,U3,4,T+_4*%
%TO.N,/Connectors/T0+*%
X96340000Y-64210000D03*
%TO.P,U3,5,AVDD_5*%
%TO.N,+3V3*%
X96340000Y-63560000D03*
%TO.P,U3,6*%
%TO.N,N/C*%
X96340000Y-62910000D03*
%TO.P,U3,7,~{DRDY}_7*%
%TO.N,\u002ADRDY*%
X96340000Y-62260000D03*
%TO.P,U3,8,DVDD_8*%
%TO.N,+3V3*%
X90570000Y-62260000D03*
%TO.P,U3,9,~{CS}_9*%
%TO.N,/Connectors/T1*%
X90570000Y-62910000D03*
%TO.P,U3,10,SCK_10*%
%TO.N,/Connectors/SPI2_SCK*%
X90570000Y-63560000D03*
%TO.P,U3,11,SDO_11*%
%TO.N,/Connectors/SPI2_MISO*%
X90570000Y-64210000D03*
%TO.P,U3,12,SDI_12*%
%TO.N,/Connectors/SPI2_MOSI*%
X90570000Y-64860000D03*
%TO.P,U3,13,~{FAULT}_13*%
%TO.N,\u002AFAULT*%
X90570000Y-65510000D03*
%TO.P,U3,14,DGND_14*%
%TO.N,12VA_VA-*%
X90570000Y-66160000D03*
%TD*%
D25*
%TO.P,C68,1*%
%TO.N,12VA_VA-*%
X64785000Y-49210000D03*
%TO.P,C68,2*%
%TO.N,+3V3*%
X66335000Y-49210000D03*
%TD*%
D10*
%TO.P,R33,1*%
%TO.N,12VA_VA-*%
X100325000Y-28200000D03*
%TO.P,R33,2*%
%TO.N,P5REF+*%
X101975000Y-28200000D03*
%TD*%
D14*
%TO.P,SW2,1,1_1*%
%TO.N,12VA_VA-*%
X51000000Y-72500000D03*
D15*
%TO.P,SW2,2,2_2*%
%TO.N,/MCU/NRST*%
X50000000Y-72500000D03*
%TD*%
D16*
%TO.P,J23,1,1_1*%
%TO.N,+12VA*%
X108893100Y-26584200D03*
%TO.P,J23,2,2_2*%
%TO.N,P3REF+*%
X107643100Y-26584200D03*
%TO.P,J23,3,3_3*%
%TO.N,+12VA*%
X106393100Y-26584200D03*
%TO.P,J23,4,4_4*%
%TO.N,P4REF+*%
X105143100Y-26584200D03*
%TO.P,J23,5,5_5*%
%TO.N,+12VA*%
X103893100Y-26584200D03*
%TO.P,J23,6,6_6*%
%TO.N,P5REF+*%
X102643100Y-26584200D03*
%TD*%
D11*
%TO.P,C20,1*%
%TO.N,12VA_VA-*%
X56750000Y-50775000D03*
%TO.P,C20,2*%
%TO.N,+3V3*%
X56750000Y-49225000D03*
%TD*%
D16*
%TO.P,J20,1,1_1*%
%TO.N,+12VA*%
X65126900Y-100165801D03*
%TO.P,J20,2,2_2*%
%TO.N,/Connectors/Valve5-*%
X66376900Y-100165801D03*
%TO.P,J20,3,3_3*%
%TO.N,+12VA*%
X67626900Y-100165801D03*
%TO.P,J20,4,4_4*%
%TO.N,/Connectors/Valve7-*%
X68876900Y-100165801D03*
%TO.P,J20,5,5_5*%
%TO.N,+12VA*%
X70126900Y-100165801D03*
%TO.P,J20,6,6_6*%
%TO.N,/Connectors/Valve8-*%
X71376900Y-100165801D03*
%TD*%
D26*
%TO.P,CR11,1*%
%TO.N,+12VA*%
X89850000Y-83958500D03*
%TO.P,CR11,2*%
%TO.N,/Connectors/Valve11-*%
X89850000Y-87901500D03*
%TD*%
D37*
%TO.P,C73,1*%
%TO.N,12VA_VA-*%
X99200000Y-37300000D03*
%TO.P,C73,2*%
X97650000Y-37300000D03*
%TD*%
D11*
%TO.P,C46,1*%
%TO.N,12VA_VA-*%
X97000000Y-41875000D03*
%TO.P,C46,2*%
%TO.N,Net-(U9-REGCAPD)*%
X97000000Y-40325000D03*
%TD*%
D19*
%TO.P,R64,1*%
%TO.N,Net-(D7-A)*%
X106400600Y-29781000D03*
%TO.P,R64,2*%
%TO.N,+12VA*%
X106400600Y-28131000D03*
%TD*%
D12*
%TO.P,J5,1,Pin_1_1*%
%TO.N,/Connectors/SPI2_MISO*%
X105460000Y-70500000D03*
D13*
%TO.P,J5,2,Pin_2_2*%
%TO.N,/Connectors/SPI2_MOSI*%
X108000000Y-70500000D03*
%TO.P,J5,3,Pin_3_3*%
%TO.N,/Connectors/SPI2_SCK*%
X110540000Y-70500000D03*
%TO.P,J5,4,Pin_4_4*%
%TO.N,\u002AFAULT*%
X113080000Y-70500000D03*
%TO.P,J5,5,Pin_5_5*%
%TO.N,\u002ADRDY*%
X115620000Y-70500000D03*
%TD*%
D10*
%TO.P,R65,1*%
%TO.N,/Connectors/\u002ASYNC*%
X73325000Y-60960000D03*
%TO.P,R65,2*%
%TO.N,+3V3*%
X74975000Y-60960000D03*
%TD*%
D19*
%TO.P,R31,1*%
%TO.N,/MCU/Valve18*%
X117750000Y-36325000D03*
%TO.P,R31,2*%
%TO.N,Net-(Q18-B)*%
X117750000Y-34675000D03*
%TD*%
D22*
%TO.P,C21,1*%
%TO.N,12VA_VA-*%
X99120000Y-61520000D03*
%TO.P,C21,2*%
%TO.N,/Connectors/T0+*%
X99120000Y-63070000D03*
%TD*%
%TO.P,C32,1*%
%TO.N,/Connectors/T2+*%
X101450000Y-53645000D03*
%TO.P,C32,2*%
%TO.N,/Connectors/T2-*%
X101450000Y-55195000D03*
%TD*%
D25*
%TO.P,C35,1*%
%TO.N,+3V3*%
X90105000Y-50150000D03*
%TO.P,C35,2*%
%TO.N,12VA_VA-*%
X91655000Y-50150000D03*
%TD*%
D23*
%TO.P,Q1,1,B_1*%
%TO.N,Net-(Q1-B)*%
X55510000Y-90930000D03*
%TO.P,Q1,2,C_1_2*%
%TO.N,/Connectors/Valve1-*%
X53210000Y-90930000D03*
%TO.P,Q1,3,E_3*%
%TO.N,12VA_VA-*%
X50910000Y-90930000D03*
D24*
%TO.P,Q1,4,C_2_4*%
%TO.N,/Connectors/Valve1-*%
X53210000Y-97130000D03*
%TD*%
D11*
%TO.P,C75,1*%
%TO.N,12VA_VA-*%
X91150000Y-32275000D03*
%TO.P,C75,2*%
X91150000Y-30725000D03*
%TD*%
%TO.P,C66,1*%
%TO.N,12VA_VA-*%
X70380000Y-72285000D03*
%TO.P,C66,2*%
%TO.N,+3V3*%
X70380000Y-70735000D03*
%TD*%
D26*
%TO.P,CR14,1*%
%TO.N,+12VA*%
X113940000Y-92818500D03*
%TO.P,CR14,2*%
%TO.N,/Connectors/Valve14-*%
X113940000Y-96761500D03*
%TD*%
D22*
%TO.P,C37,1*%
%TO.N,/Connectors/T3+*%
X116730000Y-52585000D03*
%TO.P,C37,2*%
%TO.N,/Connectors/T3-*%
X116730000Y-54135000D03*
%TD*%
D11*
%TO.P,C45,1*%
%TO.N,+3V3*%
X99240000Y-45875000D03*
%TO.P,C45,2*%
%TO.N,12VA_VA-*%
X99240000Y-44325000D03*
%TD*%
D35*
%TO.P,CR16,1*%
%TO.N,+12VA*%
X96608500Y-71680000D03*
%TO.P,CR16,2*%
%TO.N,/Connectors/Valve16-*%
X100551500Y-71680000D03*
%TD*%
D12*
%TO.P,J3,1,Pin_1_1*%
%TO.N,/Connectors/SPI1_MISO*%
X75920000Y-49000000D03*
D13*
%TO.P,J3,2,Pin_2_2*%
%TO.N,/Connectors/SPI1_MOSI*%
X78460000Y-49000000D03*
%TO.P,J3,3,Pin_3_3*%
%TO.N,/Connectors/SPI1_SCK*%
X81000000Y-49000000D03*
%TO.P,J3,4,Pin_4_4*%
%TO.N,/Connectors/ADC*%
X83540000Y-49000000D03*
%TO.P,J3,5,Pin_5_5*%
%TO.N,/Connectors/\u002ASYNC*%
X86080000Y-49000000D03*
%TD*%
D17*
%TO.P,Q14,1,B_1*%
%TO.N,Net-(Q14-B)*%
X115650000Y-104420000D03*
%TO.P,Q14,2,C_1_2*%
%TO.N,/Connectors/Valve14-*%
X115650000Y-102120000D03*
%TO.P,Q14,3,E_3*%
%TO.N,12VA_VA-*%
X115650000Y-99820000D03*
D18*
%TO.P,Q14,4,C_2_4*%
%TO.N,/Connectors/Valve14-*%
X109450000Y-102120000D03*
%TD*%
D16*
%TO.P,J24,1,1_1*%
%TO.N,+3V3*%
X58893100Y-26500000D03*
%TO.P,J24,2,2_2*%
%TO.N,12VA_VA-*%
X57643100Y-26500000D03*
%TO.P,J24,3,3_3*%
%TO.N,/Connectors/UART_PPU_TX*%
X56393100Y-26500000D03*
%TO.P,J24,4,4_4*%
%TO.N,/Connectors/UART_PPU_RX*%
X55143100Y-26500000D03*
%TO.P,J24,5,5_5*%
%TO.N,12VA_VA-*%
X53893100Y-26500000D03*
%TO.P,J24,6,6_6*%
%TO.N,+12VA*%
X52643100Y-26500000D03*
%TD*%
D21*
%TO.P,R14,1*%
%TO.N,/MCU/Valve14*%
X116940000Y-95785000D03*
%TO.P,R14,2*%
%TO.N,Net-(Q14-B)*%
X116940000Y-97435000D03*
%TD*%
%TO.P,R56,1*%
%TO.N,Net-(D3-A)*%
X52000000Y-62675000D03*
%TO.P,R56,2*%
%TO.N,/MCU/BLUE_LED*%
X52000000Y-64325000D03*
%TD*%
D17*
%TO.P,Q6,1,B_1*%
%TO.N,Net-(Q6-B)*%
X67300000Y-36000000D03*
%TO.P,Q6,2,C_1_2*%
%TO.N,/Connectors/Valve6-*%
X67300000Y-38300000D03*
%TO.P,Q6,3,E_3*%
%TO.N,12VA_VA-*%
X67300000Y-40600000D03*
D18*
%TO.P,Q6,4,C_2_4*%
%TO.N,/Connectors/Valve6-*%
X73500000Y-38300000D03*
%TD*%
D37*
%TO.P,C39,1*%
%TO.N,12VA_VA-*%
X112265000Y-49150000D03*
%TO.P,C39,2*%
%TO.N,+3V3*%
X110715000Y-49150000D03*
%TD*%
D43*
%TO.P,D3,1,K_1*%
%TO.N,12VA_VA-*%
X50500000Y-64287500D03*
%TO.P,D3,2,A_2*%
%TO.N,Net-(D3-A)*%
X50500000Y-62712500D03*
%TD*%
D16*
%TO.P,J8,1,1_1*%
%TO.N,/Connectors/T0-*%
X120415801Y-72583100D03*
%TO.P,J8,2,2_2*%
%TO.N,/Connectors/T0+*%
X120415801Y-71333100D03*
%TO.P,J8,3,3_3*%
%TO.N,/Connectors/T1-*%
X120415801Y-70083100D03*
%TO.P,J8,4,4_4*%
%TO.N,/Connectors/T1+*%
X120415801Y-68833100D03*
%TO.P,J8,5,5_5*%
%TO.N,/Connectors/T2-*%
X120415801Y-67583100D03*
%TO.P,J8,6,6_6*%
%TO.N,/Connectors/T2+*%
X120415801Y-66333100D03*
%TD*%
D22*
%TO.P,C42,1*%
%TO.N,/Connectors/T4+*%
X106020000Y-35760000D03*
%TO.P,C42,2*%
%TO.N,/Connectors/T4-*%
X106020000Y-37310000D03*
%TD*%
D21*
%TO.P,R8,1*%
%TO.N,/MCU/Valve8*%
X75880000Y-86395000D03*
%TO.P,R8,2*%
%TO.N,Net-(Q8-B)*%
X75880000Y-88045000D03*
%TD*%
%TO.P,R11,1*%
%TO.N,/MCU/Valve11*%
X93510000Y-86585000D03*
%TO.P,R11,2*%
%TO.N,Net-(Q11-B)*%
X93510000Y-88235000D03*
%TD*%
D23*
%TO.P,Q3,1,B_1*%
%TO.N,Net-(Q3-B)*%
X63610000Y-90960000D03*
%TO.P,Q3,2,C_1_2*%
%TO.N,/Connectors/Valve3-*%
X61310000Y-90960000D03*
%TO.P,Q3,3,E_3*%
%TO.N,12VA_VA-*%
X59010000Y-90960000D03*
D24*
%TO.P,Q3,4,C_2_4*%
%TO.N,/Connectors/Valve3-*%
X61310000Y-97160000D03*
%TD*%
D22*
%TO.P,C33,1*%
%TO.N,/Connectors/T2-*%
X99300000Y-55515000D03*
%TO.P,C33,2*%
%TO.N,12VA_VA-*%
X99300000Y-57065000D03*
%TD*%
D11*
%TO.P,C65,1*%
%TO.N,12VA_VA-*%
X68870000Y-72275000D03*
%TO.P,C65,2*%
%TO.N,+3V3*%
X68870000Y-70725000D03*
%TD*%
D16*
%TO.P,J19,1,1_1*%
%TO.N,+12VA*%
X51416900Y-100165801D03*
%TO.P,J19,2,2_2*%
%TO.N,/Connectors/Valve1-*%
X52666900Y-100165801D03*
%TO.P,J19,3,3_3*%
%TO.N,+12VA*%
X53916900Y-100165801D03*
%TO.P,J19,4,4_4*%
%TO.N,/Connectors/Valve2-*%
X55166900Y-100165801D03*
%TO.P,J19,5,5_5*%
%TO.N,+12VA*%
X56416900Y-100165801D03*
%TO.P,J19,6,6_6*%
%TO.N,/Connectors/Valve3-*%
X57666900Y-100165801D03*
%TD*%
D37*
%TO.P,C29,1*%
%TO.N,12VA_VA-*%
X112635000Y-60400000D03*
%TO.P,C29,2*%
%TO.N,+3V3*%
X111085000Y-60400000D03*
%TD*%
D23*
%TO.P,Q9,1,B_1*%
%TO.N,Net-(Q9-B)*%
X87340000Y-90970000D03*
%TO.P,Q9,2,C_1_2*%
%TO.N,/Connectors/Valve9-*%
X85040000Y-90970000D03*
%TO.P,Q9,3,E_3*%
%TO.N,12VA_VA-*%
X82740000Y-90970000D03*
D24*
%TO.P,Q9,4,C_2_4*%
%TO.N,/Connectors/Valve9-*%
X85040000Y-97170000D03*
%TD*%
D43*
%TO.P,D4,1,K_1*%
%TO.N,12VA_VA-*%
X50500000Y-70537500D03*
%TO.P,D4,2,A_2*%
%TO.N,Net-(D4-A)*%
X50500000Y-68962500D03*
%TD*%
D26*
%TO.P,CR13,1*%
%TO.N,+12VA*%
X104610000Y-84228600D03*
%TO.P,CR13,2*%
%TO.N,/Connectors/Valve13-*%
X104610000Y-88171600D03*
%TD*%
%TO.P,CR5,1*%
%TO.N,+12VA*%
X64650000Y-84408600D03*
%TO.P,CR5,2*%
%TO.N,/Connectors/Valve5-*%
X64650000Y-88351600D03*
%TD*%
D35*
%TO.P,CR4,1*%
%TO.N,+12VB*%
X81441500Y-28920000D03*
%TO.P,CR4,2*%
%TO.N,/Connectors/Valve4-*%
X77498500Y-28920000D03*
%TD*%
D42*
%TO.P,U7,1,AGND_1*%
%TO.N,12VA_VA-*%
X112337500Y-55000000D03*
%TO.P,U7,2,BIAS_2*%
%TO.N,/Connectors/T3-*%
X112337500Y-54350000D03*
%TO.P,U7,3,T-_3*%
X112337500Y-53700000D03*
%TO.P,U7,4,T+_4*%
%TO.N,/Connectors/T3+*%
X112337500Y-53050000D03*
%TO.P,U7,5,AVDD_5*%
%TO.N,+3V3*%
X112337500Y-52400000D03*
%TO.P,U7,6*%
%TO.N,N/C*%
X112337500Y-51750000D03*
%TO.P,U7,7,~{DRDY}_7*%
%TO.N,unconnected-(U7-~{DRDY}-Pad7)*%
X112337500Y-51100000D03*
%TO.P,U7,8,DVDD_8*%
%TO.N,+3V3*%
X106567500Y-51100000D03*
%TO.P,U7,9,~{CS}_9*%
%TO.N,/Connectors/T4*%
X106567500Y-51750000D03*
%TO.P,U7,10,SCK_10*%
%TO.N,/Connectors/SPI2_SCK*%
X106567500Y-52400000D03*
%TO.P,U7,11,SDO_11*%
%TO.N,/Connectors/SPI2_MISO*%
X106567500Y-53050000D03*
%TO.P,U7,12,SDI_12*%
%TO.N,/Connectors/SPI2_MOSI*%
X106567500Y-53700000D03*
%TO.P,U7,13,~{FAULT}_13*%
%TO.N,unconnected-(U7-~{FAULT}-Pad13)*%
X106567500Y-54350000D03*
%TO.P,U7,14,DGND_14*%
%TO.N,12VA_VA-*%
X106567500Y-55000000D03*
%TD*%
D21*
%TO.P,R9,1*%
%TO.N,/MCU/Valve9*%
X83950000Y-85455000D03*
%TO.P,R9,2*%
%TO.N,Net-(Q9-B)*%
X83950000Y-87105000D03*
%TD*%
D17*
%TO.P,Q17,1,B_1*%
%TO.N,Net-(Q17-B)*%
X110410000Y-75690000D03*
%TO.P,Q17,2,C_1_2*%
%TO.N,/Connectors/Valve17-*%
X110410000Y-77990000D03*
%TO.P,Q17,3,E_3*%
%TO.N,12VA_VA-*%
X110410000Y-80290000D03*
D18*
%TO.P,Q17,4,C_2_4*%
%TO.N,/Connectors/Valve17-*%
X116610000Y-77990000D03*
%TD*%
D21*
%TO.P,R5,1*%
%TO.N,/MCU/Valve5*%
X67570000Y-86325000D03*
%TO.P,R5,2*%
%TO.N,Net-(Q5-B)*%
X67570000Y-87975000D03*
%TD*%
%TO.P,R3,1*%
%TO.N,/MCU/Valve3*%
X61180000Y-87115000D03*
%TO.P,R3,2*%
%TO.N,Net-(Q3-B)*%
X61180000Y-88765000D03*
%TD*%
D16*
%TO.P,J15,1,1_1*%
%TO.N,+12VA*%
X88214600Y-26500000D03*
%TO.P,J15,2,2_2*%
%TO.N,/Connectors/Heater0-*%
X86964600Y-26500000D03*
%TO.P,J15,3,3_3*%
%TO.N,+12VA*%
X85714600Y-26500000D03*
%TO.P,J15,4,4_4*%
%TO.N,/Connectors/Valve18-*%
X84464600Y-26500000D03*
%TD*%
D23*
%TO.P,Q8,1,B_1*%
%TO.N,Net-(Q8-B)*%
X79480000Y-90970000D03*
%TO.P,Q8,2,C_1_2*%
%TO.N,/Connectors/Valve8-*%
X77180000Y-90970000D03*
%TO.P,Q8,3,E_3*%
%TO.N,12VA_VA-*%
X74880000Y-90970000D03*
D24*
%TO.P,Q8,4,C_2_4*%
%TO.N,/Connectors/Valve8-*%
X77180000Y-97170000D03*
%TD*%
D21*
%TO.P,R39,1*%
%TO.N,12VA_VA-*%
X118500000Y-49225000D03*
%TO.P,R39,2*%
%TO.N,P0REF+*%
X118500000Y-50875000D03*
%TD*%
D41*
%TO.P,J16,1,1_1*%
%TO.N,+12VB*%
X75700000Y-26500000D03*
%TO.P,J16,2,2_2*%
%TO.N,/Connectors/Valve6-*%
X74450000Y-26500000D03*
%TD*%
D16*
%TO.P,J22,1,1_1*%
%TO.N,+12VA*%
X120315801Y-53593100D03*
%TO.P,J22,2,2_2*%
%TO.N,P0REF+*%
X120315801Y-52343100D03*
%TO.P,J22,3,3_3*%
%TO.N,+12VA*%
X120315801Y-51093100D03*
%TO.P,J22,4,4_4*%
%TO.N,P1REF+*%
X120315801Y-49843100D03*
%TO.P,J22,5,5_5*%
%TO.N,+12VA*%
X120315801Y-48593100D03*
%TO.P,J22,6,6_6*%
%TO.N,P2REF+*%
X120315801Y-47343100D03*
%TD*%
%TO.P,J13,1,1_1*%
%TO.N,+12VA*%
X96714600Y-26500000D03*
%TO.P,J13,2,2_2*%
%TO.N,P6REF+*%
X95464600Y-26500000D03*
%TO.P,J13,3,3_3*%
%TO.N,+12VA*%
X94214600Y-26500000D03*
%TO.P,J13,4,4_4*%
%TO.N,P7REF+*%
X92964600Y-26500000D03*
%TD*%
D22*
%TO.P,C41,1*%
%TO.N,12VA_VA-*%
X104050000Y-35760000D03*
%TO.P,C41,2*%
%TO.N,/Connectors/T4+*%
X104050000Y-37310000D03*
%TD*%
D17*
%TO.P,Q16,1,B_1*%
%TO.N,Net-(Q16-B)*%
X93000000Y-75168201D03*
%TO.P,Q16,2,C_1_2*%
%TO.N,/Connectors/Valve16-*%
X93000000Y-77468201D03*
%TO.P,Q16,3,E_3*%
%TO.N,12VA_VA-*%
X93000000Y-79768201D03*
D18*
%TO.P,Q16,4,C_2_4*%
%TO.N,/Connectors/Valve16-*%
X99200000Y-77468201D03*
%TD*%
D35*
%TO.P,CR15,1*%
%TO.N,+12VA*%
X113277000Y-86800000D03*
%TO.P,CR15,2*%
%TO.N,/Connectors/Valve15-*%
X117220000Y-86800000D03*
%TD*%
D21*
%TO.P,R66,1*%
%TO.N,Net-(U9-\u002ASYNC)*%
X92000000Y-41085000D03*
%TO.P,R66,2*%
%TO.N,+3V3*%
X92000000Y-42735000D03*
%TD*%
D35*
%TO.P,CR6,1*%
%TO.N,+12VB*%
X73781500Y-28950000D03*
%TO.P,CR6,2*%
%TO.N,/Connectors/Valve6-*%
X69838500Y-28950000D03*
%TD*%
D11*
%TO.P,C19,1*%
%TO.N,12VA_VA-*%
X55000000Y-50800000D03*
%TO.P,C19,2*%
%TO.N,+3V3*%
X55000000Y-49250000D03*
%TD*%
D37*
%TO.P,C11,1*%
%TO.N,+3V3*%
X55045000Y-67830000D03*
%TO.P,C11,2*%
%TO.N,12VA_VA-*%
X53495000Y-67830000D03*
%TD*%
D17*
%TO.P,Q4,1,B_1*%
%TO.N,Net-(Q4-B)*%
X82500000Y-40600000D03*
%TO.P,Q4,2,C_1_2*%
%TO.N,/Connectors/Valve4-*%
X82500000Y-38300000D03*
%TO.P,Q4,3,E_3*%
%TO.N,12VA_VA-*%
X82500000Y-36000000D03*
D18*
%TO.P,Q4,4,C_2_4*%
%TO.N,/Connectors/Valve4-*%
X76300000Y-38300000D03*
%TD*%
D25*
%TO.P,C13,1*%
%TO.N,+3V3*%
X70855000Y-68800000D03*
%TO.P,C13,2*%
%TO.N,12VA_VA-*%
X72405000Y-68800000D03*
%TD*%
D22*
%TO.P,C23,1*%
%TO.N,/Connectors/T0+*%
X101180000Y-63570000D03*
%TO.P,C23,2*%
%TO.N,/Connectors/T0-*%
X101180000Y-65120000D03*
%TD*%
D42*
%TO.P,U6,1,AGND_1*%
%TO.N,12VA_VA-*%
X96162500Y-55880000D03*
%TO.P,U6,2,BIAS_2*%
%TO.N,/Connectors/T2-*%
X96162500Y-55230000D03*
%TO.P,U6,3,T-_3*%
X96162500Y-54580000D03*
%TO.P,U6,4,T+_4*%
%TO.N,/Connectors/T2+*%
X96162500Y-53930000D03*
%TO.P,U6,5,AVDD_5*%
%TO.N,+3V3*%
X96162500Y-53280000D03*
%TO.P,U6,6*%
%TO.N,N/C*%
X96162500Y-52630000D03*
%TO.P,U6,7,~{DRDY}_7*%
%TO.N,unconnected-(U6-~{DRDY}-Pad7)*%
X96162500Y-51980000D03*
%TO.P,U6,8,DVDD_8*%
%TO.N,+3V3*%
X90392500Y-51980000D03*
%TO.P,U6,9,~{CS}_9*%
%TO.N,/Connectors/T3*%
X90392500Y-52630000D03*
%TO.P,U6,10,SCK_10*%
%TO.N,/Connectors/SPI2_SCK*%
X90392500Y-53280000D03*
%TO.P,U6,11,SDO_11*%
%TO.N,/Connectors/SPI2_MISO*%
X90392500Y-53930000D03*
%TO.P,U6,12,SDI_12*%
%TO.N,/Connectors/SPI2_MOSI*%
X90392500Y-54580000D03*
%TO.P,U6,13,~{FAULT}_13*%
%TO.N,unconnected-(U6-~{FAULT}-Pad13)*%
X90392500Y-55230000D03*
%TO.P,U6,14,DGND_14*%
%TO.N,12VA_VA-*%
X90392500Y-55880000D03*
%TD*%
%TO.P,U5,1,AGND_1*%
%TO.N,12VA_VA-*%
X112595000Y-66160000D03*
%TO.P,U5,2,BIAS_2*%
%TO.N,/Connectors/T1-*%
X112595000Y-65510000D03*
%TO.P,U5,3,T-_3*%
X112595000Y-64860000D03*
%TO.P,U5,4,T+_4*%
%TO.N,/Connectors/T1+*%
X112595000Y-64210000D03*
%TO.P,U5,5,AVDD_5*%
%TO.N,+3V3*%
X112595000Y-63560000D03*
%TO.P,U5,6*%
%TO.N,N/C*%
X112595000Y-62910000D03*
%TO.P,U5,7,~{DRDY}_7*%
%TO.N,unconnected-(U5-~{DRDY}-Pad7)*%
X112595000Y-62260000D03*
%TO.P,U5,8,DVDD_8*%
%TO.N,+3V3*%
X106825000Y-62260000D03*
%TO.P,U5,9,~{CS}_9*%
%TO.N,/Connectors/T2*%
X106825000Y-62910000D03*
%TO.P,U5,10,SCK_10*%
%TO.N,/Connectors/SPI2_SCK*%
X106825000Y-63560000D03*
%TO.P,U5,11,SDO_11*%
%TO.N,/Connectors/SPI2_MISO*%
X106825000Y-64210000D03*
%TO.P,U5,12,SDI_12*%
%TO.N,/Connectors/SPI2_MOSI*%
X106825000Y-64860000D03*
%TO.P,U5,13,~{FAULT}_13*%
%TO.N,unconnected-(U5-~{FAULT}-Pad13)*%
X106825000Y-65510000D03*
%TO.P,U5,14,DGND_14*%
%TO.N,12VA_VA-*%
X106825000Y-66160000D03*
%TD*%
D43*
%TO.P,D2,1,K_1*%
%TO.N,12VA_VA-*%
X52000000Y-70537500D03*
%TO.P,D2,2,A_2*%
%TO.N,Net-(D2-A)*%
X52000000Y-68962500D03*
%TD*%
D22*
%TO.P,C18,1*%
%TO.N,12VA_VA-*%
X59640000Y-49330000D03*
%TO.P,C18,2*%
%TO.N,+3V3*%
X59640000Y-50880000D03*
%TD*%
D44*
%TO.P,J7,1,Pin_1_1*%
%TO.N,12VA_VA-*%
X116146900Y-42318100D03*
%TO.P,J7,2,Pin_2_2*%
%TO.N,+12VA*%
X116146900Y-39818100D03*
%TD*%
D22*
%TO.P,C38,1*%
%TO.N,/Connectors/T3-*%
X114800000Y-54460000D03*
%TO.P,C38,2*%
%TO.N,12VA_VA-*%
X114800000Y-56010000D03*
%TD*%
%TO.P,C22,1*%
%TO.N,/Connectors/T0-*%
X99120000Y-64860000D03*
%TO.P,C22,2*%
%TO.N,12VA_VA-*%
X99120000Y-66410000D03*
%TD*%
D23*
%TO.P,Q13,1,B_1*%
%TO.N,Net-(Q13-B)*%
X110420000Y-90950000D03*
%TO.P,Q13,2,C_1_2*%
%TO.N,/Connectors/Valve13-*%
X108120000Y-90950000D03*
%TO.P,Q13,3,E_3*%
%TO.N,12VA_VA-*%
X105820000Y-90950000D03*
D24*
%TO.P,Q13,4,C_2_4*%
%TO.N,/Connectors/Valve13-*%
X108120000Y-97150000D03*
%TD*%
D37*
%TO.P,C70,1*%
%TO.N,+3V3*%
X91975000Y-44450000D03*
%TO.P,C70,2*%
%TO.N,12VA_VA-*%
X90425000Y-44450000D03*
%TD*%
D21*
%TO.P,R34,1*%
%TO.N,12VA_VA-*%
X99400000Y-32675000D03*
%TO.P,R34,2*%
%TO.N,P2REF+*%
X99400000Y-34325000D03*
%TD*%
D19*
%TO.P,R6,1*%
%TO.N,/MCU/Valve6*%
X64980000Y-37645000D03*
%TO.P,R6,2*%
%TO.N,Net-(Q6-B)*%
X64980000Y-35995000D03*
%TD*%
D16*
%TO.P,J21,1,1_1*%
%TO.N,+12VA*%
X78746900Y-100165801D03*
%TO.P,J21,2,2_2*%
%TO.N,/Connectors/Valve9-*%
X79996900Y-100165801D03*
%TO.P,J21,3,3_3*%
%TO.N,+12VA*%
X81246900Y-100165801D03*
%TO.P,J21,4,4_4*%
%TO.N,/Connectors/Valve10-*%
X82496900Y-100165801D03*
%TO.P,J21,5,5_5*%
%TO.N,+12VA*%
X83746900Y-100165801D03*
%TO.P,J21,6,6_6*%
%TO.N,/Connectors/Valve11-*%
X84996900Y-100165801D03*
%TD*%
D45*
%TO.P,U4,V*%
%TO.N,12VA_VA-*%
X62639919Y-38985079D03*
X62639919Y-40035079D03*
X63414919Y-38235078D03*
X63414919Y-38985079D03*
X63414919Y-40035079D03*
X63414919Y-40785080D03*
X64189919Y-38985079D03*
X64189919Y-40035079D03*
%TD*%
D46*
%TO.N,+3V3*%
X47350000Y-29000000D03*
X100950000Y-38350000D03*
X69300000Y-54400000D03*
X67240000Y-55340000D03*
X91975000Y-44450000D03*
X110360735Y-48089265D03*
X94450000Y-59450000D03*
X48500000Y-63300000D03*
X90100000Y-48900000D03*
X99240000Y-45875000D03*
X55250000Y-68800000D03*
X67070000Y-47698528D03*
X90300000Y-59300000D03*
X64410000Y-46275000D03*
X80850000Y-60930000D03*
X66980000Y-48250000D03*
X106500000Y-59300000D03*
X98014172Y-39775000D03*
X53580000Y-55545000D03*
X106150000Y-47850000D03*
X110184265Y-60884265D03*
X70855000Y-68800000D03*
X96050000Y-48900000D03*
%TO.N,/MCU/NRST*%
X81020000Y-54340000D03*
X53500000Y-59800000D03*
X69150000Y-57530000D03*
%TO.N,12VA_VA-*%
X108270000Y-66160000D03*
X77500000Y-31500000D03*
X122070000Y-93780000D03*
X53460000Y-53945000D03*
X65250000Y-34500000D03*
X77530000Y-32650000D03*
X53530000Y-66620000D03*
X82467000Y-42356800D03*
X88700000Y-39925000D03*
X92247550Y-35952450D03*
X95550000Y-79810000D03*
X99240000Y-41990000D03*
X93047550Y-36752450D03*
X57400000Y-35100000D03*
X69680000Y-31700000D03*
X57350000Y-36350000D03*
X113750000Y-60690000D03*
X79137600Y-31587000D03*
X88550000Y-31225000D03*
X80430000Y-31530000D03*
X117500000Y-49000000D03*
X56254419Y-52255076D03*
X93090000Y-60520000D03*
X65750000Y-45750000D03*
X123250000Y-31750000D03*
X71290000Y-32700000D03*
X72750000Y-33730000D03*
X71771600Y-43929600D03*
X61400000Y-61780000D03*
X71270000Y-33740000D03*
X71230000Y-31590000D03*
X62349765Y-70249765D03*
X113270000Y-66970000D03*
X88675000Y-42900000D03*
X113310000Y-56150000D03*
X63727354Y-42750000D03*
X64000000Y-34500000D03*
X64000000Y-33250000D03*
X103325000Y-28200000D03*
X100325000Y-28200000D03*
X102680000Y-35370000D03*
X58920000Y-55010000D03*
X89425000Y-28150000D03*
X88675000Y-41400000D03*
X86090000Y-74300000D03*
X100800000Y-61130000D03*
X77650000Y-45000000D03*
X104660000Y-44170000D03*
X72730000Y-32640000D03*
X92227450Y-37677450D03*
X80000000Y-35500000D03*
X57340000Y-34160000D03*
X57850000Y-43417600D03*
X73510852Y-58000000D03*
X58040000Y-73710000D03*
X93850001Y-35800000D03*
X79120000Y-33800000D03*
X83300000Y-93500000D03*
X106650000Y-56150000D03*
X67402800Y-32679200D03*
X56100000Y-41400000D03*
X74320000Y-33680000D03*
X65250000Y-33250000D03*
X61156235Y-69746235D03*
X77530000Y-33830000D03*
X113140000Y-80550000D03*
X80500000Y-33910000D03*
X117500000Y-46500000D03*
X107820000Y-38030000D03*
X90425000Y-44450000D03*
X96272500Y-30227500D03*
X67402800Y-33796800D03*
X66350000Y-31950000D03*
X93400000Y-49620000D03*
X98640000Y-93140000D03*
X79137600Y-32679200D03*
X51500000Y-93480000D03*
X51300000Y-48500000D03*
X91010000Y-93130000D03*
X72387500Y-68782500D03*
X97125000Y-28250000D03*
X109360000Y-59190000D03*
X66300000Y-34500000D03*
X67402800Y-31587000D03*
X62680000Y-50723099D03*
X61501000Y-61000000D03*
X106190000Y-93360000D03*
X92250000Y-55520000D03*
X97260000Y-60890000D03*
X72940000Y-72005000D03*
X104760000Y-41540000D03*
X74320000Y-31490000D03*
X65750000Y-44750000D03*
X90648900Y-33340000D03*
X75520000Y-93680000D03*
X58000000Y-48500000D03*
X65250000Y-32000000D03*
X72750000Y-31570000D03*
X59630000Y-93470000D03*
X67270000Y-93400000D03*
X97770000Y-67010000D03*
X80000000Y-66550000D03*
X71000000Y-46133000D03*
X66750000Y-44750000D03*
X97710000Y-56630000D03*
X66894200Y-45631400D03*
X64000000Y-32000000D03*
X64750000Y-44750000D03*
X99080000Y-49690000D03*
X85250000Y-46000000D03*
X80450000Y-32750000D03*
X115200000Y-37150000D03*
X113860000Y-48770000D03*
X63750000Y-44750000D03*
X65980000Y-56500000D03*
X74280000Y-32550000D03*
X109350000Y-28000000D03*
X91150000Y-30725000D03*
X109060000Y-48970000D03*
X92130000Y-66480000D03*
X85150000Y-54091000D03*
X113080000Y-100590000D03*
X93950000Y-37554901D03*
X72520000Y-54410000D03*
X69950000Y-44300000D03*
X76250000Y-45100000D03*
X69720000Y-32760000D03*
X75650000Y-79450000D03*
%TO.N,/Connectors/UART_PPU_TX*%
X53400000Y-52800000D03*
%TO.N,/Connectors/UART_PPU_RX*%
X59050122Y-54168593D03*
X56426662Y-27701868D03*
X51648130Y-28641660D03*
%TO.N,+12VA*%
X89530000Y-83460000D03*
X75610000Y-72450000D03*
X73010000Y-83290000D03*
X97040000Y-72070000D03*
X58760000Y-84580000D03*
X105030000Y-83820000D03*
X72350000Y-25100000D03*
X65330000Y-79940000D03*
X58770000Y-83720000D03*
X113700000Y-86450000D03*
X104840000Y-75850000D03*
X75620000Y-71680000D03*
X74760000Y-71670000D03*
X98450000Y-83890000D03*
X117900000Y-26150000D03*
X96170000Y-72030000D03*
X97670000Y-84740000D03*
X98440000Y-84750000D03*
X105700000Y-75860000D03*
X112840000Y-86440000D03*
X52440000Y-84820000D03*
X73000000Y-84150000D03*
X65030000Y-74830000D03*
X58030000Y-83700000D03*
X52500000Y-83800000D03*
X113600000Y-93260000D03*
X90270000Y-83480000D03*
X65040000Y-74060000D03*
X65370000Y-79070000D03*
X66110000Y-79090000D03*
X113690000Y-87220000D03*
X74740000Y-72410000D03*
X81220000Y-83860000D03*
X64300000Y-83980000D03*
X97710000Y-83870000D03*
X104850000Y-75080000D03*
X64160000Y-74790000D03*
X89490000Y-84330000D03*
X90260000Y-84340000D03*
X65030000Y-84860000D03*
X104290000Y-83800000D03*
X72270000Y-83270000D03*
X64260000Y-84850000D03*
X105020000Y-84680000D03*
X51590000Y-83750000D03*
X80450000Y-83850000D03*
X57990000Y-84570000D03*
X80490000Y-82980000D03*
X117850000Y-25400000D03*
X113640000Y-92390000D03*
X66100000Y-79950000D03*
X119510000Y-99750000D03*
X112820000Y-87180000D03*
X105720000Y-75120000D03*
X81230000Y-83000000D03*
X65040000Y-84000000D03*
X114380000Y-92410000D03*
X104250000Y-84670000D03*
X114370000Y-93270000D03*
X116950000Y-25400000D03*
X72230000Y-84140000D03*
X51610000Y-84810000D03*
X97050000Y-71300000D03*
X64180000Y-74050000D03*
X96190000Y-71290000D03*
X117000000Y-26250000D03*
%TO.N,Net-(U9-REFIN1(+))*%
X93350000Y-33150000D03*
X88550000Y-32775000D03*
X92886765Y-30961765D03*
X88406652Y-37293348D03*
%TO.N,/Connectors/I2C4_SDA*%
X57600000Y-66700000D03*
X50997000Y-55500000D03*
%TO.N,/Connectors/I2C4_SCL*%
X58950000Y-66550000D03*
X49000000Y-29000000D03*
%TO.N,/Connectors/T5*%
X86810000Y-46200000D03*
X94890000Y-47150000D03*
X73570000Y-54450000D03*
X100930000Y-44250000D03*
%TO.N,/Connectors/SPI2_SCK*%
X76390000Y-63560000D03*
X86610000Y-63580000D03*
X104609000Y-52381000D03*
X102333882Y-67122409D03*
X102220000Y-48230000D03*
X104680000Y-63610000D03*
%TO.N,/Connectors/SPI2_MISO*%
X102000000Y-69650000D03*
X88100000Y-61980000D03*
X88240000Y-64210000D03*
X103420000Y-64290000D03*
X103650000Y-53370000D03*
X101320000Y-66820000D03*
X83043741Y-62916490D03*
X77620000Y-62545000D03*
%TO.N,/Connectors/SPI2_MOSI*%
X85760000Y-64810000D03*
X97225000Y-45695000D03*
X102830000Y-67750000D03*
X105210000Y-54400000D03*
X103780000Y-47440000D03*
X73520000Y-61945000D03*
X105280000Y-64910000D03*
X88560000Y-55360000D03*
%TO.N,VBAT*%
X52000000Y-36750000D03*
%TO.N,/MCU/Valve2*%
X55120000Y-76850000D03*
X55470000Y-78890000D03*
%TO.N,/Connectors/T4*%
X70080000Y-52370000D03*
X108880000Y-51500000D03*
X87396237Y-45655637D03*
X94140000Y-46550000D03*
%TO.N,/Connectors/T2*%
X69088220Y-51510000D03*
X108900000Y-62430000D03*
%TO.N,/Connectors/PT*%
X89000000Y-44000000D03*
X94680000Y-40480000D03*
X68595168Y-50880000D03*
%TO.N,/12V Power Supply/EN*%
X63905445Y-54385796D03*
X51300000Y-50701472D03*
%TO.N,/Connectors/ADC*%
X59720000Y-55380000D03*
%TO.N,/Connectors/SPI1_SCK*%
X53590000Y-56560000D03*
X60690000Y-54860000D03*
%TO.N,/Connectors/SPI1_MISO*%
X62310782Y-56295619D03*
%TO.N,/Connectors/SPI1_MOSI*%
X62070000Y-57058527D03*
%TO.N,/MCU/Valve1*%
X54050000Y-76810000D03*
X54070000Y-78770000D03*
%TO.N,/MCU/Valve8*%
X76370000Y-85200000D03*
X76050000Y-76770000D03*
%TO.N,/MCU/Valve4*%
X66200000Y-58900000D03*
X72350000Y-50280000D03*
%TO.N,/MCU/Valve11*%
X64770000Y-69750000D03*
X84380000Y-70370000D03*
%TO.N,/MCU/Valve12*%
X82250000Y-69787000D03*
X65704176Y-69588000D03*
%TO.N,/Heater/Heater0*%
X111000000Y-32400000D03*
X66950000Y-65950000D03*
%TO.N,/MCU/Valve18*%
X117750000Y-36325000D03*
X67050000Y-66800000D03*
%TO.N,JTMS*%
X67110000Y-64230000D03*
%TO.N,JTCK*%
X72650000Y-66145000D03*
%TO.N,JTDI*%
X79250000Y-65580000D03*
X69420000Y-66020000D03*
%TO.N,/MCU/Valve15*%
X115990000Y-89630000D03*
X65290000Y-63180000D03*
%TO.N,/Connectors/\u002ASYNC*%
X72420000Y-60695000D03*
X69240000Y-59600000D03*
X73350000Y-52860000D03*
X67671472Y-58630000D03*
%TO.N,/Connectors/T1*%
X93710000Y-62480000D03*
X75565000Y-53965000D03*
X94100000Y-53580000D03*
%TO.N,/Connectors/T3*%
X87968527Y-44630000D03*
%TO.N,+12VB*%
X80800000Y-28850000D03*
X67465000Y-28430000D03*
X75700000Y-28660000D03*
%TO.N,P6REF+*%
X90100000Y-31700000D03*
X94350000Y-28250000D03*
%TO.N,P3REF+*%
X107500000Y-31000000D03*
%TO.N,P0REF+*%
X96650000Y-37050000D03*
X112850000Y-40350000D03*
%TO.N,P2REF+*%
X100600735Y-34390735D03*
X114439265Y-39840735D03*
%TO.N,\u002ADRDY*%
X96340000Y-62205000D03*
X98081027Y-63260444D03*
%TO.N,\u002AFAULT*%
X100500000Y-66500000D03*
X92000000Y-65500000D03*
%TO.N,Net-(U10-REFIN1(+))*%
X61310000Y-47090000D03*
X65564999Y-51437849D03*
%TO.N,12VA_VB+*%
X62800003Y-66510000D03*
X62827887Y-62999187D03*
%TO.N,12VA_VA+*%
X62029729Y-62944891D03*
X61414000Y-66614000D03*
%TO.N,VBAT_VA+*%
X62281739Y-48265000D03*
X57120000Y-48000000D03*
%TO.N,VBAT_VB+*%
X63302752Y-46994223D03*
X57470000Y-47160000D03*
%TO.N,/Connectors/USART3_RX*%
X44530000Y-25160000D03*
%TD*%
%TO.N,+3V3*%
D47*
X91199000Y-43049000D02*
X91000000Y-42850000D01*
X91975000Y-44450000D02*
X91975000Y-43825000D01*
D48*
X98014172Y-39775000D02*
X97989172Y-39750000D01*
D47*
X95590001Y-63560000D02*
X96340000Y-63560000D01*
D48*
X57225000Y-49225000D02*
X58670000Y-50670000D01*
X64410000Y-47350000D02*
X64610000Y-47550000D01*
X66560000Y-47550000D02*
X64610000Y-47550000D01*
X56750000Y-49225000D02*
X57225000Y-49225000D01*
D47*
X96050000Y-50225000D02*
X95111500Y-51163500D01*
D48*
X71480000Y-53910000D02*
X70946000Y-54444000D01*
D47*
X106500000Y-59300000D02*
X106515000Y-59315000D01*
D48*
X57175000Y-49225000D02*
X56750000Y-49225000D01*
D47*
X70380000Y-70735000D02*
X70380000Y-69220000D01*
X106150000Y-47850000D02*
X106135000Y-47865000D01*
D48*
X62345000Y-49840828D02*
X61955828Y-50230000D01*
D47*
X106515000Y-59315000D02*
X106515000Y-61950000D01*
X91050000Y-42900000D02*
X90225000Y-42900000D01*
X66375000Y-51030000D02*
X66375000Y-49250000D01*
D48*
X69300000Y-54400000D02*
X70610000Y-53090000D01*
D47*
X69860000Y-69020000D02*
X69860000Y-68960000D01*
X90100000Y-48900000D02*
X90100000Y-47500000D01*
X111845001Y-63560000D02*
X112595000Y-63560000D01*
X91000000Y-41965000D02*
X90437000Y-41402000D01*
X94437500Y-59462500D02*
X94437500Y-62407499D01*
D48*
X61420000Y-50740000D02*
X61420000Y-50880000D01*
D47*
X70380000Y-69220000D02*
X70320000Y-69160000D01*
X90100000Y-47500000D02*
X89680000Y-47080000D01*
X110360735Y-48089265D02*
X110715000Y-48443530D01*
D48*
X97989172Y-39750000D02*
X97875000Y-39750000D01*
D47*
X90183000Y-41442000D02*
X90223000Y-41402000D01*
X68170000Y-69052410D02*
X68437590Y-69320000D01*
X111635422Y-52400000D02*
X112337500Y-52400000D01*
X64170000Y-53801824D02*
X65708176Y-55340000D01*
X68870000Y-70725000D02*
X68870000Y-69752410D01*
X90437000Y-41402000D02*
X91850000Y-39989000D01*
X96179900Y-38054900D02*
X96975000Y-38850000D01*
D48*
X64410000Y-46275000D02*
X64410000Y-47350000D01*
D47*
X110715000Y-51479578D02*
X111635422Y-52400000D01*
D48*
X97875000Y-39750000D02*
X96975000Y-38850000D01*
D47*
X90105000Y-48905000D02*
X90105000Y-51692500D01*
X96050000Y-48900000D02*
X96050000Y-50225000D01*
X95111500Y-51163500D02*
X95111500Y-52978999D01*
D48*
X55000000Y-48569339D02*
X55000000Y-49250000D01*
D47*
X66670000Y-52870000D02*
X66670000Y-51325000D01*
X94450000Y-59450000D02*
X94437500Y-59462500D01*
X66670000Y-51325000D02*
X66375000Y-51030000D01*
X53580000Y-55545000D02*
X55495000Y-55545000D01*
X58670000Y-52870000D02*
X58670000Y-51650000D01*
X94450000Y-59450000D02*
X95070000Y-58830000D01*
D48*
X64610000Y-47550000D02*
X62345000Y-49815000D01*
X61955828Y-50230000D02*
X61930000Y-50230000D01*
D47*
X91975000Y-43825000D02*
X91199000Y-43049000D01*
D48*
X63970000Y-45450000D02*
X58119339Y-45450000D01*
X57200000Y-49250000D02*
X57175000Y-49225000D01*
D47*
X106515000Y-61950000D02*
X106825000Y-62260000D01*
X90300000Y-59300000D02*
X90277500Y-59322500D01*
D48*
X64410000Y-46275000D02*
X64410000Y-45890000D01*
D47*
X94437500Y-59462500D02*
X94437500Y-60560000D01*
X101150000Y-38150000D02*
X101955000Y-38150000D01*
X110184265Y-60884265D02*
X110668530Y-60400000D01*
X101955000Y-38150000D02*
X102290000Y-38485000D01*
X90100000Y-48900000D02*
X90105000Y-48905000D01*
X53315000Y-55280000D02*
X53580000Y-55545000D01*
D48*
X55045000Y-68595000D02*
X55250000Y-68800000D01*
D47*
X100950000Y-38350000D02*
X101150000Y-38150000D01*
D48*
X62345000Y-49815000D02*
X62345000Y-49840828D01*
D47*
X110715000Y-48443530D02*
X110715000Y-51479578D01*
D48*
X58119339Y-45450000D02*
X55000000Y-48569339D01*
D47*
X95500300Y-38054900D02*
X96179900Y-38054900D01*
X91850000Y-39989000D02*
X91850000Y-39256000D01*
X70000000Y-69160000D02*
X69860000Y-69020000D01*
X61420000Y-50880000D02*
X59640000Y-50880000D01*
X68170000Y-69052410D02*
X68170000Y-68220000D01*
D48*
X47350000Y-29000000D02*
X49175000Y-30825000D01*
D47*
X91000000Y-42850000D02*
X91000000Y-41965000D01*
X111085000Y-60400000D02*
X111085000Y-62799999D01*
X106135000Y-47865000D02*
X106135000Y-50667500D01*
X66375000Y-49250000D02*
X66335000Y-49210000D01*
X110668530Y-60400000D02*
X111085000Y-60400000D01*
X48500000Y-62005000D02*
X50725000Y-59780000D01*
D48*
X49175000Y-30825000D02*
X49175000Y-38750000D01*
X58670000Y-50670000D02*
X58670000Y-51650000D01*
D47*
X111085000Y-62799999D02*
X111845001Y-63560000D01*
X91513000Y-42735000D02*
X91948000Y-42735000D01*
D48*
X64410000Y-45890000D02*
X63970000Y-45450000D01*
D47*
X48500000Y-63300000D02*
X48500000Y-62005000D01*
X90105000Y-51692500D02*
X90392500Y-51980000D01*
X70320000Y-69160000D02*
X70000000Y-69160000D01*
X95412501Y-53280000D02*
X96162500Y-53280000D01*
D48*
X61930000Y-50230000D02*
X61420000Y-50740000D01*
D47*
X95111500Y-52978999D02*
X95412501Y-53280000D01*
X65708176Y-55340000D02*
X67240000Y-55340000D01*
X70335000Y-69320000D02*
X70855000Y-68800000D01*
D48*
X70610000Y-53090000D02*
X71480000Y-53090000D01*
X71480000Y-53090000D02*
X71480000Y-53910000D01*
D47*
X90277500Y-61967500D02*
X90570000Y-62260000D01*
X68437590Y-69320000D02*
X70335000Y-69320000D01*
X89680000Y-47080000D02*
X89170000Y-47080000D01*
X95070000Y-58830000D02*
X97586250Y-58830000D01*
D48*
X55045000Y-67830000D02*
X55045000Y-68595000D01*
D47*
X90277500Y-59322500D02*
X90277500Y-61967500D01*
X94437500Y-62407499D02*
X95590001Y-63560000D01*
X64170000Y-52870000D02*
X64170000Y-53801824D01*
X102290000Y-38485000D02*
X102290000Y-39880000D01*
X80820000Y-60960000D02*
X80850000Y-60930000D01*
X74975000Y-60960000D02*
X80820000Y-60960000D01*
X91199000Y-43049000D02*
X91513000Y-42735000D01*
X91199000Y-43049000D02*
X91050000Y-42900000D01*
X68870000Y-69752410D02*
X68437590Y-69320000D01*
X106135000Y-50667500D02*
X106567500Y-51100000D01*
%TO.N,/MCU/NRST*%
X49750000Y-72250000D02*
X50000000Y-72500000D01*
X81020000Y-54340000D02*
X81190000Y-54510000D01*
X81020000Y-54340000D02*
X81175000Y-54340000D01*
X51975000Y-59780000D02*
X49250000Y-62505000D01*
X52345000Y-59800000D02*
X52335000Y-59790000D01*
X81190000Y-54510000D02*
X81190000Y-57150000D01*
X81175000Y-54340000D02*
X82105000Y-53410000D01*
X62670000Y-54039943D02*
X66160057Y-57530000D01*
X49250000Y-62505000D02*
X49250000Y-71750000D01*
X53500000Y-59800000D02*
X52345000Y-59800000D01*
X52375000Y-59780000D02*
X51975000Y-59780000D01*
X81190000Y-57150000D02*
X82580000Y-58540000D01*
X66160057Y-57530000D02*
X69150000Y-57530000D01*
X49250000Y-71750000D02*
X50000000Y-72500000D01*
X62670000Y-52870000D02*
X62670000Y-54039943D01*
%TO.N,12VA_VA-*%
X104890000Y-44400000D02*
X104660000Y-44170000D01*
X67300000Y-40600000D02*
X67300000Y-41650000D01*
X91850000Y-38054900D02*
X92227450Y-37677450D01*
D48*
X90590000Y-91040000D02*
X90590000Y-92710000D01*
D47*
X92247550Y-35952450D02*
X93100000Y-36804900D01*
X72940000Y-72160000D02*
X72940000Y-72005000D01*
X91890000Y-55880000D02*
X92250000Y-55520000D01*
X112925000Y-60690000D02*
X112635000Y-60400000D01*
X113100000Y-56150000D02*
X112337500Y-55387500D01*
D48*
X105820000Y-90950000D02*
X105820000Y-92990000D01*
D47*
X64790000Y-50710000D02*
X64790000Y-49215000D01*
X108590000Y-39380000D02*
X108590000Y-38800000D01*
X58460000Y-55010000D02*
X58450000Y-55020000D01*
D48*
X59010000Y-92850000D02*
X59630000Y-93470000D01*
D47*
X104890000Y-41410000D02*
X104760000Y-41540000D01*
D48*
X122070000Y-94000000D02*
X124780000Y-96710000D01*
D47*
X91827500Y-60520000D02*
X93090000Y-60520000D01*
X99350000Y-51745000D02*
X99350000Y-49960000D01*
X89016733Y-37054900D02*
X88550000Y-36588167D01*
X112265000Y-49150000D02*
X113480000Y-49150000D01*
X114850000Y-49300000D02*
X114850000Y-50305000D01*
X108065000Y-60470000D02*
X108080000Y-60470000D01*
X92349999Y-36054899D02*
X93100000Y-36804900D01*
X92850000Y-34353800D02*
X92850000Y-36554900D01*
D48*
X74880000Y-90970000D02*
X74880000Y-93040000D01*
D47*
X108080000Y-60470000D02*
X109360000Y-59190000D01*
X104890000Y-45650000D02*
X104890000Y-44400000D01*
X94844700Y-35060200D02*
X93100000Y-36804900D01*
X101870000Y-36515000D02*
X101815000Y-36515000D01*
X113480000Y-49150000D02*
X113860000Y-48770000D01*
X52000000Y-71500000D02*
X51000000Y-72500000D01*
X96100000Y-32675000D02*
X99400000Y-32675000D01*
X99240000Y-41580000D02*
X98770000Y-41110000D01*
X102880000Y-35370000D02*
X103270000Y-35760000D01*
X55000000Y-51250329D02*
X56004747Y-52255076D01*
X73352960Y-58027040D02*
X72700000Y-58680000D01*
X94095101Y-35554900D02*
X93850001Y-35800000D01*
X67427500Y-29960000D02*
X67427500Y-31562300D01*
X103270000Y-35760000D02*
X104050000Y-35760000D01*
X59715000Y-54495000D02*
X59200000Y-55010000D01*
X49725000Y-69762500D02*
X50500000Y-70537500D01*
X97710000Y-56630000D02*
X96912500Y-56630000D01*
X92650000Y-29225000D02*
X91150000Y-30725000D01*
X58830000Y-49330000D02*
X58000000Y-48500000D01*
D48*
X74880000Y-93040000D02*
X75520000Y-93680000D01*
D47*
X107685000Y-49050000D02*
X108980000Y-49050000D01*
X60170000Y-52870000D02*
X60170000Y-54040000D01*
X114305000Y-60690000D02*
X113750000Y-60690000D01*
X50500000Y-70537500D02*
X52000000Y-70537500D01*
X109181500Y-28168500D02*
X109350000Y-28000000D01*
X112595000Y-66745000D02*
X112595000Y-66160000D01*
X108590000Y-38800000D02*
X107820000Y-38030000D01*
X80000000Y-66550000D02*
X80000000Y-66200000D01*
X97000000Y-41875000D02*
X98005000Y-41875000D01*
X124590000Y-99120000D02*
X124590000Y-96900000D01*
D48*
X66820000Y-92950000D02*
X67270000Y-93400000D01*
D47*
X119000000Y-46425000D02*
X117575000Y-46425000D01*
X90648900Y-36054899D02*
X92349999Y-36054899D01*
X99120000Y-61520000D02*
X100410000Y-61520000D01*
X95987500Y-60560000D02*
X96930000Y-60560000D01*
X73483812Y-58027040D02*
X73352960Y-58027040D01*
X96084899Y-37554901D02*
X95500300Y-37554901D01*
D48*
X110410000Y-80290000D02*
X112880000Y-80290000D01*
D47*
X59670000Y-52870000D02*
X59670000Y-54450000D01*
D48*
X86090000Y-74350000D02*
X86560000Y-74820000D01*
D47*
X70380000Y-72285000D02*
X70715000Y-72285000D01*
X68870000Y-72275000D02*
X70370000Y-72275000D01*
D48*
X98050000Y-92550000D02*
X98640000Y-93140000D01*
D47*
X70370000Y-72275000D02*
X70380000Y-72285000D01*
D48*
X59010000Y-90960000D02*
X59010000Y-92850000D01*
D47*
X112337500Y-55387500D02*
X112337500Y-55000000D01*
X96912500Y-56630000D02*
X96162500Y-55880000D01*
X88675000Y-42900000D02*
X88675000Y-39950000D01*
D48*
X50910000Y-92890000D02*
X51500000Y-93480000D01*
D47*
X52000000Y-70537500D02*
X53495000Y-69042500D01*
X60170000Y-52870000D02*
X60170000Y-53570000D01*
X55520000Y-55020000D02*
X55495000Y-55045000D01*
X84469000Y-53410000D02*
X85150000Y-54091000D01*
X93950000Y-37554901D02*
X93850001Y-37554901D01*
D48*
X115600000Y-35200000D02*
X115600000Y-36750000D01*
X124550000Y-34850000D02*
X124550000Y-33050000D01*
D47*
X113270000Y-66970000D02*
X112820000Y-66970000D01*
D48*
X82740000Y-92940000D02*
X83300000Y-93500000D01*
D47*
X58450000Y-55020000D02*
X55520000Y-55020000D01*
X96279600Y-37650000D02*
X97300000Y-37650000D01*
X113310000Y-56150000D02*
X113100000Y-56150000D01*
X53530000Y-66620000D02*
X53530000Y-67795000D01*
D48*
X86560000Y-74820000D02*
X88300000Y-74820000D01*
D47*
X98770000Y-39095000D02*
X98525000Y-38850000D01*
X92850000Y-36554900D02*
X93047550Y-36752450D01*
X80450000Y-65750000D02*
X81450000Y-65750000D01*
X90648900Y-35054901D02*
X90648900Y-32776100D01*
X68937176Y-67119000D02*
X70724000Y-67119000D01*
X102258750Y-58830000D02*
X102258750Y-59671250D01*
X64790000Y-50710000D02*
X62693099Y-50710000D01*
X73510852Y-58000000D02*
X73483812Y-58027040D01*
D48*
X59640000Y-49330000D02*
X61420000Y-49330000D01*
D47*
X114900000Y-61285000D02*
X114305000Y-60690000D01*
X53495000Y-69042500D02*
X53495000Y-67830000D01*
X118750000Y-49475000D02*
X118500000Y-49225000D01*
X113310000Y-56150000D02*
X114660000Y-56150000D01*
X71480000Y-51540000D02*
X72520000Y-52580000D01*
X54105000Y-66045000D02*
X53530000Y-66620000D01*
X50500000Y-64287500D02*
X49725000Y-65062500D01*
X58920000Y-55010000D02*
X58460000Y-55010000D01*
X93047550Y-36752450D02*
X93100000Y-36804900D01*
X80500000Y-36000000D02*
X80000000Y-35500000D01*
X83655000Y-53410000D02*
X84469000Y-53410000D01*
X59670000Y-54450000D02*
X59715000Y-54495000D01*
X92022500Y-66560000D02*
X91622500Y-66160000D01*
X91622500Y-66160000D02*
X90570000Y-66160000D01*
X106567500Y-55000000D02*
X106567500Y-56067500D01*
X70715000Y-72285000D02*
X70995000Y-72005000D01*
X67300000Y-41650000D02*
X69950000Y-44300000D01*
X67427500Y-31562300D02*
X67402800Y-31587000D01*
X108270000Y-66160000D02*
X106825000Y-66160000D01*
X100410000Y-61520000D02*
X100800000Y-61130000D01*
X97300000Y-37650000D02*
X97650000Y-37300000D01*
X91355300Y-35060200D02*
X92247550Y-35952450D01*
X97770000Y-67010000D02*
X97190000Y-67010000D01*
D48*
X82740000Y-90970000D02*
X82740000Y-92940000D01*
D47*
X72520000Y-52580000D02*
X72520000Y-54640000D01*
D48*
X112880000Y-80290000D02*
X113140000Y-80550000D01*
D47*
X113600000Y-66970000D02*
X113775000Y-67145000D01*
X102680000Y-35370000D02*
X102880000Y-35370000D01*
X56004747Y-52255076D02*
X56254419Y-52255076D01*
D48*
X66820000Y-90970000D02*
X66820000Y-92950000D01*
X93000000Y-79768201D02*
X95508201Y-79768201D01*
D47*
X99300000Y-57065000D02*
X98145000Y-57065000D01*
X59640000Y-49330000D02*
X58830000Y-49330000D01*
X98005000Y-41875000D02*
X98770000Y-41110000D01*
D48*
X124550000Y-33050000D02*
X123250000Y-31750000D01*
D47*
X88675000Y-39950000D02*
X88700000Y-39925000D01*
X82500000Y-36000000D02*
X80500000Y-36000000D01*
X93850001Y-36054899D02*
X93100000Y-36804900D01*
X98520000Y-67010000D02*
X99120000Y-66410000D01*
X56254419Y-52255076D02*
X56750000Y-51759495D01*
X64670000Y-51780000D02*
X64670000Y-52870000D01*
X101870000Y-36180000D02*
X102680000Y-35370000D01*
D48*
X74980000Y-80120000D02*
X75650000Y-79450000D01*
X73230000Y-80120000D02*
X74980000Y-80120000D01*
D47*
X88550000Y-34550000D02*
X87775000Y-33775000D01*
D48*
X113850000Y-99820000D02*
X113080000Y-100590000D01*
D47*
X90654199Y-35060200D02*
X91355300Y-35060200D01*
X98770000Y-41110000D02*
X98770000Y-39095000D01*
X72115000Y-55045000D02*
X70845000Y-55045000D01*
D48*
X58040000Y-73710000D02*
X58040000Y-75260000D01*
D47*
X99240000Y-41990000D02*
X99240000Y-44325000D01*
X87775000Y-33775000D02*
X87775000Y-32000000D01*
X92850000Y-37054900D02*
X93100000Y-36804900D01*
X96930000Y-60560000D02*
X97260000Y-60890000D01*
X113270000Y-66970000D02*
X113600000Y-66970000D01*
X70724000Y-67119000D02*
X72387500Y-68782500D01*
X55000000Y-50800000D02*
X55000000Y-51250329D01*
X90648900Y-37054900D02*
X89016733Y-37054900D01*
X94844700Y-34359099D02*
X94844700Y-35060200D01*
X106567500Y-56067500D02*
X106650000Y-56150000D01*
X124590000Y-96900000D02*
X124780000Y-96710000D01*
X91850000Y-34353800D02*
X91850000Y-35554900D01*
X55495000Y-66045000D02*
X54105000Y-66045000D01*
X90648900Y-37054900D02*
X92850000Y-37054900D01*
X92870000Y-50150000D02*
X93400000Y-49620000D01*
D48*
X58040000Y-75260000D02*
X57810000Y-75490000D01*
D47*
X92227450Y-37677450D02*
X93100000Y-36804900D01*
X70995000Y-72005000D02*
X72940000Y-72005000D01*
X56750000Y-51759495D02*
X56750000Y-50775000D01*
X64790000Y-49215000D02*
X64785000Y-49210000D01*
X95551100Y-37554901D02*
X93950000Y-37554901D01*
X118500000Y-49225000D02*
X117725000Y-49225000D01*
X90648900Y-38054900D02*
X91850000Y-38054900D01*
X113860000Y-48770000D02*
X114320000Y-48770000D01*
X114320000Y-48770000D02*
X114850000Y-49300000D01*
X112820000Y-66970000D02*
X112595000Y-66745000D01*
X108000000Y-28168500D02*
X109181500Y-28168500D01*
D48*
X90590000Y-92710000D02*
X91010000Y-93130000D01*
D47*
X99240000Y-41990000D02*
X99240000Y-41580000D01*
D48*
X86090000Y-74300000D02*
X86090000Y-74350000D01*
D47*
X80000000Y-66200000D02*
X80450000Y-65750000D01*
X91850000Y-35554900D02*
X93100000Y-36804900D01*
X93850001Y-34353800D02*
X93850001Y-35800000D01*
X93850001Y-35800000D02*
X93850001Y-36054899D01*
D48*
X98050000Y-90960000D02*
X98050000Y-92550000D01*
D47*
X95551100Y-36554900D02*
X93350000Y-36554900D01*
X101870000Y-36515000D02*
X101870000Y-36180000D01*
X97675000Y-50150000D02*
X98620000Y-50150000D01*
X93350000Y-36554900D02*
X93100000Y-36804900D01*
X117575000Y-46425000D02*
X117500000Y-46500000D01*
X92700000Y-29225000D02*
X92650000Y-29225000D01*
X52000000Y-70537500D02*
X52000000Y-71500000D01*
X91655000Y-50150000D02*
X92870000Y-50150000D01*
X56750000Y-72700000D02*
X57030000Y-72700000D01*
X64790000Y-51660000D02*
X64790000Y-50710000D01*
X91150000Y-32275000D02*
X91000000Y-32275000D01*
D48*
X105820000Y-92990000D02*
X106190000Y-93360000D01*
D47*
X97190000Y-67010000D02*
X96340000Y-66160000D01*
X88550000Y-36588167D02*
X88550000Y-36100000D01*
X62693099Y-50710000D02*
X62680000Y-50723099D01*
X68670000Y-68220000D02*
X68670000Y-67386176D01*
X104890000Y-39880000D02*
X104890000Y-41410000D01*
X87775000Y-32000000D02*
X88550000Y-31225000D01*
X72700000Y-58680000D02*
X72700000Y-58995000D01*
X94849999Y-33925001D02*
X96100000Y-32675000D01*
X92130000Y-66480000D02*
X92050000Y-66560000D01*
D48*
X95508201Y-79768201D02*
X95550000Y-79810000D01*
D47*
X90392500Y-55880000D02*
X91890000Y-55880000D01*
X90648900Y-35054901D02*
X90654199Y-35060200D01*
X98145000Y-57065000D02*
X97710000Y-56630000D01*
X60170000Y-54040000D02*
X59715000Y-54495000D01*
X93850001Y-37554901D02*
X93100000Y-36804900D01*
X113775000Y-67145000D02*
X114830000Y-67145000D01*
X102258750Y-59671250D02*
X100800000Y-61130000D01*
X64670000Y-51780000D02*
X64790000Y-51660000D01*
X118900000Y-49475000D02*
X118750000Y-49475000D01*
D48*
X115650000Y-99820000D02*
X113850000Y-99820000D01*
D47*
X59200000Y-55010000D02*
X58920000Y-55010000D01*
X91150000Y-30725000D02*
X91275000Y-30725000D01*
X99350000Y-49960000D02*
X99080000Y-49690000D01*
X98525000Y-38850000D02*
X98525000Y-37975000D01*
X113750000Y-60690000D02*
X112925000Y-60690000D01*
X96184501Y-37554901D02*
X96279600Y-37650000D01*
X108980000Y-49050000D02*
X109060000Y-48970000D01*
X53530000Y-67795000D02*
X53495000Y-67830000D01*
X72520000Y-54640000D02*
X72115000Y-55045000D01*
X96184501Y-37554901D02*
X95551100Y-37554901D01*
X92050000Y-66560000D02*
X92022500Y-66560000D01*
X72387500Y-68782500D02*
X72405000Y-68800000D01*
D48*
X50910000Y-90930000D02*
X50910000Y-92890000D01*
D47*
X68670000Y-67386176D02*
X68937176Y-67119000D01*
X49725000Y-65062500D02*
X49725000Y-69762500D01*
X117725000Y-49225000D02*
X117500000Y-49000000D01*
X57030000Y-72700000D02*
X58040000Y-73710000D01*
X94849999Y-34353800D02*
X94844700Y-34359099D01*
X97770000Y-67010000D02*
X98520000Y-67010000D01*
X94849999Y-34353800D02*
X94849999Y-33925001D01*
X114660000Y-56150000D02*
X114800000Y-56010000D01*
X95551100Y-35554900D02*
X94095101Y-35554900D01*
X98525000Y-37975000D02*
X99200000Y-37300000D01*
X90648900Y-32776100D02*
X91150000Y-32275000D01*
D48*
X115600000Y-36750000D02*
X115200000Y-37150000D01*
D47*
X98620000Y-50150000D02*
X99080000Y-49690000D01*
X72700000Y-58995000D02*
X72700000Y-58745000D01*
%TO.N,/Connectors/UART_PPU_TX*%
X55566176Y-52600000D02*
X56937176Y-53971000D01*
X57402824Y-53971000D02*
X57670000Y-53703824D01*
X53400000Y-52800000D02*
X53595000Y-52800000D01*
X53795000Y-52600000D02*
X55566176Y-52600000D01*
X57670000Y-53703824D02*
X57670000Y-52870000D01*
X56937176Y-53971000D02*
X57402824Y-53971000D01*
X53595000Y-52800000D02*
X53795000Y-52600000D01*
%TO.N,/Connectors/UART_PPU_RX*%
X56252149Y-27527355D02*
X56170455Y-27527355D01*
X55143100Y-27356900D02*
X55143100Y-26500000D01*
X52789790Y-27500000D02*
X51648130Y-28641660D01*
X56170455Y-27527355D02*
X55143100Y-26500000D01*
X55000000Y-27500000D02*
X52789790Y-27500000D01*
X58170000Y-52870000D02*
X58170000Y-53703824D01*
X58634769Y-54168593D02*
X59050122Y-54168593D01*
X55143100Y-27356900D02*
X55000000Y-27500000D01*
X58170000Y-53703824D02*
X58634769Y-54168593D01*
X56426662Y-27701868D02*
X56252149Y-27527355D01*
%TO.N,+12VA*%
D48*
X72320000Y-25070000D02*
X53282838Y-25070000D01*
X106393100Y-28068100D02*
X106393100Y-26798000D01*
X72350000Y-25100000D02*
X72320000Y-25070000D01*
X53282838Y-25070000D02*
X52643100Y-25709738D01*
D47*
X106500000Y-26691100D02*
X106393100Y-26584200D01*
D48*
X52643100Y-25709738D02*
X52643100Y-26500000D01*
X106393100Y-26798000D02*
X106500000Y-26691100D01*
X106500000Y-28175000D02*
X106393100Y-28068100D01*
%TO.N,/Connectors/Valve15-*%
X118950000Y-86800000D02*
X122480000Y-90330000D01*
X122480000Y-90330000D02*
X122480000Y-90510000D01*
X118619700Y-84770300D02*
X119260000Y-84130000D01*
X119260000Y-84130000D02*
X120165801Y-84130000D01*
X118619700Y-86800000D02*
X118619700Y-84770300D01*
X120900000Y-94040000D02*
X120900000Y-92090000D01*
X118619700Y-86800000D02*
X118950000Y-86800000D01*
X117220000Y-86800000D02*
X118619700Y-86800000D01*
X120900000Y-92090000D02*
X122480000Y-90510000D01*
X122480000Y-95620000D02*
X120900000Y-94040000D01*
X122480000Y-96710000D02*
X122480000Y-95620000D01*
%TO.N,/Connectors/Valve16-*%
X100551500Y-71680000D02*
X101650000Y-71680000D01*
X118020000Y-83220000D02*
X112980000Y-83220000D01*
X102360000Y-72390000D02*
X102360000Y-74308201D01*
X119610000Y-81630000D02*
X118020000Y-83220000D01*
X101650000Y-71680000D02*
X102360000Y-72390000D01*
X120165801Y-81630000D02*
X119610000Y-81630000D01*
X111680000Y-81920000D02*
X103650000Y-81920000D01*
X102360000Y-74308201D02*
X99200000Y-77468201D01*
X101420000Y-79690000D02*
X101420000Y-79688201D01*
X112980000Y-83220000D02*
X111680000Y-81920000D01*
X101420000Y-79688201D02*
X99200000Y-77468201D01*
X93000000Y-77468201D02*
X99200000Y-77468201D01*
X103650000Y-81920000D02*
X101420000Y-79690000D01*
%TO.N,/Connectors/Valve17-*%
X105290000Y-79411601D02*
X105290000Y-79673469D01*
X110410000Y-77990000D02*
X116610000Y-77990000D01*
X116610000Y-77990000D02*
X119025801Y-77990000D01*
X105290000Y-79673469D02*
X106536531Y-80920000D01*
X119025801Y-77990000D02*
X120165801Y-79130000D01*
X107480000Y-80920000D02*
X110410000Y-77990000D01*
X106536531Y-80920000D02*
X107480000Y-80920000D01*
%TO.N,Net-(Q10-B)*%
D47*
X89526000Y-78194000D02*
X88300000Y-79420000D01*
X89467000Y-76310000D02*
X89526000Y-76369000D01*
X82990000Y-72745000D02*
X82990000Y-73250000D01*
X89526000Y-76369000D02*
X89526000Y-78194000D01*
X86050000Y-76310000D02*
X89467000Y-76310000D01*
X88570000Y-79420000D02*
X88300000Y-79420000D01*
X82990000Y-73250000D02*
X86050000Y-76310000D01*
%TO.N,/Connectors/Valve10-*%
D48*
X83458299Y-98810000D02*
X82496900Y-99771399D01*
X82100000Y-79310000D02*
X87250000Y-84460000D01*
X82100000Y-73550300D02*
X82100000Y-77120000D01*
X79170000Y-72020000D02*
X80569700Y-72020000D01*
X82496900Y-99771399D02*
X82496900Y-100165801D01*
X88990000Y-89890000D02*
X88990000Y-97030000D01*
X88990000Y-97030000D02*
X87210000Y-98810000D01*
X80569700Y-72020000D02*
X82100000Y-73550300D01*
X87250000Y-88150000D02*
X88990000Y-89890000D01*
X82100000Y-77120000D02*
X82100000Y-79310000D01*
X88300000Y-77120000D02*
X82100000Y-77120000D01*
X87250000Y-84460000D02*
X87250000Y-88150000D01*
X87210000Y-98810000D02*
X83458299Y-98810000D01*
%TO.N,Net-(D2-A)*%
D47*
X52000000Y-67575000D02*
X52000000Y-68962500D01*
%TO.N,/MCU/RED_LED*%
X55495000Y-64545000D02*
X54455000Y-64545000D01*
X53075000Y-65925000D02*
X52000000Y-65925000D01*
X54455000Y-64545000D02*
X53075000Y-65925000D01*
X55495000Y-64545000D02*
X55445000Y-64595000D01*
%TO.N,/Connectors/Valve12-*%
D48*
X98050000Y-88281600D02*
X98050000Y-88660000D01*
X98050000Y-88660000D02*
X100350000Y-90960000D01*
X100350000Y-90960000D02*
X100350000Y-97160000D01*
X100350000Y-97160000D02*
X98380400Y-97160000D01*
X95526900Y-100013500D02*
X95526900Y-100345801D01*
X98380400Y-97160000D02*
X95526900Y-100013500D01*
%TO.N,/Connectors/Valve13-*%
X108120000Y-97150000D02*
X106734000Y-98536000D01*
X104680000Y-88241600D02*
X104610000Y-88171600D01*
X108120000Y-90950000D02*
X108120000Y-97150000D01*
X105090000Y-89540000D02*
X104680000Y-89130000D01*
X104680000Y-89130000D02*
X104680000Y-88241600D01*
X106734000Y-98536000D02*
X99113925Y-98536000D01*
X106710000Y-89540000D02*
X105090000Y-89540000D01*
X98026900Y-99623025D02*
X98026900Y-100345801D01*
X108120000Y-90950000D02*
X106710000Y-89540000D01*
X99113925Y-98536000D02*
X98026900Y-99623025D01*
%TO.N,/Connectors/Valve14-*%
X107610000Y-102120000D02*
X105785700Y-100295700D01*
X109450000Y-102120000D02*
X115650000Y-102120000D01*
X100656799Y-100295700D02*
X100526900Y-100165801D01*
X113940000Y-98680000D02*
X112781000Y-99839000D01*
X100526900Y-100165801D02*
X100526900Y-100345801D01*
X112781000Y-99839000D02*
X112768925Y-99839000D01*
X105785700Y-100295700D02*
X100656799Y-100295700D01*
X109450000Y-102120000D02*
X107610000Y-102120000D01*
X109450000Y-101500000D02*
X109850000Y-101100000D01*
X109850000Y-99900000D02*
X112720000Y-99900000D01*
X109450000Y-100300000D02*
X109850000Y-99900000D01*
X109450000Y-102120000D02*
X109450000Y-100300000D01*
X109450000Y-102120000D02*
X109450000Y-101500000D01*
X112720000Y-99900000D02*
X112781000Y-99839000D01*
X113940000Y-96761500D02*
X113940000Y-98680000D01*
X110500000Y-102120000D02*
X109450000Y-102120000D01*
%TO.N,Net-(D6-A)*%
D47*
X65815000Y-28430000D02*
X65815000Y-29980000D01*
%TO.N,/MCU/Valve10*%
X72045000Y-70355000D02*
X72940000Y-70355000D01*
X67550000Y-71500000D02*
X70900000Y-71500000D01*
X70900000Y-71500000D02*
X72045000Y-70355000D01*
X72940000Y-70355000D02*
X72985000Y-70400000D01*
X64315000Y-70400000D02*
X66450000Y-70400000D01*
X66450000Y-70400000D02*
X67550000Y-71500000D01*
X82295000Y-70400000D02*
X82990000Y-71095000D01*
X72985000Y-70400000D02*
X82295000Y-70400000D01*
X64170000Y-70255000D02*
X64315000Y-70400000D01*
X64170000Y-68220000D02*
X64170000Y-70255000D01*
%TO.N,Net-(U9-REFIN1(+))*%
X93350000Y-33150000D02*
X93350000Y-34353800D01*
X88680304Y-37567000D02*
X90636801Y-37567000D01*
X90636801Y-37567000D02*
X90648900Y-37554901D01*
X88406652Y-37293348D02*
X88680304Y-37567000D01*
X92886765Y-30961765D02*
X92700000Y-30775000D01*
%TO.N,Net-(Q11-B)*%
X95190000Y-89915000D02*
X93510000Y-88235000D01*
X95190000Y-91040000D02*
X95190000Y-89915000D01*
%TO.N,/Connectors/Valve11-*%
D48*
X92890000Y-91040000D02*
X92740000Y-91040000D01*
X90464800Y-88778168D02*
X90464800Y-88764800D01*
X90464800Y-88764800D02*
X89850000Y-88150000D01*
X92740000Y-91040000D02*
X90625200Y-88925200D01*
X84996900Y-100165801D02*
X84996900Y-100335801D01*
X92890000Y-97240000D02*
X89999999Y-100130001D01*
X85032700Y-100130001D02*
X84996900Y-100165801D01*
X90611832Y-88925200D02*
X90464800Y-88778168D01*
X92890000Y-97240000D02*
X92890000Y-91040000D01*
X89999999Y-100130001D02*
X85032700Y-100130001D01*
X90625200Y-88925200D02*
X90611832Y-88925200D01*
X89850000Y-88150000D02*
X89850000Y-87901500D01*
%TO.N,/Connectors/Valve3-*%
X58420000Y-89330000D02*
X58420000Y-88120000D01*
X61310000Y-90960000D02*
X59760000Y-89410000D01*
X57666900Y-99718800D02*
X57666900Y-100485801D01*
X61310000Y-97160000D02*
X60225700Y-97160000D01*
X58500000Y-89410000D02*
X58420000Y-89330000D01*
X60225700Y-97160000D02*
X57666900Y-99718800D01*
X59760000Y-89410000D02*
X58500000Y-89410000D01*
X58420000Y-88603368D02*
X58420000Y-88341500D01*
X61310000Y-90960000D02*
X61310000Y-97160000D01*
%TO.N,/Connectors/I2C4_SDA*%
D47*
X57600000Y-66700000D02*
X56445000Y-65545000D01*
X48923800Y-26423800D02*
X50700000Y-28200000D01*
X49910000Y-32096000D02*
X49910000Y-31940000D01*
X50700000Y-28200000D02*
X50700000Y-31150000D01*
X50997000Y-55500000D02*
X50997000Y-51247000D01*
X50222000Y-31628000D02*
X50388000Y-31628000D01*
X48714600Y-26423800D02*
X48923800Y-26423800D01*
X51178000Y-32408000D02*
X51012000Y-32408000D01*
X51012000Y-33188000D02*
X51178000Y-33188000D01*
X51490000Y-32876000D02*
X51490000Y-32720000D01*
X50388000Y-32408000D02*
X50222000Y-32408000D01*
X50700000Y-31316000D02*
X50700000Y-31160000D01*
X51012000Y-32408000D02*
X50388000Y-32408000D01*
X56445000Y-65545000D02*
X55495000Y-65545000D01*
X50700000Y-50950000D02*
X50700000Y-33500000D01*
X50700000Y-31160000D02*
X50700000Y-31150000D01*
X50997000Y-51247000D02*
X50700000Y-50950000D01*
X49910000Y-31940000D02*
G75*
G02*
X50222000Y-31628000I312000J0D01*
G01*
X51178000Y-33188000D02*
G75*
G03*
X51490000Y-32876000I0J312000D01*
G01*
X51490000Y-32720000D02*
G75*
G03*
X51178000Y-32408000I-312000J0D01*
G01*
X50700000Y-33500000D02*
G75*
G02*
X51012000Y-33188000I312000J0D01*
G01*
X50388000Y-31628000D02*
G75*
G03*
X50700000Y-31316000I0J312000D01*
G01*
X50222000Y-32408000D02*
G75*
G02*
X49910000Y-32096000I0J312000D01*
G01*
%TO.N,/Connectors/I2C4_SCL*%
X49000000Y-29000000D02*
X49000000Y-27959200D01*
X56895000Y-65045000D02*
X55495000Y-65045000D01*
X49000000Y-27959200D02*
X47464600Y-26423800D01*
X58950000Y-66550000D02*
X58400000Y-66550000D01*
X58400000Y-66550000D02*
X56895000Y-65045000D01*
%TO.N,/Connectors/T4-*%
X118330000Y-52330000D02*
X118330000Y-57758661D01*
X104524110Y-38061000D02*
X104826000Y-37759110D01*
X103590000Y-38990000D02*
X104519000Y-38061000D01*
X103590000Y-39880000D02*
X103590000Y-38990000D01*
X104519000Y-38061000D02*
X104524110Y-38061000D01*
X104826000Y-37759110D02*
X104826000Y-37754000D01*
X118330000Y-57758661D02*
X119785939Y-59214600D01*
X107040000Y-39380000D02*
X107040000Y-43020000D01*
X115177000Y-49177000D02*
X118330000Y-52330000D01*
X104826000Y-37754000D02*
X105270000Y-37310000D01*
X115177000Y-49164552D02*
X115177000Y-49177000D01*
X114455448Y-48443000D02*
X115177000Y-49164552D01*
X106020000Y-38360000D02*
X107040000Y-39380000D01*
X114443000Y-48443000D02*
X114455448Y-48443000D01*
X107040000Y-43020000D02*
X109750000Y-45730000D01*
X103590000Y-39880000D02*
X104240000Y-39880000D01*
X109750000Y-45730000D02*
X111730000Y-45730000D01*
X119785939Y-59214600D02*
X120576201Y-59214600D01*
X111730000Y-45730000D02*
X114443000Y-48443000D01*
X106020000Y-37310000D02*
X106020000Y-38360000D01*
X105270000Y-37310000D02*
X106020000Y-37310000D01*
%TO.N,/Connectors/T4+*%
X111829000Y-45329000D02*
X119000000Y-52500000D01*
X110389000Y-45329000D02*
X111829000Y-45329000D01*
X102940000Y-39880000D02*
X102940000Y-38420000D01*
X104050000Y-37310000D02*
X104470000Y-37310000D01*
X119000000Y-56388399D02*
X120576201Y-57964600D01*
X119000000Y-52500000D02*
X119000000Y-56388399D01*
X109940000Y-38970000D02*
X109940000Y-44880000D01*
X106020000Y-35760000D02*
X106730000Y-35760000D01*
X102940000Y-38420000D02*
X104050000Y-37310000D01*
X106730000Y-35760000D02*
X109940000Y-38970000D01*
X104470000Y-37310000D02*
X106020000Y-35760000D01*
X109940000Y-44880000D02*
X110389000Y-45329000D01*
%TO.N,/Connectors/T5*%
X86810000Y-46200000D02*
X86890000Y-46280000D01*
X70845000Y-55545000D02*
X72475000Y-55545000D01*
X100930000Y-44250000D02*
X101250000Y-44250000D01*
X72475000Y-55545000D02*
X73570000Y-54450000D01*
X101250000Y-44250000D02*
X101640000Y-44640000D01*
X90390000Y-46280000D02*
X91260000Y-47150000D01*
X91260000Y-47150000D02*
X94890000Y-47150000D01*
X101640000Y-44640000D02*
X101640000Y-45650000D01*
X86890000Y-46280000D02*
X90390000Y-46280000D01*
%TO.N,/Connectors/SPI2_SCK*%
X86610000Y-59639534D02*
X86610000Y-54100000D01*
X87430000Y-53280000D02*
X90392500Y-53280000D01*
X104609000Y-52381000D02*
X104669000Y-52381000D01*
X98220000Y-44220000D02*
X97640000Y-43640000D01*
X86610000Y-62821126D02*
X86610000Y-61117036D01*
X87510000Y-60637036D02*
X87510000Y-60517036D01*
X87270000Y-60277036D02*
X86850000Y-60277036D01*
X106547500Y-52380000D02*
X106567500Y-52400000D01*
X102220000Y-48230000D02*
X102290000Y-48160000D01*
X102220000Y-48230000D02*
X99117100Y-48230000D01*
X104680000Y-63610000D02*
X104730000Y-63560000D01*
X102290000Y-48160000D02*
X102290000Y-45650000D01*
X94250965Y-41300965D02*
X93850001Y-40900001D01*
X86610000Y-60037036D02*
X86610000Y-59917036D01*
X104730000Y-63560000D02*
X106825000Y-63560000D01*
X98220000Y-47332900D02*
X98220000Y-44220000D01*
X104669000Y-52381000D02*
X104670000Y-52380000D01*
X97630000Y-43640000D02*
X97380127Y-43390127D01*
X86630000Y-63560000D02*
X90570000Y-63560000D01*
X97640000Y-43640000D02*
X97630000Y-43640000D01*
X96340127Y-43390127D02*
X96215127Y-43265127D01*
X97380127Y-43390127D02*
X96340127Y-43390127D01*
X99117100Y-48230000D02*
X98220000Y-47332900D01*
X86610000Y-59917036D02*
X86610000Y-59639534D01*
X76375000Y-63545000D02*
X76390000Y-63560000D01*
X93850001Y-40900001D02*
X93850001Y-39205200D01*
X86610000Y-62821126D02*
X86610000Y-63580000D01*
X104670000Y-52380000D02*
X106547500Y-52380000D01*
X70845000Y-63545000D02*
X76375000Y-63545000D01*
X86850000Y-60877036D02*
X87270000Y-60877036D01*
X96215127Y-43265127D02*
X94250965Y-41300965D01*
X86610000Y-63580000D02*
X86630000Y-63560000D01*
X86610000Y-54100000D02*
X87430000Y-53280000D01*
X86610000Y-61117036D02*
G75*
G02*
X86850000Y-60877000I240000J36D01*
G01*
X87510000Y-60517036D02*
G75*
G03*
X87270000Y-60277000I-240000J36D01*
G01*
X86850000Y-60277036D02*
G75*
G02*
X86609964Y-60037036I0J240036D01*
G01*
X87270000Y-60877036D02*
G75*
G03*
X87510036Y-60637036I0J240036D01*
G01*
%TO.N,/Connectors/SPI2_MISO*%
X94586040Y-44605452D02*
X94409262Y-44782227D01*
X87959000Y-54591000D02*
X88620000Y-53930000D01*
X94161775Y-43841775D02*
X94076923Y-43756923D01*
X105460000Y-70500000D02*
X102850000Y-70500000D01*
X103560000Y-51236060D02*
X103180000Y-51236060D01*
X77620000Y-62545000D02*
X77685000Y-62545000D01*
X102080000Y-50996060D02*
X102080000Y-50876060D01*
X103500000Y-64210000D02*
X106825000Y-64210000D01*
X102940000Y-49920000D02*
X102940000Y-49550000D01*
X103180000Y-51236060D02*
X102700000Y-51236060D01*
X102940000Y-50276060D02*
X102940000Y-49920000D01*
X83043741Y-62916490D02*
X84337251Y-64210000D01*
X103650000Y-53370000D02*
X103970000Y-53050000D01*
X94054805Y-43734805D02*
X92850000Y-42530000D01*
X88240000Y-64210000D02*
X90570000Y-64210000D01*
X103970000Y-53050000D02*
X106567500Y-53050000D01*
X84337251Y-64210000D02*
X88240000Y-64210000D01*
X93984999Y-44357963D02*
X94161774Y-44181185D01*
X70845000Y-62545000D02*
X77620000Y-62545000D01*
X102940000Y-49550000D02*
X102940000Y-45650000D01*
X102940000Y-49550000D02*
X99870000Y-49550000D01*
X103180000Y-51836060D02*
X103560000Y-51836060D01*
X102850000Y-70500000D02*
X102000000Y-69650000D01*
X94076923Y-43756923D02*
X94054805Y-43734805D01*
X102320000Y-50636060D02*
X102700000Y-50636060D01*
X102940000Y-52660000D02*
X102940000Y-52076060D01*
X102700000Y-51236060D02*
X102320000Y-51236060D01*
X88620000Y-53930000D02*
X90392500Y-53930000D01*
X88100000Y-61980000D02*
X87959000Y-61839000D01*
X103420000Y-64290000D02*
X103500000Y-64210000D01*
X102940000Y-50396060D02*
X102940000Y-50276060D01*
X92850000Y-42530000D02*
X92850000Y-39205200D01*
X103800000Y-51596060D02*
X103800000Y-51476060D01*
X99870000Y-49550000D02*
X94925452Y-44605452D01*
X94069852Y-44782228D02*
X93984999Y-44697375D01*
X87959000Y-61839000D02*
X87959000Y-54591000D01*
X103650000Y-53370000D02*
X102940000Y-52660000D01*
X102700000Y-50636060D02*
G75*
G03*
X102939960Y-50396060I0J239960D01*
G01*
X94161774Y-44181185D02*
G75*
G03*
X94161755Y-43841796I-169674J169685D01*
G01*
X94925452Y-44605452D02*
G75*
G03*
X94586040Y-44605452I-169706J-169701D01*
G01*
X93984999Y-44697375D02*
G75*
G02*
X93985030Y-44357994I169701J169675D01*
G01*
X103560000Y-51836060D02*
G75*
G03*
X103799960Y-51596060I0J239960D01*
G01*
X102080000Y-50876060D02*
G75*
G02*
X102320000Y-50636100I240000J-40D01*
G01*
X102320000Y-51236060D02*
G75*
G02*
X102080040Y-50996060I0J239960D01*
G01*
X94409262Y-44782227D02*
G75*
G02*
X94069895Y-44782185I-169662J169727D01*
G01*
X102940000Y-52076060D02*
G75*
G02*
X103180000Y-51836100I240000J-40D01*
G01*
X103800000Y-51476060D02*
G75*
G03*
X103560000Y-51236100I-240000J-40D01*
G01*
%TO.N,/Connectors/SPI2_MOSI*%
X89340000Y-54580000D02*
X90392500Y-54580000D01*
X73520000Y-61945000D02*
X72255000Y-61945000D01*
X97823216Y-69170000D02*
X97633216Y-69170000D01*
X72255000Y-61945000D02*
X72155000Y-62045000D01*
X85810000Y-64860000D02*
X90570000Y-64860000D01*
X105280000Y-64910000D02*
X106775000Y-64910000D01*
X103590000Y-47250000D02*
X103590000Y-45650000D01*
X85760000Y-66010000D02*
X85760000Y-64810000D01*
X72155000Y-62045000D02*
X70845000Y-62045000D01*
X97428216Y-68520000D02*
X97428216Y-68340000D01*
X103780000Y-47440000D02*
X103590000Y-47250000D01*
X105865422Y-53700000D02*
X106567500Y-53700000D01*
X106775000Y-64910000D02*
X106825000Y-64860000D01*
X101860000Y-68760000D02*
X98233216Y-68760000D01*
X96828216Y-68340000D02*
X96828216Y-68520000D01*
X93350000Y-41820000D02*
X93350000Y-39205200D01*
X105210000Y-54400000D02*
X105210000Y-54355422D01*
X96588216Y-68760000D02*
X96468216Y-68760000D01*
X96468216Y-68760000D02*
X96290000Y-68760000D01*
X97188216Y-68100000D02*
X97068216Y-68100000D01*
X101860000Y-68720000D02*
X101860000Y-68760000D01*
X88540000Y-68790000D02*
X85760000Y-66010000D01*
X85760000Y-64810000D02*
X85810000Y-64860000D01*
X88570000Y-68760000D02*
X88540000Y-68790000D01*
X97225000Y-45695000D02*
X93350000Y-41820000D01*
X102830000Y-67750000D02*
X101860000Y-68720000D01*
X105210000Y-54355422D02*
X105865422Y-53700000D01*
X97428216Y-68760000D02*
X97428216Y-68520000D01*
X96290000Y-68760000D02*
X88570000Y-68760000D01*
X88560000Y-55360000D02*
X89340000Y-54580000D01*
X97428216Y-68965000D02*
X97428216Y-68760000D01*
X97633216Y-69170000D02*
G75*
G02*
X97428200Y-68965000I-16J205000D01*
G01*
X98233216Y-68760000D02*
G75*
G03*
X98028200Y-68965000I-16J-205000D01*
G01*
X96828216Y-68520000D02*
G75*
G02*
X96588216Y-68760016I-240016J0D01*
G01*
X97068216Y-68100000D02*
G75*
G03*
X96828200Y-68340000I-16J-240000D01*
G01*
X97428216Y-68340000D02*
G75*
G03*
X97188216Y-68099984I-240016J0D01*
G01*
X98028216Y-68965000D02*
G75*
G02*
X97823216Y-69170016I-205016J0D01*
G01*
%TO.N,/MCU/Valve17*%
X87977100Y-69590000D02*
X101090000Y-69590000D01*
X70845000Y-64045000D02*
X74796300Y-64045000D01*
X74796300Y-64045000D02*
X78151300Y-67400000D01*
X104900000Y-73400000D02*
X109675000Y-73400000D01*
X85787100Y-67400000D02*
X87977100Y-69590000D01*
X101090000Y-69590000D02*
X104900000Y-73400000D01*
X78151300Y-67400000D02*
X85787100Y-67400000D01*
%TO.N,Net-(Q17-B)*%
X111325000Y-74775000D02*
X110410000Y-75690000D01*
X111325000Y-73400000D02*
X111325000Y-74775000D01*
%TO.N,/Connectors/T1+*%
X119763100Y-68833100D02*
X120585801Y-68833100D01*
X112595000Y-64210000D02*
X113525000Y-64210000D01*
X117790000Y-66860000D02*
X119763100Y-68833100D01*
X114900000Y-62835000D02*
X115950000Y-62835000D01*
X116620000Y-63505000D02*
X117790000Y-64675000D01*
X115950000Y-62835000D02*
X116620000Y-63505000D01*
X117790000Y-64675000D02*
X117790000Y-66860000D01*
X113525000Y-64210000D02*
X114900000Y-62835000D01*
%TO.N,/Connectors/T1-*%
X116620000Y-67210000D02*
X116620000Y-65055000D01*
X112595000Y-65510000D02*
X112595000Y-64860000D01*
X116425000Y-64860000D02*
X116620000Y-65055000D01*
X119493100Y-70083100D02*
X116620000Y-67210000D01*
X112595000Y-64860000D02*
X116425000Y-64860000D01*
X120585801Y-70083100D02*
X119493100Y-70083100D01*
%TO.N,/Connectors/Valve8-*%
D48*
X71566900Y-100355801D02*
X73994199Y-100355801D01*
X71376900Y-100176900D02*
X71376900Y-100165801D01*
X71380000Y-100180000D02*
X71376900Y-100176900D01*
X77180000Y-90970000D02*
X77180000Y-97170000D01*
X75560000Y-89350000D02*
X74006532Y-89350000D01*
X71376900Y-100165801D02*
X71566900Y-100355801D01*
X77180000Y-90970000D02*
X75560000Y-89350000D01*
X74006532Y-89350000D02*
X72600000Y-87943468D01*
X73994199Y-100355801D02*
X77180000Y-97170000D01*
X72600000Y-87943468D02*
X72600000Y-87681600D01*
%TO.N,/MCU/Valve13*%
D47*
X100096100Y-82599000D02*
X100477100Y-82980000D01*
X107140000Y-82980000D02*
X108850000Y-84690000D01*
X78237000Y-69187000D02*
X85844100Y-69187000D01*
X100477100Y-82980000D02*
X107140000Y-82980000D01*
X70845000Y-65545000D02*
X74595000Y-65545000D01*
X93303200Y-82599000D02*
X100096100Y-82599000D01*
X108850000Y-84690000D02*
X108850000Y-86975000D01*
X74595000Y-65545000D02*
X78237000Y-69187000D01*
X85844100Y-69187000D02*
X91162000Y-74504900D01*
X91162000Y-80457800D02*
X93303200Y-82599000D01*
X91162000Y-74504900D02*
X91162000Y-80457800D01*
%TO.N,Net-(Q13-B)*%
X108850000Y-88625000D02*
X108850000Y-89380000D01*
X108850000Y-89380000D02*
X110420000Y-90950000D01*
%TO.N,Net-(Q19-B)*%
X110950000Y-35200000D02*
X111000000Y-35200000D01*
X108600000Y-32850000D02*
X110950000Y-35200000D01*
%TO.N,/Connectors/Heater0-*%
D48*
X87205800Y-26258800D02*
X87205800Y-26082141D01*
X88087941Y-25200000D02*
X109500000Y-25200000D01*
X86964600Y-26500000D02*
X87205800Y-26258800D01*
X87205800Y-26082141D02*
X88087941Y-25200000D01*
X109500000Y-25200000D02*
X113300000Y-29000000D01*
X113300000Y-35200000D02*
X113300000Y-29000000D01*
%TO.N,/Connectors/Valve1-*%
X52666900Y-97673100D02*
X52666900Y-100485801D01*
X53210000Y-90930000D02*
X53210000Y-97130000D01*
X52060000Y-89780000D02*
X52060000Y-88301601D01*
X53210000Y-97130000D02*
X52666900Y-97673100D01*
X53210000Y-90930000D02*
X52060000Y-89780000D01*
%TO.N,/MCU/Valve2*%
D47*
X55470000Y-78890000D02*
X59605000Y-78890000D01*
X55120000Y-71930000D02*
X57670000Y-69380000D01*
X55120000Y-76850000D02*
X55120000Y-71930000D01*
X59605000Y-78890000D02*
X60140000Y-78355000D01*
X57670000Y-69380000D02*
X57670000Y-68220000D01*
%TO.N,/Connectors/T4*%
X69580000Y-52870000D02*
X70080000Y-52370000D01*
X91425686Y-46750000D02*
X93940000Y-46750000D01*
X108880000Y-51500000D02*
X108630000Y-51750000D01*
X87396237Y-45655637D02*
X90331323Y-45655637D01*
X108630000Y-51750000D02*
X106567500Y-51750000D01*
X90331323Y-45655637D02*
X91425686Y-46750000D01*
X69170000Y-52870000D02*
X69580000Y-52870000D01*
X93940000Y-46750000D02*
X94140000Y-46550000D01*
%TO.N,/Connectors/T2*%
X108420000Y-62910000D02*
X106825000Y-62910000D01*
X108900000Y-62430000D02*
X108420000Y-62910000D01*
X68670000Y-52870000D02*
X68670000Y-51928220D01*
X68670000Y-51928220D02*
X69088220Y-51510000D01*
%TO.N,/Connectors/PT*%
X84000000Y-43000000D02*
X84000000Y-30500000D01*
X94849999Y-39205200D02*
X94849999Y-40310001D01*
X89000000Y-44000000D02*
X85000000Y-44000000D01*
X85000000Y-44000000D02*
X84000000Y-43000000D01*
X84000000Y-30500000D02*
X84660000Y-29840000D01*
X84660000Y-29840000D02*
X86000000Y-29840000D01*
X68170000Y-51309395D02*
X68170000Y-52870000D01*
X68595168Y-50884227D02*
X68170000Y-51309395D01*
X68595168Y-50880000D02*
X68595168Y-50884227D01*
X94849999Y-40310001D02*
X94680000Y-40480000D01*
%TO.N,/MCU/Valve6*%
X67670000Y-43770000D02*
X64990000Y-41090000D01*
X67670000Y-52870000D02*
X67670000Y-43770000D01*
X64990000Y-37635000D02*
X65050000Y-37575000D01*
X64990000Y-41090000D02*
X64990000Y-37635000D01*
%TO.N,/12V Power Supply/EN*%
X63670000Y-54150353D02*
X63670000Y-52870000D01*
X63905443Y-54385796D02*
X63670000Y-54150353D01*
X63905445Y-54385796D02*
X63905443Y-54385796D01*
%TO.N,/Connectors/ADC*%
X59315000Y-56045000D02*
X55495000Y-56045000D01*
X59720000Y-55380000D02*
X59720000Y-55640000D01*
X59720000Y-55640000D02*
X59315000Y-56045000D01*
%TO.N,/Connectors/SPI1_SCK*%
X55495000Y-56545000D02*
X53605000Y-56545000D01*
X53605000Y-56545000D02*
X53590000Y-56560000D01*
%TO.N,/Connectors/SPI1_MISO*%
X61235000Y-57045000D02*
X61107537Y-57045000D01*
X62310782Y-56295619D02*
X62167421Y-56295619D01*
X60627537Y-56395000D02*
X60507537Y-56395000D01*
X58707537Y-57045000D02*
X58557537Y-57045000D01*
X59067537Y-56685000D02*
X59067537Y-56805000D01*
X59427537Y-56445000D02*
X59307537Y-56445000D01*
X58557537Y-57045000D02*
X55495000Y-57045000D01*
X60267537Y-56635000D02*
X60267537Y-56805000D01*
X62167421Y-56295619D02*
X62080801Y-56208999D01*
X62080801Y-56208999D02*
X62071001Y-56208999D01*
X62071001Y-56208999D02*
X61235000Y-57045000D01*
X58827537Y-57045000D02*
X58707537Y-57045000D01*
X60867537Y-56805000D02*
X60867537Y-56635000D01*
X60027537Y-57045000D02*
X59907537Y-57045000D01*
X59667537Y-56805000D02*
X59667537Y-56685000D01*
X60867537Y-56635000D02*
G75*
G03*
X60627537Y-56394963I-240037J0D01*
G01*
X60267537Y-56805000D02*
G75*
G02*
X60027537Y-57045037I-240037J0D01*
G01*
X61107537Y-57045000D02*
G75*
G02*
X60867500Y-56805000I-37J240000D01*
G01*
X59067537Y-56805000D02*
G75*
G02*
X58827537Y-57045037I-240037J0D01*
G01*
X59907537Y-57045000D02*
G75*
G02*
X59667500Y-56805000I-37J240000D01*
G01*
X59667537Y-56685000D02*
G75*
G03*
X59427537Y-56444963I-240037J0D01*
G01*
X59307537Y-56445000D02*
G75*
G03*
X59067500Y-56685000I-37J-240000D01*
G01*
X60507537Y-56395000D02*
G75*
G03*
X60267500Y-56635000I-37J-240000D01*
G01*
%TO.N,/Connectors/SPI1_MOSI*%
X61583527Y-57545000D02*
X62070000Y-57058527D01*
X55495000Y-57545000D02*
X61583527Y-57545000D01*
%TO.N,/MCU/BLUE_LED*%
X55495000Y-63545000D02*
X52780000Y-63545000D01*
X52780000Y-63545000D02*
X52000000Y-64325000D01*
%TO.N,/MCU/GREEN_LED*%
X55495000Y-64045000D02*
X53467648Y-64045000D01*
X51400000Y-65025000D02*
X50500000Y-65925000D01*
X52487648Y-65025000D02*
X51400000Y-65025000D01*
X53467648Y-64045000D02*
X52487648Y-65025000D01*
%TO.N,/MCU/Valve1*%
X55130000Y-79830000D02*
X55130000Y-87145000D01*
X54070000Y-78770000D02*
X55130000Y-79830000D01*
X54050000Y-71340000D02*
X57170000Y-68220000D01*
X54050000Y-76810000D02*
X54050000Y-71340000D01*
%TO.N,/MCU/Valve3*%
X58170000Y-71740000D02*
X59070000Y-72640000D01*
X65106100Y-77021000D02*
X61636100Y-77021000D01*
X59070000Y-72640000D02*
X65590000Y-72640000D01*
X65590000Y-72640000D02*
X66020000Y-73070000D01*
X58170000Y-68220000D02*
X58170000Y-71740000D01*
X61180000Y-77477100D02*
X61180000Y-87115000D01*
X61636100Y-77021000D02*
X61180000Y-77477100D01*
X66020000Y-73070000D02*
X66020000Y-76107100D01*
X66020000Y-76107100D02*
X65106100Y-77021000D01*
%TO.N,/MCU/Valve5*%
X59236100Y-72239000D02*
X58670000Y-71672900D01*
X64080000Y-82530000D02*
X63800000Y-82250000D01*
X66730000Y-82530000D02*
X64080000Y-82530000D01*
X64600000Y-77450000D02*
X65244200Y-77450000D01*
X65244200Y-77450000D02*
X66421000Y-76273200D01*
X63800000Y-82250000D02*
X63800000Y-78250000D01*
X67570000Y-83370000D02*
X66730000Y-82530000D01*
X67570000Y-86325000D02*
X67570000Y-83370000D01*
X63800000Y-78250000D02*
X64600000Y-77450000D01*
X66421000Y-76273200D02*
X66421000Y-72903900D01*
X66421000Y-72903900D02*
X65756100Y-72239000D01*
X65756100Y-72239000D02*
X59236100Y-72239000D01*
X58670000Y-71672900D02*
X58670000Y-68220000D01*
%TO.N,/MCU/Valve7*%
X59170000Y-71605800D02*
X59402200Y-71838000D01*
X68380000Y-76870000D02*
X68780000Y-76870000D01*
X59170000Y-68220000D02*
X59170000Y-71605800D01*
X66822000Y-72737800D02*
X66822000Y-75312000D01*
X59402200Y-71838000D02*
X65922200Y-71838000D01*
X66467100Y-72382900D02*
X66822000Y-72737800D01*
X66822000Y-75312000D02*
X68380000Y-76870000D01*
X65922200Y-71838000D02*
X66594200Y-72510000D01*
%TO.N,/MCU/Valve8*%
X59980000Y-71437000D02*
X66088300Y-71437000D01*
X69650000Y-77450000D02*
X69846000Y-77646000D01*
X69650000Y-76450000D02*
X69650000Y-77450000D01*
X76370000Y-85200000D02*
X76370000Y-85905000D01*
X76370000Y-85905000D02*
X75880000Y-86395000D01*
X59670000Y-68220000D02*
X59670000Y-71127000D01*
X66088300Y-71437000D02*
X67223000Y-72571700D01*
X59670000Y-71127000D02*
X59980000Y-71437000D01*
X59670000Y-68220000D02*
X59670000Y-69111600D01*
X67223000Y-75145900D02*
X67827100Y-75750000D01*
X67827100Y-75750000D02*
X68950000Y-75750000D01*
X71164000Y-77646000D02*
X72040000Y-76770000D01*
X72040000Y-76770000D02*
X76050000Y-76770000D01*
X69846000Y-77646000D02*
X71164000Y-77646000D01*
X67223000Y-72571700D02*
X67223000Y-75145900D01*
X68950000Y-75750000D02*
X69650000Y-76450000D01*
%TO.N,/MCU/Valve4*%
X74190000Y-46250000D02*
X77375000Y-46250000D01*
X64053469Y-66106477D02*
X63170000Y-66989946D01*
X72350000Y-50280000D02*
X72350000Y-48090000D01*
X63170000Y-66989946D02*
X63170000Y-68220000D01*
X72350000Y-48090000D02*
X74190000Y-46250000D01*
X66200000Y-58900000D02*
X66150000Y-58900000D01*
X64053469Y-60996531D02*
X64053469Y-66106477D01*
X77375000Y-46250000D02*
X78825000Y-44800000D01*
X66150000Y-58900000D02*
X64053469Y-60996531D01*
%TO.N,/MCU/Valve9*%
X63670000Y-68220000D02*
X63670000Y-70660000D01*
X83950000Y-84252265D02*
X83950000Y-85455000D01*
X80570000Y-75940000D02*
X80570000Y-80872265D01*
X80570000Y-80872265D02*
X83950000Y-84252265D01*
X64046000Y-71036000D02*
X66254400Y-71036000D01*
X63670000Y-70660000D02*
X64046000Y-71036000D01*
X78810000Y-74180000D02*
X80570000Y-75940000D01*
X67624000Y-72405600D02*
X67624000Y-73424000D01*
X68380000Y-74180000D02*
X78810000Y-74180000D01*
X67624000Y-73424000D02*
X68380000Y-74180000D01*
X66254400Y-71036000D02*
X67624000Y-72405600D01*
%TO.N,/MCU/Valve11*%
X84380000Y-70370000D02*
X85894314Y-70370000D01*
X64770000Y-69750000D02*
X64850000Y-69830000D01*
X64670000Y-69650000D02*
X64770000Y-69750000D01*
X90360000Y-74960000D02*
X90360000Y-80790000D01*
X85894314Y-70370000D02*
X90361000Y-74836686D01*
X93510000Y-83940000D02*
X93510000Y-86585000D01*
X90361000Y-74836686D02*
X90361000Y-74910000D01*
X64850000Y-69830000D02*
X64910000Y-69830000D01*
X64670000Y-68220000D02*
X64670000Y-69650000D01*
X90360000Y-80790000D02*
X93510000Y-83940000D01*
X90361000Y-74959000D02*
X90360000Y-74960000D01*
X90361000Y-74910000D02*
X90361000Y-74959000D01*
%TO.N,/MCU/Valve12*%
X82267000Y-69770000D02*
X85860000Y-69770000D01*
X101390000Y-87005000D02*
X99559199Y-85174199D01*
X99464100Y-83465900D02*
X99930000Y-83000000D01*
X85860000Y-69770000D02*
X85895000Y-69805000D01*
X90761000Y-80623900D02*
X90761000Y-74671000D01*
X99559199Y-85174199D02*
X99559199Y-83524478D01*
X82250000Y-69787000D02*
X82267000Y-69770000D01*
X90761000Y-74671000D02*
X85895000Y-69805000D01*
X99500621Y-83465900D02*
X99464100Y-83465900D01*
X93137100Y-83000000D02*
X90761000Y-80623900D01*
X99930000Y-83000000D02*
X93137100Y-83000000D01*
X65704176Y-69588000D02*
X65170000Y-69053824D01*
X99559199Y-83524478D02*
X99500621Y-83465900D01*
X65170000Y-69053824D02*
X65170000Y-68220000D01*
%TO.N,/Heater/Heater0*%
X66170000Y-68220000D02*
X66170000Y-66730000D01*
X109800000Y-31200000D02*
X108600000Y-31200000D01*
X66170000Y-66730000D02*
X66950000Y-65950000D01*
X111000000Y-32400000D02*
X109800000Y-31200000D01*
%TO.N,/MCU/Valve18*%
X66670000Y-67180000D02*
X67050000Y-66800000D01*
X66670000Y-68220000D02*
X66670000Y-67180000D01*
%TO.N,JTMS*%
X67670000Y-64790000D02*
X67110000Y-64230000D01*
X67670000Y-68220000D02*
X67670000Y-64790000D01*
%TO.N,JTCK*%
X72650000Y-66220000D02*
X72325000Y-66545000D01*
X72325000Y-66545000D02*
X70845000Y-66545000D01*
X72650000Y-66145000D02*
X72650000Y-66220000D01*
%TO.N,JTDI*%
X70011176Y-66045000D02*
X70845000Y-66045000D01*
X85040000Y-59790000D02*
X85040000Y-58620000D01*
X85040000Y-58620000D02*
X85120000Y-58540000D01*
X69986176Y-66020000D02*
X70011176Y-66045000D01*
X79250000Y-65580000D02*
X85040000Y-59790000D01*
X69420000Y-66020000D02*
X69986176Y-66020000D01*
%TO.N,/MCU/Valve14*%
X74662100Y-65045000D02*
X78403100Y-68786000D01*
X112546235Y-89100000D02*
X116164000Y-92717765D01*
X70845000Y-65045000D02*
X74662100Y-65045000D01*
X116164000Y-95009000D02*
X116940000Y-95785000D01*
X86010200Y-68786000D02*
X91563000Y-74338800D01*
X111110000Y-89100000D02*
X112546235Y-89100000D01*
X91563000Y-80291700D02*
X93469300Y-82198000D01*
X93469300Y-82198000D02*
X100262200Y-82198000D01*
X91563000Y-74338800D02*
X91563000Y-80291700D01*
X110720000Y-85992900D02*
X110720000Y-88710000D01*
X116164000Y-92717765D02*
X116164000Y-95009000D01*
X78403100Y-68786000D02*
X86010200Y-68786000D01*
X107306100Y-82579000D02*
X110720000Y-85992900D01*
X110720000Y-88710000D02*
X111110000Y-89100000D01*
X100262200Y-82198000D02*
X100643200Y-82579000D01*
X100643200Y-82579000D02*
X107306100Y-82579000D01*
%TO.N,/MCU/Valve16*%
X74729200Y-64545000D02*
X78569200Y-68385000D01*
X70845000Y-64545000D02*
X74729200Y-64545000D01*
X78569200Y-68385000D02*
X86205000Y-68385000D01*
X88745000Y-70925000D02*
X92650000Y-70925000D01*
X86205000Y-68385000D02*
X88745000Y-70925000D01*
%TO.N,/MCU/Valve15*%
X116940000Y-90580000D02*
X115990000Y-89630000D01*
X65425000Y-63045000D02*
X70845000Y-63045000D01*
X65290000Y-63180000D02*
X65425000Y-63045000D01*
X116940000Y-91200000D02*
X116940000Y-90580000D01*
%TO.N,JTDO*%
X70895000Y-60095000D02*
X78485000Y-60095000D01*
X78485000Y-60095000D02*
X80040000Y-58540000D01*
X70845000Y-60045000D02*
X70895000Y-60095000D01*
%TO.N,NJTRST*%
X71827410Y-59695000D02*
X76345000Y-59695000D01*
X71677410Y-59545000D02*
X71827410Y-59695000D01*
X76345000Y-59695000D02*
X77500000Y-58540000D01*
X70845000Y-59545000D02*
X71677410Y-59545000D01*
%TO.N,/Connectors/\u002ASYNC*%
X83000000Y-52080000D02*
X74130000Y-52080000D01*
X72420000Y-60695000D02*
X73060000Y-60695000D01*
X74130000Y-52080000D02*
X73350000Y-52860000D01*
X69795000Y-59045000D02*
X69240000Y-59600000D01*
X70845000Y-59045000D02*
X69795000Y-59045000D01*
X86080000Y-49000000D02*
X83000000Y-52080000D01*
X73060000Y-60695000D02*
X73325000Y-60960000D01*
%TO.N,/Connectors/T1*%
X94100000Y-49768529D02*
X94100000Y-53580000D01*
X89675000Y-43573696D02*
X89675000Y-44923696D01*
X89475000Y-39426304D02*
X89475000Y-43373696D01*
X89223696Y-39175000D02*
X89475000Y-39426304D01*
X72985000Y-56545000D02*
X70845000Y-56545000D01*
X75565000Y-53965000D02*
X72985000Y-56545000D01*
X95490000Y-46901471D02*
X95490000Y-48378529D01*
X89675000Y-44923696D02*
X90006941Y-45255637D01*
X93280000Y-62910000D02*
X93710000Y-62480000D01*
X90006941Y-45255637D02*
X93844166Y-45255637D01*
X87150000Y-38098696D02*
X88226304Y-39175000D01*
X86000000Y-32380000D02*
X87150000Y-33530000D01*
X89475000Y-43373696D02*
X89675000Y-43573696D01*
X90570000Y-62910000D02*
X93280000Y-62910000D01*
X95490000Y-48378529D02*
X94100000Y-49768529D01*
X93844166Y-45255637D02*
X95490000Y-46901471D01*
X87150000Y-33530000D02*
X87150000Y-38098696D01*
X88226304Y-39175000D02*
X89223696Y-39175000D01*
%TO.N,/Connectors/T3*%
X87531471Y-44630000D02*
X86210000Y-45951471D01*
X86210000Y-45951471D02*
X86210000Y-46590000D01*
X88190000Y-48570000D02*
X88190000Y-52480000D01*
X89546422Y-52486000D02*
X90248500Y-52486000D01*
X74430000Y-54439943D02*
X74430000Y-53370000D01*
X72824943Y-56045000D02*
X74430000Y-54439943D01*
X88190000Y-52480000D02*
X89540422Y-52480000D01*
X89540422Y-52480000D02*
X89546422Y-52486000D01*
X70845000Y-56045000D02*
X72824943Y-56045000D01*
X75320000Y-52480000D02*
X88190000Y-52480000D01*
X87968527Y-44630000D02*
X87531471Y-44630000D01*
X90248500Y-52486000D02*
X90392500Y-52630000D01*
X74430000Y-53370000D02*
X75320000Y-52480000D01*
X86210000Y-46590000D02*
X88190000Y-48570000D01*
%TO.N,/Connectors/Valve7-*%
D48*
X72865168Y-89200000D02*
X71120000Y-89200000D01*
X71150000Y-79570000D02*
X72900000Y-77820000D01*
X70110000Y-82550000D02*
X71150000Y-81510000D01*
X69590000Y-98590000D02*
X71960000Y-98590000D01*
X70110000Y-88190000D02*
X70110000Y-82550000D01*
X71120000Y-89200000D02*
X70110000Y-88190000D01*
X68880000Y-100168901D02*
X68876900Y-100165801D01*
X71150000Y-81510000D02*
X71150000Y-79570000D01*
X68880000Y-100352701D02*
X68880000Y-100168901D01*
X71150000Y-79570000D02*
X71100000Y-79520000D01*
X71960000Y-98590000D02*
X73200000Y-97350000D01*
X79100000Y-77820000D02*
X72900000Y-77820000D01*
X68876900Y-100355801D02*
X68880000Y-100352701D01*
X68876900Y-100165801D02*
X68876900Y-99303100D01*
X73200000Y-89534832D02*
X72865168Y-89200000D01*
X68876900Y-99303100D02*
X69590000Y-98590000D01*
X73200000Y-97350000D02*
X73200000Y-89534832D01*
X71100000Y-79520000D02*
X69683000Y-79520000D01*
%TO.N,Net-(U9-REGCAPA)*%
D47*
X90648900Y-38554899D02*
X89341899Y-38554899D01*
X89162000Y-38375000D02*
X88700000Y-38375000D01*
X89341899Y-38554899D02*
X89162000Y-38375000D01*
%TO.N,Net-(D7-A)*%
X107962500Y-29781000D02*
X108000000Y-29743500D01*
D49*
X106400600Y-29781000D02*
X107962500Y-29781000D01*
%TO.N,+12VB*%
D48*
X82690000Y-29908046D02*
X82690000Y-31680000D01*
X81701954Y-28920000D02*
X82690000Y-29908046D01*
X75410000Y-28950000D02*
X75700000Y-28660000D01*
X81371500Y-28850000D02*
X81441500Y-28920000D01*
X80800000Y-28850000D02*
X81371500Y-28850000D01*
X81441500Y-28920000D02*
X81701954Y-28920000D01*
X73781500Y-28950000D02*
X75410000Y-28950000D01*
%TO.N,P6REF+*%
D47*
X90015499Y-35554900D02*
X89942500Y-35481901D01*
X94237352Y-28250000D02*
X95475000Y-28250000D01*
X95475000Y-28250000D02*
X95475000Y-26510400D01*
X95475000Y-26510400D02*
X95464600Y-26500000D01*
X89942500Y-31857500D02*
X90100000Y-31700000D01*
X89942500Y-35481901D02*
X89942500Y-31857500D01*
X90648900Y-35554900D02*
X90015499Y-35554900D01*
%TO.N,Net-(Q18-B)*%
X117750000Y-34675000D02*
X119775000Y-34675000D01*
X119775000Y-34675000D02*
X119950000Y-34850000D01*
%TO.N,/Connectors/Valve18-*%
D48*
X112400000Y-23650000D02*
X118800000Y-23650000D01*
X112400000Y-25350000D02*
X112850000Y-25800000D01*
X122250000Y-27100000D02*
X122250000Y-34850000D01*
X111650000Y-23650000D02*
X110525000Y-22525000D01*
X112850000Y-25800000D02*
X113478400Y-25800000D01*
X84705800Y-26258800D02*
X84464600Y-26500000D01*
X112400000Y-23650000D02*
X111650000Y-23650000D01*
X118800000Y-23650000D02*
X122250000Y-27100000D01*
X84500000Y-25000000D02*
X84500000Y-26464600D01*
X110525000Y-22525000D02*
X109012352Y-22525000D01*
X108987352Y-22500000D02*
X87000000Y-22500000D01*
X87000000Y-22500000D02*
X84500000Y-25000000D01*
X84500000Y-26464600D02*
X84464600Y-26500000D01*
X109012352Y-22525000D02*
X108987352Y-22500000D01*
X112400000Y-23650000D02*
X112400000Y-25350000D01*
%TO.N,Net-(Q1-B)*%
D47*
X55130000Y-88795000D02*
X55130000Y-90550000D01*
X55130000Y-90550000D02*
X55510000Y-90930000D01*
%TO.N,P7REF+*%
X89450000Y-29775000D02*
X89450000Y-35850000D01*
X90154900Y-36554900D02*
X90648900Y-36554900D01*
X91075000Y-28150000D02*
X89450000Y-29775000D01*
X89450000Y-35850000D02*
X90154900Y-36554900D01*
X92964600Y-26500000D02*
X91314600Y-28150000D01*
X91314600Y-28150000D02*
X91075000Y-28150000D01*
%TO.N,/Connectors/T2+*%
X96162500Y-53930000D02*
X98715000Y-53930000D01*
X99350000Y-53295000D02*
X101100000Y-53295000D01*
X98715000Y-53930000D02*
X99350000Y-53295000D01*
X101100000Y-53295000D02*
X101450000Y-53645000D01*
X115620000Y-57620000D02*
X118250000Y-60250000D01*
X118250000Y-60250000D02*
X118250000Y-63997299D01*
X105425000Y-57620000D02*
X115620000Y-57620000D01*
X101450000Y-53645000D02*
X105425000Y-57620000D01*
X118250000Y-63997299D02*
X120585801Y-66333100D01*
%TO.N,Net-(Q7-B)*%
X71780000Y-75520000D02*
X72900000Y-75520000D01*
X70430000Y-76870000D02*
X71780000Y-75520000D01*
%TO.N,/Connectors/T3-*%
X120558891Y-61700000D02*
X120162448Y-61700000D01*
X112337500Y-54350000D02*
X112337500Y-53700000D01*
X114040000Y-53700000D02*
X114800000Y-54460000D01*
X120573491Y-61714600D02*
X120558891Y-61700000D01*
X112337500Y-53700000D02*
X114040000Y-53700000D01*
X120576201Y-61714600D02*
X120573491Y-61714600D01*
X120162448Y-61700000D02*
X116730000Y-58267552D01*
X116730000Y-58267552D02*
X116730000Y-54135000D01*
%TO.N,/Connectors/T3+*%
X117890000Y-58568661D02*
X119785939Y-60464600D01*
X116730000Y-52585000D02*
X117890000Y-53745000D01*
X119785939Y-60464600D02*
X120576201Y-60464600D01*
X114850000Y-51855000D02*
X116000000Y-51855000D01*
X116000000Y-51855000D02*
X116730000Y-52585000D01*
X117890000Y-53745000D02*
X117890000Y-58568661D01*
X113655000Y-53050000D02*
X114850000Y-51855000D01*
X112337500Y-53050000D02*
X113655000Y-53050000D01*
%TO.N,/Connectors/Valve2-*%
D48*
X59538700Y-74190000D02*
X59234800Y-74493900D01*
X59234800Y-74800000D02*
X59575000Y-74800000D01*
X57810000Y-77790000D02*
X51610000Y-77790000D01*
X60668400Y-74460000D02*
X60398400Y-74190000D01*
X59234800Y-74493900D02*
X59234800Y-74800000D01*
X55260000Y-100125699D02*
X55166900Y-100218799D01*
X55260000Y-93170001D02*
X55260000Y-100125699D01*
X59575000Y-76600000D02*
X59000000Y-76600000D01*
X60398400Y-74190000D02*
X59538700Y-74190000D01*
X59575000Y-74800000D02*
X59575000Y-76600000D01*
X54180000Y-92090001D02*
X55260000Y-93170001D01*
X51610000Y-78990000D02*
X54180000Y-81560000D01*
X59996632Y-73960000D02*
X60258500Y-73960000D01*
X51610000Y-77790000D02*
X51610000Y-78990000D01*
X54180000Y-81560000D02*
X54180000Y-92090001D01*
X55166900Y-100218799D02*
X55169999Y-100215700D01*
X59000000Y-76600000D02*
X57810000Y-77790000D01*
%TO.N,P4REF+*%
D47*
X96161471Y-29490000D02*
X103685000Y-29490000D01*
X105143100Y-28031900D02*
X104975000Y-28200000D01*
X92349999Y-33301472D02*
X96161471Y-29490000D01*
X92349999Y-34353800D02*
X92349999Y-33301472D01*
X105143100Y-26584200D02*
X105143100Y-28031900D01*
X103685000Y-29490000D02*
X104975000Y-28200000D01*
%TO.N,Net-(Q5-B)*%
X71040000Y-90970000D02*
X68045000Y-87975000D01*
X71420000Y-90970000D02*
X71040000Y-90970000D01*
X68045000Y-87975000D02*
X67570000Y-87975000D01*
%TO.N,/Connectors/Valve5-*%
D48*
X69120000Y-97170000D02*
X68530000Y-97170000D01*
X69120000Y-90970000D02*
X69120000Y-97170000D01*
X65630532Y-89594000D02*
X67744000Y-89594000D01*
X66376900Y-99323100D02*
X66376900Y-100355801D01*
X64650000Y-88613468D02*
X65630532Y-89594000D01*
X64650000Y-88351600D02*
X64650000Y-88613468D01*
X68530000Y-97170000D02*
X66376900Y-99323100D01*
X67744000Y-89594000D02*
X69120000Y-90970000D01*
%TO.N,Net-(D4-A)*%
D47*
X50500000Y-67575000D02*
X50500000Y-68962500D01*
%TO.N,P1REF+*%
X116775000Y-47775000D02*
X119000000Y-47775000D01*
X118650000Y-47775000D02*
X118650000Y-48177299D01*
X118650000Y-48177299D02*
X120315801Y-49843100D01*
X120315801Y-49843100D02*
X120465801Y-49843100D01*
X96495101Y-36054899D02*
X97350000Y-35200000D01*
X120465801Y-49843100D02*
X120604450Y-49704450D01*
X113750000Y-44750000D02*
X116775000Y-47775000D01*
X101899000Y-33941000D02*
X107691000Y-33941000D01*
X100640000Y-35200000D02*
X101899000Y-33941000D01*
X97350000Y-35200000D02*
X100640000Y-35200000D01*
X113750000Y-40000000D02*
X113750000Y-44750000D01*
X107691000Y-33941000D02*
X113750000Y-40000000D01*
X95551100Y-36054899D02*
X96495101Y-36054899D01*
%TO.N,P3REF+*%
X96125000Y-31000000D02*
X94325000Y-32800000D01*
X94350000Y-34353800D02*
X94350000Y-32825000D01*
X94350000Y-32825000D02*
X94325000Y-32800000D01*
X94350000Y-34353800D02*
X94375000Y-34328800D01*
X107500000Y-31000000D02*
X96125000Y-31000000D01*
%TO.N,Net-(Q12-B)*%
X101390000Y-89700000D02*
X102650000Y-90960000D01*
X101390000Y-88655000D02*
X101390000Y-89700000D01*
%TO.N,/Connectors/Valve9-*%
D48*
X80760000Y-88729700D02*
X80760000Y-87330000D01*
X80879999Y-99230001D02*
X80859278Y-99230001D01*
X82940000Y-97170000D02*
X80879999Y-99230001D01*
X80311100Y-99798900D02*
X79996900Y-100113100D01*
X85040000Y-90970000D02*
X83640000Y-89570000D01*
X85040000Y-97170000D02*
X85040000Y-90970000D01*
X85040000Y-97170000D02*
X82940000Y-97170000D01*
X79996900Y-100113100D02*
X79996900Y-100335801D01*
X83640000Y-89570000D02*
X81600300Y-89570000D01*
X80311100Y-99778179D02*
X80311100Y-99798900D01*
X80859278Y-99230001D02*
X80311100Y-99778179D01*
X81600300Y-89570000D02*
X80760000Y-88729700D01*
%TO.N,Net-(Q2-B)*%
D47*
X57810000Y-80090000D02*
X59735000Y-80090000D01*
X59735000Y-80090000D02*
X59825000Y-80000000D01*
%TO.N,Net-(Q4-B)*%
X80475000Y-44800000D02*
X80475000Y-43500271D01*
X80475000Y-43500271D02*
X82500000Y-41475271D01*
X82500000Y-41475271D02*
X82500000Y-40600000D01*
%TO.N,Net-(Q15-B)*%
X116940000Y-92850000D02*
X116940000Y-93470000D01*
X116940000Y-93470000D02*
X120180000Y-96710000D01*
%TO.N,Net-(D5-A)*%
X99236250Y-58830000D02*
X100683750Y-58830000D01*
%TO.N,Net-(U9-REGCAPD)*%
X95551100Y-39726100D02*
X96150000Y-40325000D01*
X95551100Y-38554899D02*
X95551100Y-39726100D01*
X96150000Y-40325000D02*
X97000000Y-40325000D01*
%TO.N,P0REF+*%
X120465801Y-52343100D02*
X120665801Y-52143100D01*
X116973000Y-49198000D02*
X116973000Y-49218291D01*
X112850000Y-40375000D02*
X112850000Y-40350000D01*
X116973000Y-49218291D02*
X117281709Y-49527000D01*
X117281709Y-49527000D02*
X117281709Y-49656709D01*
X112850000Y-40350000D02*
X113000000Y-40500000D01*
X119968100Y-52343100D02*
X120315801Y-52343100D01*
X113000000Y-45225000D02*
X116973000Y-49198000D01*
X117281709Y-49656709D02*
X119968100Y-52343100D01*
X96645100Y-37054900D02*
X96650000Y-37050000D01*
X95551100Y-37054900D02*
X96645100Y-37054900D01*
X120315801Y-52343100D02*
X120465801Y-52343100D01*
X113000000Y-40500000D02*
X113000000Y-45225000D01*
%TO.N,P2REF+*%
X114500000Y-39901470D02*
X114500000Y-44250000D01*
X96230201Y-34325000D02*
X99400000Y-34325000D01*
X120315801Y-45565801D02*
X120315801Y-47343100D01*
X99400000Y-34325000D02*
X100535000Y-34325000D01*
X114500000Y-44250000D02*
X115250000Y-45000000D01*
X114439265Y-39840735D02*
X114500000Y-39901470D01*
X119750000Y-45000000D02*
X120315801Y-45565801D01*
X95500300Y-35054901D02*
X96230201Y-34325000D01*
X115250000Y-45000000D02*
X119750000Y-45000000D01*
X100535000Y-34325000D02*
X100600735Y-34390735D01*
%TO.N,P5REF+*%
X91350001Y-34353800D02*
X91350001Y-33735785D01*
X91350001Y-33735785D02*
X96060786Y-29025000D01*
X101150000Y-29025000D02*
X101975000Y-28200000D01*
X96060786Y-29025000D02*
X101150000Y-29025000D01*
X102643100Y-26584200D02*
X102643100Y-27531900D01*
X102643100Y-27531900D02*
X101975000Y-28200000D01*
%TO.N,Net-(U9-\u002ASYNC)*%
X91948000Y-41085000D02*
X92349999Y-40683001D01*
X92349999Y-40683001D02*
X92349999Y-39256000D01*
%TO.N,Net-(Q16-B)*%
X92650000Y-72575000D02*
X92650000Y-74818201D01*
X92650000Y-74818201D02*
X93000000Y-75168201D01*
%TO.N,/Connectors/Valve4-*%
D48*
X77238046Y-28920000D02*
X76475800Y-28157754D01*
X76300000Y-38300000D02*
X76610000Y-37990000D01*
X76475800Y-28157754D02*
X76475800Y-27407247D01*
X77238046Y-28920000D02*
X77498500Y-28920000D01*
X77383047Y-26500000D02*
X79525000Y-26500000D01*
X82500000Y-38300000D02*
X76300000Y-38300000D01*
X76300000Y-38300000D02*
X76300000Y-29858046D01*
X76300000Y-29858046D02*
X77238046Y-28920000D01*
X76475800Y-27407247D02*
X77383047Y-26500000D01*
%TO.N,/Connectors/T0-*%
D47*
X117840000Y-69561372D02*
X117840000Y-71600000D01*
X96340000Y-64860000D02*
X99120000Y-64860000D01*
X117840000Y-71600000D02*
X118823100Y-72583100D01*
X118823100Y-72583100D02*
X120585801Y-72583100D01*
X104560000Y-68500000D02*
X116778628Y-68500000D01*
X99120000Y-64860000D02*
X99160000Y-64860000D01*
X96340000Y-65510000D02*
X96340000Y-64860000D01*
X116778628Y-68500000D02*
X117840000Y-69561372D01*
X99160000Y-64860000D02*
X99420000Y-65120000D01*
X101180000Y-65120000D02*
X104560000Y-68500000D01*
%TO.N,/Connectors/T0+*%
X118360000Y-69515686D02*
X118360000Y-71050000D01*
X96340000Y-64210000D02*
X97980000Y-64210000D01*
X97980000Y-64210000D02*
X99120000Y-63070000D01*
X105610000Y-68000000D02*
X116844314Y-68000000D01*
X101180000Y-63570000D02*
X105610000Y-68000000D01*
X116844314Y-68000000D02*
X118360000Y-69515686D01*
X118643100Y-71333100D02*
X120585801Y-71333100D01*
X118360000Y-71050000D02*
X118643100Y-71333100D01*
X100680000Y-63070000D02*
X101180000Y-63570000D01*
X99120000Y-63070000D02*
X100680000Y-63070000D01*
%TO.N,\u002AFAULT*%
X90580000Y-65500000D02*
X90570000Y-65510000D01*
X92000000Y-65500000D02*
X90580000Y-65500000D01*
%TO.N,/Connectors/T2-*%
X96162500Y-55230000D02*
X96162500Y-54580000D01*
X96162500Y-54580000D02*
X99260000Y-54580000D01*
X101450000Y-55195000D02*
X104276000Y-58021000D01*
X118117000Y-64539552D02*
X118117000Y-66167000D01*
X119533100Y-67583100D02*
X120585801Y-67583100D01*
X104276000Y-58021000D02*
X115271000Y-58021000D01*
X115271000Y-58021000D02*
X117750000Y-60500000D01*
X117750000Y-64172552D02*
X118117000Y-64539552D01*
X118117000Y-66167000D02*
X119533100Y-67583100D01*
X101130000Y-55515000D02*
X101450000Y-55195000D01*
X117750000Y-60500000D02*
X117750000Y-64172552D01*
%TO.N,Net-(Q14-B)*%
X118126000Y-103194000D02*
X118126000Y-98621000D01*
X118126000Y-98621000D02*
X116940000Y-97435000D01*
X115650000Y-104420000D02*
X116900000Y-104420000D01*
X116900000Y-104420000D02*
X118126000Y-103194000D01*
%TO.N,Net-(D3-A)*%
X52000000Y-62675000D02*
X50537500Y-62675000D01*
X50537500Y-62675000D02*
X50500000Y-62712500D01*
%TO.N,Net-(Q6-B)*%
X67300000Y-36000000D02*
X64985000Y-36000000D01*
X64985000Y-36000000D02*
X64980000Y-35995000D01*
%TO.N,/Connectors/Valve6-*%
D48*
X69578046Y-28950000D02*
X68815800Y-28187754D01*
X69753047Y-26500000D02*
X74450000Y-26500000D01*
X69578046Y-28950000D02*
X69838500Y-28950000D01*
X68815800Y-27437247D02*
X69753047Y-26500000D01*
X73500000Y-38300000D02*
X68815800Y-33615800D01*
X73500000Y-38300000D02*
X67300000Y-38300000D01*
X68815800Y-28187754D02*
X68815800Y-27437247D01*
X68815800Y-33615800D02*
X68815800Y-29712246D01*
X68815800Y-29712246D02*
X69578046Y-28950000D01*
%TO.N,Net-(Q8-B)*%
D47*
X75880000Y-88045000D02*
X76555000Y-88045000D01*
X76555000Y-88045000D02*
X79480000Y-90970000D01*
%TO.N,Net-(Q3-B)*%
X63610000Y-90960000D02*
X63375000Y-90960000D01*
X63375000Y-90960000D02*
X61180000Y-88765000D01*
%TO.N,Net-(Q9-B)*%
X87340000Y-90970000D02*
X87340000Y-90495000D01*
X87340000Y-90495000D02*
X83950000Y-87105000D01*
%TO.N,VBAT_VA+*%
X61766739Y-47750000D02*
X62281739Y-48265000D01*
X57370000Y-47750000D02*
X61766739Y-47750000D01*
X57120000Y-48000000D02*
X57370000Y-47750000D01*
%TO.N,VBAT_VB+*%
X62798529Y-46490000D02*
X63302752Y-46994223D01*
X58140000Y-46490000D02*
X62798529Y-46490000D01*
X57470000Y-47160000D02*
X58140000Y-46490000D01*
%TO.N,/Connectors/USART3_TX*%
X48722901Y-56116502D02*
X48550365Y-56289035D01*
X48032764Y-55426365D02*
X47740035Y-55133636D01*
X48741288Y-57478392D02*
X48655020Y-57392124D01*
X48055391Y-56438941D02*
X47969123Y-56352673D01*
X50189447Y-57237979D02*
X50516130Y-56911295D01*
X49222119Y-55617285D02*
X48722901Y-56116502D01*
X55500000Y-31500000D02*
X53000000Y-34000000D01*
X53000000Y-43500000D02*
X52000000Y-44500000D01*
X55495000Y-58045000D02*
X55480000Y-58060000D01*
X52000000Y-58060000D02*
X50666399Y-58060000D01*
X62620000Y-30960000D02*
X62080000Y-31500000D01*
X49154238Y-56547839D02*
X49653455Y-56048621D01*
X49585575Y-56979176D02*
X49086356Y-57478392D01*
X62370000Y-29250000D02*
X62620000Y-29500000D01*
X50084794Y-56479959D02*
X49758110Y-56806642D01*
X50666399Y-58060000D02*
X50189447Y-57583048D01*
X49758110Y-56806642D02*
X49585576Y-56979176D01*
X62620000Y-29500000D02*
X62620000Y-30960000D01*
X62080000Y-31500000D02*
X55500000Y-31500000D01*
X55480000Y-58060000D02*
X52000000Y-58060000D01*
X60810000Y-29250000D02*
X62370000Y-29250000D01*
X52000000Y-44500000D02*
X52000000Y-58060000D01*
X49653455Y-55703553D02*
X49567187Y-55617285D01*
X49585576Y-56979176D02*
X49585575Y-56979176D01*
X47969123Y-56007605D02*
X48119030Y-55857699D01*
X53000000Y-34000000D02*
X53000000Y-43500000D01*
X47740035Y-55133636D02*
X47024798Y-54418399D01*
X50516130Y-56566227D02*
X50429862Y-56479959D01*
X48655020Y-57047056D02*
X49154238Y-56547839D01*
X48550365Y-56289035D02*
X48400459Y-56438941D01*
X48119030Y-55512631D02*
X48032764Y-55426365D01*
X50516130Y-56911295D02*
G75*
G03*
X50516091Y-56566266I-172530J172495D01*
G01*
X48655020Y-57392124D02*
G75*
G02*
X48655030Y-57047066I172580J172524D01*
G01*
X50429862Y-56479959D02*
G75*
G03*
X50084794Y-56479959I-172534J-172534D01*
G01*
X49653455Y-56048621D02*
G75*
G03*
X49653442Y-55703566I-172555J172521D01*
G01*
X50189447Y-57583048D02*
G75*
G02*
X50189433Y-57237966I172553J172548D01*
G01*
X49086356Y-57478392D02*
G75*
G02*
X48741288Y-57478392I-172534J172534D01*
G01*
X47969123Y-56352673D02*
G75*
G02*
X47969084Y-56007566I172577J172573D01*
G01*
X48119030Y-55857699D02*
G75*
G03*
X48118995Y-55512666I-172530J172499D01*
G01*
X48400459Y-56438941D02*
G75*
G02*
X48055391Y-56438941I-172534J172534D01*
G01*
X49567187Y-55617285D02*
G75*
G03*
X49222119Y-55617285I-172534J-172534D01*
G01*
%TO.N,/Connectors/USART3_RX*%
X45923798Y-52979399D02*
X47024798Y-51878399D01*
X43384798Y-26305202D02*
X44530000Y-25160000D01*
X55446000Y-58496000D02*
X54612176Y-58496000D01*
X46568748Y-58059399D02*
X45923798Y-57414449D01*
X55495000Y-58545000D02*
X55446000Y-58496000D01*
X54612176Y-58496000D02*
X54577176Y-58461000D01*
X44090764Y-50500000D02*
X43384798Y-49794034D01*
X47024798Y-51878399D02*
X45646399Y-50500000D01*
X54577176Y-58461000D02*
X50500299Y-58461000D01*
X50098698Y-58059399D02*
X46568748Y-58059399D01*
X45923798Y-57414449D02*
X45923798Y-52979399D01*
X45646399Y-50500000D02*
X44090764Y-50500000D01*
X43384798Y-49794034D02*
X43384798Y-26305202D01*
X50500299Y-58461000D02*
X50098698Y-58059399D01*
%TO.N,Net-(U2-PH3)*%
X73729143Y-57473000D02*
X73801143Y-57545000D01*
X74195000Y-57545000D02*
X74200000Y-57550000D01*
X72500000Y-57545000D02*
X72700000Y-57345000D01*
X73164561Y-57345000D02*
X73292561Y-57473000D01*
X74200000Y-57550000D02*
X74580000Y-57550000D01*
X73292561Y-57473000D02*
X73729143Y-57473000D01*
X73801143Y-57545000D02*
X74195000Y-57545000D01*
X70845000Y-57545000D02*
X72500000Y-57545000D01*
X72700000Y-57345000D02*
X73164561Y-57345000D01*
%TD*%
%TA.AperFunction,Conductor*%
%TO.N,+3V3*%
G36*
X71925677Y-52659685D02*
G01*
X71946319Y-52676319D01*
X71953681Y-52683681D01*
X71987166Y-52745004D01*
X71990000Y-52771362D01*
X71990000Y-54566000D01*
X71970315Y-54633039D01*
X71917511Y-54678794D01*
X71866000Y-54690000D01*
X70174000Y-54690000D01*
X70165314Y-54687449D01*
X70156353Y-54688738D01*
X70132312Y-54677759D01*
X70106961Y-54670315D01*
X70101033Y-54663474D01*
X70092797Y-54659713D01*
X70078507Y-54637478D01*
X70061206Y-54617511D01*
X70058918Y-54606996D01*
X70055023Y-54600935D01*
X70050000Y-54566000D01*
X70050000Y-54431362D01*
X70069685Y-54364323D01*
X70086319Y-54343681D01*
X70183681Y-54246319D01*
X70245004Y-54212834D01*
X70271362Y-54210000D01*
X70490000Y-54210000D01*
X70970000Y-53730000D01*
X70970000Y-52821362D01*
X70978644Y-52791921D01*
X70985168Y-52761935D01*
X70988922Y-52756919D01*
X70989685Y-52754323D01*
X71006319Y-52733681D01*
X71063681Y-52676319D01*
X71125004Y-52642834D01*
X71151362Y-52640000D01*
X71858638Y-52640000D01*
X71925677Y-52659685D01*
G37*
%TD.AperFunction*%
%TD*%
%TA.AperFunction,Conductor*%
%TO.N,+3V3*%
G36*
X54734352Y-66495498D02*
G01*
X54734364Y-66495500D01*
X54734376Y-66495500D01*
X56135138Y-66495500D01*
X56202177Y-66515185D01*
X56247932Y-66567989D01*
X56257876Y-66637147D01*
X56228851Y-66700703D01*
X56222819Y-66707181D01*
X55470000Y-67459999D01*
X55470000Y-68198638D01*
X55461355Y-68228078D01*
X55454832Y-68258065D01*
X55451077Y-68263080D01*
X55450315Y-68265677D01*
X55433681Y-68286319D01*
X55426319Y-68293681D01*
X55364996Y-68327166D01*
X55338638Y-68330000D01*
X54724000Y-68330000D01*
X54656961Y-68310315D01*
X54611206Y-68257511D01*
X54600000Y-68206000D01*
X54600000Y-66619073D01*
X54619685Y-66552034D01*
X54672489Y-66506279D01*
X54729877Y-66495958D01*
X54729877Y-66495500D01*
X54732424Y-66495500D01*
X54732986Y-66495399D01*
X54734352Y-66495498D01*
G37*
%TD.AperFunction*%
%TD*%
%TA.AperFunction,Conductor*%
%TO.N,/Connectors/T3-*%
G36*
X116992863Y-53559685D02*
G01*
X117013505Y-53576319D01*
X117313681Y-53876495D01*
X117347166Y-53937818D01*
X117350000Y-53964176D01*
X117350000Y-54778638D01*
X117341355Y-54808078D01*
X117334832Y-54838065D01*
X117331077Y-54843080D01*
X117330315Y-54845677D01*
X117313681Y-54866319D01*
X117266319Y-54913681D01*
X117204996Y-54947166D01*
X117178638Y-54950000D01*
X114354000Y-54950000D01*
X114286961Y-54930315D01*
X114241206Y-54877511D01*
X114230000Y-54826000D01*
X114230000Y-53664000D01*
X114249685Y-53596961D01*
X114302489Y-53551206D01*
X114354000Y-53540000D01*
X116925824Y-53540000D01*
X116992863Y-53559685D01*
G37*
%TD.AperFunction*%
%TD*%
%TA.AperFunction,Conductor*%
%TO.N,/Connectors/T0-*%
G36*
X100660416Y-64362266D02*
G01*
X100679610Y-64373618D01*
X100831373Y-64417709D01*
X100866837Y-64420500D01*
X101271323Y-64420499D01*
X101338362Y-64440183D01*
X101359004Y-64456818D01*
X101663681Y-64761495D01*
X101697166Y-64822818D01*
X101700000Y-64849176D01*
X101700000Y-65476000D01*
X101680315Y-65543039D01*
X101627511Y-65588794D01*
X101576000Y-65600000D01*
X99616069Y-65600000D01*
X99581474Y-65595076D01*
X99468632Y-65562292D01*
X99468628Y-65562291D01*
X99468627Y-65562291D01*
X99468625Y-65562290D01*
X99468620Y-65562290D01*
X99433163Y-65559500D01*
X98806849Y-65559500D01*
X98806822Y-65559502D01*
X98783724Y-65561319D01*
X98715347Y-65546952D01*
X98665592Y-65497899D01*
X98650000Y-65437701D01*
X98650000Y-64469000D01*
X98669685Y-64401961D01*
X98722489Y-64356206D01*
X98774000Y-64345000D01*
X100597297Y-64345000D01*
X100660416Y-64362266D01*
G37*
%TD.AperFunction*%
%TD*%
%TA.AperFunction,Conductor*%
%TO.N,+3V3*%
G36*
X67047500Y-47040573D02*
G01*
X67114213Y-47061336D01*
X67159110Y-47114871D01*
X67169500Y-47164557D01*
X67169500Y-47943552D01*
X67166680Y-47969849D01*
X67105743Y-48250658D01*
X67072289Y-48311998D01*
X67010983Y-48345514D01*
X66941288Y-48340565D01*
X66919465Y-48329899D01*
X66868488Y-48298455D01*
X66868481Y-48298452D01*
X66707606Y-48245144D01*
X66608322Y-48235000D01*
X66585000Y-48235000D01*
X66585000Y-49086000D01*
X66565315Y-49153039D01*
X66512511Y-49198794D01*
X66461000Y-49210000D01*
X66209000Y-49210000D01*
X66141961Y-49190315D01*
X66096206Y-49137511D01*
X66085000Y-49086000D01*
X66085000Y-48234999D01*
X66061693Y-48235000D01*
X66061674Y-48235001D01*
X65962393Y-48245144D01*
X65895066Y-48267453D01*
X65825238Y-48269853D01*
X65765196Y-48234121D01*
X65734213Y-48172729D01*
X65544196Y-47165291D01*
X65551114Y-47095765D01*
X65594522Y-47041015D01*
X65660639Y-47018426D01*
X65668042Y-47018324D01*
X67047500Y-47040573D01*
G37*
%TD.AperFunction*%
%TD*%
%TA.AperFunction,Conductor*%
%TO.N,+3V3*%
G36*
X61933039Y-50429685D02*
G01*
X61978794Y-50482489D01*
X61990000Y-50534000D01*
X61990000Y-50589107D01*
X61987617Y-50613299D01*
X61979500Y-50654103D01*
X61979500Y-50792093D01*
X61987617Y-50832897D01*
X61990000Y-50857090D01*
X61990000Y-51246000D01*
X61970315Y-51313039D01*
X61917511Y-51358794D01*
X61866000Y-51370000D01*
X59480000Y-51370000D01*
X59600000Y-51250000D01*
X59550000Y-51200000D01*
X59110000Y-51200000D01*
X59110000Y-50534000D01*
X59129685Y-50466961D01*
X59182489Y-50421206D01*
X59234000Y-50410000D01*
X61866000Y-50410000D01*
X61933039Y-50429685D01*
G37*
%TD.AperFunction*%
%TD*%
%TA.AperFunction,Conductor*%
%TO.N,+3V3*%
G36*
X58705203Y-51203966D02*
G01*
X58730329Y-51233882D01*
X58791351Y-51335586D01*
X58804498Y-51366195D01*
X58845476Y-51513713D01*
X58850000Y-51546901D01*
X58850000Y-53576000D01*
X58830315Y-53643039D01*
X58777511Y-53688794D01*
X58726000Y-53700000D01*
X58644500Y-53700000D01*
X58577461Y-53680315D01*
X58531706Y-53627511D01*
X58520500Y-53576000D01*
X58520499Y-52117868D01*
X58502382Y-52026779D01*
X58500000Y-52002590D01*
X58500000Y-51297679D01*
X58519685Y-51230640D01*
X58572489Y-51184885D01*
X58641647Y-51174941D01*
X58705203Y-51203966D01*
G37*
%TD.AperFunction*%
%TD*%
%TA.AperFunction,Conductor*%
%TO.N,+3V3*%
G36*
X57278032Y-48771811D02*
G01*
X57284353Y-48770631D01*
X57311146Y-48781535D01*
X57338902Y-48789685D01*
X57343549Y-48794721D01*
X57349069Y-48796968D01*
X57373279Y-48822650D01*
X57378510Y-48830085D01*
X57379225Y-48831811D01*
X57455886Y-48946542D01*
X57471255Y-48961911D01*
X57477416Y-48970668D01*
X57499891Y-49036824D01*
X57500000Y-49042018D01*
X57500000Y-49606000D01*
X57480315Y-49673039D01*
X57427511Y-49718794D01*
X57376000Y-49730000D01*
X54964000Y-49730000D01*
X54896961Y-49710315D01*
X54851206Y-49657511D01*
X54840000Y-49606000D01*
X54840000Y-48894000D01*
X54859685Y-48826961D01*
X54912489Y-48781206D01*
X54964000Y-48770000D01*
X57271863Y-48770000D01*
X57278032Y-48771811D01*
G37*
%TD.AperFunction*%
%TD*%
%TA.AperFunction,Conductor*%
%TO.N,+3V3*%
G36*
X59600000Y-51250000D02*
G01*
X59480000Y-51370000D01*
X59479999Y-51370000D01*
X59350000Y-51499999D01*
X59350000Y-51978166D01*
X59336351Y-52024645D01*
X59340158Y-52026222D01*
X59335484Y-52037505D01*
X59319500Y-52117862D01*
X59319500Y-52117864D01*
X59319501Y-53526000D01*
X59316950Y-53534685D01*
X59318239Y-53543647D01*
X59307260Y-53567687D01*
X59299816Y-53593039D01*
X59292975Y-53598966D01*
X59289214Y-53607203D01*
X59266981Y-53621490D01*
X59247013Y-53638794D01*
X59236497Y-53641081D01*
X59230436Y-53644977D01*
X59195501Y-53650000D01*
X59124000Y-53650000D01*
X59056961Y-53630315D01*
X59011206Y-53577511D01*
X59000000Y-53526000D01*
X59000000Y-51496901D01*
X59004524Y-51463713D01*
X59045502Y-51316192D01*
X59058645Y-51285590D01*
X59110000Y-51200000D01*
X59550000Y-51200000D01*
X59600000Y-51250000D01*
G37*
%TD.AperFunction*%
%TD*%
%TA.AperFunction,Conductor*%
%TO.N,/Connectors/T1-*%
G36*
X116912863Y-64509685D02*
G01*
X116933505Y-64526319D01*
X117253181Y-64845995D01*
X117286666Y-64907318D01*
X117289500Y-64933676D01*
X117289500Y-66026000D01*
X117269815Y-66093039D01*
X117217011Y-66138794D01*
X117165500Y-66150000D01*
X114274000Y-66150000D01*
X114206961Y-66130315D01*
X114161206Y-66077511D01*
X114150000Y-66026000D01*
X114150000Y-64691362D01*
X114158644Y-64661921D01*
X114165168Y-64631935D01*
X114168922Y-64626919D01*
X114169685Y-64624323D01*
X114186319Y-64603681D01*
X114263681Y-64526319D01*
X114325004Y-64492834D01*
X114351362Y-64490000D01*
X116845824Y-64490000D01*
X116912863Y-64509685D01*
G37*
%TD.AperFunction*%
%TD*%
%TA.AperFunction,Conductor*%
%TO.N,+3V3*%
G36*
X100643247Y-44889439D02*
G01*
X100725667Y-44923578D01*
X100725672Y-44923580D01*
X100725676Y-44923580D01*
X100725677Y-44923581D01*
X100861004Y-44950500D01*
X100910500Y-44950500D01*
X100977539Y-44970185D01*
X101023294Y-45022989D01*
X101034500Y-45074500D01*
X101034501Y-46296000D01*
X101014816Y-46363039D01*
X100962013Y-46408794D01*
X100910501Y-46420000D01*
X98931362Y-46420000D01*
X98901921Y-46411355D01*
X98871935Y-46404832D01*
X98866919Y-46401077D01*
X98864323Y-46400315D01*
X98843681Y-46383681D01*
X98806319Y-46346319D01*
X98772834Y-46284996D01*
X98770000Y-46258638D01*
X98770000Y-45494000D01*
X98789685Y-45426961D01*
X98842489Y-45381206D01*
X98894000Y-45370000D01*
X99460000Y-45370000D01*
X99662900Y-45167099D01*
X99715980Y-45135709D01*
X99740390Y-45128618D01*
X99876420Y-45048170D01*
X99988170Y-44936420D01*
X99988173Y-44936413D01*
X99992950Y-44930257D01*
X99995113Y-44931935D01*
X100036595Y-44893199D01*
X100092265Y-44880000D01*
X100595795Y-44880000D01*
X100643247Y-44889439D01*
G37*
%TD.AperFunction*%
%TD*%
%TA.AperFunction,Conductor*%
%TO.N,/Connectors/T2-*%
G36*
X100941719Y-54447808D02*
G01*
X100942117Y-54446441D01*
X100949609Y-54448617D01*
X100949610Y-54448618D01*
X101101373Y-54492709D01*
X101136837Y-54495500D01*
X101541323Y-54495499D01*
X101608362Y-54515183D01*
X101629004Y-54531818D01*
X101983681Y-54886495D01*
X102017166Y-54947818D01*
X102020000Y-54974176D01*
X102020000Y-55876000D01*
X102000315Y-55943039D01*
X101947511Y-55988794D01*
X101896000Y-56000000D01*
X98924000Y-56000000D01*
X98856961Y-55980315D01*
X98811206Y-55927511D01*
X98800000Y-55876000D01*
X98800000Y-54564000D01*
X98819685Y-54496961D01*
X98872489Y-54451206D01*
X98924000Y-54440000D01*
X100904015Y-54440000D01*
X100941719Y-54447808D01*
G37*
%TD.AperFunction*%
%TD*%
%TA.AperFunction,Conductor*%
%TO.N,+3V3*%
G36*
X69445177Y-67439185D02*
G01*
X69465819Y-67455819D01*
X69493681Y-67483681D01*
X69527166Y-67545004D01*
X69530000Y-67571362D01*
X69530000Y-67790000D01*
X70010000Y-68270000D01*
X70964541Y-68270000D01*
X70975440Y-68270480D01*
X71201313Y-68290410D01*
X71266363Y-68315911D01*
X71307299Y-68372532D01*
X71314317Y-68409023D01*
X71344715Y-69176564D01*
X71327699Y-69244330D01*
X71276747Y-69292139D01*
X71216539Y-69305397D01*
X71059996Y-69299999D01*
X69173383Y-69290613D01*
X69106442Y-69270596D01*
X69060951Y-69217565D01*
X69050000Y-69166615D01*
X69050000Y-67543500D01*
X69052550Y-67534814D01*
X69051262Y-67525853D01*
X69062240Y-67501812D01*
X69069685Y-67476461D01*
X69076525Y-67470533D01*
X69080287Y-67462297D01*
X69102521Y-67448007D01*
X69122489Y-67430706D01*
X69133003Y-67428418D01*
X69139065Y-67424523D01*
X69174000Y-67419500D01*
X69378138Y-67419500D01*
X69445177Y-67439185D01*
G37*
%TD.AperFunction*%
%TD*%
%TA.AperFunction,Conductor*%
%TO.N,12VA_VA-*%
G36*
X118393039Y-41369685D02*
G01*
X118438794Y-41422489D01*
X118450000Y-41474000D01*
X118450000Y-43198638D01*
X118430315Y-43265677D01*
X118413681Y-43286319D01*
X117236819Y-44463181D01*
X117175496Y-44496666D01*
X117149138Y-44499500D01*
X115571975Y-44499500D01*
X115504936Y-44479815D01*
X115459181Y-44427011D01*
X115447992Y-44377532D01*
X115430103Y-43286319D01*
X115400427Y-41476032D01*
X115419010Y-41408679D01*
X115471057Y-41362065D01*
X115524410Y-41350000D01*
X118326000Y-41350000D01*
X118393039Y-41369685D01*
G37*
%TD.AperFunction*%
%TD*%
M02*
