%TF.GenerationSoftware,KiCad,Pcbnew,10.0.4*%
%TF.CreationDate,2026-07-08T20:39:23-05:00*%
%TF.ProjectId,monarch_payload_interface_board_rev2,6d6f6e61-7263-4685-9f70-61796c6f6164,rev?*%
%TF.SameCoordinates,Original*%
%TF.FileFunction,Soldermask,Bot*%
%TF.FilePolarity,Negative*%
%FSLAX46Y46*%
G04 Gerber Fmt 4.6, Leading zero omitted, Abs format (unit mm)*
G04 Created by KiCad (PCBNEW 10.0.4) date 2026-07-08 20:39:23*
%MOMM*%
%LPD*%
G01*
G04 APERTURE LIST*
G04 Aperture macros list*
%AMRoundRect*
0 Rectangle with rounded corners*
0 $1 Rounding radius*
0 $2 $3 $4 $5 $6 $7 $8 $9 X,Y pos of 4 corners*
0 Add a 4 corners polygon primitive as box body*
4,1,4,$2,$3,$4,$5,$6,$7,$8,$9,$2,$3,0*
0 Add four circle primitives for the rounded corners*
1,1,$1+$1,$2,$3*
1,1,$1+$1,$4,$5*
1,1,$1+$1,$6,$7*
1,1,$1+$1,$8,$9*
0 Add four rect primitives between the rounded corners*
20,1,$1+$1,$2,$3,$4,$5,0*
20,1,$1+$1,$4,$5,$6,$7,0*
20,1,$1+$1,$6,$7,$8,$9,0*
20,1,$1+$1,$8,$9,$2,$3,0*%
G04 Aperture macros list end*
%ADD10C,0.000000*%
%ADD11R,1.700000X1.700000*%
%ADD12C,1.700000*%
%ADD13R,0.850000X0.850000*%
%ADD14C,0.850000*%
%ADD15C,1.117600*%
%ADD16C,6.350000*%
%ADD17R,1.600000X1.600000*%
%ADD18C,1.600000*%
%ADD19C,1.100000*%
%ADD20C,1.600200*%
%ADD21RoundRect,0.225000X-0.250000X0.225000X-0.250000X-0.225000X0.250000X-0.225000X0.250000X0.225000X0*%
%ADD22R,0.635000X0.635000*%
%ADD23R,2.286000X0.635000*%
%ADD24RoundRect,0.200000X-0.275000X0.200000X-0.275000X-0.200000X0.275000X-0.200000X0.275000X0.200000X0*%
%ADD25RoundRect,0.225000X0.250000X-0.225000X0.250000X0.225000X-0.250000X0.225000X-0.250000X-0.225000X0*%
%ADD26RoundRect,0.200000X0.200000X0.275000X-0.200000X0.275000X-0.200000X-0.275000X0.200000X-0.275000X0*%
%ADD27RoundRect,0.250000X0.650000X-0.325000X0.650000X0.325000X-0.650000X0.325000X-0.650000X-0.325000X0*%
%ADD28RoundRect,0.200000X0.275000X-0.200000X0.275000X0.200000X-0.275000X0.200000X-0.275000X-0.200000X0*%
%ADD29RoundRect,0.225000X0.225000X0.250000X-0.225000X0.250000X-0.225000X-0.250000X0.225000X-0.250000X0*%
%ADD30R,0.635000X2.286000*%
%ADD31RoundRect,0.250000X0.475000X-0.250000X0.475000X0.250000X-0.475000X0.250000X-0.475000X-0.250000X0*%
%ADD32RoundRect,0.250000X0.250000X0.475000X-0.250000X0.475000X-0.250000X-0.475000X0.250000X-0.475000X0*%
%ADD33RoundRect,0.200000X-0.200000X-0.275000X0.200000X-0.275000X0.200000X0.275000X-0.200000X0.275000X0*%
%ADD34RoundRect,0.225000X-0.225000X-0.250000X0.225000X-0.250000X0.225000X0.250000X-0.225000X0.250000X0*%
%ADD35RoundRect,0.102000X-0.490000X-1.700000X0.490000X-1.700000X0.490000X1.700000X-0.490000X1.700000X0*%
%ADD36R,0.812800X0.254000*%
%ADD37R,0.254000X0.812800*%
%ADD38R,3.759200X3.759200*%
%ADD39R,0.240000X0.599999*%
%ADD40R,0.599999X0.240000*%
%ADD41R,2.050001X3.049999*%
%ADD42C,0.499999*%
G04 APERTURE END LIST*
D10*
%TO.C,U4*%
G36*
X63239999Y-37130711D02*
G01*
X63239999Y-37535000D01*
X63240959Y-37544754D01*
X63243804Y-37554134D01*
X63248427Y-37562778D01*
X63254645Y-37570355D01*
X63262222Y-37576573D01*
X63270865Y-37581195D01*
X63280246Y-37584040D01*
X63289999Y-37585000D01*
X63540001Y-37585000D01*
X63549755Y-37584040D01*
X63559135Y-37581195D01*
X63567779Y-37576573D01*
X63575356Y-37570355D01*
X63581573Y-37562778D01*
X63586196Y-37554134D01*
X63589041Y-37544754D01*
X63590001Y-37535000D01*
X63590001Y-37130711D01*
X63660712Y-37060000D01*
X63719290Y-37060000D01*
X63790001Y-37130711D01*
X63790001Y-37935000D01*
X63790961Y-37944753D01*
X63793806Y-37954133D01*
X63798429Y-37962777D01*
X63804646Y-37970354D01*
X63812223Y-37976572D01*
X63820867Y-37981195D01*
X63830247Y-37984039D01*
X63840001Y-37984999D01*
X64369288Y-37984999D01*
X64440000Y-38055711D01*
X64440000Y-40964287D01*
X64369288Y-41034998D01*
X63840001Y-41034998D01*
X63830247Y-41035959D01*
X63820867Y-41038803D01*
X63812223Y-41043426D01*
X63804646Y-41049644D01*
X63798429Y-41057221D01*
X63793806Y-41065865D01*
X63790961Y-41075245D01*
X63790001Y-41084998D01*
X63790001Y-41889289D01*
X63719290Y-41960000D01*
X63660712Y-41960000D01*
X63590001Y-41889289D01*
X63590001Y-41485000D01*
X63589041Y-41475247D01*
X63586196Y-41465866D01*
X63581573Y-41457223D01*
X63575356Y-41449646D01*
X63567779Y-41443428D01*
X63559135Y-41438805D01*
X63549755Y-41435960D01*
X63540001Y-41435000D01*
X63289999Y-41435000D01*
X63280246Y-41435960D01*
X63270865Y-41438805D01*
X63262222Y-41443428D01*
X63254645Y-41449646D01*
X63248427Y-41457223D01*
X63243804Y-41465866D01*
X63240959Y-41475247D01*
X63239999Y-41485000D01*
X63239999Y-41889289D01*
X63169288Y-41960000D01*
X63110711Y-41960000D01*
X63040000Y-41889289D01*
X63040000Y-41084998D01*
X63039040Y-41075245D01*
X63036195Y-41065865D01*
X63031572Y-41057221D01*
X63025354Y-41049644D01*
X63017777Y-41043426D01*
X63009134Y-41038803D01*
X62999753Y-41035959D01*
X62990000Y-41034998D01*
X62460712Y-41034998D01*
X62390001Y-40964287D01*
X62390001Y-38055711D01*
X62460712Y-37984999D01*
X62990000Y-37984999D01*
X62999753Y-37984039D01*
X63009134Y-37981195D01*
X63017777Y-37976572D01*
X63025354Y-37970354D01*
X63031572Y-37962777D01*
X63036195Y-37954133D01*
X63039040Y-37944753D01*
X63040000Y-37935000D01*
X63040000Y-37130711D01*
X63110711Y-37060000D01*
X63169288Y-37060000D01*
X63239999Y-37130711D01*
G37*
%TD*%
D11*
%TO.C,J4*%
X53190000Y-29250000D03*
D12*
X55730000Y-29250000D03*
X58270000Y-29250000D03*
X60810000Y-29250000D03*
%TD*%
D13*
%TO.C,SW1*%
X74580000Y-57550000D03*
D14*
X74580000Y-58550000D03*
%TD*%
D15*
%TO.C,J18*%
X120165801Y-85380000D03*
X120165801Y-84130000D03*
X120165801Y-82880000D03*
X120165801Y-81630000D03*
X120165801Y-80380000D03*
X120165801Y-79130000D03*
%TD*%
%TO.C,J6*%
X94276900Y-100165801D03*
X95526900Y-100165801D03*
X96776900Y-100165801D03*
X98026900Y-100165801D03*
X99276900Y-100165801D03*
X100526900Y-100165801D03*
%TD*%
%TO.C,J25*%
X48714600Y-26423800D03*
X47464600Y-26423800D03*
X46214600Y-26423800D03*
X44964600Y-26423800D03*
%TD*%
D16*
%TO.C,U1*%
X39424798Y-26478399D03*
X39424798Y-100138399D03*
X125154798Y-23938399D03*
X125154798Y-103948399D03*
D17*
X47024798Y-95058399D03*
D18*
X44484798Y-95058399D03*
X47024798Y-92518399D03*
X44484798Y-92518399D03*
X47024798Y-89978399D03*
X44484798Y-89978399D03*
X47024798Y-87438399D03*
X44484798Y-87438399D03*
X47024798Y-84898399D03*
X44484798Y-84898399D03*
X47024798Y-82358399D03*
X44484798Y-82358399D03*
X47024798Y-79818399D03*
X44484798Y-79818399D03*
X47024798Y-77278399D03*
X44484798Y-77278399D03*
X47024798Y-74738399D03*
X44484798Y-74738399D03*
X47024798Y-72198399D03*
X44484798Y-72198399D03*
X47024798Y-69658399D03*
X44484798Y-69658399D03*
X47024798Y-67118399D03*
X44484798Y-67118399D03*
X47024798Y-64578399D03*
X44484798Y-64578399D03*
X47024798Y-62038399D03*
X44484798Y-62038399D03*
X47024798Y-59498399D03*
X44484798Y-59498399D03*
X47024798Y-56958399D03*
X44484798Y-56958399D03*
X47024798Y-54418399D03*
X44484798Y-54418399D03*
X47024798Y-51878399D03*
X44484798Y-51878399D03*
X47024798Y-49338399D03*
X44484798Y-49338399D03*
X47024798Y-46798399D03*
X44484798Y-46798399D03*
X47024798Y-44258399D03*
X44484798Y-44258399D03*
X47024798Y-41718399D03*
X44484798Y-41718399D03*
X47024798Y-39178399D03*
X44484798Y-39178399D03*
X47024798Y-36638399D03*
X44484798Y-36638399D03*
X47024798Y-34098399D03*
X44484798Y-34098399D03*
X47024798Y-31558399D03*
X44484798Y-31558399D03*
X41944798Y-95058399D03*
X39404798Y-95058399D03*
X41944798Y-92518399D03*
X39404798Y-92518399D03*
X41944798Y-89978399D03*
X39404798Y-89978399D03*
X41944798Y-87438399D03*
X39404798Y-87438399D03*
X41944798Y-84898399D03*
X39404798Y-84898399D03*
X41944798Y-82358399D03*
X39404798Y-82358399D03*
X41944798Y-79818399D03*
X39404798Y-79818399D03*
X41944798Y-77278399D03*
X39404798Y-77278399D03*
X41944798Y-74738399D03*
X39404798Y-74738399D03*
X41944798Y-72198399D03*
X39404798Y-72198399D03*
X41944798Y-69658399D03*
X39404798Y-69658399D03*
X41944798Y-67118399D03*
X39404798Y-67118399D03*
X41944798Y-64578399D03*
X39404798Y-64578399D03*
X41944798Y-62038399D03*
X39404798Y-62038399D03*
X41944798Y-59498399D03*
X39404798Y-59498399D03*
X41944798Y-56958399D03*
X39404798Y-56958399D03*
X41944798Y-54418399D03*
X39404798Y-54418399D03*
X41944798Y-51878399D03*
X39404798Y-51878399D03*
X41944798Y-49338399D03*
X39404798Y-49338399D03*
X41944798Y-46798399D03*
X39404798Y-46798399D03*
X41944798Y-44258399D03*
X39404798Y-44258399D03*
X41944798Y-41718399D03*
X39404798Y-41718399D03*
X41944798Y-39178399D03*
X39404798Y-39178399D03*
X41944798Y-36638399D03*
X39404798Y-36638399D03*
X41944798Y-34098399D03*
X39404798Y-34098399D03*
X41944798Y-31558399D03*
X39404798Y-31558399D03*
%TD*%
D11*
%TO.C,J17*%
X85120000Y-56000000D03*
D12*
X85120000Y-58540000D03*
X82580000Y-56000000D03*
X82580000Y-58540000D03*
X80040000Y-56000000D03*
X80040000Y-58540000D03*
X77500000Y-56000000D03*
X77500000Y-58540000D03*
%TD*%
D15*
%TO.C,J14*%
X120426201Y-61714600D03*
X120426201Y-60464600D03*
X120426201Y-59214600D03*
X120426201Y-57964600D03*
%TD*%
D11*
%TO.C,J2*%
X86000000Y-42540000D03*
D12*
X86000000Y-40000000D03*
X86000000Y-37460000D03*
X86000000Y-34920000D03*
X86000000Y-32380000D03*
X86000000Y-29840000D03*
%TD*%
D19*
%TO.C,J1*%
X81725000Y-23800000D03*
X78575000Y-23800000D03*
X80775000Y-26500000D03*
X79525000Y-26500000D03*
%TD*%
D13*
%TO.C,SW2*%
X51000000Y-72500000D03*
D14*
X50000000Y-72500000D03*
%TD*%
D15*
%TO.C,J23*%
X108893100Y-26584200D03*
X107643100Y-26584200D03*
X106393100Y-26584200D03*
X105143100Y-26584200D03*
X103893100Y-26584200D03*
X102643100Y-26584200D03*
%TD*%
%TO.C,J20*%
X65126900Y-100165801D03*
X66376900Y-100165801D03*
X67626900Y-100165801D03*
X68876900Y-100165801D03*
X70126900Y-100165801D03*
X71376900Y-100165801D03*
%TD*%
D11*
%TO.C,J5*%
X105460000Y-70500000D03*
D12*
X108000000Y-70500000D03*
X110540000Y-70500000D03*
X113080000Y-70500000D03*
X115620000Y-70500000D03*
%TD*%
D11*
%TO.C,J3*%
X75920000Y-49000000D03*
D12*
X78460000Y-49000000D03*
X81000000Y-49000000D03*
X83540000Y-49000000D03*
X86080000Y-49000000D03*
%TD*%
D15*
%TO.C,J24*%
X58893100Y-26500000D03*
X57643100Y-26500000D03*
X56393100Y-26500000D03*
X55143100Y-26500000D03*
X53893100Y-26500000D03*
X52643100Y-26500000D03*
%TD*%
%TO.C,J8*%
X120415801Y-72583100D03*
X120415801Y-71333100D03*
X120415801Y-70083100D03*
X120415801Y-68833100D03*
X120415801Y-67583100D03*
X120415801Y-66333100D03*
%TD*%
%TO.C,J19*%
X51416900Y-100165801D03*
X52666900Y-100165801D03*
X53916900Y-100165801D03*
X55166900Y-100165801D03*
X56416900Y-100165801D03*
X57666900Y-100165801D03*
%TD*%
%TO.C,J15*%
X88214600Y-26500000D03*
X86964600Y-26500000D03*
X85714600Y-26500000D03*
X84464600Y-26500000D03*
%TD*%
D19*
%TO.C,J16*%
X76650000Y-23800000D03*
X73500000Y-23800000D03*
X75700000Y-26500000D03*
X74450000Y-26500000D03*
%TD*%
D15*
%TO.C,J22*%
X120315801Y-53593100D03*
X120315801Y-52343100D03*
X120315801Y-51093100D03*
X120315801Y-49843100D03*
X120315801Y-48593100D03*
X120315801Y-47343100D03*
%TD*%
%TO.C,J13*%
X96714600Y-26500000D03*
X95464600Y-26500000D03*
X94214600Y-26500000D03*
X92964600Y-26500000D03*
%TD*%
D20*
%TO.C,J7*%
X116146900Y-42318100D03*
X116146900Y-39818100D03*
%TD*%
D15*
%TO.C,J21*%
X78746900Y-100165801D03*
X79996900Y-100165801D03*
X81246900Y-100165801D03*
X82496900Y-100165801D03*
X83746900Y-100165801D03*
X84996900Y-100165801D03*
%TD*%
D21*
%TO.C,C14*%
X67870000Y-56130000D03*
X67870000Y-57680000D03*
%TD*%
D22*
%TO.C,U12*%
X52590700Y-62179911D03*
X52590700Y-61060889D03*
D23*
X50749200Y-62179900D03*
X50749200Y-61060900D03*
%TD*%
D24*
%TO.C,R19*%
X73905200Y-42418800D03*
X73905200Y-44068800D03*
%TD*%
D25*
%TO.C,C91*%
X60470000Y-47295000D03*
X60470000Y-45745000D03*
%TD*%
%TO.C,C49*%
X57700000Y-55901700D03*
X57700000Y-54351700D03*
%TD*%
D21*
%TO.C,C16*%
X52500000Y-65070000D03*
X52500000Y-66620000D03*
%TD*%
D26*
%TO.C,R43*%
X61721000Y-71680000D03*
X60071000Y-71680000D03*
%TD*%
D27*
%TO.C,C3*%
X67860000Y-38087600D03*
X67860000Y-35137600D03*
%TD*%
D21*
%TO.C,C6*%
X71441400Y-41122600D03*
X71441400Y-42672600D03*
%TD*%
D25*
%TO.C,C54*%
X70196800Y-38240000D03*
X70196800Y-36690000D03*
%TD*%
%TO.C,C87*%
X66880000Y-51755000D03*
X66880000Y-50205000D03*
%TD*%
D28*
%TO.C,R55*%
X83500000Y-46825000D03*
X83500000Y-45175000D03*
%TD*%
D26*
%TO.C,R44*%
X61250000Y-68550000D03*
X59600000Y-68550000D03*
%TD*%
D29*
%TO.C,C7*%
X63529600Y-43548600D03*
X61979600Y-43548600D03*
%TD*%
D22*
%TO.C,U14*%
X82567189Y-40743900D03*
X83686211Y-40743900D03*
D30*
X82567200Y-38902400D03*
X83686200Y-38902400D03*
%TD*%
D26*
%TO.C,R42*%
X57824600Y-71680000D03*
X56174600Y-71680000D03*
%TD*%
D24*
%TO.C,R18*%
X78375600Y-40678400D03*
X78375600Y-42328400D03*
%TD*%
D29*
%TO.C,C55*%
X64835000Y-56500000D03*
X63285000Y-56500000D03*
%TD*%
%TO.C,C88*%
X67065000Y-53240000D03*
X65515000Y-53240000D03*
%TD*%
D31*
%TO.C,C2*%
X79036000Y-38240000D03*
X79036000Y-36340000D03*
%TD*%
D21*
%TO.C,C69*%
X64410000Y-46275000D03*
X64410000Y-47825000D03*
%TD*%
%TO.C,C4*%
X62653000Y-34264600D03*
X62653000Y-35814600D03*
%TD*%
D29*
%TO.C,C56*%
X64840000Y-58170000D03*
X63290000Y-58170000D03*
%TD*%
D32*
%TO.C,C10*%
X60682000Y-36340000D03*
X58782000Y-36340000D03*
%TD*%
D21*
%TO.C,C1*%
X60120000Y-38277800D03*
X60120000Y-39827800D03*
%TD*%
D29*
%TO.C,C92*%
X60515000Y-44190000D03*
X58965000Y-44190000D03*
%TD*%
D25*
%TO.C,C93*%
X58990000Y-47315000D03*
X58990000Y-45765000D03*
%TD*%
%TO.C,C48*%
X66320000Y-56255000D03*
X66320000Y-54705000D03*
%TD*%
%TO.C,C90*%
X62260000Y-47315000D03*
X62260000Y-45765000D03*
%TD*%
D33*
%TO.C,R51*%
X50190400Y-49710000D03*
X51840400Y-49710000D03*
%TD*%
D26*
%TO.C,R61*%
X60464200Y-60756800D03*
X58814200Y-60756800D03*
%TD*%
%TO.C,R41*%
X60350400Y-62687200D03*
X58700400Y-62687200D03*
%TD*%
D32*
%TO.C,C9*%
X60644200Y-33900000D03*
X58744200Y-33900000D03*
%TD*%
D22*
%TO.C,U13*%
X51900000Y-47266622D03*
X51900000Y-46147600D03*
D23*
X50058500Y-47266611D03*
X50058500Y-46147611D03*
%TD*%
D34*
%TO.C,C8*%
X61128400Y-31860000D03*
X62678400Y-31860000D03*
%TD*%
D26*
%TO.C,R63*%
X56614600Y-60756800D03*
X54964600Y-60756800D03*
%TD*%
D28*
%TO.C,R48*%
X83500000Y-43825000D03*
X83500000Y-42175000D03*
%TD*%
D26*
%TO.C,R45*%
X57905000Y-68550000D03*
X56255000Y-68550000D03*
%TD*%
D35*
%TO.C,L1*%
X53140000Y-37070000D03*
X55510000Y-37070000D03*
%TD*%
D28*
%TO.C,R20*%
X66767800Y-43814800D03*
X66767800Y-42164800D03*
%TD*%
D24*
%TO.C,R21*%
X68977600Y-41098000D03*
X68977600Y-42748000D03*
%TD*%
%TO.C,R52*%
X57480200Y-44541600D03*
X57480200Y-46191600D03*
%TD*%
D22*
%TO.C,U11*%
X54269100Y-70429011D03*
X54269100Y-69309989D03*
D23*
X52427600Y-70429000D03*
X52427600Y-69310000D03*
%TD*%
D28*
%TO.C,R53*%
X53797200Y-48286600D03*
X53797200Y-46636600D03*
%TD*%
D27*
%TO.C,C53*%
X72279600Y-38140200D03*
X72279600Y-35190200D03*
%TD*%
D24*
%TO.C,R17*%
X57570000Y-39751800D03*
X57570000Y-41401800D03*
%TD*%
D36*
%TO.C,U10*%
X59080400Y-53223099D03*
X59080400Y-52723100D03*
X59080400Y-52223101D03*
X59080400Y-51723100D03*
X59080400Y-51223100D03*
X59080400Y-50723099D03*
X59080400Y-50223100D03*
X59080400Y-49723101D03*
D37*
X59781501Y-49022000D03*
X60281500Y-49022000D03*
X60781499Y-49022000D03*
X61281500Y-49022000D03*
X61781500Y-49022000D03*
X62281501Y-49022000D03*
X62781500Y-49022000D03*
X63281499Y-49022000D03*
D36*
X63982600Y-49723101D03*
X63982600Y-50223100D03*
X63982600Y-50723099D03*
X63982600Y-51223100D03*
X63982600Y-51723100D03*
X63982600Y-52223101D03*
X63982600Y-52723100D03*
X63982600Y-53223099D03*
D37*
X63281499Y-53924200D03*
X62781500Y-53924200D03*
X62281501Y-53924200D03*
X61781500Y-53924200D03*
X61281500Y-53924200D03*
X60781499Y-53924200D03*
X60281500Y-53924200D03*
X59781501Y-53924200D03*
D38*
X61531500Y-51473100D03*
%TD*%
D21*
%TO.C,C89*%
X54880000Y-53945000D03*
X54880000Y-55495000D03*
%TD*%
D31*
%TO.C,C52*%
X74641800Y-38240000D03*
X74641800Y-36340000D03*
%TD*%
D39*
%TO.C,U4*%
X62664999Y-41660080D03*
D40*
X61764920Y-41259999D03*
X61764920Y-40760000D03*
X61764920Y-40259999D03*
X61764920Y-39760000D03*
X61764920Y-39260001D03*
X61764920Y-38759999D03*
X61764920Y-38260000D03*
X61764920Y-37759999D03*
D39*
X62664999Y-37360078D03*
X64165001Y-37360078D03*
D40*
X65064918Y-37759999D03*
X65064918Y-38260000D03*
X65064918Y-38759999D03*
X65064918Y-39260001D03*
X65064918Y-39760000D03*
X65064918Y-40259999D03*
X65064918Y-40760000D03*
X65064918Y-41259999D03*
D39*
X64165001Y-41660080D03*
D41*
X63415000Y-39510000D03*
D42*
X62639919Y-38985079D03*
X62639919Y-40035079D03*
X63414919Y-38235078D03*
X63414919Y-38985079D03*
X63414919Y-40035079D03*
X63414919Y-40785080D03*
X64189919Y-38985079D03*
X64189919Y-40035079D03*
%TD*%
D28*
%TO.C,R47*%
X80892200Y-42267400D03*
X80892200Y-40617400D03*
%TD*%
D26*
%TO.C,R54*%
X55346600Y-44528400D03*
X53696600Y-44528400D03*
%TD*%
%TO.C,R62*%
X56578000Y-62687200D03*
X54928000Y-62687200D03*
%TD*%
D29*
%TO.C,C5*%
X68444200Y-45631400D03*
X66894200Y-45631400D03*
%TD*%
D26*
%TO.C,R46*%
X81605000Y-44120000D03*
X79955000Y-44120000D03*
%TD*%
D34*
%TO.C,C71*%
X94685000Y-30190000D03*
X96235000Y-30190000D03*
%TD*%
D31*
%TO.C,C51*%
X76851600Y-38250200D03*
X76851600Y-36350200D03*
%TD*%
M02*
