M48
; DRILL file KiCad 10.0.4 date 2026-07-08T20:39:48
; FORMAT={-:-/ absolute / metric / decimal}
; #@! TF.CreationDate,2026-07-08T20:39:48-05:00
; #@! TF.GenerationSoftware,Kicad,Pcbnew,10.0.4
; #@! TF.FileFunction,NonPlated,1,4,NPTH
FMAT,2
METRIC
; #@! TA.AperFunction,NonPlated,NPTH,ComponentDrill
T1C1.100
; #@! TA.AperFunction,NonPlated,NPTH,ComponentDrill
T2C1.143
%
G90
G05
T1
X73.5Y-23.8
X76.65Y-23.8
X78.575Y-23.8
X81.725Y-23.8
T2
X44.015Y-23.724
X49.665Y-23.724
X50.467Y-102.866
X51.693Y-23.8
X58.617Y-102.866
X59.843Y-23.8
X64.177Y-102.866
X72.327Y-102.866
X77.797Y-102.866
X83.515Y-23.8
X85.947Y-102.866
X89.165Y-23.8
X92.015Y-23.8
X93.327Y-102.866
X97.665Y-23.8
X101.477Y-102.866
X101.693Y-23.884
X109.843Y-23.884
X122.866Y-78.18
X122.866Y-86.33
X123.016Y-46.393
X123.016Y-54.543
X123.116Y-65.383
X123.116Y-73.533
X123.126Y-57.015
X123.126Y-62.665
M30
