%TF.GenerationSoftware,KiCad,Pcbnew,10.0.4*%
%TF.CreationDate,2026-07-08T20:39:23-05:00*%
%TF.ProjectId,monarch_payload_interface_board_rev2,6d6f6e61-7263-4685-9f70-61796c6f6164,rev?*%
%TF.SameCoordinates,Original*%
%TF.FileFunction,Paste,Top*%
%TF.FilePolarity,Positive*%
%FSLAX46Y46*%
G04 Gerber Fmt 4.6, Leading zero omitted, Abs format (unit mm)*
G04 Created by KiCad (PCBNEW 10.0.4) date 2026-07-08 20:39:23*
%MOMM*%
%LPD*%
G01*
G04 APERTURE LIST*
G04 Aperture macros list*
%AMRoundRect*
0 Rectangle with rounded corners*
0 $1 Rounding radius*
0 $2 $3 $4 $5 $6 $7 $8 $9 X,Y pos of 4 corners*
0 Add a 4 corners polygon primitive as box body*
4,1,4,$2,$3,$4,$5,$6,$7,$8,$9,$2,$3,0*
0 Add four circle primitives for the rounded corners*
1,1,$1+$1,$2,$3*
1,1,$1+$1,$4,$5*
1,1,$1+$1,$6,$7*
1,1,$1+$1,$8,$9*
0 Add four rect primitives between the rounded corners*
20,1,$1+$1,$2,$3,$4,$5,0*
20,1,$1+$1,$4,$5,$6,$7,0*
20,1,$1+$1,$6,$7,$8,$9,0*
20,1,$1+$1,$8,$9,$2,$3,0*%
G04 Aperture macros list end*
%ADD10RoundRect,0.200000X-0.200000X-0.275000X0.200000X-0.275000X0.200000X0.275000X-0.200000X0.275000X0*%
%ADD11RoundRect,0.225000X0.250000X-0.225000X0.250000X0.225000X-0.250000X0.225000X-0.250000X-0.225000X0*%
%ADD12R,1.850000X0.900000*%
%ADD13R,1.850000X3.200000*%
%ADD14RoundRect,0.200000X0.275000X-0.200000X0.275000X0.200000X-0.275000X0.200000X-0.275000X-0.200000X0*%
%ADD15RoundRect,0.218750X0.218750X0.256250X-0.218750X0.256250X-0.218750X-0.256250X0.218750X-0.256250X0*%
%ADD16RoundRect,0.200000X-0.275000X0.200000X-0.275000X-0.200000X0.275000X-0.200000X0.275000X0.200000X0*%
%ADD17RoundRect,0.225000X-0.250000X0.225000X-0.250000X-0.225000X0.250000X-0.225000X0.250000X0.225000X0*%
%ADD18R,0.900000X1.850000*%
%ADD19R,3.200000X1.850000*%
%ADD20RoundRect,0.225000X-0.225000X-0.250000X0.225000X-0.250000X0.225000X0.250000X-0.225000X0.250000X0*%
%ADD21R,1.579200X1.799400*%
%ADD22RoundRect,0.051250X-0.153750X0.698750X-0.153750X-0.698750X0.153750X-0.698750X0.153750X0.698750X0*%
%ADD23RoundRect,0.200000X0.200000X0.275000X-0.200000X0.275000X-0.200000X-0.275000X0.200000X-0.275000X0*%
%ADD24RoundRect,0.075000X-0.075000X0.725000X-0.075000X-0.725000X0.075000X-0.725000X0.075000X0.725000X0*%
%ADD25RoundRect,0.075000X-0.725000X0.075000X-0.725000X-0.075000X0.725000X-0.075000X0.725000X0.075000X0*%
%ADD26R,1.799400X1.579200*%
%ADD27RoundRect,0.218750X-0.256250X0.218750X-0.256250X-0.218750X0.256250X-0.218750X0.256250X0.218750X0*%
%ADD28RoundRect,0.225000X0.225000X0.250000X-0.225000X0.250000X-0.225000X-0.250000X0.225000X-0.250000X0*%
%ADD29R,0.812800X0.254000*%
%ADD30R,0.254000X0.812800*%
%ADD31R,3.759200X3.759200*%
%ADD32RoundRect,0.051250X0.698750X0.153750X-0.698750X0.153750X-0.698750X-0.153750X0.698750X-0.153750X0*%
%ADD33RoundRect,0.218750X0.256250X-0.218750X0.256250X0.218750X-0.256250X0.218750X-0.256250X-0.218750X0*%
G04 APERTURE END LIST*
D10*
%TO.C,R50*%
X50725000Y-59780000D03*
X52375000Y-59780000D03*
%TD*%
D11*
%TO.C,C12*%
X53460000Y-55495000D03*
X53460000Y-53945000D03*
%TD*%
D12*
%TO.C,Q10*%
X88300000Y-79420000D03*
X88300000Y-77120000D03*
X88300000Y-74820000D03*
D13*
X82100000Y-77120000D03*
%TD*%
D14*
%TO.C,R57*%
X52000000Y-67575000D03*
X52000000Y-65925000D03*
%TD*%
D15*
%TO.C,D6*%
X67427500Y-29960000D03*
X65852500Y-29960000D03*
%TD*%
D16*
%TO.C,R10*%
X82990000Y-71095000D03*
X82990000Y-72745000D03*
%TD*%
D17*
%TO.C,C17*%
X61420000Y-49330000D03*
X61420000Y-50880000D03*
%TD*%
D11*
%TO.C,C76*%
X92700000Y-30775000D03*
X92700000Y-29225000D03*
%TD*%
D18*
%TO.C,Q11*%
X95190000Y-91040000D03*
X92890000Y-91040000D03*
X90590000Y-91040000D03*
D19*
X92890000Y-97240000D03*
%TD*%
D20*
%TO.C,C63*%
X88675000Y-41400000D03*
X90225000Y-41400000D03*
%TD*%
D21*
%TO.C,CR3*%
X58420000Y-84177000D03*
X58420000Y-88120000D03*
%TD*%
%TO.C,CR12*%
X98050000Y-84338600D03*
X98050000Y-88281600D03*
%TD*%
D22*
%TO.C,U8*%
X104890000Y-39880000D03*
X104240000Y-39880000D03*
X103590000Y-39880000D03*
X102940000Y-39880000D03*
X102290000Y-39880000D03*
X101640000Y-39880000D03*
X100990000Y-39880000D03*
X100990000Y-45650000D03*
X101640000Y-45650000D03*
X102290000Y-45650000D03*
X102940000Y-45650000D03*
X103590000Y-45650000D03*
X104240000Y-45650000D03*
X104890000Y-45650000D03*
%TD*%
D10*
%TO.C,R30*%
X109675000Y-73400000D03*
X111325000Y-73400000D03*
%TD*%
D11*
%TO.C,C15*%
X71480000Y-53090000D03*
X71480000Y-51540000D03*
%TD*%
D17*
%TO.C,C27*%
X116620000Y-63505000D03*
X116620000Y-65055000D03*
%TD*%
D21*
%TO.C,CR8*%
X72600000Y-83738600D03*
X72600000Y-87681600D03*
%TD*%
D16*
%TO.C,R13*%
X108850000Y-86975000D03*
X108850000Y-88625000D03*
%TD*%
D20*
%TO.C,C30*%
X106515000Y-60470000D03*
X108065000Y-60470000D03*
%TD*%
D18*
%TO.C,Q19*%
X111000000Y-35200000D03*
X113300000Y-35200000D03*
X115600000Y-35200000D03*
D19*
X113300000Y-29000000D03*
%TD*%
D17*
%TO.C,C44*%
X101870000Y-36515000D03*
X101870000Y-38065000D03*
%TD*%
D21*
%TO.C,CR1*%
X52060000Y-84358601D03*
X52060000Y-88301601D03*
%TD*%
D11*
%TO.C,C72*%
X88550000Y-32775000D03*
X88550000Y-31225000D03*
%TD*%
D23*
%TO.C,R22*%
X56750000Y-72700000D03*
X55100000Y-72700000D03*
%TD*%
D24*
%TO.C,U2*%
X69170000Y-52870000D03*
X68670000Y-52870000D03*
X68170000Y-52870000D03*
X67670000Y-52870000D03*
X67170000Y-52870000D03*
X66670000Y-52870000D03*
X66170000Y-52870000D03*
X65670000Y-52870000D03*
X65170000Y-52870000D03*
X64670000Y-52870000D03*
X64170000Y-52870000D03*
X63670000Y-52870000D03*
X63170000Y-52870000D03*
X62670000Y-52870000D03*
X62170000Y-52870000D03*
X61670000Y-52870000D03*
X61170000Y-52870000D03*
X60670000Y-52870000D03*
X60170000Y-52870000D03*
X59670000Y-52870000D03*
X59170000Y-52870000D03*
X58670000Y-52870000D03*
X58170000Y-52870000D03*
X57670000Y-52870000D03*
X57170000Y-52870000D03*
D25*
X55495000Y-54545000D03*
X55495000Y-55045000D03*
X55495000Y-55545000D03*
X55495000Y-56045000D03*
X55495000Y-56545000D03*
X55495000Y-57045000D03*
X55495000Y-57545000D03*
X55495000Y-58045000D03*
X55495000Y-58545000D03*
X55495000Y-59045000D03*
X55495000Y-59545000D03*
X55495000Y-60045000D03*
X55495000Y-60545000D03*
X55495000Y-61045000D03*
X55495000Y-61545000D03*
X55495000Y-62045000D03*
X55495000Y-62545000D03*
X55495000Y-63045000D03*
X55495000Y-63545000D03*
X55495000Y-64045000D03*
X55495000Y-64545000D03*
X55495000Y-65045000D03*
X55495000Y-65545000D03*
X55495000Y-66045000D03*
X55495000Y-66545000D03*
D24*
X57170000Y-68220000D03*
X57670000Y-68220000D03*
X58170000Y-68220000D03*
X58670000Y-68220000D03*
X59170000Y-68220000D03*
X59670000Y-68220000D03*
X60170000Y-68220000D03*
X60670000Y-68220000D03*
X61170000Y-68220000D03*
X61670000Y-68220000D03*
X62170000Y-68220000D03*
X62670000Y-68220000D03*
X63170000Y-68220000D03*
X63670000Y-68220000D03*
X64170000Y-68220000D03*
X64670000Y-68220000D03*
X65170000Y-68220000D03*
X65670000Y-68220000D03*
X66170000Y-68220000D03*
X66670000Y-68220000D03*
X67170000Y-68220000D03*
X67670000Y-68220000D03*
X68170000Y-68220000D03*
X68670000Y-68220000D03*
X69170000Y-68220000D03*
D25*
X70845000Y-66545000D03*
X70845000Y-66045000D03*
X70845000Y-65545000D03*
X70845000Y-65045000D03*
X70845000Y-64545000D03*
X70845000Y-64045000D03*
X70845000Y-63545000D03*
X70845000Y-63045000D03*
X70845000Y-62545000D03*
X70845000Y-62045000D03*
X70845000Y-61545000D03*
X70845000Y-61045000D03*
X70845000Y-60545000D03*
X70845000Y-60045000D03*
X70845000Y-59545000D03*
X70845000Y-59045000D03*
X70845000Y-58545000D03*
X70845000Y-58045000D03*
X70845000Y-57545000D03*
X70845000Y-57045000D03*
X70845000Y-56545000D03*
X70845000Y-56045000D03*
X70845000Y-55545000D03*
X70845000Y-55045000D03*
X70845000Y-54545000D03*
%TD*%
D20*
%TO.C,C25*%
X90277500Y-60520000D03*
X91827500Y-60520000D03*
%TD*%
D26*
%TO.C,CR7*%
X65740000Y-79520000D03*
X69683000Y-79520000D03*
%TD*%
D11*
%TO.C,C47*%
X88700000Y-39925000D03*
X88700000Y-38375000D03*
%TD*%
D27*
%TO.C,D7*%
X108000000Y-28168500D03*
X108000000Y-29743500D03*
%TD*%
D28*
%TO.C,C50*%
X83655000Y-53410000D03*
X82105000Y-53410000D03*
%TD*%
D10*
%TO.C,R60*%
X65815000Y-28430000D03*
X67465000Y-28430000D03*
%TD*%
D23*
%TO.C,R35*%
X97125000Y-28250000D03*
X95475000Y-28250000D03*
%TD*%
D21*
%TO.C,CR17*%
X105290000Y-75468601D03*
X105290000Y-79411601D03*
%TD*%
D18*
%TO.C,Q18*%
X119950000Y-34850000D03*
X122250000Y-34850000D03*
X124550000Y-34850000D03*
D19*
X122250000Y-28650000D03*
%TD*%
D16*
%TO.C,R1*%
X55130000Y-87145000D03*
X55130000Y-88795000D03*
%TD*%
D10*
%TO.C,R38*%
X89425000Y-28150000D03*
X91075000Y-28150000D03*
%TD*%
D17*
%TO.C,C31*%
X99350000Y-51745000D03*
X99350000Y-53295000D03*
%TD*%
D10*
%TO.C,R7*%
X68780000Y-76870000D03*
X70430000Y-76870000D03*
%TD*%
D12*
%TO.C,Q7*%
X72900000Y-75520000D03*
X72900000Y-77820000D03*
X72900000Y-80120000D03*
D13*
X79100000Y-77820000D03*
%TD*%
D26*
%TO.C,CR2*%
X64611400Y-74460000D03*
X60668400Y-74460000D03*
%TD*%
D10*
%TO.C,R37*%
X103325000Y-28200000D03*
X104975000Y-28200000D03*
%TD*%
D28*
%TO.C,C24*%
X95987500Y-60560000D03*
X94437500Y-60560000D03*
%TD*%
D18*
%TO.C,Q5*%
X71420000Y-90970000D03*
X69120000Y-90970000D03*
X66820000Y-90970000D03*
D19*
X69120000Y-97170000D03*
%TD*%
D14*
%TO.C,R25*%
X72940000Y-72005000D03*
X72940000Y-70355000D03*
%TD*%
%TO.C,R58*%
X50500000Y-67575000D03*
X50500000Y-65925000D03*
%TD*%
D16*
%TO.C,R26*%
X81450000Y-65750000D03*
X81450000Y-67400000D03*
%TD*%
%TO.C,R32*%
X118650000Y-46125000D03*
X118650000Y-47775000D03*
%TD*%
D23*
%TO.C,R36*%
X95975000Y-32800000D03*
X94325000Y-32800000D03*
%TD*%
D16*
%TO.C,R12*%
X101390000Y-87005000D03*
X101390000Y-88655000D03*
%TD*%
D20*
%TO.C,C40*%
X106135000Y-49050000D03*
X107685000Y-49050000D03*
%TD*%
D17*
%TO.C,C36*%
X114850000Y-50305000D03*
X114850000Y-51855000D03*
%TD*%
D28*
%TO.C,C34*%
X97675000Y-50150000D03*
X96125000Y-50150000D03*
%TD*%
D20*
%TO.C,C64*%
X88675000Y-42900000D03*
X90225000Y-42900000D03*
%TD*%
D17*
%TO.C,C28*%
X114830000Y-65595000D03*
X114830000Y-67145000D03*
%TD*%
D21*
%TO.C,CR9*%
X80760000Y-83387000D03*
X80760000Y-87330000D03*
%TD*%
D26*
%TO.C,CR10*%
X75227000Y-72020000D03*
X79170000Y-72020000D03*
%TD*%
D18*
%TO.C,Q12*%
X102650000Y-90960000D03*
X100350000Y-90960000D03*
X98050000Y-90960000D03*
D19*
X100350000Y-97160000D03*
%TD*%
D16*
%TO.C,R2*%
X60140000Y-78355000D03*
X60140000Y-80005000D03*
%TD*%
D10*
%TO.C,R4*%
X78825000Y-44800000D03*
X80475000Y-44800000D03*
%TD*%
D26*
%TO.C,CR18*%
X117421400Y-25800000D03*
X113478400Y-25800000D03*
%TD*%
D10*
%TO.C,R24*%
X49175000Y-38750000D03*
X50825000Y-38750000D03*
%TD*%
D18*
%TO.C,Q15*%
X120180000Y-96710000D03*
X122480000Y-96710000D03*
X124780000Y-96710000D03*
D19*
X122480000Y-90510000D03*
%TD*%
D20*
%TO.C,C67*%
X64790000Y-50710000D03*
X66340000Y-50710000D03*
%TD*%
D23*
%TO.C,R59*%
X99236250Y-58830000D03*
X97586250Y-58830000D03*
%TD*%
D12*
%TO.C,Q2*%
X58200000Y-80300000D03*
X58200000Y-78000000D03*
X58200000Y-75700000D03*
D13*
X52000000Y-78000000D03*
%TD*%
D29*
%TO.C,U9*%
X95551100Y-38554899D03*
X95551100Y-38054900D03*
X95551100Y-37554901D03*
X95551100Y-37054900D03*
X95551100Y-36554900D03*
X95551100Y-36054899D03*
X95551100Y-35554900D03*
X95551100Y-35054901D03*
D30*
X94849999Y-34353800D03*
X94350000Y-34353800D03*
X93850001Y-34353800D03*
X93350000Y-34353800D03*
X92850000Y-34353800D03*
X92349999Y-34353800D03*
X91850000Y-34353800D03*
X91350001Y-34353800D03*
D29*
X90648900Y-35054901D03*
X90648900Y-35554900D03*
X90648900Y-36054899D03*
X90648900Y-36554900D03*
X90648900Y-37054900D03*
X90648900Y-37554901D03*
X90648900Y-38054900D03*
X90648900Y-38554899D03*
D30*
X91350001Y-39256000D03*
X91850000Y-39256000D03*
X92349999Y-39256000D03*
X92850000Y-39256000D03*
X93350000Y-39256000D03*
X93850001Y-39256000D03*
X94350000Y-39256000D03*
X94849999Y-39256000D03*
D31*
X93100000Y-36804900D03*
%TD*%
D20*
%TO.C,C43*%
X107040000Y-39380000D03*
X108590000Y-39380000D03*
%TD*%
D28*
%TO.C,C61*%
X98525000Y-38850000D03*
X96975000Y-38850000D03*
%TD*%
D17*
%TO.C,C26*%
X114900000Y-61285000D03*
X114900000Y-62835000D03*
%TD*%
D14*
%TO.C,R29*%
X72700000Y-58995000D03*
X72700000Y-57345000D03*
%TD*%
D16*
%TO.C,R40*%
X108600000Y-31200000D03*
X108600000Y-32850000D03*
%TD*%
%TO.C,R15*%
X116940000Y-91200000D03*
X116940000Y-92850000D03*
%TD*%
%TO.C,R16*%
X92650000Y-70925000D03*
X92650000Y-72575000D03*
%TD*%
D11*
%TO.C,C74*%
X88550000Y-36100000D03*
X88550000Y-34550000D03*
%TD*%
D10*
%TO.C,R23*%
X47350000Y-29000000D03*
X49000000Y-29000000D03*
%TD*%
D15*
%TO.C,D5*%
X102258750Y-58830000D03*
X100683750Y-58830000D03*
%TD*%
D32*
%TO.C,U3*%
X96340000Y-66160000D03*
X96340000Y-65510000D03*
X96340000Y-64860000D03*
X96340000Y-64210000D03*
X96340000Y-63560000D03*
X96340000Y-62910000D03*
X96340000Y-62260000D03*
X90570000Y-62260000D03*
X90570000Y-62910000D03*
X90570000Y-63560000D03*
X90570000Y-64210000D03*
X90570000Y-64860000D03*
X90570000Y-65510000D03*
X90570000Y-66160000D03*
%TD*%
D20*
%TO.C,C68*%
X64785000Y-49210000D03*
X66335000Y-49210000D03*
%TD*%
D10*
%TO.C,R33*%
X100325000Y-28200000D03*
X101975000Y-28200000D03*
%TD*%
D11*
%TO.C,C20*%
X56750000Y-50775000D03*
X56750000Y-49225000D03*
%TD*%
D21*
%TO.C,CR11*%
X89850000Y-83958500D03*
X89850000Y-87901500D03*
%TD*%
D28*
%TO.C,C73*%
X99200000Y-37300000D03*
X97650000Y-37300000D03*
%TD*%
D11*
%TO.C,C46*%
X97000000Y-41875000D03*
X97000000Y-40325000D03*
%TD*%
D14*
%TO.C,R64*%
X106400600Y-29781000D03*
X106400600Y-28131000D03*
%TD*%
D10*
%TO.C,R65*%
X73325000Y-60960000D03*
X74975000Y-60960000D03*
%TD*%
D14*
%TO.C,R31*%
X117750000Y-36325000D03*
X117750000Y-34675000D03*
%TD*%
D17*
%TO.C,C21*%
X99120000Y-61520000D03*
X99120000Y-63070000D03*
%TD*%
%TO.C,C32*%
X101450000Y-53645000D03*
X101450000Y-55195000D03*
%TD*%
D20*
%TO.C,C35*%
X90105000Y-50150000D03*
X91655000Y-50150000D03*
%TD*%
D18*
%TO.C,Q1*%
X55510000Y-90930000D03*
X53210000Y-90930000D03*
X50910000Y-90930000D03*
D19*
X53210000Y-97130000D03*
%TD*%
D11*
%TO.C,C75*%
X91150000Y-32275000D03*
X91150000Y-30725000D03*
%TD*%
%TO.C,C66*%
X70380000Y-72285000D03*
X70380000Y-70735000D03*
%TD*%
D21*
%TO.C,CR14*%
X113940000Y-92818500D03*
X113940000Y-96761500D03*
%TD*%
D17*
%TO.C,C37*%
X116730000Y-52585000D03*
X116730000Y-54135000D03*
%TD*%
D11*
%TO.C,C45*%
X99240000Y-45875000D03*
X99240000Y-44325000D03*
%TD*%
D26*
%TO.C,CR16*%
X96608500Y-71680000D03*
X100551500Y-71680000D03*
%TD*%
D12*
%TO.C,Q14*%
X115650000Y-104420000D03*
X115650000Y-102120000D03*
X115650000Y-99820000D03*
D13*
X109450000Y-102120000D03*
%TD*%
D16*
%TO.C,R14*%
X116940000Y-95785000D03*
X116940000Y-97435000D03*
%TD*%
%TO.C,R56*%
X52000000Y-62675000D03*
X52000000Y-64325000D03*
%TD*%
D12*
%TO.C,Q6*%
X67300000Y-36000000D03*
X67300000Y-38300000D03*
X67300000Y-40600000D03*
D13*
X73500000Y-38300000D03*
%TD*%
D28*
%TO.C,C39*%
X112265000Y-49150000D03*
X110715000Y-49150000D03*
%TD*%
D33*
%TO.C,D3*%
X50500000Y-64287500D03*
X50500000Y-62712500D03*
%TD*%
D17*
%TO.C,C42*%
X106020000Y-35760000D03*
X106020000Y-37310000D03*
%TD*%
D16*
%TO.C,R8*%
X75880000Y-86395000D03*
X75880000Y-88045000D03*
%TD*%
%TO.C,R11*%
X93510000Y-86585000D03*
X93510000Y-88235000D03*
%TD*%
D18*
%TO.C,Q3*%
X63610000Y-90960000D03*
X61310000Y-90960000D03*
X59010000Y-90960000D03*
D19*
X61310000Y-97160000D03*
%TD*%
D17*
%TO.C,C33*%
X99300000Y-55515000D03*
X99300000Y-57065000D03*
%TD*%
D11*
%TO.C,C65*%
X68870000Y-72275000D03*
X68870000Y-70725000D03*
%TD*%
D28*
%TO.C,C29*%
X112635000Y-60400000D03*
X111085000Y-60400000D03*
%TD*%
D18*
%TO.C,Q9*%
X87340000Y-90970000D03*
X85040000Y-90970000D03*
X82740000Y-90970000D03*
D19*
X85040000Y-97170000D03*
%TD*%
D33*
%TO.C,D4*%
X50500000Y-70537500D03*
X50500000Y-68962500D03*
%TD*%
D21*
%TO.C,CR13*%
X104610000Y-84228600D03*
X104610000Y-88171600D03*
%TD*%
%TO.C,CR5*%
X64650000Y-84408600D03*
X64650000Y-88351600D03*
%TD*%
D26*
%TO.C,CR4*%
X81441500Y-28920000D03*
X77498500Y-28920000D03*
%TD*%
D32*
%TO.C,U7*%
X112337500Y-55000000D03*
X112337500Y-54350000D03*
X112337500Y-53700000D03*
X112337500Y-53050000D03*
X112337500Y-52400000D03*
X112337500Y-51750000D03*
X112337500Y-51100000D03*
X106567500Y-51100000D03*
X106567500Y-51750000D03*
X106567500Y-52400000D03*
X106567500Y-53050000D03*
X106567500Y-53700000D03*
X106567500Y-54350000D03*
X106567500Y-55000000D03*
%TD*%
D16*
%TO.C,R9*%
X83950000Y-85455000D03*
X83950000Y-87105000D03*
%TD*%
D12*
%TO.C,Q17*%
X110410000Y-75690000D03*
X110410000Y-77990000D03*
X110410000Y-80290000D03*
D13*
X116610000Y-77990000D03*
%TD*%
D16*
%TO.C,R5*%
X67570000Y-86325000D03*
X67570000Y-87975000D03*
%TD*%
%TO.C,R3*%
X61180000Y-87115000D03*
X61180000Y-88765000D03*
%TD*%
D18*
%TO.C,Q8*%
X79480000Y-90970000D03*
X77180000Y-90970000D03*
X74880000Y-90970000D03*
D19*
X77180000Y-97170000D03*
%TD*%
D16*
%TO.C,R39*%
X118500000Y-49225000D03*
X118500000Y-50875000D03*
%TD*%
D17*
%TO.C,C41*%
X104050000Y-35760000D03*
X104050000Y-37310000D03*
%TD*%
D12*
%TO.C,Q16*%
X93000000Y-75168201D03*
X93000000Y-77468201D03*
X93000000Y-79768201D03*
D13*
X99200000Y-77468201D03*
%TD*%
D26*
%TO.C,CR15*%
X113277000Y-86800000D03*
X117220000Y-86800000D03*
%TD*%
D16*
%TO.C,R66*%
X92000000Y-41085000D03*
X92000000Y-42735000D03*
%TD*%
D26*
%TO.C,CR6*%
X73781500Y-28950000D03*
X69838500Y-28950000D03*
%TD*%
D11*
%TO.C,C19*%
X55000000Y-50800000D03*
X55000000Y-49250000D03*
%TD*%
D28*
%TO.C,C11*%
X55045000Y-67830000D03*
X53495000Y-67830000D03*
%TD*%
D12*
%TO.C,Q4*%
X82500000Y-40600000D03*
X82500000Y-38300000D03*
X82500000Y-36000000D03*
D13*
X76300000Y-38300000D03*
%TD*%
D20*
%TO.C,C13*%
X70855000Y-68800000D03*
X72405000Y-68800000D03*
%TD*%
D17*
%TO.C,C23*%
X101180000Y-63570000D03*
X101180000Y-65120000D03*
%TD*%
D32*
%TO.C,U6*%
X96162500Y-55880000D03*
X96162500Y-55230000D03*
X96162500Y-54580000D03*
X96162500Y-53930000D03*
X96162500Y-53280000D03*
X96162500Y-52630000D03*
X96162500Y-51980000D03*
X90392500Y-51980000D03*
X90392500Y-52630000D03*
X90392500Y-53280000D03*
X90392500Y-53930000D03*
X90392500Y-54580000D03*
X90392500Y-55230000D03*
X90392500Y-55880000D03*
%TD*%
%TO.C,U5*%
X112595000Y-66160000D03*
X112595000Y-65510000D03*
X112595000Y-64860000D03*
X112595000Y-64210000D03*
X112595000Y-63560000D03*
X112595000Y-62910000D03*
X112595000Y-62260000D03*
X106825000Y-62260000D03*
X106825000Y-62910000D03*
X106825000Y-63560000D03*
X106825000Y-64210000D03*
X106825000Y-64860000D03*
X106825000Y-65510000D03*
X106825000Y-66160000D03*
%TD*%
D33*
%TO.C,D2*%
X52000000Y-70537500D03*
X52000000Y-68962500D03*
%TD*%
D17*
%TO.C,C18*%
X59640000Y-49330000D03*
X59640000Y-50880000D03*
%TD*%
%TO.C,C38*%
X114800000Y-54460000D03*
X114800000Y-56010000D03*
%TD*%
%TO.C,C22*%
X99120000Y-64860000D03*
X99120000Y-66410000D03*
%TD*%
D18*
%TO.C,Q13*%
X110420000Y-90950000D03*
X108120000Y-90950000D03*
X105820000Y-90950000D03*
D19*
X108120000Y-97150000D03*
%TD*%
D28*
%TO.C,C70*%
X91975000Y-44450000D03*
X90425000Y-44450000D03*
%TD*%
D16*
%TO.C,R34*%
X99400000Y-32675000D03*
X99400000Y-34325000D03*
%TD*%
D14*
%TO.C,R6*%
X64980000Y-37645000D03*
X64980000Y-35995000D03*
%TD*%
M02*
