ISO-10303-21;
HEADER;
/* Generated by software containing ST-Developer
 * from STEP Tools, Inc. (www.steptools.com) 
 */
/* OPTION: using custom schema-name function */

FILE_DESCRIPTION(
/* description */ (''),
/* implementation_level */ '2;1');

FILE_NAME(
/* name */ 'EXLA.stp',
/* time_stamp */ '2026-03-07T17:01:50-06:00',
/* author */ (''),
/* organization */ (''),
/* preprocessor_version */ 'ST-DEVELOPER v19.4',
/* originating_system */ 'SIEMENS PLM Software NX2306.1700',
/* authorisation */ '');

FILE_SCHEMA (('AUTOMOTIVE_DESIGN { 1 0 10303 214 3 1 1 1 }'));
ENDSEC;

DATA;
#10=SHAPE_REPRESENTATION_RELATIONSHIP('None',
'relationship between EXLA-None and EXLA-None',#22,#11);
#11=ADVANCED_BREP_SHAPE_REPRESENTATION('EXLA-None',(#47,#48,#49),#501);
#12=SHAPE_DEFINITION_REPRESENTATION(#13,#22);
#13=PRODUCT_DEFINITION_SHAPE('','',#14);
#14=PRODUCT_DEFINITION(' ','',#16,#15);
#15=PRODUCT_DEFINITION_CONTEXT('part definition',#21,'design');
#16=PRODUCT_DEFINITION_FORMATION_WITH_SPECIFIED_SOURCE(' ',' ',#18,
 .NOT_KNOWN.);
#17=PRODUCT_RELATED_PRODUCT_CATEGORY('part','',(#18));
#18=PRODUCT('EXLA','EXLA',' ',(#19));
#19=PRODUCT_CONTEXT(' ',#21,'mechanical');
#20=APPLICATION_PROTOCOL_DEFINITION('international standard',
'automotive_design',2010,#21);
#21=APPLICATION_CONTEXT(
'core data for automotive mechanical design processes');
#22=SHAPE_REPRESENTATION('EXLA-None',(#329),#501);
#23=PRESENTATION_LAYER_ASSIGNMENT('1','Layer 1',(#47,#48,#49));
#24=STYLED_ITEM('',(#27),#47);
#25=STYLED_ITEM('',(#28),#48);
#26=STYLED_ITEM('',(#29),#49);
#27=PRESENTATION_STYLE_ASSIGNMENT((#30));
#28=PRESENTATION_STYLE_ASSIGNMENT((#31));
#29=PRESENTATION_STYLE_ASSIGNMENT((#32));
#30=SURFACE_STYLE_USAGE(.BOTH.,#33);
#31=SURFACE_STYLE_USAGE(.BOTH.,#34);
#32=SURFACE_STYLE_USAGE(.BOTH.,#35);
#33=SURFACE_SIDE_STYLE('',(#36));
#34=SURFACE_SIDE_STYLE('',(#37));
#35=SURFACE_SIDE_STYLE('',(#38));
#36=SURFACE_STYLE_FILL_AREA(#39);
#37=SURFACE_STYLE_FILL_AREA(#40);
#38=SURFACE_STYLE_FILL_AREA(#41);
#39=FILL_AREA_STYLE('',(#42));
#40=FILL_AREA_STYLE('',(#43));
#41=FILL_AREA_STYLE('',(#44));
#42=FILL_AREA_STYLE_COLOUR('',#45);
#43=FILL_AREA_STYLE_COLOUR('',#46);
#44=FILL_AREA_STYLE_COLOUR('',#46);
#45=COLOUR_RGB('iron gray',0.298039215686275,0.298039215686275,0.298039215686275);
#46=COLOUR_RGB('medium steel',0.611764705882353,0.658823529411765,0.670588235294118);
#47=MANIFOLD_SOLID_BREP('',#50);
#48=MANIFOLD_SOLID_BREP('',#51);
#49=MANIFOLD_SOLID_BREP('',#52);
#50=CLOSED_SHELL('',(#53,#54,#55,#56,#57,#58));
#51=CLOSED_SHELL('',(#59,#60,#61,#62,#63,#64));
#52=CLOSED_SHELL('',(#65,#66,#67,#68,#69,#70));
#53=ADVANCED_FACE('',(#89),#71,.F.);
#54=ADVANCED_FACE('',(#90),#72,.F.);
#55=ADVANCED_FACE('',(#91),#73,.F.);
#56=ADVANCED_FACE('',(#92),#74,.F.);
#57=ADVANCED_FACE('',(#93),#75,.T.);
#58=ADVANCED_FACE('',(#94),#76,.F.);
#59=ADVANCED_FACE('',(#95),#77,.F.);
#60=ADVANCED_FACE('',(#96),#78,.F.);
#61=ADVANCED_FACE('',(#97),#79,.F.);
#62=ADVANCED_FACE('',(#98),#80,.F.);
#63=ADVANCED_FACE('',(#99),#81,.T.);
#64=ADVANCED_FACE('',(#100),#82,.F.);
#65=ADVANCED_FACE('',(#101),#83,.F.);
#66=ADVANCED_FACE('',(#102),#84,.F.);
#67=ADVANCED_FACE('',(#103),#85,.F.);
#68=ADVANCED_FACE('',(#104),#86,.F.);
#69=ADVANCED_FACE('',(#105),#87,.T.);
#70=ADVANCED_FACE('',(#106),#88,.F.);
#71=PLANE('',#330);
#72=PLANE('',#331);
#73=PLANE('',#332);
#74=PLANE('',#333);
#75=PLANE('',#334);
#76=PLANE('',#335);
#77=PLANE('',#336);
#78=PLANE('',#337);
#79=PLANE('',#338);
#80=PLANE('',#339);
#81=PLANE('',#340);
#82=PLANE('',#341);
#83=PLANE('',#342);
#84=PLANE('',#343);
#85=PLANE('',#344);
#86=PLANE('',#345);
#87=PLANE('',#346);
#88=PLANE('',#347);
#89=FACE_OUTER_BOUND('',#107,.T.);
#90=FACE_OUTER_BOUND('',#108,.T.);
#91=FACE_OUTER_BOUND('',#109,.T.);
#92=FACE_OUTER_BOUND('',#110,.T.);
#93=FACE_OUTER_BOUND('',#111,.T.);
#94=FACE_OUTER_BOUND('',#112,.T.);
#95=FACE_OUTER_BOUND('',#113,.T.);
#96=FACE_OUTER_BOUND('',#114,.T.);
#97=FACE_OUTER_BOUND('',#115,.T.);
#98=FACE_OUTER_BOUND('',#116,.T.);
#99=FACE_OUTER_BOUND('',#117,.T.);
#100=FACE_OUTER_BOUND('',#118,.T.);
#101=FACE_OUTER_BOUND('',#119,.T.);
#102=FACE_OUTER_BOUND('',#120,.T.);
#103=FACE_OUTER_BOUND('',#121,.T.);
#104=FACE_OUTER_BOUND('',#122,.T.);
#105=FACE_OUTER_BOUND('',#123,.T.);
#106=FACE_OUTER_BOUND('',#124,.T.);
#107=EDGE_LOOP('',(#125,#126,#127,#128));
#108=EDGE_LOOP('',(#129,#130,#131,#132));
#109=EDGE_LOOP('',(#133,#134,#135,#136));
#110=EDGE_LOOP('',(#137,#138,#139,#140));
#111=EDGE_LOOP('',(#141,#142,#143,#144));
#112=EDGE_LOOP('',(#145,#146,#147,#148));
#113=EDGE_LOOP('',(#149,#150,#151,#152));
#114=EDGE_LOOP('',(#153,#154,#155,#156));
#115=EDGE_LOOP('',(#157,#158,#159,#160));
#116=EDGE_LOOP('',(#161,#162,#163,#164));
#117=EDGE_LOOP('',(#165,#166,#167,#168));
#118=EDGE_LOOP('',(#169,#170,#171,#172));
#119=EDGE_LOOP('',(#173,#174,#175,#176));
#120=EDGE_LOOP('',(#177,#178,#179,#180));
#121=EDGE_LOOP('',(#181,#182,#183,#184));
#122=EDGE_LOOP('',(#185,#186,#187,#188));
#123=EDGE_LOOP('',(#189,#190,#191,#192));
#124=EDGE_LOOP('',(#193,#194,#195,#196));
#125=ORIENTED_EDGE('',*,*,#221,.T.);
#126=ORIENTED_EDGE('',*,*,#222,.F.);
#127=ORIENTED_EDGE('',*,*,#223,.F.);
#128=ORIENTED_EDGE('',*,*,#224,.T.);
#129=ORIENTED_EDGE('',*,*,#225,.T.);
#130=ORIENTED_EDGE('',*,*,#226,.F.);
#131=ORIENTED_EDGE('',*,*,#227,.F.);
#132=ORIENTED_EDGE('',*,*,#222,.T.);
#133=ORIENTED_EDGE('',*,*,#228,.T.);
#134=ORIENTED_EDGE('',*,*,#229,.F.);
#135=ORIENTED_EDGE('',*,*,#230,.F.);
#136=ORIENTED_EDGE('',*,*,#226,.T.);
#137=ORIENTED_EDGE('',*,*,#231,.T.);
#138=ORIENTED_EDGE('',*,*,#224,.F.);
#139=ORIENTED_EDGE('',*,*,#232,.F.);
#140=ORIENTED_EDGE('',*,*,#229,.T.);
#141=ORIENTED_EDGE('',*,*,#223,.T.);
#142=ORIENTED_EDGE('',*,*,#227,.T.);
#143=ORIENTED_EDGE('',*,*,#230,.T.);
#144=ORIENTED_EDGE('',*,*,#232,.T.);
#145=ORIENTED_EDGE('',*,*,#221,.F.);
#146=ORIENTED_EDGE('',*,*,#231,.F.);
#147=ORIENTED_EDGE('',*,*,#228,.F.);
#148=ORIENTED_EDGE('',*,*,#225,.F.);
#149=ORIENTED_EDGE('',*,*,#233,.T.);
#150=ORIENTED_EDGE('',*,*,#234,.F.);
#151=ORIENTED_EDGE('',*,*,#235,.F.);
#152=ORIENTED_EDGE('',*,*,#236,.T.);
#153=ORIENTED_EDGE('',*,*,#237,.T.);
#154=ORIENTED_EDGE('',*,*,#238,.F.);
#155=ORIENTED_EDGE('',*,*,#239,.F.);
#156=ORIENTED_EDGE('',*,*,#234,.T.);
#157=ORIENTED_EDGE('',*,*,#240,.T.);
#158=ORIENTED_EDGE('',*,*,#241,.F.);
#159=ORIENTED_EDGE('',*,*,#242,.F.);
#160=ORIENTED_EDGE('',*,*,#238,.T.);
#161=ORIENTED_EDGE('',*,*,#243,.T.);
#162=ORIENTED_EDGE('',*,*,#236,.F.);
#163=ORIENTED_EDGE('',*,*,#244,.F.);
#164=ORIENTED_EDGE('',*,*,#241,.T.);
#165=ORIENTED_EDGE('',*,*,#235,.T.);
#166=ORIENTED_EDGE('',*,*,#239,.T.);
#167=ORIENTED_EDGE('',*,*,#242,.T.);
#168=ORIENTED_EDGE('',*,*,#244,.T.);
#169=ORIENTED_EDGE('',*,*,#233,.F.);
#170=ORIENTED_EDGE('',*,*,#243,.F.);
#171=ORIENTED_EDGE('',*,*,#240,.F.);
#172=ORIENTED_EDGE('',*,*,#237,.F.);
#173=ORIENTED_EDGE('',*,*,#245,.T.);
#174=ORIENTED_EDGE('',*,*,#246,.F.);
#175=ORIENTED_EDGE('',*,*,#247,.F.);
#176=ORIENTED_EDGE('',*,*,#248,.T.);
#177=ORIENTED_EDGE('',*,*,#249,.T.);
#178=ORIENTED_EDGE('',*,*,#250,.F.);
#179=ORIENTED_EDGE('',*,*,#251,.F.);
#180=ORIENTED_EDGE('',*,*,#246,.T.);
#181=ORIENTED_EDGE('',*,*,#252,.T.);
#182=ORIENTED_EDGE('',*,*,#253,.F.);
#183=ORIENTED_EDGE('',*,*,#254,.F.);
#184=ORIENTED_EDGE('',*,*,#250,.T.);
#185=ORIENTED_EDGE('',*,*,#255,.T.);
#186=ORIENTED_EDGE('',*,*,#248,.F.);
#187=ORIENTED_EDGE('',*,*,#256,.F.);
#188=ORIENTED_EDGE('',*,*,#253,.T.);
#189=ORIENTED_EDGE('',*,*,#247,.T.);
#190=ORIENTED_EDGE('',*,*,#251,.T.);
#191=ORIENTED_EDGE('',*,*,#254,.T.);
#192=ORIENTED_EDGE('',*,*,#256,.T.);
#193=ORIENTED_EDGE('',*,*,#245,.F.);
#194=ORIENTED_EDGE('',*,*,#255,.F.);
#195=ORIENTED_EDGE('',*,*,#252,.F.);
#196=ORIENTED_EDGE('',*,*,#249,.F.);
#197=VERTEX_POINT('',#424);
#198=VERTEX_POINT('',#425);
#199=VERTEX_POINT('',#427);
#200=VERTEX_POINT('',#429);
#201=VERTEX_POINT('',#433);
#202=VERTEX_POINT('',#435);
#203=VERTEX_POINT('',#439);
#204=VERTEX_POINT('',#441);
#205=VERTEX_POINT('',#450);
#206=VERTEX_POINT('',#451);
#207=VERTEX_POINT('',#453);
#208=VERTEX_POINT('',#455);
#209=VERTEX_POINT('',#459);
#210=VERTEX_POINT('',#461);
#211=VERTEX_POINT('',#465);
#212=VERTEX_POINT('',#467);
#213=VERTEX_POINT('',#476);
#214=VERTEX_POINT('',#477);
#215=VERTEX_POINT('',#479);
#216=VERTEX_POINT('',#481);
#217=VERTEX_POINT('',#485);
#218=VERTEX_POINT('',#487);
#219=VERTEX_POINT('',#491);
#220=VERTEX_POINT('',#493);
#221=EDGE_CURVE('',#197,#198,#257,.T.);
#222=EDGE_CURVE('',#199,#198,#258,.T.);
#223=EDGE_CURVE('',#200,#199,#259,.T.);
#224=EDGE_CURVE('',#200,#197,#260,.T.);
#225=EDGE_CURVE('',#198,#201,#261,.T.);
#226=EDGE_CURVE('',#202,#201,#262,.T.);
#227=EDGE_CURVE('',#199,#202,#263,.T.);
#228=EDGE_CURVE('',#201,#203,#264,.T.);
#229=EDGE_CURVE('',#204,#203,#265,.T.);
#230=EDGE_CURVE('',#202,#204,#266,.T.);
#231=EDGE_CURVE('',#203,#197,#267,.T.);
#232=EDGE_CURVE('',#204,#200,#268,.T.);
#233=EDGE_CURVE('',#205,#206,#269,.T.);
#234=EDGE_CURVE('',#207,#206,#270,.T.);
#235=EDGE_CURVE('',#208,#207,#271,.T.);
#236=EDGE_CURVE('',#208,#205,#272,.T.);
#237=EDGE_CURVE('',#206,#209,#273,.T.);
#238=EDGE_CURVE('',#210,#209,#274,.T.);
#239=EDGE_CURVE('',#207,#210,#275,.T.);
#240=EDGE_CURVE('',#209,#211,#276,.T.);
#241=EDGE_CURVE('',#212,#211,#277,.T.);
#242=EDGE_CURVE('',#210,#212,#278,.T.);
#243=EDGE_CURVE('',#211,#205,#279,.T.);
#244=EDGE_CURVE('',#212,#208,#280,.T.);
#245=EDGE_CURVE('',#213,#214,#281,.T.);
#246=EDGE_CURVE('',#215,#214,#282,.T.);
#247=EDGE_CURVE('',#216,#215,#283,.T.);
#248=EDGE_CURVE('',#216,#213,#284,.T.);
#249=EDGE_CURVE('',#214,#217,#285,.T.);
#250=EDGE_CURVE('',#218,#217,#286,.T.);
#251=EDGE_CURVE('',#215,#218,#287,.T.);
#252=EDGE_CURVE('',#217,#219,#288,.T.);
#253=EDGE_CURVE('',#220,#219,#289,.T.);
#254=EDGE_CURVE('',#218,#220,#290,.T.);
#255=EDGE_CURVE('',#219,#213,#291,.T.);
#256=EDGE_CURVE('',#220,#216,#292,.T.);
#257=LINE('',#423,#293);
#258=LINE('',#426,#294);
#259=LINE('',#428,#295);
#260=LINE('',#430,#296);
#261=LINE('',#432,#297);
#262=LINE('',#434,#298);
#263=LINE('',#436,#299);
#264=LINE('',#438,#300);
#265=LINE('',#440,#301);
#266=LINE('',#442,#302);
#267=LINE('',#444,#303);
#268=LINE('',#445,#304);
#269=LINE('',#449,#305);
#270=LINE('',#452,#306);
#271=LINE('',#454,#307);
#272=LINE('',#456,#308);
#273=LINE('',#458,#309);
#274=LINE('',#460,#310);
#275=LINE('',#462,#311);
#276=LINE('',#464,#312);
#277=LINE('',#466,#313);
#278=LINE('',#468,#314);
#279=LINE('',#470,#315);
#280=LINE('',#471,#316);
#281=LINE('',#475,#317);
#282=LINE('',#478,#318);
#283=LINE('',#480,#319);
#284=LINE('',#482,#320);
#285=LINE('',#484,#321);
#286=LINE('',#486,#322);
#287=LINE('',#488,#323);
#288=LINE('',#490,#324);
#289=LINE('',#492,#325);
#290=LINE('',#494,#326);
#291=LINE('',#496,#327);
#292=LINE('',#497,#328);
#293=VECTOR('',#350,1.);
#294=VECTOR('',#351,1.);
#295=VECTOR('',#352,1.);
#296=VECTOR('',#353,1.);
#297=VECTOR('',#356,1.);
#298=VECTOR('',#357,1.);
#299=VECTOR('',#358,1.);
#300=VECTOR('',#361,1.);
#301=VECTOR('',#362,1.);
#302=VECTOR('',#363,1.);
#303=VECTOR('',#366,1.);
#304=VECTOR('',#367,1.);
#305=VECTOR('',#374,1.);
#306=VECTOR('',#375,1.);
#307=VECTOR('',#376,1.);
#308=VECTOR('',#377,1.);
#309=VECTOR('',#380,1.);
#310=VECTOR('',#381,1.);
#311=VECTOR('',#382,1.);
#312=VECTOR('',#385,1.);
#313=VECTOR('',#386,1.);
#314=VECTOR('',#387,1.);
#315=VECTOR('',#390,1.);
#316=VECTOR('',#391,1.);
#317=VECTOR('',#398,1.);
#318=VECTOR('',#399,1.);
#319=VECTOR('',#400,1.);
#320=VECTOR('',#401,1.);
#321=VECTOR('',#404,1.);
#322=VECTOR('',#405,1.);
#323=VECTOR('',#406,1.);
#324=VECTOR('',#409,1.);
#325=VECTOR('',#410,1.);
#326=VECTOR('',#411,1.);
#327=VECTOR('',#414,1.);
#328=VECTOR('',#415,1.);
#329=AXIS2_PLACEMENT_3D('',#422,#348,#349);
#330=AXIS2_PLACEMENT_3D('',#431,#354,#355);
#331=AXIS2_PLACEMENT_3D('',#437,#359,#360);
#332=AXIS2_PLACEMENT_3D('',#443,#364,#365);
#333=AXIS2_PLACEMENT_3D('',#446,#368,#369);
#334=AXIS2_PLACEMENT_3D('',#447,#370,#371);
#335=AXIS2_PLACEMENT_3D('',#448,#372,#373);
#336=AXIS2_PLACEMENT_3D('',#457,#378,#379);
#337=AXIS2_PLACEMENT_3D('',#463,#383,#384);
#338=AXIS2_PLACEMENT_3D('',#469,#388,#389);
#339=AXIS2_PLACEMENT_3D('',#472,#392,#393);
#340=AXIS2_PLACEMENT_3D('',#473,#394,#395);
#341=AXIS2_PLACEMENT_3D('',#474,#396,#397);
#342=AXIS2_PLACEMENT_3D('',#483,#402,#403);
#343=AXIS2_PLACEMENT_3D('',#489,#407,#408);
#344=AXIS2_PLACEMENT_3D('',#495,#412,#413);
#345=AXIS2_PLACEMENT_3D('',#498,#416,#417);
#346=AXIS2_PLACEMENT_3D('',#499,#418,#419);
#347=AXIS2_PLACEMENT_3D('',#500,#420,#421);
#348=DIRECTION('',(0.,0.,1.));
#349=DIRECTION('',(1.,0.,0.));
#350=DIRECTION('',(1.,-1.01064309961486E-15,0.));
#351=DIRECTION('',(0.,0.,-1.));
#352=DIRECTION('',(1.,-1.01064309961486E-15,0.));
#353=DIRECTION('',(0.,0.,-1.));
#354=DIRECTION('',(1.01064309961486E-15,1.,0.));
#355=DIRECTION('',(-1.,1.01064309961486E-15,0.));
#356=DIRECTION('',(1.97127667724637E-15,1.,0.));
#357=DIRECTION('',(0.,0.,-1.));
#358=DIRECTION('',(1.97127667724637E-15,1.,0.));
#359=DIRECTION('',(-1.,1.97127667724637E-15,0.));
#360=DIRECTION('',(-1.97151323044764E-15,-1.,0.));
#361=DIRECTION('',(-1.,0.,0.));
#362=DIRECTION('',(0.,0.,-1.));
#363=DIRECTION('',(-1.,0.,0.));
#364=DIRECTION('',(0.,-1.,0.));
#365=DIRECTION('',(0.,0.,-1.));
#366=DIRECTION('',(-1.17145536458252E-15,-1.,0.));
#367=DIRECTION('',(-1.17145536458252E-15,-1.,0.));
#368=DIRECTION('',(1.,-1.17145536458252E-15,0.));
#369=DIRECTION('',(1.17145536458252E-15,1.,0.));
#370=DIRECTION('',(0.,0.,1.));
#371=DIRECTION('',(1.,0.,0.));
#372=DIRECTION('',(0.,0.,1.));
#373=DIRECTION('',(1.,0.,0.));
#374=DIRECTION('',(0.,1.,0.));
#375=DIRECTION('',(0.,0.,1.));
#376=DIRECTION('',(0.,1.,0.));
#377=DIRECTION('',(0.,0.,1.));
#378=DIRECTION('',(1.,0.,0.));
#379=DIRECTION('',(0.,0.,-1.));
#380=DIRECTION('',(1.,0.,0.));
#381=DIRECTION('',(0.,0.,1.));
#382=DIRECTION('',(1.,0.,0.));
#383=DIRECTION('',(0.,-1.,0.));
#384=DIRECTION('',(0.,0.,-1.));
#385=DIRECTION('',(0.,-1.,0.));
#386=DIRECTION('',(0.,0.,1.));
#387=DIRECTION('',(0.,-1.,0.));
#388=DIRECTION('',(-1.,0.,0.));
#389=DIRECTION('',(0.,0.,1.));
#390=DIRECTION('',(-1.,0.,0.));
#391=DIRECTION('',(-1.,0.,0.));
#392=DIRECTION('',(0.,1.,0.));
#393=DIRECTION('',(0.,0.,1.));
#394=DIRECTION('',(0.,0.,-1.));
#395=DIRECTION('',(-1.,0.,0.));
#396=DIRECTION('',(0.,0.,-1.));
#397=DIRECTION('',(-1.,0.,0.));
#398=DIRECTION('',(-3.95414909965301E-15,1.,0.));
#399=DIRECTION('',(0.,0.,1.));
#400=DIRECTION('',(-3.95414909965301E-15,1.,0.));
#401=DIRECTION('',(0.,0.,1.));
#402=DIRECTION('',(1.,3.95414909965301E-15,0.));
#403=DIRECTION('',(-3.95430216348913E-15,1.,0.));
#404=DIRECTION('',(1.,3.46944695195361E-15,0.));
#405=DIRECTION('',(0.,0.,1.));
#406=DIRECTION('',(1.,3.46944695195361E-15,0.));
#407=DIRECTION('',(3.46944695195361E-15,-1.,0.));
#408=DIRECTION('',(1.,3.46944695195361E-15,0.));
#409=DIRECTION('',(3.82659590289001E-15,-1.,0.));
#410=DIRECTION('',(0.,0.,1.));
#411=DIRECTION('',(3.82659590289001E-15,-1.,0.));
#412=DIRECTION('',(-1.,-3.82659590289001E-15,0.));
#413=DIRECTION('',(3.82679998800484E-15,-1.,0.));
#414=DIRECTION('',(-1.,-3.79470760369927E-15,0.));
#415=DIRECTION('',(-1.,-3.79470760369927E-15,0.));
#416=DIRECTION('',(-3.79470760369927E-15,1.,0.));
#417=DIRECTION('',(-1.,-3.79470760369927E-15,0.));
#418=DIRECTION('',(0.,0.,-1.));
#419=DIRECTION('',(-1.,0.,0.));
#420=DIRECTION('',(0.,0.,-1.));
#421=DIRECTION('',(-1.,0.,0.));
#422=CARTESIAN_POINT('',(0.,0.,0.));
#423=CARTESIAN_POINT('',(0.,4.44682963830538E-15,0.));
#424=CARTESIAN_POINT('',(0.,4.44682963830538E-15,0.));
#425=CARTESIAN_POINT('',(4.4,0.,0.));
#426=CARTESIAN_POINT('',(4.4,0.,2.05));
#427=CARTESIAN_POINT('',(4.4,0.,2.05));
#428=CARTESIAN_POINT('',(0.,4.44682963830538E-15,2.05));
#429=CARTESIAN_POINT('',(0.,4.44682963830538E-15,2.05));
#430=CARTESIAN_POINT('',(0.,4.44682963830538E-15,2.05));
#431=CARTESIAN_POINT('',(0.,4.44682963830538E-15,2.05));
#432=CARTESIAN_POINT('',(4.4,0.,0.));
#433=CARTESIAN_POINT('',(4.40000000000001,4.4,0.));
#434=CARTESIAN_POINT('',(4.40000000000001,4.4,2.05));
#435=CARTESIAN_POINT('',(4.40000000000001,4.4,2.05));
#436=CARTESIAN_POINT('',(4.4,0.,2.05));
#437=CARTESIAN_POINT('',(4.4,0.,2.05));
#438=CARTESIAN_POINT('',(4.40000000000001,4.4,0.));
#439=CARTESIAN_POINT('',(5.20417042793042E-15,4.4,0.));
#440=CARTESIAN_POINT('',(5.20417042793042E-15,4.4,2.05));
#441=CARTESIAN_POINT('',(5.20417042793042E-15,4.4,2.05));
#442=CARTESIAN_POINT('',(4.40000000000001,4.4,2.05));
#443=CARTESIAN_POINT('',(4.40000000000001,4.4,2.05));
#444=CARTESIAN_POINT('',(5.15440360416311E-15,4.4,0.));
#445=CARTESIAN_POINT('',(5.15440360416311E-15,4.4,2.05));
#446=CARTESIAN_POINT('',(5.15440360416311E-15,4.4,2.05));
#447=CARTESIAN_POINT('',(0.,0.,2.05));
#448=CARTESIAN_POINT('',(0.,0.,0.));
#449=CARTESIAN_POINT('',(0.525,0.500000000000004,0.));
#450=CARTESIAN_POINT('',(0.525,0.500000000000004,0.));
#451=CARTESIAN_POINT('',(0.525,3.90000000000001,0.));
#452=CARTESIAN_POINT('',(0.525,3.90000000000001,-0.05));
#453=CARTESIAN_POINT('',(0.525,3.90000000000001,-0.05));
#454=CARTESIAN_POINT('',(0.525,0.500000000000004,-0.05));
#455=CARTESIAN_POINT('',(0.525,0.500000000000004,-0.05));
#456=CARTESIAN_POINT('',(0.525,0.500000000000004,-0.05));
#457=CARTESIAN_POINT('',(0.525,0.500000000000004,-0.05));
#458=CARTESIAN_POINT('',(0.525,3.90000000000001,0.));
#459=CARTESIAN_POINT('',(1.525,3.90000000000001,0.));
#460=CARTESIAN_POINT('',(1.525,3.90000000000001,-0.05));
#461=CARTESIAN_POINT('',(1.525,3.90000000000001,-0.05));
#462=CARTESIAN_POINT('',(0.525,3.90000000000001,-0.05));
#463=CARTESIAN_POINT('',(0.525,3.90000000000001,-0.05));
#464=CARTESIAN_POINT('',(1.525,3.90000000000001,0.));
#465=CARTESIAN_POINT('',(1.525,0.500000000000004,0.));
#466=CARTESIAN_POINT('',(1.525,0.500000000000004,-0.05));
#467=CARTESIAN_POINT('',(1.525,0.500000000000004,-0.05));
#468=CARTESIAN_POINT('',(1.525,3.90000000000001,-0.05));
#469=CARTESIAN_POINT('',(1.525,3.90000000000001,-0.05));
#470=CARTESIAN_POINT('',(1.525,0.500000000000004,0.));
#471=CARTESIAN_POINT('',(1.525,0.500000000000004,-0.05));
#472=CARTESIAN_POINT('',(1.525,0.500000000000004,-0.05));
#473=CARTESIAN_POINT('',(0.,0.,-0.05));
#474=CARTESIAN_POINT('',(0.,0.,0.));
#475=CARTESIAN_POINT('',(2.875,0.500000000000007,0.));
#476=CARTESIAN_POINT('',(2.875,0.500000000000007,0.));
#477=CARTESIAN_POINT('',(2.87499999999998,3.90000000000001,0.));
#478=CARTESIAN_POINT('',(2.87499999999998,3.90000000000001,-0.05));
#479=CARTESIAN_POINT('',(2.87499999999998,3.90000000000001,-0.05));
#480=CARTESIAN_POINT('',(2.875,0.500000000000007,-0.05));
#481=CARTESIAN_POINT('',(2.875,0.500000000000007,-0.05));
#482=CARTESIAN_POINT('',(2.875,0.500000000000007,-0.05));
#483=CARTESIAN_POINT('',(2.875,0.500000000000007,-0.05));
#484=CARTESIAN_POINT('',(2.87499999999998,3.90000000000001,0.));
#485=CARTESIAN_POINT('',(3.87499999999998,3.90000000000001,0.));
#486=CARTESIAN_POINT('',(3.87499999999998,3.90000000000001,-0.05));
#487=CARTESIAN_POINT('',(3.87499999999998,3.90000000000001,-0.05));
#488=CARTESIAN_POINT('',(2.87499999999998,3.90000000000001,-0.05));
#489=CARTESIAN_POINT('',(2.87499999999998,3.90000000000001,-0.05));
#490=CARTESIAN_POINT('',(3.87499999999998,3.90000000000001,0.));
#491=CARTESIAN_POINT('',(3.87499999999999,0.500000000000011,0.));
#492=CARTESIAN_POINT('',(3.87499999999999,0.500000000000011,-0.05));
#493=CARTESIAN_POINT('',(3.87499999999999,0.500000000000011,-0.05));
#494=CARTESIAN_POINT('',(3.87499999999998,3.90000000000001,-0.05));
#495=CARTESIAN_POINT('',(3.87499999999998,3.90000000000001,-0.05));
#496=CARTESIAN_POINT('',(3.87499999999999,0.500000000000011,0.));
#497=CARTESIAN_POINT('',(3.87499999999999,0.500000000000011,-0.05));
#498=CARTESIAN_POINT('',(3.87499999999999,0.500000000000011,-0.05));
#499=CARTESIAN_POINT('',(0.,0.,-0.05));
#500=CARTESIAN_POINT('',(0.,0.,0.));
#501=(
GEOMETRIC_REPRESENTATION_CONTEXT(3)
GLOBAL_UNCERTAINTY_ASSIGNED_CONTEXT((#502))
GLOBAL_UNIT_ASSIGNED_CONTEXT((#508,#504,#503))
REPRESENTATION_CONTEXT('EXLA','TOP_LEVEL_ASSEMBLY_PART')
);
#502=UNCERTAINTY_MEASURE_WITH_UNIT(LENGTH_MEASURE(2.E-5),#508,
'DISTANCE_ACCURACY_VALUE','Maximum Tolerance applied to model');
#503=(
NAMED_UNIT(*)
SI_UNIT($,.STERADIAN.)
SOLID_ANGLE_UNIT()
);
#504=(
CONVERSION_BASED_UNIT('DEGREE',#506)
NAMED_UNIT(#505)
PLANE_ANGLE_UNIT()
);
#505=DIMENSIONAL_EXPONENTS(0.,0.,0.,0.,0.,0.,0.);
#506=PLANE_ANGLE_MEASURE_WITH_UNIT(PLANE_ANGLE_MEASURE(0.0174532925),#507);
#507=(
NAMED_UNIT(*)
PLANE_ANGLE_UNIT()
SI_UNIT($,.RADIAN.)
);
#508=(
LENGTH_UNIT()
NAMED_UNIT(*)
SI_UNIT(.MILLI.,.METRE.)
);
ENDSEC;
END-ISO-10303-21;
